<svg xmlns="http://www.w3.org/2000/svg" xmlns:xlink="http://www.w3.org/1999/xlink" version="1.1" viewBox="0 0 3140 3519" style="background: #ffffff"><defs><style>@import url(https://fonts.googleapis.com/css?family=Open+Sans:400,700);</style></defs><defs joint-selector="defs"></defs><g joint-selector="layers"  transform="matrix(1,0,0,1,0,0)"><g ></g><g ><!--z-index:0--><!--z-index:1--><!--z-index:2--><!--z-index:3--><!--z-index:4--><!--z-index:5--><!--z-index:6--><!--z-index:7--><!--z-index:8--><!--z-index:9--><!--z-index:10--><!--z-index:11--><!--z-index:12--><!--z-index:13--><!--z-index:14--><!--z-index:15--><!--z-index:16--><!--z-index:17--><!--z-index:18--><!--z-index:19--><!--z-index:20--><!--z-index:21--><!--z-index:22--><!--z-index:23--><g   id="j_3"  transform="translate(20,3477)"><g id="v-7"><text  id="v-8" font-size="22px" xml:space="preserve" y="0.8em" font-weight="normal" text-anchor="start" fill="#444444" pointer-events="none" display="block" font-family="Open Sans"><tspan dy="0"  display="block">sábado, 11 de octubre de 2025, 21:27 hora estándar de Perú</tspan></text></g></g><!--z-index:24--><g   id="j_2"  transform="translate(20,3445)"><g id="v-5"><text  id="v-6" font-size="22px" xml:space="preserve" y="0.8em" font-weight="normal" text-anchor="start" fill="#444444" pointer-events="none" display="block" font-family="Open Sans"><tspan dy="0"  display="block">Todos los Componentes - NEXUS Arquitectura Híbrida</tspan></text></g></g><!--z-index:25--><g   id="j_1"  transform="translate(20,3399)"><g id="v-3"><text  id="v-4" font-size="36px" xml:space="preserve" y="0.8em" font-weight="normal" text-anchor="start" fill="#444444" pointer-events="none" display="block" font-family="Open Sans"><tspan dy="0"  display="block">[Container] NEXUS</tspan></text></g></g><!--z-index:26--><g   id="j_5"  transform="translate(199,144)" style=""><g id="v-22"><rect  id="v-23" width="2740" height="3119" rx="0" ry="0" stroke-width="2" stroke-dasharray="20,20" pointer-events="none" stroke="#0000ff" fill="#ffffff"></rect><text  id="v-24" font-size="24px" xml:space="preserve" y="3080" font-weight="normal" text-anchor="start" pointer-events="visible" font-family="Open Sans" fill="#0000ff" transform="matrix(1,0,0,1,15,0)"><tspan dy="0" >NEXUS</tspan></text><text  id="v-25" font-size="17px" xml:space="preserve" y="3104" font-weight="normal" text-anchor="start" pointer-events="visible" font-family="Open Sans" fill="#0000ff" transform="matrix(1,0,0,1,15,0)"><tspan dy="0" >[Software System]</tspan></text><image  id="v-26" pointer-events="visible"></image></g></g><!--z-index:27--><g   id="j_4"  transform="translate(219,2272)" style=""><g  id="v-15" style="opacity: 1;"><rect  id="v-16" rx="1" ry="1" stroke-width="2" pointer-events="visiblePainted" fill="#ffffff" stroke="#000080" width="450" height="300" style="fill: rgb(255, 255, 255); stroke: rgb(0, 0, 128);"></rect><text  id="v-17" font-size="34" xml:space="preserve" y="86.6" font-weight="bold" text-anchor="middle" pointer-events="visible" font-family="Open Sans" fill="#0066cc" dominant-baseline="hanging" transform="matrix(1,0,0,1,225,0)" style="fill: rgb(0, 102, 204);"><tspan dy="0" >Aplicación React Native</tspan></text><text  id="v-18" font-size="17" xml:space="preserve" y="128.6" text-anchor="middle" font-family="Open Sans" fill="#0066cc" dominant-baseline="hanging" transform="matrix(1,0,0,1,225,0)" style="display: block; fill: rgb(0, 102, 204);"><tspan dy="0" >[Container: React Native/Expo]</tspan></text><text  id="v-19" font-size="24" xml:space="preserve" y="160.6" text-anchor="middle" font-family="Open Sans" fill="#0066cc" dominant-baseline="hanging" transform="matrix(1,0,0,1,225,0)" style="display: block; fill: rgb(0, 102, 204);"><tspan dy="0" >Aplicación multiplataforma iOS y</tspan><tspan dy="1.2em" x="0" >Android</tspan></text><g  id="v-20" color="#0066cc" transform="matrix(1,0,0,1,210,268)" display="none" style="fill: rgb(0, 102, 204);"><g  transform="translate(5 0)"><svg xmlns="http://www.w3.org/2000/svg" width="20" height="20" fill="currentColor" viewBox="0 0 16 16"><path fill-rule="evenodd" d="M6.5 12a5.5 5.5 0 1 0 0-11 5.5 5.5 0 0 0 0 11zM13 6.5a6.5 6.5 0 1 1-13 0 6.5 6.5 0 0 1 13 0z"></path><path d="M10.344 11.742c.03.04.062.078.098.115l3.85 3.85a1 1 0 0 0 1.415-1.414l-3.85-3.85a1.007 1.007 0 0 0-.115-.1 6.538 6.538 0 0 1-1.398 1.4z"></path><path fill-rule="evenodd" d="M6.5 3a.5.5 0 0 1 .5.5V6h2.5a.5.5 0 0 1 0 1H7v2.5a.5.5 0 0 1-1 0V7H3.5a.5.5 0 0 1 0-1H6V3.5a.5.5 0 0 1 .5-.5z"></path></svg></g><g ></g><g ></g><g ></g></g><image  id="v-21"></image></g></g><!--z-index:28--><g   id="j_6"  transform="translate(969,1818)" style=""><g  id="v-30" style="opacity: 1;"><rect  id="v-31" rx="1" ry="1" stroke-width="2" pointer-events="visiblePainted" fill="#ffffff" stroke="#000080" width="450" height="300" style="fill: rgb(255, 255, 255); stroke: rgb(0, 0, 128);"></rect><text  id="v-32" font-size="34" xml:space="preserve" y="86.6" font-weight="bold" text-anchor="middle" pointer-events="visible" font-family="Open Sans" fill="#0066cc" dominant-baseline="hanging" transform="matrix(1,0,0,1,225,0)" style="fill: rgb(0, 102, 204);"><tspan dy="0" >API Backend</tspan></text><text  id="v-33" font-size="17" xml:space="preserve" y="128.6" text-anchor="middle" font-family="Open Sans" fill="#0066cc" dominant-baseline="hanging" transform="matrix(1,0,0,1,225,0)" style="display: block; fill: rgb(0, 102, 204);"><tspan dy="0" >[Container: Node.js/Express]</tspan></text><text  id="v-34" font-size="24" xml:space="preserve" y="160.6" text-anchor="middle" font-family="Open Sans" fill="#0066cc" dominant-baseline="hanging" transform="matrix(1,0,0,1,225,0)" style="display: block; fill: rgb(0, 102, 204);"><tspan dy="0" >Gestiona la lógica de negocio y</tspan><tspan dy="1.2em" x="0" >orquesta las bases de datos</tspan></text><g  id="v-35" color="#0066cc" transform="matrix(1,0,0,1,210,268)" display="none" style="fill: rgb(0, 102, 204);"><g  transform="translate(5 0)"><svg xmlns="http://www.w3.org/2000/svg" width="20" height="20" fill="currentColor" viewBox="0 0 16 16"><path fill-rule="evenodd" d="M6.5 12a5.5 5.5 0 1 0 0-11 5.5 5.5 0 0 0 0 11zM13 6.5a6.5 6.5 0 1 1-13 0 6.5 6.5 0 0 1 13 0z"></path><path d="M10.344 11.742c.03.04.062.078.098.115l3.85 3.85a1 1 0 0 0 1.415-1.414l-3.85-3.85a1.007 1.007 0 0 0-.115-.1 6.538 6.538 0 0 1-1.398 1.4z"></path><path fill-rule="evenodd" d="M6.5 3a.5.5 0 0 1 .5.5V6h2.5a.5.5 0 0 1 0 1H7v2.5a.5.5 0 0 1-1 0V7H3.5a.5.5 0 0 1 0-1H6V3.5a.5.5 0 0 1 .5-.5z"></path></svg></g><g ></g><g ></g><g ></g></g><image  id="v-36"></image></g></g><!--z-index:29--><g   id="j_7"  transform="translate(1719,164)" style=""><g  id="v-43" style="opacity: 1;"><rect  id="v-44" rx="1" ry="1" stroke-width="2" pointer-events="visiblePainted" fill="#ffffff" stroke="#000080" width="450" height="300" style="fill: rgb(255, 255, 255); stroke: rgb(0, 0, 128);"></rect><text  id="v-45" font-size="34" xml:space="preserve" y="66.2" font-weight="bold" text-anchor="middle" pointer-events="visible" font-family="Open Sans" fill="#0066cc" dominant-baseline="hanging" transform="matrix(1,0,0,1,225,0)" style="fill: rgb(0, 102, 204);"><tspan dy="0" >Base de Datos</tspan><tspan dy="1.2em" x="0" >PostgreSQL</tspan></text><text  id="v-46" font-size="17" xml:space="preserve" y="149" text-anchor="middle" font-family="Open Sans" fill="#0066cc" dominant-baseline="hanging" transform="matrix(1,0,0,1,225,0)" style="display: block; fill: rgb(0, 102, 204);"><tspan dy="0" >[Container: PostgreSQL]</tspan></text><text  id="v-47" font-size="24" xml:space="preserve" y="181" text-anchor="middle" font-family="Open Sans" fill="#0066cc" dominant-baseline="hanging" transform="matrix(1,0,0,1,225,0)" style="display: block; fill: rgb(0, 102, 204);"><tspan dy="0" >Almacena datos estructurados con</tspan><tspan dy="1.2em" x="0" >integridad referencial</tspan></text><g  id="v-48" color="#0066cc" transform="matrix(1,0,0,1,210,268)" display="none" style="fill: rgb(0, 102, 204);"><g  transform="translate(5 0)"><svg xmlns="http://www.w3.org/2000/svg" width="20" height="20" fill="currentColor" viewBox="0 0 16 16"><path fill-rule="evenodd" d="M6.5 12a5.5 5.5 0 1 0 0-11 5.5 5.5 0 0 0 0 11zM13 6.5a6.5 6.5 0 1 1-13 0 6.5 6.5 0 0 1 13 0z"></path><path d="M10.344 11.742c.03.04.062.078.098.115l3.85 3.85a1 1 0 0 0 1.415-1.414l-3.85-3.85a1.007 1.007 0 0 0-.115-.1 6.538 6.538 0 0 1-1.398 1.4z"></path><path fill-rule="evenodd" d="M6.5 3a.5.5 0 0 1 .5.5V6h2.5a.5.5 0 0 1 0 1H7v2.5a.5.5 0 0 1-1 0V7H3.5a.5.5 0 0 1 0-1H6V3.5a.5.5 0 0 1 .5-.5z"></path></svg></g><g ></g><g ></g><g ></g></g><image  id="v-49"></image></g></g><!--z-index:30--><g   id="j_8"  transform="translate(2469,1593)" style=""><g  id="v-56" style="opacity: 1;"><rect  id="v-57" rx="1" ry="1" stroke-width="2" pointer-events="visiblePainted" fill="#ffffff" stroke="#000080" width="450" height="300" style="fill: rgb(255, 255, 255); stroke: rgb(0, 0, 128);"></rect><text  id="v-58" font-size="34" xml:space="preserve" y="51.80000000000001" font-weight="bold" text-anchor="middle" pointer-events="visible" font-family="Open Sans" fill="#0066cc" dominant-baseline="hanging" transform="matrix(1,0,0,1,225,0)" style="fill: rgb(0, 102, 204);"><tspan dy="0" >Base de Datos</tspan><tspan dy="1.2em" x="0" >MongoDB</tspan></text><text  id="v-59" font-size="17" xml:space="preserve" y="134.60000000000002" text-anchor="middle" font-family="Open Sans" fill="#0066cc" dominant-baseline="hanging" transform="matrix(1,0,0,1,225,0)" style="display: block; fill: rgb(0, 102, 204);"><tspan dy="0" >[Container: MongoDB]</tspan></text><text  id="v-60" font-size="24" xml:space="preserve" y="166.60000000000002" text-anchor="middle" font-family="Open Sans" fill="#0066cc" dominant-baseline="hanging" transform="matrix(1,0,0,1,225,0)" style="display: block; fill: rgb(0, 102, 204);"><tspan dy="0" >Almacena datos</tspan><tspan dy="1.2em" x="0" >semi-estructurados: ideas,</tspan><tspan dy="1.2em" x="0" >proyectos, colaboraciones</tspan></text><g  id="v-61" color="#0066cc" transform="matrix(1,0,0,1,210,268)" display="none" style="fill: rgb(0, 102, 204);"><g  transform="translate(5 0)"><svg xmlns="http://www.w3.org/2000/svg" width="20" height="20" fill="currentColor" viewBox="0 0 16 16"><path fill-rule="evenodd" d="M6.5 12a5.5 5.5 0 1 0 0-11 5.5 5.5 0 0 0 0 11zM13 6.5a6.5 6.5 0 1 1-13 0 6.5 6.5 0 0 1 13 0z"></path><path d="M10.344 11.742c.03.04.062.078.098.115l3.85 3.85a1 1 0 0 0 1.415-1.414l-3.85-3.85a1.007 1.007 0 0 0-.115-.1 6.538 6.538 0 0 1-1.398 1.4z"></path><path fill-rule="evenodd" d="M6.5 3a.5.5 0 0 1 .5.5V6h2.5a.5.5 0 0 1 0 1H7v2.5a.5.5 0 0 1-1 0V7H3.5a.5.5 0 0 1 0-1H6V3.5a.5.5 0 0 1 .5-.5z"></path></svg></g><g ></g><g ></g><g ></g></g><image  id="v-62"></image></g></g><!--z-index:31--><g   id="j_9"  transform="translate(1719,1364)" style=""><g  id="v-69" style="opacity: 1;"><rect  id="v-70" rx="1" ry="1" stroke-width="2" pointer-events="visiblePainted" fill="#ffffff" stroke="#000080" width="450" height="300" style="fill: rgb(255, 255, 255); stroke: rgb(0, 0, 128);"></rect><text  id="v-71" font-size="34" xml:space="preserve" y="86.6" font-weight="bold" text-anchor="middle" pointer-events="visible" font-family="Open Sans" fill="#0066cc" dominant-baseline="hanging" transform="matrix(1,0,0,1,225,0)" style="fill: rgb(0, 102, 204);"><tspan dy="0" >Módulo de Búsqueda</tspan></text><text  id="v-72" font-size="17" xml:space="preserve" y="128.6" text-anchor="middle" font-family="Open Sans" fill="#0066cc" dominant-baseline="hanging" transform="matrix(1,0,0,1,225,0)" style="display: block; fill: rgb(0, 102, 204);"><tspan dy="0" >[Container: Elasticsearch]</tspan></text><text  id="v-73" font-size="24" xml:space="preserve" y="160.6" text-anchor="middle" font-family="Open Sans" fill="#0066cc" dominant-baseline="hanging" transform="matrix(1,0,0,1,225,0)" style="display: block; fill: rgb(0, 102, 204);"><tspan dy="0" >Indexación y búsqueda rápida de</tspan><tspan dy="1.2em" x="0" >ideas desde MongoDB</tspan></text><g  id="v-74" color="#0066cc" transform="matrix(1,0,0,1,222.5,268)" display="none" style="fill: rgb(0, 102, 204);"><g ></g><g ></g><g ></g><g ></g></g><image  id="v-75"></image></g></g><!--z-index:32--><g   id="j_10"  transform="translate(1719,2872)" style=""><g  id="v-85" style="opacity: 1;"><rect  id="v-86" rx="1" ry="1" stroke-width="2" pointer-events="visiblePainted" fill="#ffffff" stroke="#000080" width="450" height="300" style="fill: rgb(255, 255, 255); stroke: rgb(0, 0, 128);"></rect><text  id="v-87" font-size="34" xml:space="preserve" y="66.2" font-weight="bold" text-anchor="middle" pointer-events="visible" font-family="Open Sans" fill="#0066cc" dominant-baseline="hanging" transform="matrix(1,0,0,1,225,0)" style="fill: rgb(0, 102, 204);"><tspan dy="0" >Módulo de Colaboración</tspan><tspan dy="1.2em" x="0" >y Comunicación</tspan></text><text  id="v-88" font-size="17" xml:space="preserve" y="149" text-anchor="middle" font-family="Open Sans" fill="#0066cc" dominant-baseline="hanging" transform="matrix(1,0,0,1,225,0)" style="display: block; fill: rgb(0, 102, 204);"><tspan dy="0" >[Container: Socket.io/WebSocket]</tspan></text><text  id="v-89" font-size="24" xml:space="preserve" y="181" text-anchor="middle" font-family="Open Sans" fill="#0066cc" dominant-baseline="hanging" transform="matrix(1,0,0,1,225,0)" style="display: block; fill: rgb(0, 102, 204);"><tspan dy="0" >Comunicación en tiempo real con</tspan><tspan dy="1.2em" x="0" >persistencia en PostgreSQL</tspan></text><g  id="v-90" color="#0066cc" transform="matrix(1,0,0,1,222.5,268)" display="none" style="fill: rgb(0, 102, 204);"><g ></g><g ></g><g ></g><g ></g></g><image  id="v-91"></image></g></g><!--z-index:33--><g   id="j_11"  transform="translate(1719,764)" style=""><g  id="v-95" style="opacity: 1;"><rect  id="v-96" rx="1" ry="1" stroke-width="2" pointer-events="visiblePainted" fill="#ffffff" stroke="#000080" width="450" height="300" style="fill: rgb(255, 255, 255); stroke: rgb(0, 0, 128);"></rect><text  id="v-97" font-size="34" xml:space="preserve" y="86.6" font-weight="bold" text-anchor="middle" pointer-events="visible" font-family="Open Sans" fill="#0066cc" dominant-baseline="hanging" transform="matrix(1,0,0,1,225,0)" style="fill: rgb(0, 102, 204);"><tspan dy="0" >Módulo de Pagos</tspan></text><text  id="v-98" font-size="17" xml:space="preserve" y="128.6" text-anchor="middle" font-family="Open Sans" fill="#0066cc" dominant-baseline="hanging" transform="matrix(1,0,0,1,225,0)" style="display: block; fill: rgb(0, 102, 204);"><tspan dy="0" >[Container: Stripe API]</tspan></text><text  id="v-99" font-size="24" xml:space="preserve" y="160.6" text-anchor="middle" font-family="Open Sans" fill="#0066cc" dominant-baseline="hanging" transform="matrix(1,0,0,1,225,0)" style="display: block; fill: rgb(0, 102, 204);"><tspan dy="0" >Gestión segura de transacciones y</tspan><tspan dy="1.2em" x="0" >recompensas con Stripe</tspan></text><g  id="v-100" color="#0066cc" transform="matrix(1,0,0,1,222.5,268)" display="none" style="fill: rgb(0, 102, 204);"><g ></g><g ></g><g ></g><g ></g></g><image  id="v-101"></image></g></g><!--z-index:34--><g   id="j_12"  transform="translate(1719,2272)" style=""><g  id="v-108" style="opacity: 1;"><rect  id="v-109" rx="1" ry="1" stroke-width="2" pointer-events="visiblePainted" fill="#ffffff" stroke="#000080" width="450" height="300" style="fill: rgb(255, 255, 255); stroke: rgb(0, 0, 128);"></rect><text  id="v-110" font-size="34" xml:space="preserve" y="66.2" font-weight="bold" text-anchor="middle" pointer-events="visible" font-family="Open Sans" fill="#0066cc" dominant-baseline="hanging" transform="matrix(1,0,0,1,225,0)" style="fill: rgb(0, 102, 204);"><tspan dy="0" >Almacenamiento de</tspan><tspan dy="1.2em" x="0" >Archivos</tspan></text><text  id="v-111" font-size="17" xml:space="preserve" y="149" text-anchor="middle" font-family="Open Sans" fill="#0066cc" dominant-baseline="hanging" transform="matrix(1,0,0,1,225,0)" style="display: block; fill: rgb(0, 102, 204);"><tspan dy="0" >[Container: AWS S3]</tspan></text><text  id="v-112" font-size="24" xml:space="preserve" y="181" text-anchor="middle" font-family="Open Sans" fill="#0066cc" dominant-baseline="hanging" transform="matrix(1,0,0,1,225,0)" style="display: block; fill: rgb(0, 102, 204);"><tspan dy="0" >Almacenamiento en la nube de</tspan><tspan dy="1.2em" x="0" >archivos multimedia</tspan></text><g  id="v-113" color="#0066cc" transform="matrix(1,0,0,1,222.5,268)" display="none" style="fill: rgb(0, 102, 204);"><g ></g><g ></g><g ></g><g ></g></g><image  id="v-114"></image></g></g><!--z-index:35--><g   id="j_13" ><path  stroke="#444444" d="M 669 2286 L 969 2104" id="v-127" stroke-width="2" stroke-dasharray="30 30" fill="none" style="opacity: 1;"></path><path  fill="black" stroke="black" d="M 0 0 0 0" transform="matrix(0.8554733942826398,-0.517846764665513,0.517846764665513,0.8554733942826398,669,2285.800048828125)"></path><path  fill="#444444" stroke="#444444" d="M 20 0 L 0 10 L 20 20 z" id="v-129" transform="matrix(-0.8554735321935447,0.517846536839149,-0.517846536839149,-0.8554735321935447,974.1784521551707,2112.754687922294)" style="opacity: 1;"></path><path  d="M 669 2286 L 969 2104" id="v-128" fill="none" style="cursor: auto; pointer-events: visiblepainted;"></path><g ><g id="v-121"  label-idx="0" cursor="move" transform="matrix(1,0,0,1,819,2195)" style="cursor: default; opacity: 1;"><rect joint-selector="rect" id="v-124" fill="#ffffff" rx="3" ry="3" pointer-events="none" width="201.29669189453125" height="90.3655014038086" transform="matrix(1,0,0,1,-99.4,-45.2)"></rect><text joint-selector="text" id="v-123" font-size="24px" xml:space="preserve" y="0.8em" fill="#444444" text-anchor="middle" pointer-events="none" font-family="Open Sans" font-weight="normal" transform="matrix(1,0,0,1,0,-41)"><tspan dy="0" >Realiza peticiones</tspan><tspan dy="1.2em" x="0" >HTTP/REST +</tspan><tspan dy="1.2em" x="0" >WebSocket</tspan></text></g><g id="v-122"  label-idx="1" cursor="move" transform="matrix(1,0,0,1,809,2235.800048828125)" style="cursor: default; opacity: 1;"><rect joint-selector="rect" id="v-126" fill="#ffffff" rx="3" ry="3"  width="0" height="0" transform="matrix(1,0,0,1,0,0)" display="none"></rect><text joint-selector="text" id="v-125" fill="#000000" font-size="14" text-anchor="middle" pointer-events="none"></text></g></g><g  display="none" style="display: none;"></g><g  id="v-131" display="none"><g  id="v-119"><path  end="source" d="M 26 0 L 0 13 L 26 26 z"></path></g><g  id="v-120"><path  end="target" d="M 26 0 L 0 13 L 26 26 z"></path></g></g><g  id="v-130" display="none"><g  id="v-118" transform="translate(703.198722872541, 2265.2527747906583) "><g  event="remove"><circle r="11"></circle><path transform="scale(.8) translate(-16, -16)" d="M24.778,21.419 19.276,15.917 24.777,10.415 21.949,7.585 16.447,13.087 10.945,7.585 8.117,10.415 13.618,15.917 8.116,21.419 10.946,24.248 16.447,18.746 21.948,24.248z"></path><title>Remove link.</title></g><g  event="link:options"><circle r="11" transform="translate(25)"></circle><path fill="white" transform="scale(.55) translate(29, -16)" d="M31.229,17.736c0.064-0.571,0.104-1.148,0.104-1.736s-0.04-1.166-0.104-1.737l-4.377-1.557c-0.218-0.716-0.504-1.401-0.851-2.05l1.993-4.192c-0.725-0.91-1.549-1.734-2.458-2.459l-4.193,1.994c-0.647-0.347-1.334-0.632-2.049-0.849l-1.558-4.378C17.165,0.708,16.588,0.667,16,0.667s-1.166,0.041-1.737,0.105L12.707,5.15c-0.716,0.217-1.401,0.502-2.05,0.849L6.464,4.005C5.554,4.73,4.73,5.554,4.005,6.464l1.994,4.192c-0.347,0.648-0.632,1.334-0.849,2.05l-4.378,1.557C0.708,14.834,0.667,15.412,0.667,16s0.041,1.165,0.105,1.736l4.378,1.558c0.217,0.715,0.502,1.401,0.849,2.049l-1.994,4.193c0.725,0.909,1.549,1.733,2.459,2.458l4.192-1.993c0.648,0.347,1.334,0.633,2.05,0.851l1.557,4.377c0.571,0.064,1.148,0.104,1.737,0.104c0.588,0,1.165-0.04,1.736-0.104l1.558-4.377c0.715-0.218,1.399-0.504,2.049-0.851l4.193,1.993c0.909-0.725,1.733-1.549,2.458-2.458l-1.993-4.193c0.347-0.647,0.633-1.334,0.851-2.049L31.229,17.736zM16,20.871c-2.69,0-4.872-2.182-4.872-4.871c0-2.69,2.182-4.872,4.872-4.872c2.689,0,4.871,2.182,4.871,4.872C20.871,18.689,18.689,20.871,16,20.871z"></path><title>Link options.</title></g></g></g></g><!--z-index:36--><g   id="j_14" ><path  stroke="#444444" d="M 1252 1818 L 1715 623 C 1717.6666666666665 617 1721 611.3333333333333 1725 606 L 1832 464" id="v-145" stroke-width="2" stroke-dasharray="30 30" fill="none" style="opacity: 1;"></path><path  fill="black" stroke="black" d="M 0 0 0 0" transform="matrix(0.36151551739020304,-0.9323660926299786,0.9323660926299786,0.36151551739020304,1252.1610107421875,1818)"></path><path  fill="#444444" stroke="#444444" d="M 20 0 L 0 10 L 20 20 z" id="v-147" transform="matrix(-0.5999999761129288,0.8000000179153028,-0.8000000179153028,-0.5999999761129288,1839.4999999402824,469.99999958197634)" style="opacity: 1;"></path><path  d="M 1252 1818 L 1715 623 C 1717.6666666666665 617 1721 611.3333333333333 1725 606 L 1832 464" id="v-146" fill="none" style="cursor: auto; pointer-events: visiblepainted;"></path><g ><g id="v-139"  label-idx="0" cursor="move" transform="matrix(1,0,0,1,1519.1876220703125,1128.3905029296875)" style="cursor: default; opacity: 1;"><rect joint-selector="rect" id="v-142" fill="#ffffff" rx="3" ry="3" pointer-events="none" width="199.7403106689453" height="90.3655014038086" transform="matrix(1,0,0,1,-98.6,-45.2)"></rect><text joint-selector="text" id="v-141" font-size="24px" xml:space="preserve" y="0.8em" fill="#444444" text-anchor="middle" pointer-events="none" font-family="Open Sans" font-weight="normal" transform="matrix(1,0,0,1,0,-41)"><tspan dy="0" >Lee/escribe datos</tspan><tspan dy="1.2em" x="0" >de usuarios,</tspan><tspan dy="1.2em" x="0" >pagos, mensajes</tspan></text></g><g id="v-140"  label-idx="1" cursor="move" transform="matrix(1,0,0,1,1509.1876220703125,1169.1904296875)" style="cursor: default; opacity: 1;"><rect joint-selector="rect" id="v-144" fill="#ffffff" rx="3" ry="3"  width="0" height="0" transform="matrix(1,0,0,1,0,0)" display="none"></rect><text joint-selector="text" id="v-143" fill="#000000" font-size="14" text-anchor="middle" pointer-events="none"></text></g></g><g  display="none" style="display: none;"><g  transform="translate(1719, 614)" id="v-288"><circle  idx="0" r="10"></circle><path  idx="0" d="M16,5.333c-7.732,0-14,4.701-14,10.5c0,1.982,0.741,3.833,2.016,5.414L2,25.667l5.613-1.441c2.339,1.317,5.237,2.107,8.387,2.107c7.732,0,14-4.701,14-10.5C30,10.034,23.732,5.333,16,5.333z" transform="translate(5, -33)"></path><path  idx="0" transform="scale(.8) translate(9.5, -37)" d="M24.778,21.419 19.276,15.917 24.777,10.415 21.949,7.585 16.447,13.087 10.945,7.585 8.117,10.415 13.618,15.917 8.116,21.419 10.946,24.248 16.447,18.746 21.948,24.248z"><title>Remove vertex.</title></path></g></g><g  id="v-149" display="none"><g  id="v-137"><path  end="source" d="M 26 0 L 0 13 L 26 26 z"></path></g><g  id="v-138"><path  end="target" d="M 26 0 L 0 13 L 26 26 z"></path></g></g><g  id="v-148" display="none"><g  id="v-135" transform="translate(1266.4511466226, 1780.7016842030084) "><g  event="remove"><circle r="11"></circle><path transform="scale(.8) translate(-16, -16)" d="M24.778,21.419 19.276,15.917 24.777,10.415 21.949,7.585 16.447,13.087 10.945,7.585 8.117,10.415 13.618,15.917 8.116,21.419 10.946,24.248 16.447,18.746 21.948,24.248z"></path><title>Remove link.</title></g><g  event="link:options"><circle r="11" transform="translate(25)"></circle><path fill="white" transform="scale(.55) translate(29, -16)" d="M31.229,17.736c0.064-0.571,0.104-1.148,0.104-1.736s-0.04-1.166-0.104-1.737l-4.377-1.557c-0.218-0.716-0.504-1.401-0.851-2.05l1.993-4.192c-0.725-0.91-1.549-1.734-2.458-2.459l-4.193,1.994c-0.647-0.347-1.334-0.632-2.049-0.849l-1.558-4.378C17.165,0.708,16.588,0.667,16,0.667s-1.166,0.041-1.737,0.105L12.707,5.15c-0.716,0.217-1.401,0.502-2.05,0.849L6.464,4.005C5.554,4.73,4.73,5.554,4.005,6.464l1.994,4.192c-0.347,0.648-0.632,1.334-0.849,2.05l-4.378,1.557C0.708,14.834,0.667,15.412,0.667,16s0.041,1.165,0.105,1.736l4.378,1.558c0.217,0.715,0.502,1.401,0.849,2.049l-1.994,4.193c0.725,0.909,1.549,1.733,2.459,2.458l4.192-1.993c0.648,0.347,1.334,0.633,2.05,0.851l1.557,4.377c0.571,0.064,1.148,0.104,1.737,0.104c0.588,0,1.165-0.04,1.736-0.104l1.558-4.377c0.715-0.218,1.399-0.504,2.049-0.851l4.193,1.993c0.909-0.725,1.733-1.549,2.458-2.458l-1.993-4.193c0.347-0.647,0.633-1.334,0.851-2.049L31.229,17.736zM16,20.871c-2.69,0-4.872-2.182-4.872-4.871c0-2.69,2.182-4.872,4.872-4.872c2.689,0,4.871,2.182,4.871,4.872C20.871,18.689,18.689,20.871,16,20.871z"></path><title>Link options.</title></g></g></g></g><!--z-index:37--><g   id="j_15" ><path  stroke="#444444" d="M 1419 1934 L 2469 1777" id="v-162" stroke-width="2" stroke-dasharray="30 30" fill="none" style="opacity: 1;"></path><path  fill="black" stroke="black" d="M 0 0 0 0" transform="matrix(0.9889363629427212,-0.14834038576740424,0.14834038576740424,0.9889363629427212,1419,1934.25)"></path><path  fill="#444444" stroke="#444444" d="M 20 0 L 0 10 L 20 20 z" id="v-164" transform="matrix(-0.9889363629427212,0.14834038576740413,-0.14834038576740413,-0.9889363629427212,2470.483363190226,1786.6393582092533)" style="opacity: 1;"></path><path  d="M 1419 1934 L 2469 1777" id="v-163" fill="none" style="cursor: auto; pointer-events: visiblepainted;"></path><g ><g id="v-156"  label-idx="0" cursor="move" transform="matrix(1,0,0,1,1944,1855.5)" style="cursor: default; opacity: 1;"><rect joint-selector="rect" id="v-159" fill="#ffffff" rx="3" ry="3" pointer-events="none" width="190.8935546875" height="90.3655014038086" transform="matrix(1,0,0,1,-93.9,-45.2)"></rect><text joint-selector="text" id="v-158" font-size="24px" xml:space="preserve" y="0.8em" fill="#444444" text-anchor="middle" pointer-events="none" font-family="Open Sans" font-weight="normal" transform="matrix(1,0,0,1,0,-41)"><tspan dy="0" >Lee/escribe</tspan><tspan dy="1.2em" x="0" >ideas, proyectos,</tspan><tspan dy="1.2em" x="0" >colaboraciones</tspan></text></g><g id="v-157"  label-idx="1" cursor="move" transform="matrix(1,0,0,1,1934,1896.300048828125)" style="cursor: default; opacity: 1;"><rect joint-selector="rect" id="v-161" fill="#ffffff" rx="3" ry="3"  width="0" height="0" transform="matrix(1,0,0,1,0,0)" display="none"></rect><text joint-selector="text" id="v-160" fill="#000000" font-size="14" text-anchor="middle" pointer-events="none"></text></g></g><g  display="none" style="display: none;"></g><g  id="v-166" display="none"><g  id="v-154"><path  end="source" d="M 26 0 L 0 13 L 26 26 z"></path></g><g  id="v-155"><path  end="target" d="M 26 0 L 0 13 L 26 26 z"></path></g></g><g  id="v-165" display="none"><g  id="v-153" transform="translate(1458.5602133740315, 1928.0848061907402) "><g  event="remove"><circle r="11"></circle><path transform="scale(.8) translate(-16, -16)" d="M24.778,21.419 19.276,15.917 24.777,10.415 21.949,7.585 16.447,13.087 10.945,7.585 8.117,10.415 13.618,15.917 8.116,21.419 10.946,24.248 16.447,18.746 21.948,24.248z"></path><title>Remove link.</title></g><g  event="link:options"><circle r="11" transform="translate(25)"></circle><path fill="white" transform="scale(.55) translate(29, -16)" d="M31.229,17.736c0.064-0.571,0.104-1.148,0.104-1.736s-0.04-1.166-0.104-1.737l-4.377-1.557c-0.218-0.716-0.504-1.401-0.851-2.05l1.993-4.192c-0.725-0.91-1.549-1.734-2.458-2.459l-4.193,1.994c-0.647-0.347-1.334-0.632-2.049-0.849l-1.558-4.378C17.165,0.708,16.588,0.667,16,0.667s-1.166,0.041-1.737,0.105L12.707,5.15c-0.716,0.217-1.401,0.502-2.05,0.849L6.464,4.005C5.554,4.73,4.73,5.554,4.005,6.464l1.994,4.192c-0.347,0.648-0.632,1.334-0.849,2.05l-4.378,1.557C0.708,14.834,0.667,15.412,0.667,16s0.041,1.165,0.105,1.736l4.378,1.558c0.217,0.715,0.502,1.401,0.849,2.049l-1.994,4.193c0.725,0.909,1.549,1.733,2.459,2.458l4.192-1.993c0.648,0.347,1.334,0.633,2.05,0.851l1.557,4.377c0.571,0.064,1.148,0.104,1.737,0.104c0.588,0,1.165-0.04,1.736-0.104l1.558-4.377c0.715-0.218,1.399-0.504,2.049-0.851l4.193,1.993c0.909-0.725,1.733-1.549,2.458-2.458l-1.993-4.193c0.347-0.647,0.633-1.334,0.851-2.049L31.229,17.736zM16,20.871c-2.69,0-4.872-2.182-4.872-4.871c0-2.69,2.182-4.872,4.872-4.872c2.689,0,4.871,2.182,4.871,4.872C20.871,18.689,18.689,20.871,16,20.871z"></path><title>Link options.</title></g></g></g></g><!--z-index:38--><g   id="j_16" ><path  stroke="#444444" d="M 1419 1832 L 1719 1650" id="v-179" stroke-width="2" stroke-dasharray="30 30" fill="none" style="opacity: 1;"></path><path  fill="black" stroke="black" d="M 0 0 0 0" transform="matrix(0.8554733942826398,-0.517846764665513,0.517846764665513,0.8554733942826398,1419,1831.800048828125)"></path><path  fill="#444444" stroke="#444444" d="M 20 0 L 0 10 L 20 20 z" id="v-181" transform="matrix(-0.8554735321935447,0.517846536839149,-0.517846536839149,-0.8554735321935447,1724.178513190327,1658.7546879222941)" style="opacity: 1;"></path><path  d="M 1419 1832 L 1719 1650" id="v-180" fill="none" style="cursor: auto; pointer-events: visiblepainted;"></path><g ><g id="v-173"  label-idx="0" cursor="move" transform="matrix(1,0,0,1,1569,1741)" style="cursor: default; opacity: 1;"><rect joint-selector="rect" id="v-176" fill="#ffffff" rx="3" ry="3" pointer-events="none" width="157.92929077148438" height="90.3655014038086" transform="matrix(1,0,0,1,-78.7,-45.2)"></rect><text joint-selector="text" id="v-175" font-size="24px" xml:space="preserve" y="0.8em" fill="#444444" text-anchor="middle" pointer-events="none" font-family="Open Sans" font-weight="normal" transform="matrix(1,0,0,1,0,-41)"><tspan dy="0" >Consulta</tspan><tspan dy="1.2em" x="0" >búsquedas de</tspan><tspan dy="1.2em" x="0" >Elasticsearch</tspan></text></g><g id="v-174"  label-idx="1" cursor="move" transform="matrix(1,0,0,1,1559,1781.800048828125)" style="cursor: default; opacity: 1;"><rect joint-selector="rect" id="v-178" fill="#ffffff" rx="3" ry="3"  width="0" height="0" transform="matrix(1,0,0,1,0,0)" display="none"></rect><text joint-selector="text" id="v-177" fill="#000000" font-size="14" text-anchor="middle" pointer-events="none"></text></g></g><g  display="none" style="display: none;"></g><g  id="v-183" display="none"><g  id="v-171"><path  end="source" d="M 26 0 L 0 13 L 26 26 z"></path></g><g  id="v-172"><path  end="target" d="M 26 0 L 0 13 L 26 26 z"></path></g></g><g  id="v-182" display="none"><g  id="v-170" transform="translate(1453.1987228725409, 1811.2527747906583) "><g  event="remove"><circle r="11"></circle><path transform="scale(.8) translate(-16, -16)" d="M24.778,21.419 19.276,15.917 24.777,10.415 21.949,7.585 16.447,13.087 10.945,7.585 8.117,10.415 13.618,15.917 8.116,21.419 10.946,24.248 16.447,18.746 21.948,24.248z"></path><title>Remove link.</title></g><g  event="link:options"><circle r="11" transform="translate(25)"></circle><path fill="white" transform="scale(.55) translate(29, -16)" d="M31.229,17.736c0.064-0.571,0.104-1.148,0.104-1.736s-0.04-1.166-0.104-1.737l-4.377-1.557c-0.218-0.716-0.504-1.401-0.851-2.05l1.993-4.192c-0.725-0.91-1.549-1.734-2.458-2.459l-4.193,1.994c-0.647-0.347-1.334-0.632-2.049-0.849l-1.558-4.378C17.165,0.708,16.588,0.667,16,0.667s-1.166,0.041-1.737,0.105L12.707,5.15c-0.716,0.217-1.401,0.502-2.05,0.849L6.464,4.005C5.554,4.73,4.73,5.554,4.005,6.464l1.994,4.192c-0.347,0.648-0.632,1.334-0.849,2.05l-4.378,1.557C0.708,14.834,0.667,15.412,0.667,16s0.041,1.165,0.105,1.736l4.378,1.558c0.217,0.715,0.502,1.401,0.849,2.049l-1.994,4.193c0.725,0.909,1.549,1.733,2.459,2.458l4.192-1.993c0.648,0.347,1.334,0.633,2.05,0.851l1.557,4.377c0.571,0.064,1.148,0.104,1.737,0.104c0.588,0,1.165-0.04,1.736-0.104l1.558-4.377c0.715-0.218,1.399-0.504,2.049-0.851l4.193,1.993c0.909-0.725,1.733-1.549,2.458-2.458l-1.993-4.193c0.347-0.647,0.633-1.334,0.851-2.049L31.229,17.736zM16,20.871c-2.69,0-4.872-2.182-4.872-4.871c0-2.69,2.182-4.872,4.872-4.872c2.689,0,4.871,2.182,4.871,4.872C20.871,18.689,18.689,20.871,16,20.871z"></path><title>Link options.</title></g></g></g></g><!--z-index:39--><g   id="j_17" ><path  stroke="#444444" d="M 1298 2118 L 1713 2714 C 1717 2719.333333333333 1721 2724.6666666666665 1725 2730 L 1832 2872" id="v-197" stroke-width="2" stroke-dasharray="30 30" fill="none" style="opacity: 1;"></path><path  fill="black" stroke="black" d="M 0 0 0 0" transform="matrix(0.5714152185436931,0.8206611042425878,-0.8206611042425878,0.5714152185436931,1298.4429931640625,2118)"></path><path  fill="#444444" stroke="#444444" d="M 20 0 L 0 10 L 20 20 z" id="v-199" transform="matrix(-0.6000000826393699,-0.7999999380204659,0.7999999380204659,-0.6000000826393699,1823.500001446189,2878.0000002065985)" style="opacity: 1;"></path><path  d="M 1298 2118 L 1713 2714 C 1717 2719.333333333333 1721 2724.6666666666665 1725 2730 L 1832 2872" id="v-198" fill="none" style="cursor: auto; pointer-events: visiblepainted;"></path><g ><g id="v-191"  label-idx="0" cursor="move" transform="matrix(1,0,0,1,1562.0142822265625,2497.162841796875)" style="cursor: default; opacity: 1;"><rect joint-selector="rect" id="v-194" fill="#ffffff" rx="3" ry="3" pointer-events="none" width="140.42355346679688" height="90.3655014038086" transform="matrix(1,0,0,1,-70.2,-45.2)"></rect><text joint-selector="text" id="v-193" font-size="24px" xml:space="preserve" y="0.8em" fill="#444444" text-anchor="middle" pointer-events="none" font-family="Open Sans" font-weight="normal" transform="matrix(1,0,0,1,0,-41)"><tspan dy="0" >Envía/recibe</tspan><tspan dy="1.2em" x="0" >mensajes en</tspan><tspan dy="1.2em" x="0" >tiempo real</tspan></text></g><g id="v-192"  label-idx="1" cursor="move" transform="matrix(1,0,0,1,1552.0142822265625,2537.962646484375)" style="cursor: default; opacity: 1;"><rect joint-selector="rect" id="v-196" fill="#ffffff" rx="3" ry="3"  width="0" height="0" transform="matrix(1,0,0,1,0,0)" display="none"></rect><text joint-selector="text" id="v-195" fill="#000000" font-size="14" text-anchor="middle" pointer-events="none"></text></g></g><g  display="none" style="display: none;"><g  transform="translate(1719, 2722)" id="v-289"><circle  idx="0" r="10"></circle><path  idx="0" d="M16,5.333c-7.732,0-14,4.701-14,10.5c0,1.982,0.741,3.833,2.016,5.414L2,25.667l5.613-1.441c2.339,1.317,5.237,2.107,8.387,2.107c7.732,0,14-4.701,14-10.5C30,10.034,23.732,5.333,16,5.333z" transform="translate(5, -33)"></path><path  idx="0" transform="scale(.8) translate(9.5, -37)" d="M24.778,21.419 19.276,15.917 24.777,10.415 21.949,7.585 16.447,13.087 10.945,7.585 8.117,10.415 13.618,15.917 8.116,21.419 10.946,24.248 16.447,18.746 21.948,24.248z"><title>Remove vertex.</title></path></g></g><g  id="v-201" display="none"><g  id="v-189"><path  end="source" d="M 26 0 L 0 13 L 26 26 z"></path></g><g  id="v-190"><path  end="target" d="M 26 0 L 0 13 L 26 26 z"></path></g></g><g  id="v-200" display="none"><g  id="v-187" transform="translate(1320.8571008754284, 2150.8261014982054) "><g  event="remove"><circle r="11"></circle><path transform="scale(.8) translate(-16, -16)" d="M24.778,21.419 19.276,15.917 24.777,10.415 21.949,7.585 16.447,13.087 10.945,7.585 8.117,10.415 13.618,15.917 8.116,21.419 10.946,24.248 16.447,18.746 21.948,24.248z"></path><title>Remove link.</title></g><g  event="link:options"><circle r="11" transform="translate(25)"></circle><path fill="white" transform="scale(.55) translate(29, -16)" d="M31.229,17.736c0.064-0.571,0.104-1.148,0.104-1.736s-0.04-1.166-0.104-1.737l-4.377-1.557c-0.218-0.716-0.504-1.401-0.851-2.05l1.993-4.192c-0.725-0.91-1.549-1.734-2.458-2.459l-4.193,1.994c-0.647-0.347-1.334-0.632-2.049-0.849l-1.558-4.378C17.165,0.708,16.588,0.667,16,0.667s-1.166,0.041-1.737,0.105L12.707,5.15c-0.716,0.217-1.401,0.502-2.05,0.849L6.464,4.005C5.554,4.73,4.73,5.554,4.005,6.464l1.994,4.192c-0.347,0.648-0.632,1.334-0.849,2.05l-4.378,1.557C0.708,14.834,0.667,15.412,0.667,16s0.041,1.165,0.105,1.736l4.378,1.558c0.217,0.715,0.502,1.401,0.849,2.049l-1.994,4.193c0.725,0.909,1.549,1.733,2.459,2.458l4.192-1.993c0.648,0.347,1.334,0.633,2.05,0.851l1.557,4.377c0.571,0.064,1.148,0.104,1.737,0.104c0.588,0,1.165-0.04,1.736-0.104l1.558-4.377c0.715-0.218,1.399-0.504,2.049-0.851l4.193,1.993c0.909-0.725,1.733-1.549,2.458-2.458l-1.993-4.193c0.347-0.647,0.633-1.334,0.851-2.049L31.229,17.736zM16,20.871c-2.69,0-4.872-2.182-4.872-4.871c0-2.69,2.182-4.872,4.872-4.872c2.689,0,4.871,2.182,4.871,4.872C20.871,18.689,18.689,20.871,16,20.871z"></path><title>Link options.</title></g></g></g></g><!--z-index:40--><g   id="j_18" ><path  stroke="#444444" d="M 1298 1818 L 1713 1222 C 1717 1216.6666666666665 1721 1211.3333333333333 1725 1206 L 1832 1064" id="v-215" stroke-width="2" stroke-dasharray="30 30" fill="none" style="opacity: 1;"></path><path  fill="black" stroke="black" d="M 0 0 0 0" transform="matrix(0.571415163904874,-0.8206611422868552,0.8206611422868552,0.571415163904874,1298.4429931640625,1818)"></path><path  fill="#444444" stroke="#444444" d="M 20 0 L 0 10 L 20 20 z" id="v-217" transform="matrix(-0.5999999761129288,0.8000000179153028,-0.8000000179153028,-0.5999999761129288,1839.4999999402824,1069.9999995819762)" style="opacity: 1;"></path><path  d="M 1298 1818 L 1713 1222 C 1717 1216.6666666666665 1721 1211.3333333333333 1725 1206 L 1832 1064" id="v-216" fill="none" style="cursor: auto; pointer-events: visiblepainted;"></path><g ><g id="v-209"  label-idx="0" cursor="move" transform="matrix(1,0,0,1,1562.0142822265625,1438.8372802734375)" style="cursor: default; opacity: 1;"><rect joint-selector="rect" id="v-212" fill="#ffffff" rx="3" ry="3" pointer-events="none" width="163.97911071777344" height="90.3655014038086" transform="matrix(1,0,0,1,-80.7,-45.2)"></rect><text joint-selector="text" id="v-211" font-size="24px" xml:space="preserve" y="0.8em" fill="#444444" text-anchor="middle" pointer-events="none" font-family="Open Sans" font-weight="normal" transform="matrix(1,0,0,1,0,-41)"><tspan dy="0" >Procesa pagos</tspan><tspan dy="1.2em" x="0" >(ACID</tspan><tspan dy="1.2em" x="0" >garantizado)</tspan></text></g><g id="v-210"  label-idx="1" cursor="move" transform="matrix(1,0,0,1,1552.0142822265625,1479.6373291015625)" style="cursor: default; opacity: 1;"><rect joint-selector="rect" id="v-214" fill="#ffffff" rx="3" ry="3"  width="0" height="0" transform="matrix(1,0,0,1,0,0)" display="none"></rect><text joint-selector="text" id="v-213" fill="#000000" font-size="14" text-anchor="middle" pointer-events="none"></text></g></g><g  display="none" style="display: none;"><g  transform="translate(1719, 1214)" id="v-290"><circle  idx="0" r="10"></circle><path  idx="0" d="M16,5.333c-7.732,0-14,4.701-14,10.5c0,1.982,0.741,3.833,2.016,5.414L2,25.667l5.613-1.441c2.339,1.317,5.237,2.107,8.387,2.107c7.732,0,14-4.701,14-10.5C30,10.034,23.732,5.333,16,5.333z" transform="translate(5, -33)"></path><path  idx="0" transform="scale(.8) translate(9.5, -37)" d="M24.778,21.419 19.276,15.917 24.777,10.415 21.949,7.585 16.447,13.087 10.945,7.585 8.117,10.415 13.618,15.917 8.116,21.419 10.946,24.248 16.447,18.746 21.948,24.248z"><title>Remove vertex.</title></path></g></g><g  id="v-219" display="none"><g  id="v-207"><path  end="source" d="M 26 0 L 0 13 L 26 26 z"></path></g><g  id="v-208"><path  end="target" d="M 26 0 L 0 13 L 26 26 z"></path></g></g><g  id="v-218" display="none"><g  id="v-205" transform="translate(1320.8571008754284, 1785.1738985017944) "><g  event="remove"><circle r="11"></circle><path transform="scale(.8) translate(-16, -16)" d="M24.778,21.419 19.276,15.917 24.777,10.415 21.949,7.585 16.447,13.087 10.945,7.585 8.117,10.415 13.618,15.917 8.116,21.419 10.946,24.248 16.447,18.746 21.948,24.248z"></path><title>Remove link.</title></g><g  event="link:options"><circle r="11" transform="translate(25)"></circle><path fill="white" transform="scale(.55) translate(29, -16)" d="M31.229,17.736c0.064-0.571,0.104-1.148,0.104-1.736s-0.04-1.166-0.104-1.737l-4.377-1.557c-0.218-0.716-0.504-1.401-0.851-2.05l1.993-4.192c-0.725-0.91-1.549-1.734-2.458-2.459l-4.193,1.994c-0.647-0.347-1.334-0.632-2.049-0.849l-1.558-4.378C17.165,0.708,16.588,0.667,16,0.667s-1.166,0.041-1.737,0.105L12.707,5.15c-0.716,0.217-1.401,0.502-2.05,0.849L6.464,4.005C5.554,4.73,4.73,5.554,4.005,6.464l1.994,4.192c-0.347,0.648-0.632,1.334-0.849,2.05l-4.378,1.557C0.708,14.834,0.667,15.412,0.667,16s0.041,1.165,0.105,1.736l4.378,1.558c0.217,0.715,0.502,1.401,0.849,2.049l-1.994,4.193c0.725,0.909,1.549,1.733,2.459,2.458l4.192-1.993c0.648,0.347,1.334,0.633,2.05,0.851l1.557,4.377c0.571,0.064,1.148,0.104,1.737,0.104c0.588,0,1.165-0.04,1.736-0.104l1.558-4.377c0.715-0.218,1.399-0.504,2.049-0.851l4.193,1.993c0.909-0.725,1.733-1.549,2.458-2.458l-1.993-4.193c0.347-0.647,0.633-1.334,0.851-2.049L31.229,17.736zM16,20.871c-2.69,0-4.872-2.182-4.872-4.871c0-2.69,2.182-4.872,4.872-4.872c2.689,0,4.871,2.182,4.871,4.872C20.871,18.689,18.689,20.871,16,20.871z"></path><title>Link options.</title></g></g></g></g><!--z-index:41--><g   id="j_19" ><path  stroke="#444444" d="M 1419 2104 L 1719 2286" id="v-232" stroke-width="2" stroke-dasharray="30 30" fill="none" style="opacity: 1;"></path><path  fill="black" stroke="black" d="M 0 0 0 0" transform="matrix(0.8554734804769625,0.5178466222740399,-0.5178466222740399,0.8554734804769625,1419,2104.199951171875)"></path><path  fill="#444444" stroke="#444444" d="M 20 0 L 0 10 L 20 20 z" id="v-234" transform="matrix(-0.8554735321935448,-0.5178465368391488,0.5178465368391488,-0.8554735321935448,1713.821582453544,2294.354782721577)" style="opacity: 1;"></path><path  d="M 1419 2104 L 1719 2286" id="v-233" fill="none" style="cursor: auto; pointer-events: visiblepainted;"></path><g ><g id="v-226"  label-idx="0" cursor="move" transform="matrix(1,0,0,1,1569,2195)" style="cursor: default; opacity: 1;"><rect joint-selector="rect" id="v-229" fill="#ffffff" rx="3" ry="3" pointer-events="none" width="128.38197326660156" height="90.3655014038086" transform="matrix(1,0,0,1,-63.9,-45.2)"></rect><text joint-selector="text" id="v-228" font-size="24px" xml:space="preserve" y="0.8em" fill="#444444" text-anchor="middle" pointer-events="none" font-family="Open Sans" font-weight="normal" transform="matrix(1,0,0,1,0,-41)"><tspan dy="0" >Almacena/</tspan><tspan dy="1.2em" x="0" >descarga</tspan><tspan dy="1.2em" x="0" >archivos</tspan></text></g><g id="v-227"  label-idx="1" cursor="move" transform="matrix(1,0,0,1,1559,2235.800048828125)" style="cursor: default; opacity: 1;"><rect joint-selector="rect" id="v-231" fill="#ffffff" rx="3" ry="3"  width="0" height="0" transform="matrix(1,0,0,1,0,0)" display="none"></rect><text joint-selector="text" id="v-230" fill="#000000" font-size="14" text-anchor="middle" pointer-events="none"></text></g></g><g  display="none" style="display: none;"></g><g  id="v-236" display="none"><g  id="v-224"><path  end="source" d="M 26 0 L 0 13 L 26 26 z"></path></g><g  id="v-225"><path  end="target" d="M 26 0 L 0 13 L 26 26 z"></path></g></g><g  id="v-235" display="none"><g  id="v-223" transform="translate(1453.1987228725409, 2124.7472252093417) "><g  event="remove"><circle r="11"></circle><path transform="scale(.8) translate(-16, -16)" d="M24.778,21.419 19.276,15.917 24.777,10.415 21.949,7.585 16.447,13.087 10.945,7.585 8.117,10.415 13.618,15.917 8.116,21.419 10.946,24.248 16.447,18.746 21.948,24.248z"></path><title>Remove link.</title></g><g  event="link:options"><circle r="11" transform="translate(25)"></circle><path fill="white" transform="scale(.55) translate(29, -16)" d="M31.229,17.736c0.064-0.571,0.104-1.148,0.104-1.736s-0.04-1.166-0.104-1.737l-4.377-1.557c-0.218-0.716-0.504-1.401-0.851-2.05l1.993-4.192c-0.725-0.91-1.549-1.734-2.458-2.459l-4.193,1.994c-0.647-0.347-1.334-0.632-2.049-0.849l-1.558-4.378C17.165,0.708,16.588,0.667,16,0.667s-1.166,0.041-1.737,0.105L12.707,5.15c-0.716,0.217-1.401,0.502-2.05,0.849L6.464,4.005C5.554,4.73,4.73,5.554,4.005,6.464l1.994,4.192c-0.347,0.648-0.632,1.334-0.849,2.05l-4.378,1.557C0.708,14.834,0.667,15.412,0.667,16s0.041,1.165,0.105,1.736l4.378,1.558c0.217,0.715,0.502,1.401,0.849,2.049l-1.994,4.193c0.725,0.909,1.549,1.733,2.459,2.458l4.192-1.993c0.648,0.347,1.334,0.633,2.05,0.851l1.557,4.377c0.571,0.064,1.148,0.104,1.737,0.104c0.588,0,1.165-0.04,1.736-0.104l1.558-4.377c0.715-0.218,1.399-0.504,2.049-0.851l4.193,1.993c0.909-0.725,1.733-1.549,2.458-2.458l-1.993-4.193c0.347-0.647,0.633-1.334,0.851-2.049L31.229,17.736zM16,20.871c-2.69,0-4.872-2.182-4.872-4.871c0-2.69,2.182-4.872,4.872-4.872c2.689,0,4.871,2.182,4.871,4.872C20.871,18.689,18.689,20.871,16,20.871z"></path><title>Link options.</title></g></g></g></g><!--z-index:42--><g   id="j_20" ><path  stroke="#444444" d="M 669 2512 L 1719 2932" id="v-249" stroke-width="2" stroke-dasharray="30 30" fill="none" style="opacity: 1;"></path><path  fill="black" stroke="black" d="M 0 0 0 0" transform="matrix(0.9284766955435519,0.371390664708372,-0.371390664708372,0.9284766955435519,669,2512)"></path><path  fill="#444444" stroke="#444444" d="M 20 0 L 0 10 L 20 20 z" id="v-251" transform="matrix(-0.928476707906966,-0.3713906337998342,0.3713906337998342,-0.928476707906966,1715.2860707020088,2941.284806229568)" style="opacity: 1;"></path><path  d="M 669 2512 L 1719 2932" id="v-250" fill="none" style="cursor: auto; pointer-events: visiblepainted;"></path><g ><g id="v-243"  label-idx="0" cursor="move" transform="matrix(1,0,0,1,1194,2722)" style="cursor: default; opacity: 1;"><rect joint-selector="rect" id="v-246" fill="#ffffff" rx="3" ry="3" pointer-events="none" width="129.37667846679688" height="90.3655014038086" transform="matrix(1,0,0,1,-66.6,-45.2)"></rect><text joint-selector="text" id="v-245" font-size="24px" xml:space="preserve" y="0.8em" fill="#444444" text-anchor="middle" pointer-events="none" font-family="Open Sans" font-weight="normal" transform="matrix(1,0,0,1,0,-41)"><tspan dy="0" >Conexión</tspan><tspan dy="1.2em" x="0" >WebSocket</tspan><tspan dy="1.2em" x="0" >directa</tspan></text></g><g id="v-244"  label-idx="1" cursor="move" transform="matrix(1,0,0,1,1184,2762.800048828125)" style="cursor: default; opacity: 1;"><rect joint-selector="rect" id="v-248" fill="#ffffff" rx="3" ry="3"  width="0" height="0" transform="matrix(1,0,0,1,0,0)" display="none"></rect><text joint-selector="text" id="v-247" fill="#000000" font-size="14" text-anchor="middle" pointer-events="none"></text></g></g><g  display="none" style="display: none;"></g><g  id="v-253" display="none"><g  id="v-241"><path  end="source" d="M 26 0 L 0 13 L 26 26 z"></path></g><g  id="v-242"><path  end="target" d="M 26 0 L 0 13 L 26 26 z"></path></g></g><g  id="v-252" display="none"><g  id="v-240" transform="translate(706.1390676354104, 2526.855627054164) "><g  event="remove"><circle r="11"></circle><path transform="scale(.8) translate(-16, -16)" d="M24.778,21.419 19.276,15.917 24.777,10.415 21.949,7.585 16.447,13.087 10.945,7.585 8.117,10.415 13.618,15.917 8.116,21.419 10.946,24.248 16.447,18.746 21.948,24.248z"></path><title>Remove link.</title></g><g  event="link:options"><circle r="11" transform="translate(25)"></circle><path fill="white" transform="scale(.55) translate(29, -16)" d="M31.229,17.736c0.064-0.571,0.104-1.148,0.104-1.736s-0.04-1.166-0.104-1.737l-4.377-1.557c-0.218-0.716-0.504-1.401-0.851-2.05l1.993-4.192c-0.725-0.91-1.549-1.734-2.458-2.459l-4.193,1.994c-0.647-0.347-1.334-0.632-2.049-0.849l-1.558-4.378C17.165,0.708,16.588,0.667,16,0.667s-1.166,0.041-1.737,0.105L12.707,5.15c-0.716,0.217-1.401,0.502-2.05,0.849L6.464,4.005C5.554,4.73,4.73,5.554,4.005,6.464l1.994,4.192c-0.347,0.648-0.632,1.334-0.849,2.05l-4.378,1.557C0.708,14.834,0.667,15.412,0.667,16s0.041,1.165,0.105,1.736l4.378,1.558c0.217,0.715,0.502,1.401,0.849,2.049l-1.994,4.193c0.725,0.909,1.549,1.733,2.459,2.458l4.192-1.993c0.648,0.347,1.334,0.633,2.05,0.851l1.557,4.377c0.571,0.064,1.148,0.104,1.737,0.104c0.588,0,1.165-0.04,1.736-0.104l1.558-4.377c0.715-0.218,1.399-0.504,2.049-0.851l4.193,1.993c0.909-0.725,1.733-1.549,2.458-2.458l-1.993-4.193c0.347-0.647,0.633-1.334,0.851-2.049L31.229,17.736zM16,20.871c-2.69,0-4.872-2.182-4.872-4.871c0-2.69,2.182-4.872,4.872-4.872c2.689,0,4.871,2.182,4.871,4.872C20.871,18.689,18.689,20.871,16,20.871z"></path><title>Link options.</title></g></g></g></g><!--z-index:43--><g   id="j_21" ><path  stroke="#444444" d="M 669 2422 L 1719 2422" id="v-266" stroke-width="2" stroke-dasharray="30 30" fill="none" style="opacity: 1;"></path><path  fill="black" stroke="black" d="M 0 0 0 0" transform="matrix(1,0,0,1,669,2422)"></path><path  fill="#444444" stroke="#444444" d="M 20 0 L 0 10 L 20 20 z" id="v-268" transform="matrix(-1,1.2246467991473532e-16,-1.2246467991473532e-16,-1,1719,2432)" style="opacity: 1;"></path><path  d="M 669 2422 L 1719 2422" id="v-267" fill="none" style="cursor: auto; pointer-events: visiblepainted;"></path><g ><g id="v-260"  label-idx="0" cursor="move" transform="matrix(1,0,0,1,1194,2422)" style="cursor: default; opacity: 1;"><rect joint-selector="rect" id="v-263" fill="#ffffff" rx="3" ry="3" pointer-events="none" width="174.51095581054688" height="61.56549644470215" transform="matrix(1,0,0,1,-86.9,-30.8)"></rect><text joint-selector="text" id="v-262" font-size="24px" xml:space="preserve" y="0.8em" fill="#444444" text-anchor="middle" pointer-events="none" font-family="Open Sans" font-weight="normal" transform="matrix(1,0,0,1,0,-26.6)"><tspan dy="0" >Carga/descarga</tspan><tspan dy="1.2em" x="0" >archivos</tspan></text></g><g id="v-261"  label-idx="1" cursor="move" transform="matrix(1,0,0,1,1184,2448.39990234375)" style="cursor: default; opacity: 1;"><rect joint-selector="rect" id="v-265" fill="#ffffff" rx="3" ry="3"  width="0" height="0" transform="matrix(1,0,0,1,0,0)" display="none"></rect><text joint-selector="text" id="v-264" fill="#000000" font-size="14" text-anchor="middle" pointer-events="none"></text></g></g><g  display="none" style="display: none;"></g><g  id="v-270" display="none"><g  id="v-258"><path  end="source" d="M 26 0 L 0 13 L 26 26 z"></path></g><g  id="v-259"><path  end="target" d="M 26 0 L 0 13 L 26 26 z"></path></g></g><g  id="v-269" display="none"><g  id="v-257" transform="translate(709, 2422.0000000000005) "><g  event="remove"><circle r="11"></circle><path transform="scale(.8) translate(-16, -16)" d="M24.778,21.419 19.276,15.917 24.777,10.415 21.949,7.585 16.447,13.087 10.945,7.585 8.117,10.415 13.618,15.917 8.116,21.419 10.946,24.248 16.447,18.746 21.948,24.248z"></path><title>Remove link.</title></g><g  event="link:options"><circle r="11" transform="translate(25)"></circle><path fill="white" transform="scale(.55) translate(29, -16)" d="M31.229,17.736c0.064-0.571,0.104-1.148,0.104-1.736s-0.04-1.166-0.104-1.737l-4.377-1.557c-0.218-0.716-0.504-1.401-0.851-2.05l1.993-4.192c-0.725-0.91-1.549-1.734-2.458-2.459l-4.193,1.994c-0.647-0.347-1.334-0.632-2.049-0.849l-1.558-4.378C17.165,0.708,16.588,0.667,16,0.667s-1.166,0.041-1.737,0.105L12.707,5.15c-0.716,0.217-1.401,0.502-2.05,0.849L6.464,4.005C5.554,4.73,4.73,5.554,4.005,6.464l1.994,4.192c-0.347,0.648-0.632,1.334-0.849,2.05l-4.378,1.557C0.708,14.834,0.667,15.412,0.667,16s0.041,1.165,0.105,1.736l4.378,1.558c0.217,0.715,0.502,1.401,0.849,2.049l-1.994,4.193c0.725,0.909,1.549,1.733,2.459,2.458l4.192-1.993c0.648,0.347,1.334,0.633,2.05,0.851l1.557,4.377c0.571,0.064,1.148,0.104,1.737,0.104c0.588,0,1.165-0.04,1.736-0.104l1.558-4.377c0.715-0.218,1.399-0.504,2.049-0.851l4.193,1.993c0.909-0.725,1.733-1.549,2.458-2.458l-1.993-4.193c0.347-0.647,0.633-1.334,0.851-2.049L31.229,17.736zM16,20.871c-2.69,0-4.872-2.182-4.872-4.871c0-2.69,2.182-4.872,4.872-4.872c2.689,0,4.871,2.182,4.871,4.872C20.871,18.689,18.689,20.871,16,20.871z"></path><title>Link options.</title></g></g></g></g><!--z-index:44--><g   id="j_22" ><path  stroke="#444444" d="M 2169 1583 L 2469 1674" id="v-283" stroke-width="2" stroke-dasharray="30 30" fill="none" style="opacity: 1;"></path><path  fill="black" stroke="black" d="M 0 0 0 0" transform="matrix(0.9564109470072379,0.2920241435989811,-0.2920241435989811,0.9564109470072379,2169,1582.699951171875)"></path><path  fill="#444444" stroke="#444444" d="M 20 0 L 0 10 L 20 20 z" id="v-285" transform="matrix(-0.9564109761712583,-0.292024048083614,0.292024048083614,-0.9564109761712583,2466.0796602965015,1683.8641109847363)" style="opacity: 1;"></path><path  d="M 2169 1583 L 2469 1674" id="v-284" fill="none" style="cursor: auto; pointer-events: visiblepainted;"></path><g ><g id="v-277"  label-idx="0" cursor="move" transform="matrix(1,0,0,1,2319,1628.5)" style="cursor: default; opacity: 1;"><rect joint-selector="rect" id="v-280" fill="#ffffff" rx="3" ry="3" pointer-events="none" width="175.435302734375" height="61.56549644470215" transform="matrix(1,0,0,1,-87.4,-30.8)"></rect><text joint-selector="text" id="v-279" font-size="24px" xml:space="preserve" y="0.8em" fill="#444444" text-anchor="middle" pointer-events="none" font-family="Open Sans" font-weight="normal" transform="matrix(1,0,0,1,0,-26.6)"><tspan dy="0" >Indexa ideas de</tspan><tspan dy="1.2em" x="0" >MongoDB</tspan></text></g><g id="v-278"  label-idx="1" cursor="move" transform="matrix(1,0,0,1,2309,1654.9000244140625)" style="cursor: default; opacity: 1;"><rect joint-selector="rect" id="v-282" fill="#ffffff" rx="3" ry="3"  width="0" height="0" transform="matrix(1,0,0,1,0,0)" display="none"></rect><text joint-selector="text" id="v-281" fill="#000000" font-size="14" text-anchor="middle" pointer-events="none"></text></g></g><g  display="none" style="display: none;"></g><g  id="v-287" display="none"><g  id="v-275"><path  end="source" d="M 26 0 L 0 13 L 26 26 z"></path></g><g  id="v-276"><path  end="target" d="M 26 0 L 0 13 L 26 26 z"></path></g></g><g  id="v-286" display="none"><g  id="v-274" transform="translate(2207.2777553797678, 1594.6109191318628) "><g  event="remove"><circle r="11"></circle><path transform="scale(.8) translate(-16, -16)" d="M24.778,21.419 19.276,15.917 24.777,10.415 21.949,7.585 16.447,13.087 10.945,7.585 8.117,10.415 13.618,15.917 8.116,21.419 10.946,24.248 16.447,18.746 21.948,24.248z"></path><title>Remove link.</title></g><g  event="link:options"><circle r="11" transform="translate(25)"></circle><path fill="white" transform="scale(.55) translate(29, -16)" d="M31.229,17.736c0.064-0.571,0.104-1.148,0.104-1.736s-0.04-1.166-0.104-1.737l-4.377-1.557c-0.218-0.716-0.504-1.401-0.851-2.05l1.993-4.192c-0.725-0.91-1.549-1.734-2.458-2.459l-4.193,1.994c-0.647-0.347-1.334-0.632-2.049-0.849l-1.558-4.378C17.165,0.708,16.588,0.667,16,0.667s-1.166,0.041-1.737,0.105L12.707,5.15c-0.716,0.217-1.401,0.502-2.05,0.849L6.464,4.005C5.554,4.73,4.73,5.554,4.005,6.464l1.994,4.192c-0.347,0.648-0.632,1.334-0.849,2.05l-4.378,1.557C0.708,14.834,0.667,15.412,0.667,16s0.041,1.165,0.105,1.736l4.378,1.558c0.217,0.715,0.502,1.401,0.849,2.049l-1.994,4.193c0.725,0.909,1.549,1.733,2.459,2.458l4.192-1.993c0.648,0.347,1.334,0.633,2.05,0.851l1.557,4.377c0.571,0.064,1.148,0.104,1.737,0.104c0.588,0,1.165-0.04,1.736-0.104l1.558-4.377c0.715-0.218,1.399-0.504,2.049-0.851l4.193,1.993c0.909-0.725,1.733-1.549,2.458-2.458l-1.993-4.193c0.347-0.647,0.633-1.334,0.851-2.049L31.229,17.736zM16,20.871c-2.69,0-4.872-2.182-4.872-4.871c0-2.69,2.182-4.872,4.872-4.872c2.689,0,4.871,2.182,4.871,4.872C20.871,18.689,18.689,20.871,16,20.871z"></path><title>Link options.</title></g></g></g></g><!--z-index:45--></g><g ></g><g ></g><g ></g></g></svg>