<svg xmlns="http://www.w3.org/2000/svg" xmlns:xlink="http://www.w3.org/1999/xlink" version="1.1" viewBox="0 0 2390 4411" style="background: #ffffff"><defs><style>@import url(https://fonts.googleapis.com/css?family=Open+Sans:400,700);</style></defs><defs joint-selector="defs"></defs><g joint-selector="layers"  transform="matrix(1,0,0,1,0,0)"><g ></g><g ><!--z-index:0--><!--z-index:1--><!--z-index:2--><!--z-index:3--><!--z-index:4--><!--z-index:5--><!--z-index:6--><!--z-index:7--><!--z-index:8--><!--z-index:9--><!--z-index:10--><!--z-index:11--><!--z-index:12--><!--z-index:13--><!--z-index:14--><!--z-index:15--><!--z-index:16--><!--z-index:17--><!--z-index:18--><!--z-index:19--><!--z-index:20--><!--z-index:21--><!--z-index:22--><!--z-index:23--><!--z-index:24--><g   id="j_26"  transform="translate(20,4369)"><g id="v-321"><text  id="v-322" font-size="22px" xml:space="preserve" y="0.8em" font-weight="normal" text-anchor="start" fill="#444444" pointer-events="none" display="block" font-family="Open Sans"><tspan dy="0" >jueves, 9 de octubre de 2025, 17:02 hora estándar de Perú</tspan></text></g></g><!--z-index:25--><g   id="j_25"  transform="translate(20,4337)"><g id="v-319"><text  id="v-320" font-size="22px" xml:space="preserve" y="0.8em" font-weight="normal" text-anchor="start" fill="#444444" pointer-events="none" display="block" font-family="Open Sans"><tspan dy="0" >Diagrama Fusionado - Contexto con Contenedores de NEXUS</tspan></text></g></g><!--z-index:26--><g   id="j_24"  transform="translate(20,4291)"><g id="v-317"><text  id="v-318" font-size="36px" xml:space="preserve" y="0.8em" font-weight="normal" text-anchor="start" fill="#444444" pointer-events="none" display="block" font-family="Open Sans"><tspan dy="0" >[Container] NEXUS</tspan></text></g></g><!--z-index:27--><g   id="j_28"  transform="translate(199,145)" style=""><g id="v-339"><rect  id="v-340" width="1990" height="4011" rx="0" ry="0" stroke-width="2" stroke-dasharray="20,20" pointer-events="none" stroke="#0000ff" fill="#ffffff"></rect><text  id="v-341" font-size="24px" xml:space="preserve" y="3972" font-weight="normal" text-anchor="start" pointer-events="visible" font-family="Open Sans" fill="#0000ff" transform="matrix(1,0,0,1,15,0)"><tspan dy="0" >NEXUS</tspan></text><text  id="v-342" font-size="17px" xml:space="preserve" y="3996" font-weight="normal" text-anchor="start" pointer-events="visible" font-family="Open Sans" fill="#0000ff" transform="matrix(1,0,0,1,15,0)"><tspan dy="0" >[Software System]</tspan></text><image  id="v-343" pointer-events="visible"></image></g></g><!--z-index:28--><g   id="j_27"  transform="translate(219,1965)" style=""><g  id="v-332" style="opacity: 1;"><rect  id="v-333" rx="1" ry="1" stroke-width="2" pointer-events="visiblePainted" fill="#ffffff" stroke="#0000ff" width="450" height="300" style="fill: rgb(255, 255, 255); stroke: rgb(0, 0, 255);"></rect><text  id="v-334" font-size="34" xml:space="preserve" y="86.6" font-weight="bold" text-anchor="middle" pointer-events="visible" font-family="Open Sans" fill="#0000ff" dominant-baseline="hanging" transform="matrix(1,0,0,1,225,0)" style="fill: rgb(0, 0, 255);"><tspan dy="0" >Aplicación Web/Móvil</tspan></text><text  id="v-335" font-size="17" xml:space="preserve" y="128.6" text-anchor="middle" font-family="Open Sans" fill="#0000ff" dominant-baseline="hanging" transform="matrix(1,0,0,1,225,0)" style="display: block; fill: rgb(0, 0, 255);"><tspan dy="0" >[Container: HTML/CSS/JavaScript/React/Flutter]</tspan></text><text  id="v-336" font-size="24" xml:space="preserve" y="160.6" text-anchor="middle" font-family="Open Sans" fill="#0000ff" dominant-baseline="hanging" transform="matrix(1,0,0,1,225,0)" style="display: block; fill: rgb(0, 0, 255);"><tspan dy="0" >Interfaz de usuario para acceder a</tspan><tspan dy="1.2em" x="0" >la plataforma</tspan></text><g  id="v-337" color="#0000ff" transform="matrix(1,0,0,1,222.5,268)" style="fill: rgb(0, 0, 255);" display="none"><g ></g><g ></g><g ></g><g ></g></g><image  id="v-338"></image></g></g><!--z-index:29--><g   id="j_29"  transform="translate(969,1965)" style=""><g  id="v-350" style="opacity: 1;"><rect  id="v-351" rx="1" ry="1" stroke-width="2" pointer-events="visiblePainted" fill="#ffffff" stroke="#0000ff" width="450" height="300" style="fill: rgb(255, 255, 255); stroke: rgb(0, 0, 255);"></rect><text  id="v-352" font-size="34" xml:space="preserve" y="86.6" font-weight="bold" text-anchor="middle" pointer-events="visible" font-family="Open Sans" fill="#0000ff" dominant-baseline="hanging" transform="matrix(1,0,0,1,225,0)" style="fill: rgb(0, 0, 255);"><tspan dy="0" >API Backend</tspan></text><text  id="v-353" font-size="17" xml:space="preserve" y="128.6" text-anchor="middle" font-family="Open Sans" fill="#0000ff" dominant-baseline="hanging" transform="matrix(1,0,0,1,225,0)" style="display: block; fill: rgb(0, 0, 255);"><tspan dy="0" >[Container: Node.js/Express/Python/Django]</tspan></text><text  id="v-354" font-size="24" xml:space="preserve" y="160.6" text-anchor="middle" font-family="Open Sans" fill="#0000ff" dominant-baseline="hanging" transform="matrix(1,0,0,1,225,0)" style="display: block; fill: rgb(0, 0, 255);"><tspan dy="0" >Gestiona la lógica de negocio y</tspan><tspan dy="1.2em" x="0" >orquesta los servicios</tspan></text><g  id="v-355" color="#0000ff" transform="matrix(1,0,0,1,222.5,268)" style="fill: rgb(0, 0, 255);" display="none"><g ></g><g ></g><g ></g><g ></g></g><image  id="v-356"></image></g></g><!--z-index:30--><g   id="j_30"  transform="translate(1719,3165)" style=""><g  id="v-363" style="opacity: 1;"><rect  id="v-364" rx="1" ry="1" stroke-width="2" pointer-events="visiblePainted" fill="#ffffff" stroke="#0000ff" width="450" height="300" style="fill: rgb(255, 255, 255); stroke: rgb(0, 0, 255);"></rect><text  id="v-365" font-size="34" xml:space="preserve" y="72.2" font-weight="bold" text-anchor="middle" pointer-events="visible" font-family="Open Sans" fill="#0000ff" dominant-baseline="hanging" transform="matrix(1,0,0,1,225,0)" style="fill: rgb(0, 0, 255);"><tspan dy="0" >Base de Datos</tspan></text><text  id="v-366" font-size="17" xml:space="preserve" y="114.2" text-anchor="middle" font-family="Open Sans" fill="#0000ff" dominant-baseline="hanging" transform="matrix(1,0,0,1,225,0)" style="display: block; fill: rgb(0, 0, 255);"><tspan dy="0" >[Container: PostgreSQL/MongoDB]</tspan></text><text  id="v-367" font-size="24" xml:space="preserve" y="146.2" text-anchor="middle" font-family="Open Sans" fill="#0000ff" dominant-baseline="hanging" transform="matrix(1,0,0,1,225,0)" style="display: block; fill: rgb(0, 0, 255);"><tspan dy="0" >Almacena información de</tspan><tspan dy="1.2em" x="0" >usuarios, ideas, proyectos y</tspan><tspan dy="1.2em" x="0" >transacciones</tspan></text><g  id="v-368" color="#0000ff" transform="matrix(1,0,0,1,222.5,268)" style="fill: rgb(0, 0, 255);" display="none"><g ></g><g ></g><g ></g><g ></g></g><image  id="v-369"></image></g></g><!--z-index:31--><g   id="j_31"  transform="translate(1719,2565)" style=""><g  id="v-379" style="opacity: 1;"><rect  id="v-380" rx="1" ry="1" stroke-width="2" pointer-events="visiblePainted" fill="#ffffff" stroke="#0000ff" width="450" height="300" style="fill: rgb(255, 255, 255); stroke: rgb(0, 0, 255);"></rect><text  id="v-381" font-size="34" xml:space="preserve" y="66.2" font-weight="bold" text-anchor="middle" pointer-events="visible" font-family="Open Sans" fill="#0000ff" dominant-baseline="hanging" transform="matrix(1,0,0,1,225,0)" style="fill: rgb(0, 0, 255);"><tspan dy="0" >Módulo de Búsqueda de</tspan><tspan dy="1.2em" x="0" >ideas</tspan></text><text  id="v-382" font-size="17" xml:space="preserve" y="149" text-anchor="middle" font-family="Open Sans" fill="#0000ff" dominant-baseline="hanging" transform="matrix(1,0,0,1,225,0)" style="display: block; fill: rgb(0, 0, 255);"><tspan dy="0" >[Container: Elasticsearch/Algolia]</tspan></text><text  id="v-383" font-size="24" xml:space="preserve" y="181" text-anchor="middle" font-family="Open Sans" fill="#0000ff" dominant-baseline="hanging" transform="matrix(1,0,0,1,225,0)" style="display: block; fill: rgb(0, 0, 255);"><tspan dy="0" >Motor de búsqueda y filtros para</tspan><tspan dy="1.2em" x="0" >encontrar ideas</tspan></text><g  id="v-384" color="#0000ff" transform="matrix(1,0,0,1,222.5,268)" style="fill: rgb(0, 0, 255);" display="none"><g ></g><g ></g><g ></g><g ></g></g><image  id="v-385"></image></g></g><!--z-index:32--><g   id="j_32"  transform="translate(1719,165)" style=""><g  id="v-395" style="opacity: 1;"><rect  id="v-396" rx="1" ry="1" stroke-width="2" pointer-events="visiblePainted" fill="#ffffff" stroke="#0000ff" width="450" height="300" style="fill: rgb(255, 255, 255); stroke: rgb(0, 0, 255);"></rect><text  id="v-397" font-size="34" xml:space="preserve" y="66.2" font-weight="bold" text-anchor="middle" pointer-events="visible" font-family="Open Sans" fill="#0000ff" dominant-baseline="hanging" transform="matrix(1,0,0,1,225,0)" style="fill: rgb(0, 0, 255);"><tspan dy="0" >Módulo de Colaboración</tspan><tspan dy="1.2em" x="0" >y Comunicación</tspan></text><text  id="v-398" font-size="17" xml:space="preserve" y="149" text-anchor="middle" font-family="Open Sans" fill="#0000ff" dominant-baseline="hanging" transform="matrix(1,0,0,1,225,0)" style="display: block; fill: rgb(0, 0, 255);"><tspan dy="0" >[Container: WebSocket/Firebase/Socket.io]</tspan></text><text  id="v-399" font-size="24" xml:space="preserve" y="181" text-anchor="middle" font-family="Open Sans" fill="#0000ff" dominant-baseline="hanging" transform="matrix(1,0,0,1,225,0)" style="display: block; fill: rgb(0, 0, 255);"><tspan dy="0" >Gestiona mensajes directos y</tspan><tspan dy="1.2em" x="0" >comunicación en tiempo real</tspan></text><g  id="v-400" color="#0000ff" transform="matrix(1,0,0,1,222.5,268)" style="fill: rgb(0, 0, 255);" display="none"><g ></g><g ></g><g ></g><g ></g></g><image  id="v-401"></image></g></g><!--z-index:33--><g   id="j_33"  transform="translate(1719,1365)" style=""><g  id="v-408" style="opacity: 1;"><rect  id="v-409" rx="1" ry="1" stroke-width="2" pointer-events="visiblePainted" fill="#ffffff" stroke="#0000ff" width="450" height="300" style="fill: rgb(255, 255, 255); stroke: rgb(0, 0, 255);"></rect><text  id="v-410" font-size="34" xml:space="preserve" y="86.6" font-weight="bold" text-anchor="middle" pointer-events="visible" font-family="Open Sans" fill="#0000ff" dominant-baseline="hanging" transform="matrix(1,0,0,1,225,0)" style="fill: rgb(0, 0, 255);"><tspan dy="0" >Módulo de Pagos</tspan></text><text  id="v-411" font-size="17" xml:space="preserve" y="128.6" text-anchor="middle" font-family="Open Sans" fill="#0000ff" dominant-baseline="hanging" transform="matrix(1,0,0,1,225,0)" style="display: block; fill: rgb(0, 0, 255);"><tspan dy="0" >[Container: Stripe API/PayPal SDK]</tspan></text><text  id="v-412" font-size="24" xml:space="preserve" y="160.6" text-anchor="middle" font-family="Open Sans" fill="#0000ff" dominant-baseline="hanging" transform="matrix(1,0,0,1,225,0)" style="display: block; fill: rgb(0, 0, 255);"><tspan dy="0" >Gestiona recompensas,</tspan><tspan dy="1.2em" x="0" >comisiones y transacciones</tspan></text><g  id="v-413" color="#0000ff" transform="matrix(1,0,0,1,222.5,268)" style="fill: rgb(0, 0, 255);" display="none"><g ></g><g ></g><g ></g><g ></g></g><image  id="v-414"></image></g></g><!--z-index:34--><g   id="j_34"  transform="translate(1719,1965)" style=""><g  id="v-421" style="opacity: 1;"><rect  id="v-422" rx="1" ry="1" stroke-width="2" pointer-events="visiblePainted" fill="#ffffff" stroke="#0000ff" width="450" height="300" style="fill: rgb(255, 255, 255); stroke: rgb(0, 0, 255);"></rect><text  id="v-423" font-size="34" xml:space="preserve" y="66.2" font-weight="bold" text-anchor="middle" pointer-events="visible" font-family="Open Sans" fill="#0000ff" dominant-baseline="hanging" transform="matrix(1,0,0,1,225,0)" style="fill: rgb(0, 0, 255);"><tspan dy="0" >Módulo de Publicación</tspan><tspan dy="1.2em" x="0" >de ideas</tspan></text><text  id="v-424" font-size="17" xml:space="preserve" y="149" text-anchor="middle" font-family="Open Sans" fill="#0000ff" dominant-baseline="hanging" transform="matrix(1,0,0,1,225,0)" style="display: block; fill: rgb(0, 0, 255);"><tspan dy="0" >[Container: Microservicio]</tspan></text><text  id="v-425" font-size="24" xml:space="preserve" y="181" text-anchor="middle" font-family="Open Sans" fill="#0000ff" dominant-baseline="hanging" transform="matrix(1,0,0,1,225,0)" style="display: block; fill: rgb(0, 0, 255);"><tspan dy="0" >Permite crear y publicar ideas con</tspan><tspan dy="1.2em" x="0" >descripciones estructuradas</tspan></text><g  id="v-426" color="#0000ff" transform="matrix(1,0,0,1,222.5,268)" style="fill: rgb(0, 0, 255);" display="none"><g ></g><g ></g><g ></g><g ></g></g><image  id="v-427"></image></g></g><!--z-index:35--><g   id="j_35"  transform="translate(1719,765)" style=""><g  id="v-434" style="opacity: 1;"><rect  id="v-435" rx="1" ry="1" stroke-width="2" pointer-events="visiblePainted" fill="#ffffff" stroke="#0000ff" width="450" height="300" style="fill: rgb(255, 255, 255); stroke: rgb(0, 0, 255);"></rect><text  id="v-436" font-size="34" xml:space="preserve" y="66.2" font-weight="bold" text-anchor="middle" pointer-events="visible" font-family="Open Sans" fill="#0000ff" dominant-baseline="hanging" transform="matrix(1,0,0,1,225,0)" style="fill: rgb(0, 0, 255);"><tspan dy="0" >Módulo de Gestion de</tspan><tspan dy="1.2em" x="0" >Perfil</tspan></text><text  id="v-437" font-size="17" xml:space="preserve" y="149" text-anchor="middle" font-family="Open Sans" fill="#0000ff" dominant-baseline="hanging" transform="matrix(1,0,0,1,225,0)" style="display: block; fill: rgb(0, 0, 255);"><tspan dy="0" >[Container: Auth0/JWT/OAuth2]</tspan></text><text  id="v-438" font-size="24" xml:space="preserve" y="181" text-anchor="middle" font-family="Open Sans" fill="#0000ff" dominant-baseline="hanging" transform="matrix(1,0,0,1,225,0)" style="display: block; fill: rgb(0, 0, 255);"><tspan dy="0" >Gestiona autenticación, perfiles y</tspan><tspan dy="1.2em" x="0" >credenciales</tspan></text><g  id="v-439" color="#0000ff" transform="matrix(1,0,0,1,222.5,268)" style="fill: rgb(0, 0, 255);" display="none"><g ></g><g ></g><g ></g><g ></g></g><image  id="v-440"></image></g></g><!--z-index:36--><g   id="j_36"  transform="translate(1719,3765)" style=""><g  id="v-450" style="opacity: 1;"><rect  id="v-451" rx="1" ry="1" stroke-width="2" pointer-events="visiblePainted" fill="#ffffff" stroke="#0000ff" width="450" height="300" style="fill: rgb(255, 255, 255); stroke: rgb(0, 0, 255);"></rect><text  id="v-452" font-size="34" xml:space="preserve" y="66.2" font-weight="bold" text-anchor="middle" pointer-events="visible" font-family="Open Sans" fill="#0000ff" dominant-baseline="hanging" transform="matrix(1,0,0,1,225,0)" style="fill: rgb(0, 0, 255);"><tspan dy="0" >Almacenamiento de</tspan><tspan dy="1.2em" x="0" >Archivos</tspan></text><text  id="v-453" font-size="17" xml:space="preserve" y="149" text-anchor="middle" font-family="Open Sans" fill="#0000ff" dominant-baseline="hanging" transform="matrix(1,0,0,1,225,0)" style="display: block; fill: rgb(0, 0, 255);"><tspan dy="0" >[Container: AWS S3/Google Cloud Storage]</tspan></text><text  id="v-454" font-size="24" xml:space="preserve" y="181" text-anchor="middle" font-family="Open Sans" fill="#0000ff" dominant-baseline="hanging" transform="matrix(1,0,0,1,225,0)" style="display: block; fill: rgb(0, 0, 255);"><tspan dy="0" >Almacena imágenes, documentos</tspan><tspan dy="1.2em" x="0" >y prototipos</tspan></text><g  id="v-455" color="#0000ff" transform="matrix(1,0,0,1,222.5,268)" style="fill: rgb(0, 0, 255);" display="none"><g ></g><g ></g><g ></g><g ></g></g><image  id="v-456"></image></g></g><!--z-index:37--><g   id="j_37" ><path  stroke="#444444" d="M 669 2115 L 969 2115" id="v-469" stroke-width="2" stroke-dasharray="30 30" fill="none" style="opacity: 1;"></path><path  fill="black" stroke="black" d="M 0 0 0 0" transform="matrix(1,0,0,1,669,2115)"></path><path  fill="#444444" stroke="#444444" d="M 20 0 L 0 10 L 20 20 z" id="v-471" transform="matrix(-1,1.2246467991473532e-16,-1.2246467991473532e-16,-1,968.9999999999991,2125)" style="opacity: 1;"></path><path  d="M 669 2115 L 969 2115" id="v-470" fill="none" style="cursor: auto; pointer-events: visiblepainted;"></path><g ><g id="v-463"  label-idx="0" cursor="move" transform="matrix(1,0,0,1,819,2115)" style="cursor: default; opacity: 1;"><rect joint-selector="rect" id="v-466" fill="#ffffff" rx="3" ry="3" pointer-events="none" width="198.98342895507812" height="61.820587158203125" transform="matrix(1,0,0,1,-99.5,-30.9)"></rect><text joint-selector="text" id="v-465" font-size="24px" xml:space="preserve" y="0.8em" fill="#444444" text-anchor="middle" pointer-events="none" font-family="Open Sans" font-weight="normal" transform="matrix(1,0,0,1,0,-22.6)"><tspan dy="0" >Realiza peticiones</tspan><tspan dy="1.2em" x="0" >HTTP/REST</tspan></text></g><g id="v-464"  label-idx="1" cursor="move" transform="matrix(1,0,0,1,809,2141.39990234375)" style="cursor: default; opacity: 1;"><rect joint-selector="rect" id="v-468" fill="#ffffff" rx="3" ry="3"  width="0" height="0" transform="matrix(1,0,0,1,0,0)" display="none"></rect><text joint-selector="text" id="v-467" fill="#000000" font-size="14" text-anchor="middle" pointer-events="none"></text></g></g><g  display="none" style="display: none;"></g><g  id="v-473" display="none"><g  id="v-461"><path  end="source" d="M 26 0 L 0 13 L 26 26 z"></path></g><g  id="v-462"><path  end="target" d="M 26 0 L 0 13 L 26 26 z"></path></g></g><g  id="v-472" display="none"><g  id="v-460" transform="translate(709, 2115) "><g  event="remove"><circle r="11"></circle><path transform="scale(.8) translate(-16, -16)" d="M24.778,21.419 19.276,15.917 24.777,10.415 21.949,7.585 16.447,13.087 10.945,7.585 8.117,10.415 13.618,15.917 8.116,21.419 10.946,24.248 16.447,18.746 21.948,24.248z"></path><title>Remove link.</title></g><g  event="link:options"><circle r="11" transform="translate(25)"></circle><path fill="white" transform="scale(.55) translate(29, -16)" d="M31.229,17.736c0.064-0.571,0.104-1.148,0.104-1.736s-0.04-1.166-0.104-1.737l-4.377-1.557c-0.218-0.716-0.504-1.401-0.851-2.05l1.993-4.192c-0.725-0.91-1.549-1.734-2.458-2.459l-4.193,1.994c-0.647-0.347-1.334-0.632-2.049-0.849l-1.558-4.378C17.165,0.708,16.588,0.667,16,0.667s-1.166,0.041-1.737,0.105L12.707,5.15c-0.716,0.217-1.401,0.502-2.05,0.849L6.464,4.005C5.554,4.73,4.73,5.554,4.005,6.464l1.994,4.192c-0.347,0.648-0.632,1.334-0.849,2.05l-4.378,1.557C0.708,14.834,0.667,15.412,0.667,16s0.041,1.165,0.105,1.736l4.378,1.558c0.217,0.715,0.502,1.401,0.849,2.049l-1.994,4.193c0.725,0.909,1.549,1.733,2.459,2.458l4.192-1.993c0.648,0.347,1.334,0.633,2.05,0.851l1.557,4.377c0.571,0.064,1.148,0.104,1.737,0.104c0.588,0,1.165-0.04,1.736-0.104l1.558-4.377c0.715-0.218,1.399-0.504,2.049-0.851l4.193,1.993c0.909-0.725,1.733-1.549,2.458-2.458l-1.993-4.193c0.347-0.647,0.633-1.334,0.851-2.049L31.229,17.736zM16,20.871c-2.69,0-4.872-2.182-4.872-4.871c0-2.69,2.182-4.872,4.872-4.872c2.689,0,4.871,2.182,4.871,4.872C20.871,18.689,18.689,20.871,16,20.871z"></path><title>Link options.</title></g></g></g></g><!--z-index:38--><g   id="j_38" ><path  stroke="#444444" d="M 1282 2265 L 1714 3006 C 1717.3333333333333 3012 1721 3017.6666666666665 1725 3023 L 1832 3165" id="v-487" stroke-width="2" stroke-dasharray="30 30" fill="none" style="opacity: 1;"></path><path  fill="black" stroke="black" d="M 0 0 0 0" transform="matrix(0.5038709988513701,0.8637789164575173,-0.8637789164575173,0.5038709988513701,1281.5,2265)"></path><path  fill="#444444" stroke="#444444" d="M 20 0 L 0 10 L 20 20 z" id="v-489" transform="matrix(-0.6000000826393699,-0.7999999380204659,0.7999999380204659,-0.6000000826393699,1823.5000014461884,3171.0000002065976)" style="opacity: 1;"></path><path  d="M 1282 2265 L 1714 3006 C 1717.3333333333333 3012 1721 3017.6666666666665 1725 3023 L 1832 3165" id="v-488" fill="none" style="cursor: auto; pointer-events: visiblepainted;"></path><g ><g id="v-481"  label-idx="0" cursor="move" transform="matrix(1,0,0,1,1547.877685546875,2721.05419921875)" style="cursor: default; opacity: 1;"><rect joint-selector="rect" id="v-484" fill="#ffffff" rx="3" ry="3" pointer-events="none" width="147.4159698486328" height="61.820587158203125" transform="matrix(1,0,0,1,-72.2,-30.9)"></rect><text joint-selector="text" id="v-483" font-size="24px" xml:space="preserve" y="0.8em" fill="#444444" text-anchor="middle" pointer-events="none" font-family="Open Sans" font-weight="normal" transform="matrix(1,0,0,1,0,-22.6)"><tspan dy="0" >Lee y escribe</tspan><tspan dy="1.2em" x="0" >datos</tspan></text></g><g id="v-482"  label-idx="1" cursor="move" transform="matrix(1,0,0,1,1537.877685546875,2747.4541015625)" style="cursor: default; opacity: 1;"><rect joint-selector="rect" id="v-486" fill="#ffffff" rx="3" ry="3"  width="0" height="0" transform="matrix(1,0,0,1,0,0)" display="none"></rect><text joint-selector="text" id="v-485" fill="#000000" font-size="14" text-anchor="middle" pointer-events="none"></text></g></g><g  display="none" style="display: none;"><g  transform="translate(1719, 3015)" id="v-478"><circle  idx="0" r="10"></circle><path  idx="0" d="M16,5.333c-7.732,0-14,4.701-14,10.5c0,1.982,0.741,3.833,2.016,5.414L2,25.667l5.613-1.441c2.339,1.317,5.237,2.107,8.387,2.107c7.732,0,14-4.701,14-10.5C30,10.034,23.732,5.333,16,5.333z" transform="translate(5, -33)"></path><path  idx="0" transform="scale(.8) translate(9.5, -37)" d="M24.778,21.419 19.276,15.917 24.777,10.415 21.949,7.585 16.447,13.087 10.945,7.585 8.117,10.415 13.618,15.917 8.116,21.419 10.946,24.248 16.447,18.746 21.948,24.248z"><title>Remove vertex.</title></path></g></g><g  id="v-491" display="none"><g  id="v-479"><path  end="source" d="M 26 0 L 0 13 L 26 26 z"></path></g><g  id="v-480"><path  end="target" d="M 26 0 L 0 13 L 26 26 z"></path></g></g><g  id="v-490" display="none"><g  id="v-477" transform="translate(1302.1461417027217, 2299.556229170641) "><g  event="remove"><circle r="11"></circle><path transform="scale(.8) translate(-16, -16)" d="M24.778,21.419 19.276,15.917 24.777,10.415 21.949,7.585 16.447,13.087 10.945,7.585 8.117,10.415 13.618,15.917 8.116,21.419 10.946,24.248 16.447,18.746 21.948,24.248z"></path><title>Remove link.</title></g><g  event="link:options"><circle r="11" transform="translate(25)"></circle><path fill="white" transform="scale(.55) translate(29, -16)" d="M31.229,17.736c0.064-0.571,0.104-1.148,0.104-1.736s-0.04-1.166-0.104-1.737l-4.377-1.557c-0.218-0.716-0.504-1.401-0.851-2.05l1.993-4.192c-0.725-0.91-1.549-1.734-2.458-2.459l-4.193,1.994c-0.647-0.347-1.334-0.632-2.049-0.849l-1.558-4.378C17.165,0.708,16.588,0.667,16,0.667s-1.166,0.041-1.737,0.105L12.707,5.15c-0.716,0.217-1.401,0.502-2.05,0.849L6.464,4.005C5.554,4.73,4.73,5.554,4.005,6.464l1.994,4.192c-0.347,0.648-0.632,1.334-0.849,2.05l-4.378,1.557C0.708,14.834,0.667,15.412,0.667,16s0.041,1.165,0.105,1.736l4.378,1.558c0.217,0.715,0.502,1.401,0.849,2.049l-1.994,4.193c0.725,0.909,1.549,1.733,2.459,2.458l4.192-1.993c0.648,0.347,1.334,0.633,2.05,0.851l1.557,4.377c0.571,0.064,1.148,0.104,1.737,0.104c0.588,0,1.165-0.04,1.736-0.104l1.558-4.377c0.715-0.218,1.399-0.504,2.049-0.851l4.193,1.993c0.909-0.725,1.733-1.549,2.458-2.458l-1.993-4.193c0.347-0.647,0.633-1.334,0.851-2.049L31.229,17.736zM16,20.871c-2.69,0-4.872-2.182-4.872-4.871c0-2.69,2.182-4.872,4.872-4.872c2.689,0,4.871,2.182,4.871,4.872C20.871,18.689,18.689,20.871,16,20.871z"></path><title>Link options.</title></g></g></g></g><!--z-index:39--><g   id="j_39" ><path  stroke="#444444" d="M 1382 2265 L 1757 2565" id="v-504" stroke-width="2" stroke-dasharray="30 30" fill="none" style="opacity: 1;"></path><path  fill="black" stroke="black" d="M 0 0 0 0" transform="matrix(0.7808688000832672,0.624695059254128,-0.624695059254128,0.7808688000832672,1381.5,2265)"></path><path  fill="#444444" stroke="#444444" d="M 20 0 L 0 10 L 20 20 z" id="v-506" transform="matrix(-0.7808688416748548,-0.6246950072646416,0.6246950072646416,-0.7808688416748548,1750.253022523789,2572.8085681768944)" style="opacity: 1;"></path><path  d="M 1382 2265 L 1757 2565" id="v-505" fill="none" style="cursor: auto; pointer-events: visiblepainted;"></path><g ><g id="v-498"  label-idx="0" cursor="move" transform="matrix(1,0,0,1,1569.5,2415)" style="cursor: default; opacity: 1;"><rect joint-selector="rect" id="v-501" fill="#ffffff" rx="3" ry="3" pointer-events="none" width="160.5733642578125" height="90.62059020996094" transform="matrix(1,0,0,1,-78.8,-45.3)"></rect><text joint-selector="text" id="v-500" font-size="24px" xml:space="preserve" y="0.8em" fill="#444444" text-anchor="middle" pointer-events="none" font-family="Open Sans" font-weight="normal" transform="matrix(1,0,0,1,0,-37)"><tspan dy="0" >Consulta</tspan><tspan dy="1.2em" x="0" >búsquedas de</tspan><tspan dy="1.2em" x="0" >ideas</tspan></text></g><g id="v-499"  label-idx="1" cursor="move" transform="matrix(1,0,0,1,1559.5,2455.800048828125)" style="cursor: default; opacity: 1;"><rect joint-selector="rect" id="v-503" fill="#ffffff" rx="3" ry="3"  width="0" height="0" transform="matrix(1,0,0,1,0,0)" display="none"></rect><text joint-selector="text" id="v-502" fill="#000000" font-size="14" text-anchor="middle" pointer-events="none"></text></g></g><g  display="none" style="display: none;"></g><g  id="v-508" display="none"><g  id="v-496"><path  end="source" d="M 26 0 L 0 13 L 26 26 z"></path></g><g  id="v-497"><path  end="target" d="M 26 0 L 0 13 L 26 26 z"></path></g></g><g  id="v-507" display="none"><g  id="v-495" transform="translate(1413.2347523777212, 2289.987801902177) "><g  event="remove"><circle r="11"></circle><path transform="scale(.8) translate(-16, -16)" d="M24.778,21.419 19.276,15.917 24.777,10.415 21.949,7.585 16.447,13.087 10.945,7.585 8.117,10.415 13.618,15.917 8.116,21.419 10.946,24.248 16.447,18.746 21.948,24.248z"></path><title>Remove link.</title></g><g  event="link:options"><circle r="11" transform="translate(25)"></circle><path fill="white" transform="scale(.55) translate(29, -16)" d="M31.229,17.736c0.064-0.571,0.104-1.148,0.104-1.736s-0.04-1.166-0.104-1.737l-4.377-1.557c-0.218-0.716-0.504-1.401-0.851-2.05l1.993-4.192c-0.725-0.91-1.549-1.734-2.458-2.459l-4.193,1.994c-0.647-0.347-1.334-0.632-2.049-0.849l-1.558-4.378C17.165,0.708,16.588,0.667,16,0.667s-1.166,0.041-1.737,0.105L12.707,5.15c-0.716,0.217-1.401,0.502-2.05,0.849L6.464,4.005C5.554,4.73,4.73,5.554,4.005,6.464l1.994,4.192c-0.347,0.648-0.632,1.334-0.849,2.05l-4.378,1.557C0.708,14.834,0.667,15.412,0.667,16s0.041,1.165,0.105,1.736l4.378,1.558c0.217,0.715,0.502,1.401,0.849,2.049l-1.994,4.193c0.725,0.909,1.549,1.733,2.459,2.458l4.192-1.993c0.648,0.347,1.334,0.633,2.05,0.851l1.557,4.377c0.571,0.064,1.148,0.104,1.737,0.104c0.588,0,1.165-0.04,1.736-0.104l1.558-4.377c0.715-0.218,1.399-0.504,2.049-0.851l4.193,1.993c0.909-0.725,1.733-1.549,2.458-2.458l-1.993-4.193c0.347-0.647,0.633-1.334,0.851-2.049L31.229,17.736zM16,20.871c-2.69,0-4.872-2.182-4.872-4.871c0-2.69,2.182-4.872,4.872-4.872c2.689,0,4.871,2.182,4.871,4.872C20.871,18.689,18.689,20.871,16,20.871z"></path><title>Link options.</title></g></g></g></g><!--z-index:40--><g   id="j_40" ><path  stroke="#444444" d="M 1247 1965 L 1716 624 C 1718 618 1721 612.3333333333333 1725 607 L 1832 465" id="v-522" stroke-width="2" stroke-dasharray="30 30" fill="none" style="opacity: 1;"></path><path  fill="black" stroke="black" d="M 0 0 0 0" transform="matrix(0.33035030683284927,-0.943858397629349,0.943858397629349,0.33035030683284927,1246.5,1965)"></path><path  fill="#444444" stroke="#444444" d="M 20 0 L 0 10 L 20 20 z" id="v-524" transform="matrix(-0.5999999761129288,0.8000000179153028,-0.8000000179153028,-0.5999999761129288,1839.4999999402817,470.99999958197697)" style="opacity: 1;"></path><path  d="M 1247 1965 L 1716 624 C 1718 618 1721 612.3333333333333 1725 607 L 1832 465" id="v-523" fill="none" style="cursor: auto; pointer-events: visiblepainted;"></path><g ><g id="v-516"  label-idx="0" cursor="move" transform="matrix(1,0,0,1,1514.036865234375,1201.46826171875)" style="cursor: default; opacity: 1;"><rect joint-selector="rect" id="v-519" fill="#ffffff" rx="3" ry="3" pointer-events="none" width="185.65480041503906" height="61.820587158203125" transform="matrix(1,0,0,1,-95.6,-30.9)"></rect><text joint-selector="text" id="v-518" font-size="24px" xml:space="preserve" y="0.8em" fill="#444444" text-anchor="middle" pointer-events="none" font-family="Open Sans" font-weight="normal" transform="matrix(1,0,0,1,0,-22.6)"><tspan dy="0" >Gestiona</tspan><tspan dy="1.2em" x="0" >comunicaciones</tspan></text></g><g id="v-517"  label-idx="1" cursor="move" transform="matrix(1,0,0,1,1504.036865234375,1227.8682861328125)" style="cursor: default; opacity: 1;"><rect joint-selector="rect" id="v-521" fill="#ffffff" rx="3" ry="3"  width="0" height="0" transform="matrix(1,0,0,1,0,0)" display="none"></rect><text joint-selector="text" id="v-520" fill="#000000" font-size="14" text-anchor="middle" pointer-events="none"></text></g></g><g  display="none" style="display: none;"><g  transform="translate(1719, 615)" id="v-513"><circle  idx="0" r="10"></circle><path  idx="0" d="M16,5.333c-7.732,0-14,4.701-14,10.5c0,1.982,0.741,3.833,2.016,5.414L2,25.667l5.613-1.441c2.339,1.317,5.237,2.107,8.387,2.107c7.732,0,14-4.701,14-10.5C30,10.034,23.732,5.333,16,5.333z" transform="translate(5, -33)"></path><path  idx="0" transform="scale(.8) translate(9.5, -37)" d="M24.778,21.419 19.276,15.917 24.777,10.415 21.949,7.585 16.447,13.087 10.945,7.585 8.117,10.415 13.618,15.917 8.116,21.419 10.946,24.248 16.447,18.746 21.948,24.248z"><title>Remove vertex.</title></path></g></g><g  id="v-526" display="none"><g  id="v-514"><path  end="source" d="M 26 0 L 0 13 L 26 26 z"></path></g><g  id="v-515"><path  end="target" d="M 26 0 L 0 13 L 26 26 z"></path></g></g><g  id="v-525" display="none"><g  id="v-512" transform="translate(1260.2052374293742, 1927.2425940452226) "><g  event="remove"><circle r="11"></circle><path transform="scale(.8) translate(-16, -16)" d="M24.778,21.419 19.276,15.917 24.777,10.415 21.949,7.585 16.447,13.087 10.945,7.585 8.117,10.415 13.618,15.917 8.116,21.419 10.946,24.248 16.447,18.746 21.948,24.248z"></path><title>Remove link.</title></g><g  event="link:options"><circle r="11" transform="translate(25)"></circle><path fill="white" transform="scale(.55) translate(29, -16)" d="M31.229,17.736c0.064-0.571,0.104-1.148,0.104-1.736s-0.04-1.166-0.104-1.737l-4.377-1.557c-0.218-0.716-0.504-1.401-0.851-2.05l1.993-4.192c-0.725-0.91-1.549-1.734-2.458-2.459l-4.193,1.994c-0.647-0.347-1.334-0.632-2.049-0.849l-1.558-4.378C17.165,0.708,16.588,0.667,16,0.667s-1.166,0.041-1.737,0.105L12.707,5.15c-0.716,0.217-1.401,0.502-2.05,0.849L6.464,4.005C5.554,4.73,4.73,5.554,4.005,6.464l1.994,4.192c-0.347,0.648-0.632,1.334-0.849,2.05l-4.378,1.557C0.708,14.834,0.667,15.412,0.667,16s0.041,1.165,0.105,1.736l4.378,1.558c0.217,0.715,0.502,1.401,0.849,2.049l-1.994,4.193c0.725,0.909,1.549,1.733,2.459,2.458l4.192-1.993c0.648,0.347,1.334,0.633,2.05,0.851l1.557,4.377c0.571,0.064,1.148,0.104,1.737,0.104c0.588,0,1.165-0.04,1.736-0.104l1.558-4.377c0.715-0.218,1.399-0.504,2.049-0.851l4.193,1.993c0.909-0.725,1.733-1.549,2.458-2.458l-1.993-4.193c0.347-0.647,0.633-1.334,0.851-2.049L31.229,17.736zM16,20.871c-2.69,0-4.872-2.182-4.872-4.871c0-2.69,2.182-4.872,4.872-4.872c2.689,0,4.871,2.182,4.871,4.872C20.871,18.689,18.689,20.871,16,20.871z"></path><title>Link options.</title></g></g></g></g><!--z-index:41--><g   id="j_41" ><path  stroke="#444444" d="M 1382 1965 L 1757 1665" id="v-539" stroke-width="2" stroke-dasharray="30 30" fill="none" style="opacity: 1;"></path><path  fill="black" stroke="black" d="M 0 0 0 0" transform="matrix(0.7808686753084834,-0.624695215222571,0.624695215222571,0.7808686753084834,1381.5,1965)"></path><path  fill="#444444" stroke="#444444" d="M 20 0 L 0 10 L 20 20 z" id="v-541" transform="matrix(-0.7808688416748546,0.6246950072646418,-0.6246950072646418,-0.7808688416748546,1762.7469226690816,1672.8086865862902)" style="opacity: 1;"></path><path  d="M 1382 1965 L 1757 1665" id="v-540" fill="none" style="cursor: auto; pointer-events: visiblepainted;"></path><g ><g id="v-533"  label-idx="0" cursor="move" transform="matrix(1,0,0,1,1569.5,1815)" style="cursor: default; opacity: 1;"><rect joint-selector="rect" id="v-536" fill="#ffffff" rx="3" ry="3" pointer-events="none" width="184.29867553710938" height="61.820587158203125" transform="matrix(1,0,0,1,-89.9,-30.9)"></rect><text joint-selector="text" id="v-535" font-size="24px" xml:space="preserve" y="0.8em" fill="#444444" text-anchor="middle" pointer-events="none" font-family="Open Sans" font-weight="normal" transform="matrix(1,0,0,1,0,-22.6)"><tspan dy="0" >Procesa pagos y</tspan><tspan dy="1.2em" x="0" >recompensas</tspan></text></g><g id="v-534"  label-idx="1" cursor="move" transform="matrix(1,0,0,1,1559.5,1841.4000244140625)" style="cursor: default; opacity: 1;"><rect joint-selector="rect" id="v-538" fill="#ffffff" rx="3" ry="3"  width="0" height="0" transform="matrix(1,0,0,1,0,0)" display="none"></rect><text joint-selector="text" id="v-537" fill="#000000" font-size="14" text-anchor="middle" pointer-events="none"></text></g></g><g  display="none" style="display: none;"></g><g  id="v-543" display="none"><g  id="v-531"><path  end="source" d="M 26 0 L 0 13 L 26 26 z"></path></g><g  id="v-532"><path  end="target" d="M 26 0 L 0 13 L 26 26 z"></path></g></g><g  id="v-542" display="none"><g  id="v-530" transform="translate(1413.2347523777212, 1940.0121980978233) "><g  event="remove"><circle r="11"></circle><path transform="scale(.8) translate(-16, -16)" d="M24.778,21.419 19.276,15.917 24.777,10.415 21.949,7.585 16.447,13.087 10.945,7.585 8.117,10.415 13.618,15.917 8.116,21.419 10.946,24.248 16.447,18.746 21.948,24.248z"></path><title>Remove link.</title></g><g  event="link:options"><circle r="11" transform="translate(25)"></circle><path fill="white" transform="scale(.55) translate(29, -16)" d="M31.229,17.736c0.064-0.571,0.104-1.148,0.104-1.736s-0.04-1.166-0.104-1.737l-4.377-1.557c-0.218-0.716-0.504-1.401-0.851-2.05l1.993-4.192c-0.725-0.91-1.549-1.734-2.458-2.459l-4.193,1.994c-0.647-0.347-1.334-0.632-2.049-0.849l-1.558-4.378C17.165,0.708,16.588,0.667,16,0.667s-1.166,0.041-1.737,0.105L12.707,5.15c-0.716,0.217-1.401,0.502-2.05,0.849L6.464,4.005C5.554,4.73,4.73,5.554,4.005,6.464l1.994,4.192c-0.347,0.648-0.632,1.334-0.849,2.05l-4.378,1.557C0.708,14.834,0.667,15.412,0.667,16s0.041,1.165,0.105,1.736l4.378,1.558c0.217,0.715,0.502,1.401,0.849,2.049l-1.994,4.193c0.725,0.909,1.549,1.733,2.459,2.458l4.192-1.993c0.648,0.347,1.334,0.633,2.05,0.851l1.557,4.377c0.571,0.064,1.148,0.104,1.737,0.104c0.588,0,1.165-0.04,1.736-0.104l1.558-4.377c0.715-0.218,1.399-0.504,2.049-0.851l4.193,1.993c0.909-0.725,1.733-1.549,2.458-2.458l-1.993-4.193c0.347-0.647,0.633-1.334,0.851-2.049L31.229,17.736zM16,20.871c-2.69,0-4.872-2.182-4.872-4.871c0-2.69,2.182-4.872,4.872-4.872c2.689,0,4.871,2.182,4.871,4.872C20.871,18.689,18.689,20.871,16,20.871z"></path><title>Link options.</title></g></g></g></g><!--z-index:42--><g   id="j_42" ><path  stroke="#444444" d="M 1419 2115 L 1719 2115" id="v-556" stroke-width="2" stroke-dasharray="30 30" fill="none" style="opacity: 1;"></path><path  fill="black" stroke="black" d="M 0 0 0 0" transform="matrix(1,0,0,1,1419,2115)"></path><path  fill="#444444" stroke="#444444" d="M 20 0 L 0 10 L 20 20 z" id="v-558" transform="matrix(-1,1.2246467991473532e-16,-1.2246467991473532e-16,-1,1718.999999999999,2125)" style="opacity: 1;"></path><path  d="M 1419 2115 L 1719 2115" id="v-557" fill="none" style="cursor: auto; pointer-events: visiblepainted;"></path><g ><g id="v-550"  label-idx="0" cursor="move" transform="matrix(1,0,0,1,1569,2115)" style="cursor: default; opacity: 1;"><rect joint-selector="rect" id="v-553" fill="#ffffff" rx="3" ry="3" pointer-events="none" width="179.92530822753906" height="61.820587158203125" transform="matrix(1,0,0,1,-91.2,-30.9)"></rect><text joint-selector="text" id="v-552" font-size="24px" xml:space="preserve" y="0.8em" fill="#444444" text-anchor="middle" pointer-events="none" font-family="Open Sans" font-weight="normal" transform="matrix(1,0,0,1,0,-22.6)"><tspan dy="0" >Crea y gestiona</tspan><tspan dy="1.2em" x="0" >publicaciones</tspan></text></g><g id="v-551"  label-idx="1" cursor="move" transform="matrix(1,0,0,1,1559,2141.39990234375)" style="cursor: default; opacity: 1;"><rect joint-selector="rect" id="v-555" fill="#ffffff" rx="3" ry="3"  width="0" height="0" transform="matrix(1,0,0,1,0,0)" display="none"></rect><text joint-selector="text" id="v-554" fill="#000000" font-size="14" text-anchor="middle" pointer-events="none"></text></g></g><g  display="none" style="display: none;"></g><g  id="v-560" display="none"><g  id="v-548"><path  end="source" d="M 26 0 L 0 13 L 26 26 z"></path></g><g  id="v-549"><path  end="target" d="M 26 0 L 0 13 L 26 26 z"></path></g></g><g  id="v-559" display="none"><g  id="v-547" transform="translate(1459, 2115) "><g  event="remove"><circle r="11"></circle><path transform="scale(.8) translate(-16, -16)" d="M24.778,21.419 19.276,15.917 24.777,10.415 21.949,7.585 16.447,13.087 10.945,7.585 8.117,10.415 13.618,15.917 8.116,21.419 10.946,24.248 16.447,18.746 21.948,24.248z"></path><title>Remove link.</title></g><g  event="link:options"><circle r="11" transform="translate(25)"></circle><path fill="white" transform="scale(.55) translate(29, -16)" d="M31.229,17.736c0.064-0.571,0.104-1.148,0.104-1.736s-0.04-1.166-0.104-1.737l-4.377-1.557c-0.218-0.716-0.504-1.401-0.851-2.05l1.993-4.192c-0.725-0.91-1.549-1.734-2.458-2.459l-4.193,1.994c-0.647-0.347-1.334-0.632-2.049-0.849l-1.558-4.378C17.165,0.708,16.588,0.667,16,0.667s-1.166,0.041-1.737,0.105L12.707,5.15c-0.716,0.217-1.401,0.502-2.05,0.849L6.464,4.005C5.554,4.73,4.73,5.554,4.005,6.464l1.994,4.192c-0.347,0.648-0.632,1.334-0.849,2.05l-4.378,1.557C0.708,14.834,0.667,15.412,0.667,16s0.041,1.165,0.105,1.736l4.378,1.558c0.217,0.715,0.502,1.401,0.849,2.049l-1.994,4.193c0.725,0.909,1.549,1.733,2.459,2.458l4.192-1.993c0.648,0.347,1.334,0.633,2.05,0.851l1.557,4.377c0.571,0.064,1.148,0.104,1.737,0.104c0.588,0,1.165-0.04,1.736-0.104l1.558-4.377c0.715-0.218,1.399-0.504,2.049-0.851l4.193,1.993c0.909-0.725,1.733-1.549,2.458-2.458l-1.993-4.193c0.347-0.647,0.633-1.334,0.851-2.049L31.229,17.736zM16,20.871c-2.69,0-4.872-2.182-4.872-4.871c0-2.69,2.182-4.872,4.872-4.872c2.689,0,4.871,2.182,4.871,4.872C20.871,18.689,18.689,20.871,16,20.871z"></path><title>Link options.</title></g></g></g></g><!--z-index:43--><g   id="j_43" ><path  stroke="#444444" d="M 1282 1965 L 1714 1224 C 1717.3333333333333 1218 1721 1212.3333333333333 1725 1207 L 1832 1065" id="v-574" stroke-width="2" stroke-dasharray="30 30" fill="none" style="opacity: 1;"></path><path  fill="black" stroke="black" d="M 0 0 0 0" transform="matrix(0.5038710563609288,-0.8637788829102745,0.8637788829102745,0.5038710563609288,1281.5,1965)"></path><path  fill="#444444" stroke="#444444" d="M 20 0 L 0 10 L 20 20 z" id="v-576" transform="matrix(-0.5999999761129288,0.8000000179153028,-0.8000000179153028,-0.5999999761129288,1839.4999999402817,1070.999999581977)" style="opacity: 1;"></path><path  d="M 1282 1965 L 1714 1224 C 1717.3333333333333 1218 1721 1212.3333333333333 1725 1207 L 1832 1065" id="v-575" fill="none" style="cursor: auto; pointer-events: visiblepainted;"></path><g ><g id="v-568"  label-idx="0" cursor="move" transform="matrix(1,0,0,1,1547.877685546875,1508.94580078125)" style="cursor: default; opacity: 1;"><rect joint-selector="rect" id="v-571" fill="#ffffff" rx="3" ry="3" pointer-events="none" width="189.8683624267578" height="61.820587158203125" transform="matrix(1,0,0,1,-97.7,-30.9)"></rect><text joint-selector="text" id="v-570" font-size="24px" xml:space="preserve" y="0.8em" fill="#444444" text-anchor="middle" pointer-events="none" font-family="Open Sans" font-weight="normal" transform="matrix(1,0,0,1,0,-22.6)"><tspan dy="0" >Autentica y</tspan><tspan dy="1.2em" x="0" >gestiona perfiles</tspan></text></g><g id="v-569"  label-idx="1" cursor="move" transform="matrix(1,0,0,1,1537.877685546875,1535.3458251953125)" style="cursor: default; opacity: 1;"><rect joint-selector="rect" id="v-573" fill="#ffffff" rx="3" ry="3"  width="0" height="0" transform="matrix(1,0,0,1,0,0)" display="none"></rect><text joint-selector="text" id="v-572" fill="#000000" font-size="14" text-anchor="middle" pointer-events="none"></text></g></g><g  display="none" style="display: none;"><g  transform="translate(1719, 1215)" id="v-565"><circle  idx="0" r="10"></circle><path  idx="0" d="M16,5.333c-7.732,0-14,4.701-14,10.5c0,1.982,0.741,3.833,2.016,5.414L2,25.667l5.613-1.441c2.339,1.317,5.237,2.107,8.387,2.107c7.732,0,14-4.701,14-10.5C30,10.034,23.732,5.333,16,5.333z" transform="translate(5, -33)"></path><path  idx="0" transform="scale(.8) translate(9.5, -37)" d="M24.778,21.419 19.276,15.917 24.777,10.415 21.949,7.585 16.447,13.087 10.945,7.585 8.117,10.415 13.618,15.917 8.116,21.419 10.946,24.248 16.447,18.746 21.948,24.248z"><title>Remove vertex.</title></path></g></g><g  id="v-578" display="none"><g  id="v-566"><path  end="source" d="M 26 0 L 0 13 L 26 26 z"></path></g><g  id="v-567"><path  end="target" d="M 26 0 L 0 13 L 26 26 z"></path></g></g><g  id="v-577" display="none"><g  id="v-564" transform="translate(1302.1461417027217, 1930.443770829359) "><g  event="remove"><circle r="11"></circle><path transform="scale(.8) translate(-16, -16)" d="M24.778,21.419 19.276,15.917 24.777,10.415 21.949,7.585 16.447,13.087 10.945,7.585 8.117,10.415 13.618,15.917 8.116,21.419 10.946,24.248 16.447,18.746 21.948,24.248z"></path><title>Remove link.</title></g><g  event="link:options"><circle r="11" transform="translate(25)"></circle><path fill="white" transform="scale(.55) translate(29, -16)" d="M31.229,17.736c0.064-0.571,0.104-1.148,0.104-1.736s-0.04-1.166-0.104-1.737l-4.377-1.557c-0.218-0.716-0.504-1.401-0.851-2.05l1.993-4.192c-0.725-0.91-1.549-1.734-2.458-2.459l-4.193,1.994c-0.647-0.347-1.334-0.632-2.049-0.849l-1.558-4.378C17.165,0.708,16.588,0.667,16,0.667s-1.166,0.041-1.737,0.105L12.707,5.15c-0.716,0.217-1.401,0.502-2.05,0.849L6.464,4.005C5.554,4.73,4.73,5.554,4.005,6.464l1.994,4.192c-0.347,0.648-0.632,1.334-0.849,2.05l-4.378,1.557C0.708,14.834,0.667,15.412,0.667,16s0.041,1.165,0.105,1.736l4.378,1.558c0.217,0.715,0.502,1.401,0.849,2.049l-1.994,4.193c0.725,0.909,1.549,1.733,2.459,2.458l4.192-1.993c0.648,0.347,1.334,0.633,2.05,0.851l1.557,4.377c0.571,0.064,1.148,0.104,1.737,0.104c0.588,0,1.165-0.04,1.736-0.104l1.558-4.377c0.715-0.218,1.399-0.504,2.049-0.851l4.193,1.993c0.909-0.725,1.733-1.549,2.458-2.458l-1.993-4.193c0.347-0.647,0.633-1.334,0.851-2.049L31.229,17.736zM16,20.871c-2.69,0-4.872-2.182-4.872-4.871c0-2.69,2.182-4.872,4.872-4.872c2.689,0,4.871,2.182,4.871,4.872C20.871,18.689,18.689,20.871,16,20.871z"></path><title>Link options.</title></g></g></g></g><!--z-index:44--><g   id="j_44" ><path  stroke="#444444" d="M 1247 2265 L 1716 3606 C 1718 3612 1721 3617.6666666666665 1725 3623 L 1832 3765" id="v-592" stroke-width="2" stroke-dasharray="30 30" fill="none" style="opacity: 1;"></path><path  fill="black" stroke="black" d="M 0 0 0 0" transform="matrix(0.33035043251519486,0.9438583536405363,-0.9438583536405363,0.33035043251519486,1246.5,2265)"></path><path  fill="#444444" stroke="#444444" d="M 20 0 L 0 10 L 20 20 z" id="v-594" transform="matrix(-0.6000000826393699,-0.7999999380204659,0.7999999380204659,-0.6000000826393699,1823.5000014461884,3771.0000002065976)" style="opacity: 1;"></path><path  d="M 1247 2265 L 1716 3606 C 1718 3612 1721 3617.6666666666665 1725 3623 L 1832 3765" id="v-593" fill="none" style="cursor: auto; pointer-events: visiblepainted;"></path><g ><g id="v-586"  label-idx="0" cursor="move" transform="matrix(1,0,0,1,1514.036865234375,3028.53173828125)" style="cursor: default; opacity: 1;"><rect joint-selector="rect" id="v-589" fill="#ffffff" rx="3" ry="3" pointer-events="none" width="130.53273391723633" height="90.62059020996094" transform="matrix(1,0,0,1,-63.7,-45.3)"></rect><text joint-selector="text" id="v-588" font-size="24px" xml:space="preserve" y="0.8em" fill="#444444" text-anchor="middle" pointer-events="none" font-family="Open Sans" font-weight="normal" transform="matrix(1,0,0,1,0,-37)"><tspan dy="0" >Almacena</tspan><tspan dy="1.2em" x="0" >archivos</tspan><tspan dy="1.2em" x="0" >multimedia</tspan></text></g><g id="v-587"  label-idx="1" cursor="move" transform="matrix(1,0,0,1,1504.036865234375,3069.331787109375)" style="cursor: default; opacity: 1;"><rect joint-selector="rect" id="v-591" fill="#ffffff" rx="3" ry="3"  width="0" height="0" transform="matrix(1,0,0,1,0,0)" display="none"></rect><text joint-selector="text" id="v-590" fill="#000000" font-size="14" text-anchor="middle" pointer-events="none"></text></g></g><g  display="none" style="display: none;"><g  transform="translate(1719, 3615)" id="v-583"><circle  idx="0" r="10"></circle><path  idx="0" d="M16,5.333c-7.732,0-14,4.701-14,10.5c0,1.982,0.741,3.833,2.016,5.414L2,25.667l5.613-1.441c2.339,1.317,5.237,2.107,8.387,2.107c7.732,0,14-4.701,14-10.5C30,10.034,23.732,5.333,16,5.333z" transform="translate(5, -33)"></path><path  idx="0" transform="scale(.8) translate(9.5, -37)" d="M24.778,21.419 19.276,15.917 24.777,10.415 21.949,7.585 16.447,13.087 10.945,7.585 8.117,10.415 13.618,15.917 8.116,21.419 10.946,24.248 16.447,18.746 21.948,24.248z"><title>Remove vertex.</title></path></g></g><g  id="v-596" display="none"><g  id="v-584"><path  end="source" d="M 26 0 L 0 13 L 26 26 z"></path></g><g  id="v-585"><path  end="target" d="M 26 0 L 0 13 L 26 26 z"></path></g></g><g  id="v-595" display="none"><g  id="v-582" transform="translate(1260.2052374293742, 2302.7574059547774) "><g  event="remove"><circle r="11"></circle><path transform="scale(.8) translate(-16, -16)" d="M24.778,21.419 19.276,15.917 24.777,10.415 21.949,7.585 16.447,13.087 10.945,7.585 8.117,10.415 13.618,15.917 8.116,21.419 10.946,24.248 16.447,18.746 21.948,24.248z"></path><title>Remove link.</title></g><g  event="link:options"><circle r="11" transform="translate(25)"></circle><path fill="white" transform="scale(.55) translate(29, -16)" d="M31.229,17.736c0.064-0.571,0.104-1.148,0.104-1.736s-0.04-1.166-0.104-1.737l-4.377-1.557c-0.218-0.716-0.504-1.401-0.851-2.05l1.993-4.192c-0.725-0.91-1.549-1.734-2.458-2.459l-4.193,1.994c-0.647-0.347-1.334-0.632-2.049-0.849l-1.558-4.378C17.165,0.708,16.588,0.667,16,0.667s-1.166,0.041-1.737,0.105L12.707,5.15c-0.716,0.217-1.401,0.502-2.05,0.849L6.464,4.005C5.554,4.73,4.73,5.554,4.005,6.464l1.994,4.192c-0.347,0.648-0.632,1.334-0.849,2.05l-4.378,1.557C0.708,14.834,0.667,15.412,0.667,16s0.041,1.165,0.105,1.736l4.378,1.558c0.217,0.715,0.502,1.401,0.849,2.049l-1.994,4.193c0.725,0.909,1.549,1.733,2.459,2.458l4.192-1.993c0.648,0.347,1.334,0.633,2.05,0.851l1.557,4.377c0.571,0.064,1.148,0.104,1.737,0.104c0.588,0,1.165-0.04,1.736-0.104l1.558-4.377c0.715-0.218,1.399-0.504,2.049-0.851l4.193,1.993c0.909-0.725,1.733-1.549,2.458-2.458l-1.993-4.193c0.347-0.647,0.633-1.334,0.851-2.049L31.229,17.736zM16,20.871c-2.69,0-4.872-2.182-4.872-4.871c0-2.69,2.182-4.872,4.872-4.872c2.689,0,4.871,2.182,4.871,4.872C20.871,18.689,18.689,20.871,16,20.871z"></path><title>Link options.</title></g></g></g></g><!--z-index:45--><g   id="j_45" ><path  stroke="#444444" d="M 569 1965 L 1819 465" id="v-609" stroke-width="2" stroke-dasharray="30 30" fill="none" style="opacity: 1;"></path><path  fill="black" stroke="black" d="M 0 0 0 0" transform="matrix(0.6401844186703122,-0.7682212637591819,0.7682212637591819,0.6401844186703122,569,1965)"></path><path  fill="#444444" stroke="#444444" d="M 20 0 L 0 10 L 20 20 z" id="v-611" transform="matrix(-0.6401844186703123,0.7682212637591818,-0.7682212637591818,-0.6401844186703123,1826.6822013555443,471.4018520080964)" style="opacity: 1;"></path><path  d="M 569 1965 L 1819 465" id="v-610" fill="none" style="cursor: auto; pointer-events: visiblepainted;"></path><g ><g id="v-603"  label-idx="0" cursor="move" transform="matrix(1,0,0,1,1194,1215)" style="cursor: default; opacity: 1;"><rect joint-selector="rect" id="v-606" fill="#ffffff" rx="3" ry="3" pointer-events="none" width="190.0950927734375" height="119.42057800292969" transform="matrix(1,0,0,1,-96.2,-59.7)"></rect><text joint-selector="text" id="v-605" font-size="24px" xml:space="preserve" y="0.8em" fill="#444444" text-anchor="middle" pointer-events="none" font-family="Open Sans" font-weight="normal" transform="matrix(1,0,0,1,0,-51.4)"><tspan dy="0" >Conexión</tspan><tspan dy="1.2em" x="0" >WebSocket para</tspan><tspan dy="1.2em" x="0" >chat en tiempo</tspan><tspan dy="1.2em" x="0" >real</tspan></text></g><g id="v-604"  label-idx="1" cursor="move" transform="matrix(1,0,0,1,1184,1270.199951171875)" style="cursor: default; opacity: 1;"><rect joint-selector="rect" id="v-608" fill="#ffffff" rx="3" ry="3"  width="0" height="0" transform="matrix(1,0,0,1,0,0)" display="none"></rect><text joint-selector="text" id="v-607" fill="#000000" font-size="14" text-anchor="middle" pointer-events="none"></text></g></g><g  display="none" style="display: none;"></g><g  id="v-613" display="none"><g  id="v-601"><path  end="source" d="M 26 0 L 0 13 L 26 26 z"></path></g><g  id="v-602"><path  end="target" d="M 26 0 L 0 13 L 26 26 z"></path></g></g><g  id="v-612" display="none"><g  id="v-600" transform="translate(594.6073759865792, 1934.271148816105) "><g  event="remove"><circle r="11"></circle><path transform="scale(.8) translate(-16, -16)" d="M24.778,21.419 19.276,15.917 24.777,10.415 21.949,7.585 16.447,13.087 10.945,7.585 8.117,10.415 13.618,15.917 8.116,21.419 10.946,24.248 16.447,18.746 21.948,24.248z"></path><title>Remove link.</title></g><g  event="link:options"><circle r="11" transform="translate(25)"></circle><path fill="white" transform="scale(.55) translate(29, -16)" d="M31.229,17.736c0.064-0.571,0.104-1.148,0.104-1.736s-0.04-1.166-0.104-1.737l-4.377-1.557c-0.218-0.716-0.504-1.401-0.851-2.05l1.993-4.192c-0.725-0.91-1.549-1.734-2.458-2.459l-4.193,1.994c-0.647-0.347-1.334-0.632-2.049-0.849l-1.558-4.378C17.165,0.708,16.588,0.667,16,0.667s-1.166,0.041-1.737,0.105L12.707,5.15c-0.716,0.217-1.401,0.502-2.05,0.849L6.464,4.005C5.554,4.73,4.73,5.554,4.005,6.464l1.994,4.192c-0.347,0.648-0.632,1.334-0.849,2.05l-4.378,1.557C0.708,14.834,0.667,15.412,0.667,16s0.041,1.165,0.105,1.736l4.378,1.558c0.217,0.715,0.502,1.401,0.849,2.049l-1.994,4.193c0.725,0.909,1.549,1.733,2.459,2.458l4.192-1.993c0.648,0.347,1.334,0.633,2.05,0.851l1.557,4.377c0.571,0.064,1.148,0.104,1.737,0.104c0.588,0,1.165-0.04,1.736-0.104l1.558-4.377c0.715-0.218,1.399-0.504,2.049-0.851l4.193,1.993c0.909-0.725,1.733-1.549,2.458-2.458l-1.993-4.193c0.347-0.647,0.633-1.334,0.851-2.049L31.229,17.736zM16,20.871c-2.69,0-4.872-2.182-4.872-4.871c0-2.69,2.182-4.872,4.872-4.872c2.689,0,4.871,2.182,4.871,4.872C20.871,18.689,18.689,20.871,16,20.871z"></path><title>Link options.</title></g></g></g></g><!--z-index:46--><g   id="j_46" ><path  stroke="#444444" d="M 569 2265 L 1819 3765" id="v-626" stroke-width="2" stroke-dasharray="30 30" fill="none" style="opacity: 1;"></path><path  fill="black" stroke="black" d="M 0 0 0 0" transform="matrix(0.6401844186703123,0.7682212637591818,-0.7682212637591818,0.6401844186703123,569,2265)"></path><path  fill="#444444" stroke="#444444" d="M 20 0 L 0 10 L 20 20 z" id="v-628" transform="matrix(-0.6401844186703125,-0.7682212637591816,0.7682212637591816,-0.6401844186703125,1811.3177760803608,3771.4019279180443)" style="opacity: 1;"></path><path  d="M 569 2265 L 1819 3765" id="v-627" fill="none" style="cursor: auto; pointer-events: visiblepainted;"></path><g ><g id="v-620"  label-idx="0" cursor="move" transform="matrix(1,0,0,1,1194,3015)" style="cursor: default; opacity: 1;"><rect joint-selector="rect" id="v-623" fill="#ffffff" rx="3" ry="3" pointer-events="none" width="182.67869567871094" height="61.820587158203125" transform="matrix(1,0,0,1,-92.5,-30.9)"></rect><text joint-selector="text" id="v-622" font-size="24px" xml:space="preserve" y="0.8em" fill="#444444" text-anchor="middle" pointer-events="none" font-family="Open Sans" font-weight="normal" transform="matrix(1,0,0,1,0,-22.6)"><tspan dy="0" >Carga/descarga</tspan><tspan dy="1.2em" x="0" >archivos</tspan></text></g><g id="v-621"  label-idx="1" cursor="move" transform="matrix(1,0,0,1,1184,3041.39990234375)" style="cursor: default; opacity: 1;"><rect joint-selector="rect" id="v-625" fill="#ffffff" rx="3" ry="3"  width="0" height="0" transform="matrix(1,0,0,1,0,0)" display="none"></rect><text joint-selector="text" id="v-624" fill="#000000" font-size="14" text-anchor="middle" pointer-events="none"></text></g></g><g  display="none" style="display: none;"></g><g  id="v-630" display="none"><g  id="v-618"><path  end="source" d="M 26 0 L 0 13 L 26 26 z"></path></g><g  id="v-619"><path  end="target" d="M 26 0 L 0 13 L 26 26 z"></path></g></g><g  id="v-629" display="none"><g  id="v-617" transform="translate(594.6073759865792, 2295.7288511838947) "><g  event="remove"><circle r="11"></circle><path transform="scale(.8) translate(-16, -16)" d="M24.778,21.419 19.276,15.917 24.777,10.415 21.949,7.585 16.447,13.087 10.945,7.585 8.117,10.415 13.618,15.917 8.116,21.419 10.946,24.248 16.447,18.746 21.948,24.248z"></path><title>Remove link.</title></g><g  event="link:options"><circle r="11" transform="translate(25)"></circle><path fill="white" transform="scale(.55) translate(29, -16)" d="M31.229,17.736c0.064-0.571,0.104-1.148,0.104-1.736s-0.04-1.166-0.104-1.737l-4.377-1.557c-0.218-0.716-0.504-1.401-0.851-2.05l1.993-4.192c-0.725-0.91-1.549-1.734-2.458-2.459l-4.193,1.994c-0.647-0.347-1.334-0.632-2.049-0.849l-1.558-4.378C17.165,0.708,16.588,0.667,16,0.667s-1.166,0.041-1.737,0.105L12.707,5.15c-0.716,0.217-1.401,0.502-2.05,0.849L6.464,4.005C5.554,4.73,4.73,5.554,4.005,6.464l1.994,4.192c-0.347,0.648-0.632,1.334-0.849,2.05l-4.378,1.557C0.708,14.834,0.667,15.412,0.667,16s0.041,1.165,0.105,1.736l4.378,1.558c0.217,0.715,0.502,1.401,0.849,2.049l-1.994,4.193c0.725,0.909,1.549,1.733,2.459,2.458l4.192-1.993c0.648,0.347,1.334,0.633,2.05,0.851l1.557,4.377c0.571,0.064,1.148,0.104,1.737,0.104c0.588,0,1.165-0.04,1.736-0.104l1.558-4.377c0.715-0.218,1.399-0.504,2.049-0.851l4.193,1.993c0.909-0.725,1.733-1.549,2.458-2.458l-1.993-4.193c0.347-0.647,0.633-1.334,0.851-2.049L31.229,17.736zM16,20.871c-2.69,0-4.872-2.182-4.872-4.871c0-2.69,2.182-4.872,4.872-4.872c2.689,0,4.871,2.182,4.871,4.872C20.871,18.689,18.689,20.871,16,20.871z"></path><title>Link options.</title></g></g></g></g><!--z-index:47--></g><g ></g><g ></g><g ></g></g></svg>