<svg xmlns="http://www.w3.org/2000/svg" xmlns:xlink="http://www.w3.org/1999/xlink" version="1.1" viewBox="0 0 2350 2000" style="background: #ffffff"><defs><style>@import url(https://fonts.googleapis.com/css?family=Open+Sans:400,700);</style></defs><defs joint-selector="defs"></defs><g joint-selector="layers"  transform="matrix(1,0,0,1,0,0)"><g ></g><g ><!--z-index:0--><!--z-index:1--><!--z-index:2--><!--z-index:3--><!--z-index:4--><!--z-index:5--><!--z-index:6--><!--z-index:7--><!--z-index:8--><!--z-index:9--><!--z-index:10--><!--z-index:11--><!--z-index:12--><!--z-index:13--><g   id="j_34"  transform="translate(20,1958)"><g id="v-391"><text  id="v-392" font-size="22px" xml:space="preserve" y="0.8em" font-weight="normal" text-anchor="start" fill="#444444" pointer-events="none" display="block" font-family="Open Sans"><tspan dy="0"  display="block">domingo, 19 de octubre de 2025, 19:52 hora estándar de Perú</tspan></text></g></g><!--z-index:14--><g   id="j_33"  transform="translate(20,1926)"><g id="v-389"><text  id="v-390" font-size="22px" xml:space="preserve" y="0.8em" font-weight="normal" text-anchor="start" fill="#444444" pointer-events="none" display="block" font-family="Open Sans"><tspan dy="0"  display="block">Diagrama de Contexto - NEXUS en el ecosistema</tspan></text></g></g><!--z-index:15--><g   id="j_32"  transform="translate(20,1880)"><g id="v-387"><text  id="v-388" font-size="36px" xml:space="preserve" y="0.8em" font-weight="normal" text-anchor="start" fill="#444444" pointer-events="none" display="block" font-family="Open Sans"><tspan dy="0"  display="block">[System Context] NEXUS</tspan></text></g></g><!--z-index:16--><g   id="j_35"  transform="translate(625,145)" style=""><g  id="v-396" style="opacity: 1;"><rect  x="0" y="160" width="400" height="240" rx="70" id="v-398" stroke-width="2" pointer-events="visiblePainted" fill="#08427b" stroke="#073b6f" style="fill: rgb(8, 66, 123); stroke: rgb(7, 59, 111);"></rect><circle  cx="200" cy="88.88888888888889" r="88.88888888888889" id="v-397" stroke-width="2" pointer-events="visiblePainted" fill="#08427b" stroke="#073b6f" style="fill: rgb(8, 66, 123); stroke: rgb(7, 59, 111);"></circle><line  x1="80" y1="266.6666666666667" x2="80" y2="400" id="v-404" stroke="#073b6f" stroke-width="1" style="stroke: rgb(7, 59, 111);"></line><line  x1="320" y1="266.6666666666667" x2="320" y2="400" id="v-405" stroke="#073b6f" stroke-width="1" style="stroke: rgb(7, 59, 111);"></line><text  id="v-399" font-size="34" xml:space="preserve" y="187.8" font-weight="bold" text-anchor="middle" pointer-events="visible" font-family="Open Sans" fill="#ffffff" dominant-baseline="hanging" transform="matrix(1,0,0,1,200,0)" style="fill: rgb(255, 255, 255);"><tspan dy="0" >Ideador</tspan></text><text  id="v-400" font-size="17" xml:space="preserve" y="229.8" text-anchor="middle" font-family="Open Sans" fill="#ffffff" dominant-baseline="hanging" transform="matrix(1,0,0,1,200,0)" style="display: block; fill: rgb(255, 255, 255);"><tspan dy="0" >[Person]</tspan></text><text  id="v-401" font-size="24" xml:space="preserve" y="261.8" text-anchor="middle" font-family="Open Sans" fill="#ffffff" dominant-baseline="hanging" transform="matrix(1,0,0,1,200,0)" style="display: block; fill: rgb(255, 255, 255);"><tspan dy="0" >Usuario que publica ideas</tspan><tspan dy="1.2em" x="0" >innovadoras y busca</tspan><tspan dy="1.2em" x="0" >colaboradores para</tspan><tspan dy="1.2em" x="0" >materializarlas</tspan></text><g  id="v-402" font-weight="normal" text-anchor="middle" color="#ffffff" transform="matrix(1,0,0,1,197.5,368)" display="none" style="fill: rgb(255, 255, 255);"><g ></g><g ></g><g ></g><g ></g></g><image  id="v-403"></image></g></g><!--z-index:17--><g   id="j_36"  transform="translate(1325,145)" style=""><g  id="v-409" style="opacity: 1;"><rect  x="0" y="160" width="400" height="240" rx="70" id="v-411" stroke-width="2" pointer-events="visiblePainted" fill="#08427b" stroke="#073b6f" style="fill: rgb(8, 66, 123); stroke: rgb(7, 59, 111);"></rect><circle  cx="200" cy="88.88888888888889" r="88.88888888888889" id="v-410" stroke-width="2" pointer-events="visiblePainted" fill="#08427b" stroke="#073b6f" style="fill: rgb(8, 66, 123); stroke: rgb(7, 59, 111);"></circle><line  x1="80" y1="266.6666666666667" x2="80" y2="400" id="v-417" stroke="#073b6f" stroke-width="1" style="stroke: rgb(7, 59, 111);"></line><line  x1="320" y1="266.6666666666667" x2="320" y2="400" id="v-418" stroke="#073b6f" stroke-width="1" style="stroke: rgb(7, 59, 111);"></line><text  id="v-412" font-size="34" xml:space="preserve" y="202.2" font-weight="bold" text-anchor="middle" pointer-events="visible" font-family="Open Sans" fill="#ffffff" dominant-baseline="hanging" transform="matrix(1,0,0,1,200,0)" style="fill: rgb(255, 255, 255);"><tspan dy="0" >Desarrollador</tspan></text><text  id="v-413" font-size="17" xml:space="preserve" y="244.2" text-anchor="middle" font-family="Open Sans" fill="#ffffff" dominant-baseline="hanging" transform="matrix(1,0,0,1,200,0)" style="display: block; fill: rgb(255, 255, 255);"><tspan dy="0" >[Person]</tspan></text><text  id="v-414" font-size="24" xml:space="preserve" y="276.2" text-anchor="middle" font-family="Open Sans" fill="#ffffff" dominant-baseline="hanging" transform="matrix(1,0,0,1,200,0)" style="display: block; fill: rgb(255, 255, 255);"><tspan dy="0" >Desarrollador, diseñador o</tspan><tspan dy="1.2em" x="0" >especialista que busca</tspan><tspan dy="1.2em" x="0" >proyectos para colaborar</tspan></text><g  id="v-415" font-weight="normal" text-anchor="middle" color="#ffffff" transform="matrix(1,0,0,1,197.5,368)" display="none" style="fill: rgb(255, 255, 255);"><g ></g><g ></g><g ></g><g ></g></g><image  id="v-416"></image></g></g><!--z-index:18--><g   id="j_37"  transform="translate(950,845)" style=""><g  id="v-422" style="opacity: 1;"><rect  id="v-423" rx="20" ry="20" stroke-width="2" pointer-events="visiblePainted" fill="#1168bd" stroke="#0f5eaa" width="450" height="300" style="fill: rgb(17, 104, 189); stroke: rgb(15, 94, 170);"></rect><text  id="v-424" font-size="34" xml:space="preserve" y="57.80000000000001" font-weight="bold" text-anchor="middle" pointer-events="visible" font-family="Open Sans" fill="#ffffff" dominant-baseline="hanging" transform="matrix(1,0,0,1,225,0)" style="fill: rgb(255, 255, 255);"><tspan dy="0" >NEXUS</tspan></text><text  id="v-425" font-size="17" xml:space="preserve" y="99.80000000000001" text-anchor="middle" font-family="Open Sans" fill="#ffffff" dominant-baseline="hanging" transform="matrix(1,0,0,1,225,0)" style="display: block; fill: rgb(255, 255, 255);"><tspan dy="0" >[Software System]</tspan></text><text  id="v-426" font-size="24" xml:space="preserve" y="131.8" text-anchor="middle" font-family="Open Sans" fill="#ffffff" dominant-baseline="hanging" transform="matrix(1,0,0,1,225,0)" style="display: block; fill: rgb(255, 255, 255);"><tspan dy="0" >Plataforma colaborativa que</tspan><tspan dy="1.2em" x="0" >conecta ideadores con</tspan><tspan dy="1.2em" x="0" >desarrolladores para materializar</tspan><tspan dy="1.2em" x="0" >ideas innovadoras</tspan></text><g  id="v-427" color="#ffffff" transform="matrix(1,0,0,1,210,268)" display="none" style="fill: rgb(255, 255, 255);"><g  transform="translate(5 0)"><svg xmlns="http://www.w3.org/2000/svg" width="20" height="20" fill="currentColor" viewBox="0 0 16 16"><path fill-rule="evenodd" d="M6.5 12a5.5 5.5 0 1 0 0-11 5.5 5.5 0 0 0 0 11zM13 6.5a6.5 6.5 0 1 1-13 0 6.5 6.5 0 0 1 13 0z"></path><path d="M10.344 11.742c.03.04.062.078.098.115l3.85 3.85a1 1 0 0 0 1.415-1.414l-3.85-3.85a1.007 1.007 0 0 0-.115-.1 6.538 6.538 0 0 1-1.398 1.4z"></path><path fill-rule="evenodd" d="M6.5 3a.5.5 0 0 1 .5.5V6h2.5a.5.5 0 0 1 0 1H7v2.5a.5.5 0 0 1-1 0V7H3.5a.5.5 0 0 1 0-1H6V3.5a.5.5 0 0 1 .5-.5z"></path></svg></g><g ></g><g ></g><g ></g></g><image  id="v-428"></image></g></g><!--z-index:19--><g   id="j_38"  transform="translate(200,1445)" style=""><g  id="v-432" style="opacity: 1;"><rect  id="v-433" rx="20" ry="20" stroke-width="2" pointer-events="visiblePainted" fill="#999999" stroke="#8a8a8a" width="450" height="300" style="fill: rgb(153, 153, 153); stroke: rgb(138, 138, 138);"></rect><text  id="v-434" font-size="34" xml:space="preserve" y="72.2" font-weight="bold" text-anchor="middle" pointer-events="visible" font-family="Open Sans" fill="#ffffff" dominant-baseline="hanging" transform="matrix(1,0,0,1,225,0)" style="fill: rgb(255, 255, 255);"><tspan dy="0" >Stripe API</tspan></text><text  id="v-435" font-size="17" xml:space="preserve" y="114.2" text-anchor="middle" font-family="Open Sans" fill="#ffffff" dominant-baseline="hanging" transform="matrix(1,0,0,1,225,0)" style="display: block; fill: rgb(255, 255, 255);"><tspan dy="0" >[Software System]</tspan></text><text  id="v-436" font-size="24" xml:space="preserve" y="146.2" text-anchor="middle" font-family="Open Sans" fill="#ffffff" dominant-baseline="hanging" transform="matrix(1,0,0,1,225,0)" style="display: block; fill: rgb(255, 255, 255);"><tspan dy="0" >Procesador de pagos PCI-DSS</tspan><tspan dy="1.2em" x="0" >compliant. Gestiona pagos con</tspan><tspan dy="1.2em" x="0" >tarjeta y transferencias bancarias</tspan></text><g  id="v-437" color="#ffffff" transform="matrix(1,0,0,1,222.5,268)" display="none" style="fill: rgb(255, 255, 255);"><g ></g><g ></g><g ></g><g ></g></g><image  id="v-438"></image></g></g><!--z-index:20--><g   id="j_39"  transform="translate(950,1445)" style=""><g  id="v-445" style="opacity: 1;"><rect  id="v-446" rx="20" ry="20" stroke-width="2" pointer-events="visiblePainted" fill="#999999" stroke="#8a8a8a" width="450" height="300" style="fill: rgb(153, 153, 153); stroke: rgb(138, 138, 138);"></rect><text  id="v-447" font-size="34" xml:space="preserve" y="66.2" font-weight="bold" text-anchor="middle" pointer-events="visible" font-family="Open Sans" fill="#ffffff" dominant-baseline="hanging" transform="matrix(1,0,0,1,225,0)" style="fill: rgb(255, 255, 255);"><tspan dy="0" >Expo Push Notification</tspan><tspan dy="1.2em" x="0" >Service</tspan></text><text  id="v-448" font-size="17" xml:space="preserve" y="149" text-anchor="middle" font-family="Open Sans" fill="#ffffff" dominant-baseline="hanging" transform="matrix(1,0,0,1,225,0)" style="display: block; fill: rgb(255, 255, 255);"><tspan dy="0" >[Software System]</tspan></text><text  id="v-449" font-size="24" xml:space="preserve" y="181" text-anchor="middle" font-family="Open Sans" fill="#ffffff" dominant-baseline="hanging" transform="matrix(1,0,0,1,225,0)" style="display: block; fill: rgb(255, 255, 255);"><tspan dy="0" >Servicio de notificaciones push</tspan><tspan dy="1.2em" x="0" >nativo de Expo para iOS y Android</tspan></text><g  id="v-450" color="#ffffff" transform="matrix(1,0,0,1,222.5,268)" display="none" style="fill: rgb(255, 255, 255);"><g ></g><g ></g><g ></g><g ></g></g><image  id="v-451"></image></g></g><!--z-index:21--><g   id="j_40"  transform="translate(1700,1445)" style=""><g  id="v-455" style="opacity: 1;"><rect  id="v-456" rx="20" ry="20" stroke-width="2" pointer-events="visiblePainted" fill="#999999" stroke="#8a8a8a" width="450" height="300" style="fill: rgb(153, 153, 153); stroke: rgb(138, 138, 138);"></rect><text  id="v-457" font-size="34" xml:space="preserve" y="86.6" font-weight="bold" text-anchor="middle" pointer-events="visible" font-family="Open Sans" fill="#ffffff" dominant-baseline="hanging" transform="matrix(1,0,0,1,225,0)" style="fill: rgb(255, 255, 255);"><tspan dy="0" >SendGrid API</tspan></text><text  id="v-458" font-size="17" xml:space="preserve" y="128.6" text-anchor="middle" font-family="Open Sans" fill="#ffffff" dominant-baseline="hanging" transform="matrix(1,0,0,1,225,0)" style="display: block; fill: rgb(255, 255, 255);"><tspan dy="0" >[Software System]</tspan></text><text  id="v-459" font-size="24" xml:space="preserve" y="160.6" text-anchor="middle" font-family="Open Sans" fill="#ffffff" dominant-baseline="hanging" transform="matrix(1,0,0,1,225,0)" style="display: block; fill: rgb(255, 255, 255);"><tspan dy="0" >Servicio de envío de emails</tspan><tspan dy="1.2em" x="0" >transaccionales y marketing</tspan></text><g  id="v-460" color="#ffffff" transform="matrix(1,0,0,1,222.5,268)" display="none" style="fill: rgb(255, 255, 255);"><g ></g><g ></g><g ></g><g ></g></g><image  id="v-461"></image></g></g><!--z-index:22--><g   id="j_41" ><path  stroke="#444444" d="M 933 545 L 1094 845" id="v-474" stroke-width="2" stroke-dasharray="30 30" fill="none" style="opacity: 1;"></path><path  fill="black" stroke="black" d="M 0 0 0 0" transform="matrix(0.4740998043042314,0.8804711100079828,-0.8804711100079828,0.4740998043042314,932.6923217773438,545)"></path><path  fill="#444444" stroke="#444444" d="M 20 0 L 0 10 L 20 20 z" id="v-476" transform="matrix(-0.4740997456833205,-0.8804711415730846,0.8804711415730846,-0.4740997456833205,1085.4260321348522,849.7410213725639)" style="opacity: 1;"></path><path  d="M 933 545 L 1094 845" id="v-475" fill="none" style="cursor: auto; pointer-events: visiblepainted;"></path><g ><g id="v-468"  label-idx="0" cursor="move" transform="matrix(1,0,0,1,1013.5,695)" style="cursor: default; opacity: 1;"><rect joint-selector="rect" id="v-471" fill="#ffffff" rx="3" ry="3" pointer-events="none" width="167.62356567382812" height="121.01475524902344" transform="matrix(1,0,0,1,-83.8,-60.5)"></rect><text joint-selector="text" id="v-470" font-size="24px" xml:space="preserve" y="0.8em" fill="#444444" text-anchor="middle" pointer-events="none" font-family="Open Sans" font-weight="normal" transform="matrix(1,0,0,1,0,-53.1)"><tspan dy="0" >Publica ideas,</tspan><tspan dy="1.2em" x="0" >busca</tspan><tspan dy="1.2em" x="0" >colaboradores,</tspan><tspan dy="1.2em" x="0" >realiza pagos</tspan></text></g><g id="v-469"  label-idx="1" cursor="move" transform="matrix(1,0,0,1,1003.5,750.2000122070312)" style="cursor: default; opacity: 1;"><rect joint-selector="rect" id="v-473" fill="#ffffff" rx="3" ry="3"  width="0" height="0" transform="matrix(1,0,0,1,0,0)" display="none"></rect><text joint-selector="text" id="v-472" fill="#000000" font-size="14" text-anchor="middle" pointer-events="none"></text></g></g><g  display="none" style="display: none;"></g><g  id="v-478" display="none"><g  id="v-466"><path  end="source" d="M 26 0 L 0 13 L 26 26 z"></path></g><g  id="v-467"><path  end="target" d="M 26 0 L 0 13 L 26 26 z"></path></g></g><g  id="v-477" display="none"><g  id="v-465" transform="translate(951.914933026174, 580.2452168189578) "><g  event="remove"><circle r="11"></circle><path transform="scale(.8) translate(-16, -16)" d="M24.778,21.419 19.276,15.917 24.777,10.415 21.949,7.585 16.447,13.087 10.945,7.585 8.117,10.415 13.618,15.917 8.116,21.419 10.946,24.248 16.447,18.746 21.948,24.248z"></path><title>Remove link.</title></g><g  event="link:options"><circle r="11" transform="translate(25)"></circle><path fill="white" transform="scale(.55) translate(29, -16)" d="M31.229,17.736c0.064-0.571,0.104-1.148,0.104-1.736s-0.04-1.166-0.104-1.737l-4.377-1.557c-0.218-0.716-0.504-1.401-0.851-2.05l1.993-4.192c-0.725-0.91-1.549-1.734-2.458-2.459l-4.193,1.994c-0.647-0.347-1.334-0.632-2.049-0.849l-1.558-4.378C17.165,0.708,16.588,0.667,16,0.667s-1.166,0.041-1.737,0.105L12.707,5.15c-0.716,0.217-1.401,0.502-2.05,0.849L6.464,4.005C5.554,4.73,4.73,5.554,4.005,6.464l1.994,4.192c-0.347,0.648-0.632,1.334-0.849,2.05l-4.378,1.557C0.708,14.834,0.667,15.412,0.667,16s0.041,1.165,0.105,1.736l4.378,1.558c0.217,0.715,0.502,1.401,0.849,2.049l-1.994,4.193c0.725,0.909,1.549,1.733,2.459,2.458l4.192-1.993c0.648,0.347,1.334,0.633,2.05,0.851l1.557,4.377c0.571,0.064,1.148,0.104,1.737,0.104c0.588,0,1.165-0.04,1.736-0.104l1.558-4.377c0.715-0.218,1.399-0.504,2.049-0.851l4.193,1.993c0.909-0.725,1.733-1.549,2.458-2.458l-1.993-4.193c0.347-0.647,0.633-1.334,0.851-2.049L31.229,17.736zM16,20.871c-2.69,0-4.872-2.182-4.872-4.871c0-2.69,2.182-4.872,4.872-4.872c2.689,0,4.871,2.182,4.871,4.872C20.871,18.689,18.689,20.871,16,20.871z"></path><title>Link options.</title></g></g></g></g><!--z-index:23--><g   id="j_42" ><path  stroke="#444444" d="M 1417 545 L 1256 845" id="v-491" stroke-width="2" stroke-dasharray="30 30" fill="none" style="opacity: 1;"></path><path  fill="black" stroke="black" d="M 0 0 0 0" transform="matrix(-0.47409986292514017,0.8804710784428772,-0.8804710784428772,-0.47409986292514017,1417.3077392578125,545)"></path><path  fill="#444444" stroke="#444444" d="M 20 0 L 0 10 L 20 20 z" id="v-493" transform="matrix(0.47409974568332014,-0.8804711415730848,0.8804711415730848,0.47409974568332014,1246.9645450336861,840.2590264588974)" style="opacity: 1;"></path><path  d="M 1417 545 L 1256 845" id="v-492" fill="none" style="cursor: auto; pointer-events: visiblepainted;"></path><g ><g id="v-485"  label-idx="0" cursor="move" transform="matrix(1,0,0,1,1336.5,695)" style="cursor: default; opacity: 1;"><rect joint-selector="rect" id="v-488" fill="#ffffff" rx="3" ry="3" pointer-events="none" width="191.75404357910156" height="121.01475524902344" transform="matrix(1,0,0,1,-95.9,-60.5)"></rect><text joint-selector="text" id="v-487" font-size="24px" xml:space="preserve" y="0.8em" fill="#444444" text-anchor="middle" pointer-events="none" font-family="Open Sans" font-weight="normal" transform="matrix(1,0,0,1,0,-53.1)"><tspan dy="0" >Busca ideas,</tspan><tspan dy="1.2em" x="0" >postula a</tspan><tspan dy="1.2em" x="0" >proyectos, recibe</tspan><tspan dy="1.2em" x="0" >pagos</tspan></text></g><g id="v-486"  label-idx="1" cursor="move" transform="matrix(1,0,0,1,1326.5,750.2000122070312)" style="cursor: default; opacity: 1;"><rect joint-selector="rect" id="v-490" fill="#ffffff" rx="3" ry="3"  width="0" height="0" transform="matrix(1,0,0,1,0,0)" display="none"></rect><text joint-selector="text" id="v-489" fill="#000000" font-size="14" text-anchor="middle" pointer-events="none"></text></g></g><g  display="none" style="display: none;"></g><g  id="v-495" display="none"><g  id="v-483"><path  end="source" d="M 26 0 L 0 13 L 26 26 z"></path></g><g  id="v-484"><path  end="target" d="M 26 0 L 0 13 L 26 26 z"></path></g></g><g  id="v-494" display="none"><g  id="v-482" transform="translate(1398.085066973826, 580.2452168189578) "><g  event="remove"><circle r="11"></circle><path transform="scale(.8) translate(-16, -16)" d="M24.778,21.419 19.276,15.917 24.777,10.415 21.949,7.585 16.447,13.087 10.945,7.585 8.117,10.415 13.618,15.917 8.116,21.419 10.946,24.248 16.447,18.746 21.948,24.248z"></path><title>Remove link.</title></g><g  event="link:options"><circle r="11" transform="translate(25)"></circle><path fill="white" transform="scale(.55) translate(29, -16)" d="M31.229,17.736c0.064-0.571,0.104-1.148,0.104-1.736s-0.04-1.166-0.104-1.737l-4.377-1.557c-0.218-0.716-0.504-1.401-0.851-2.05l1.993-4.192c-0.725-0.91-1.549-1.734-2.458-2.459l-4.193,1.994c-0.647-0.347-1.334-0.632-2.049-0.849l-1.558-4.378C17.165,0.708,16.588,0.667,16,0.667s-1.166,0.041-1.737,0.105L12.707,5.15c-0.716,0.217-1.401,0.502-2.05,0.849L6.464,4.005C5.554,4.73,4.73,5.554,4.005,6.464l1.994,4.192c-0.347,0.648-0.632,1.334-0.849,2.05l-4.378,1.557C0.708,14.834,0.667,15.412,0.667,16s0.041,1.165,0.105,1.736l4.378,1.558c0.217,0.715,0.502,1.401,0.849,2.049l-1.994,4.193c0.725,0.909,1.549,1.733,2.459,2.458l4.192-1.993c0.648,0.347,1.334,0.633,2.05,0.851l1.557,4.377c0.571,0.064,1.148,0.104,1.737,0.104c0.588,0,1.165-0.04,1.736-0.104l1.558-4.377c0.715-0.218,1.399-0.504,2.049-0.851l4.193,1.993c0.909-0.725,1.733-1.549,2.458-2.458l-1.993-4.193c0.347-0.647,0.633-1.334,0.851-2.049L31.229,17.736zM16,20.871c-2.69,0-4.872-2.182-4.872-4.871c0-2.69,2.182-4.872,4.872-4.872c2.689,0,4.871,2.182,4.871,4.872C20.871,18.689,18.689,20.871,16,20.871z"></path><title>Link options.</title></g></g></g></g><!--z-index:24--><g   id="j_43" ><path  stroke="#444444" d="M 988 1145 L 613 1445" id="v-508" stroke-width="2" stroke-dasharray="30 30" fill="none" style="opacity: 1;"></path><path  fill="black" stroke="black" d="M 0 0 0 0" transform="matrix(-0.7808688416748546,0.6246950072646418,-0.6246950072646418,-0.7808688416748546,987.5,1145)"></path><path  fill="#444444" stroke="#444444" d="M 20 0 L 0 10 L 20 20 z" id="v-510" transform="matrix(0.7808686753084834,-0.624695215222571,0.624695215222571,0.7808686753084834,606.2530769150022,1437.1913171569533)" style="opacity: 1;"></path><path  d="M 988 1145 L 613 1445" id="v-509" fill="none" style="cursor: auto; pointer-events: visiblepainted;"></path><g ><g id="v-502"  label-idx="0" cursor="move" transform="matrix(1,0,0,1,800.5,1295)" style="cursor: default; opacity: 1;"><rect joint-selector="rect" id="v-505" fill="#ffffff" rx="3" ry="3" pointer-events="none" width="191.439208984375" height="92.21475219726562" transform="matrix(1,0,0,1,-94.8,-46.1)"></rect><text joint-selector="text" id="v-504" font-size="24px" xml:space="preserve" y="0.8em" fill="#444444" text-anchor="middle" pointer-events="none" font-family="Open Sans" font-weight="normal" transform="matrix(1,0,0,1,0,-38.7)"><tspan dy="0" >Procesa pagos,</tspan><tspan dy="1.2em" x="0" >recibe webhooks</tspan><tspan dy="1.2em" x="0" >[HTTPS]</tspan></text></g><g id="v-503"  label-idx="1" cursor="move" transform="matrix(1,0,0,1,790.5,1335.800048828125)" style="cursor: default; opacity: 1;"><rect joint-selector="rect" id="v-507" fill="#ffffff" rx="3" ry="3"  width="0" height="0" transform="matrix(1,0,0,1,0,0)" display="none"></rect><text joint-selector="text" id="v-506" fill="#000000" font-size="14" text-anchor="middle" pointer-events="none"></text></g></g><g  display="none" style="display: none;"></g><g  id="v-512" display="none"><g  id="v-500"><path  end="source" d="M 26 0 L 0 13 L 26 26 z"></path></g><g  id="v-501"><path  end="target" d="M 26 0 L 0 13 L 26 26 z"></path></g></g><g  id="v-511" display="none"><g  id="v-499" transform="translate(956.7652476222789, 1169.9878019021771) "><g  event="remove"><circle r="11"></circle><path transform="scale(.8) translate(-16, -16)" d="M24.778,21.419 19.276,15.917 24.777,10.415 21.949,7.585 16.447,13.087 10.945,7.585 8.117,10.415 13.618,15.917 8.116,21.419 10.946,24.248 16.447,18.746 21.948,24.248z"></path><title>Remove link.</title></g><g  event="link:options"><circle r="11" transform="translate(25)"></circle><path fill="white" transform="scale(.55) translate(29, -16)" d="M31.229,17.736c0.064-0.571,0.104-1.148,0.104-1.736s-0.04-1.166-0.104-1.737l-4.377-1.557c-0.218-0.716-0.504-1.401-0.851-2.05l1.993-4.192c-0.725-0.91-1.549-1.734-2.458-2.459l-4.193,1.994c-0.647-0.347-1.334-0.632-2.049-0.849l-1.558-4.378C17.165,0.708,16.588,0.667,16,0.667s-1.166,0.041-1.737,0.105L12.707,5.15c-0.716,0.217-1.401,0.502-2.05,0.849L6.464,4.005C5.554,4.73,4.73,5.554,4.005,6.464l1.994,4.192c-0.347,0.648-0.632,1.334-0.849,2.05l-4.378,1.557C0.708,14.834,0.667,15.412,0.667,16s0.041,1.165,0.105,1.736l4.378,1.558c0.217,0.715,0.502,1.401,0.849,2.049l-1.994,4.193c0.725,0.909,1.549,1.733,2.459,2.458l4.192-1.993c0.648,0.347,1.334,0.633,2.05,0.851l1.557,4.377c0.571,0.064,1.148,0.104,1.737,0.104c0.588,0,1.165-0.04,1.736-0.104l1.558-4.377c0.715-0.218,1.399-0.504,2.049-0.851l4.193,1.993c0.909-0.725,1.733-1.549,2.458-2.458l-1.993-4.193c0.347-0.647,0.633-1.334,0.851-2.049L31.229,17.736zM16,20.871c-2.69,0-4.872-2.182-4.872-4.871c0-2.69,2.182-4.872,4.872-4.872c2.689,0,4.871,2.182,4.871,4.872C20.871,18.689,18.689,20.871,16,20.871z"></path><title>Link options.</title></g></g></g></g><!--z-index:25--><g   id="j_44" ><path  stroke="#444444" d="M 1175 1145 L 1175 1445" id="v-525" stroke-width="2" stroke-dasharray="30 30" fill="none" style="opacity: 1;"></path><path  fill="black" stroke="black" d="M 0 0 0 0" transform="matrix(6.123233995736766e-17,1,-1,6.123233995736766e-17,1175,1145)"></path><path  fill="#444444" stroke="#444444" d="M 20 0 L 0 10 L 20 20 z" id="v-527" transform="matrix(-1.8369701987210297e-16,-1,1,-1.8369701987210297e-16,1165,1444.9999999999998)" style="opacity: 1;"></path><path  d="M 1175 1145 L 1175 1445" id="v-526" fill="none" style="cursor: auto; pointer-events: visiblepainted;"></path><g ><g id="v-519"  label-idx="0" cursor="move" transform="matrix(1,0,0,1,1175,1295)" style="cursor: default; opacity: 1;"><rect joint-selector="rect" id="v-522" fill="#ffffff" rx="3" ry="3" pointer-events="none" width="156.17947387695312" height="92.21475219726562" transform="matrix(1,0,0,1,-77.2,-46.1)"></rect><text joint-selector="text" id="v-521" font-size="24px" xml:space="preserve" y="0.8em" fill="#444444" text-anchor="middle" pointer-events="none" font-family="Open Sans" font-weight="normal" transform="matrix(1,0,0,1,0,-38.7)"><tspan dy="0" >Envía</tspan><tspan dy="1.2em" x="0" >notificaciones</tspan><tspan dy="1.2em" x="0" >push [HTTPS]</tspan></text></g><g id="v-520"  label-idx="1" cursor="move" transform="matrix(1,0,0,1,1165,1335.800048828125)" style="cursor: default; opacity: 1;"><rect joint-selector="rect" id="v-524" fill="#ffffff" rx="3" ry="3"  width="0" height="0" transform="matrix(1,0,0,1,0,0)" display="none"></rect><text joint-selector="text" id="v-523" fill="#000000" font-size="14" text-anchor="middle" pointer-events="none"></text></g></g><g  display="none" style="display: none;"></g><g  id="v-529" display="none"><g  id="v-517"><path  end="source" d="M 26 0 L 0 13 L 26 26 z"></path></g><g  id="v-518"><path  end="target" d="M 26 0 L 0 13 L 26 26 z"></path></g></g><g  id="v-528" display="none"><g  id="v-516" transform="translate(1175, 1185) "><g  event="remove"><circle r="11"></circle><path transform="scale(.8) translate(-16, -16)" d="M24.778,21.419 19.276,15.917 24.777,10.415 21.949,7.585 16.447,13.087 10.945,7.585 8.117,10.415 13.618,15.917 8.116,21.419 10.946,24.248 16.447,18.746 21.948,24.248z"></path><title>Remove link.</title></g><g  event="link:options"><circle r="11" transform="translate(25)"></circle><path fill="white" transform="scale(.55) translate(29, -16)" d="M31.229,17.736c0.064-0.571,0.104-1.148,0.104-1.736s-0.04-1.166-0.104-1.737l-4.377-1.557c-0.218-0.716-0.504-1.401-0.851-2.05l1.993-4.192c-0.725-0.91-1.549-1.734-2.458-2.459l-4.193,1.994c-0.647-0.347-1.334-0.632-2.049-0.849l-1.558-4.378C17.165,0.708,16.588,0.667,16,0.667s-1.166,0.041-1.737,0.105L12.707,5.15c-0.716,0.217-1.401,0.502-2.05,0.849L6.464,4.005C5.554,4.73,4.73,5.554,4.005,6.464l1.994,4.192c-0.347,0.648-0.632,1.334-0.849,2.05l-4.378,1.557C0.708,14.834,0.667,15.412,0.667,16s0.041,1.165,0.105,1.736l4.378,1.558c0.217,0.715,0.502,1.401,0.849,2.049l-1.994,4.193c0.725,0.909,1.549,1.733,2.459,2.458l4.192-1.993c0.648,0.347,1.334,0.633,2.05,0.851l1.557,4.377c0.571,0.064,1.148,0.104,1.737,0.104c0.588,0,1.165-0.04,1.736-0.104l1.558-4.377c0.715-0.218,1.399-0.504,2.049-0.851l4.193,1.993c0.909-0.725,1.733-1.549,2.458-2.458l-1.993-4.193c0.347-0.647,0.633-1.334,0.851-2.049L31.229,17.736zM16,20.871c-2.69,0-4.872-2.182-4.872-4.871c0-2.69,2.182-4.872,4.872-4.872c2.689,0,4.871,2.182,4.871,4.872C20.871,18.689,18.689,20.871,16,20.871z"></path><title>Link options.</title></g></g></g></g><!--z-index:26--><g   id="j_45" ><path  stroke="#444444" d="M 1363 1145 L 1738 1445" id="v-542" stroke-width="2" stroke-dasharray="30 30" fill="none" style="opacity: 1;"></path><path  fill="black" stroke="black" d="M 0 0 0 0" transform="matrix(0.7808688000832672,0.624695059254128,-0.624695059254128,0.7808688000832672,1362.5,1145)"></path><path  fill="#444444" stroke="#444444" d="M 20 0 L 0 10 L 20 20 z" id="v-544" transform="matrix(-0.7808688416748548,-0.6246950072646416,0.6246950072646416,-0.7808688416748548,1731.2530225237895,1452.8086902472073)" style="opacity: 1;"></path><path  d="M 1363 1145 L 1738 1445" id="v-543" fill="none" style="cursor: auto; pointer-events: visiblepainted;"></path><g ><g id="v-536"  label-idx="0" cursor="move" transform="matrix(1,0,0,1,1550.5,1295)" style="cursor: default; opacity: 1;"><rect joint-selector="rect" id="v-539" fill="#ffffff" rx="3" ry="3" pointer-events="none" width="172.6160888671875" height="92.21475219726562" transform="matrix(1,0,0,1,-86.3,-46.1)"></rect><text joint-selector="text" id="v-538" font-size="24px" xml:space="preserve" y="0.8em" fill="#444444" text-anchor="middle" pointer-events="none" font-family="Open Sans" font-weight="normal" transform="matrix(1,0,0,1,0,-38.7)"><tspan dy="0" >Envía emails de</tspan><tspan dy="1.2em" x="0" >verificación</tspan><tspan dy="1.2em" x="0" >[HTTPS]</tspan></text></g><g id="v-537"  label-idx="1" cursor="move" transform="matrix(1,0,0,1,1540.5,1335.800048828125)" style="cursor: default; opacity: 1;"><rect joint-selector="rect" id="v-541" fill="#ffffff" rx="3" ry="3"  width="0" height="0" transform="matrix(1,0,0,1,0,0)" display="none"></rect><text joint-selector="text" id="v-540" fill="#000000" font-size="14" text-anchor="middle" pointer-events="none"></text></g></g><g  display="none" style="display: none;"></g><g  id="v-546" display="none"><g  id="v-534"><path  end="source" d="M 26 0 L 0 13 L 26 26 z"></path></g><g  id="v-535"><path  end="target" d="M 26 0 L 0 13 L 26 26 z"></path></g></g><g  id="v-545" display="none"><g  id="v-533" transform="translate(1394.2347523777212, 1169.9878019021771) "><g  event="remove"><circle r="11"></circle><path transform="scale(.8) translate(-16, -16)" d="M24.778,21.419 19.276,15.917 24.777,10.415 21.949,7.585 16.447,13.087 10.945,7.585 8.117,10.415 13.618,15.917 8.116,21.419 10.946,24.248 16.447,18.746 21.948,24.248z"></path><title>Remove link.</title></g><g  event="link:options"><circle r="11" transform="translate(25)"></circle><path fill="white" transform="scale(.55) translate(29, -16)" d="M31.229,17.736c0.064-0.571,0.104-1.148,0.104-1.736s-0.04-1.166-0.104-1.737l-4.377-1.557c-0.218-0.716-0.504-1.401-0.851-2.05l1.993-4.192c-0.725-0.91-1.549-1.734-2.458-2.459l-4.193,1.994c-0.647-0.347-1.334-0.632-2.049-0.849l-1.558-4.378C17.165,0.708,16.588,0.667,16,0.667s-1.166,0.041-1.737,0.105L12.707,5.15c-0.716,0.217-1.401,0.502-2.05,0.849L6.464,4.005C5.554,4.73,4.73,5.554,4.005,6.464l1.994,4.192c-0.347,0.648-0.632,1.334-0.849,2.05l-4.378,1.557C0.708,14.834,0.667,15.412,0.667,16s0.041,1.165,0.105,1.736l4.378,1.558c0.217,0.715,0.502,1.401,0.849,2.049l-1.994,4.193c0.725,0.909,1.549,1.733,2.459,2.458l4.192-1.993c0.648,0.347,1.334,0.633,2.05,0.851l1.557,4.377c0.571,0.064,1.148,0.104,1.737,0.104c0.588,0,1.165-0.04,1.736-0.104l1.558-4.377c0.715-0.218,1.399-0.504,2.049-0.851l4.193,1.993c0.909-0.725,1.733-1.549,2.458-2.458l-1.993-4.193c0.347-0.647,0.633-1.334,0.851-2.049L31.229,17.736zM16,20.871c-2.69,0-4.872-2.182-4.872-4.871c0-2.69,2.182-4.872,4.872-4.872c2.689,0,4.871,2.182,4.871,4.872C20.871,18.689,18.689,20.871,16,20.871z"></path><title>Link options.</title></g></g></g></g><!--z-index:27--><!--z-index:28--><!--z-index:29--><!--z-index:30--><!--z-index:31--><!--z-index:32--><!--z-index:33--><!--z-index:34--><!--z-index:35--></g><g ></g><g ></g><g ></g></g></svg>