<svg xmlns="http://www.w3.org/2000/svg" xmlns:xlink="http://www.w3.org/1999/xlink" version="1.1" viewBox="0 0 2300 1500" style="background: #ffffff"><defs><style>@import url(https://fonts.googleapis.com/css?family=Open+Sans:400,700);</style></defs><defs joint-selector="defs"></defs><g joint-selector="layers"  transform="matrix(1,0,0,1,0,0)"><g ></g><g ><!--z-index:0--><!--z-index:1--><!--z-index:2--><!--z-index:3--><!--z-index:4--><!--z-index:5--><!--z-index:6--><!--z-index:7--><!--z-index:8--><!--z-index:9--><g   id="j_3"  transform="translate(20,1458)"><g id="v-7"><text  id="v-8" font-size="22px" xml:space="preserve" y="0.8em" font-weight="normal" text-anchor="start" fill="#444444" pointer-events="none" display="block" font-family="Open Sans"><tspan dy="0"  display="block">jueves, 9 de octubre de 2025, 17:12 hora estándar de Perú</tspan></text></g></g><!--z-index:10--><g   id="j_2"  transform="translate(20,1426)"><g id="v-5"><text  id="v-6" font-size="22px" xml:space="preserve" y="0.8em" font-weight="normal" text-anchor="start" fill="#444444" pointer-events="none" display="block" font-family="Open Sans"><tspan dy="0"  display="block">Diagrama de Contexto - NEXUS</tspan></text></g></g><!--z-index:11--><g   id="j_1"  transform="translate(20,1380)"><g id="v-3"><text  id="v-4" font-size="36px" xml:space="preserve" y="0.8em" font-weight="normal" text-anchor="start" fill="#444444" pointer-events="none" display="block" font-family="Open Sans"><tspan dy="0"  display="block">[System Context] NEXUS</tspan></text></g></g><!--z-index:12--><g   id="j_4"  transform="translate(200,144)" style=""><g  id="v-12" style="opacity: 1;"><rect  x="0" y="160" width="400" height="240" rx="70" id="v-14" stroke-width="2" pointer-events="visiblePainted" fill="#ffffff" stroke="#008000" style="fill: rgb(255, 255, 255); stroke: rgb(0, 128, 0);"></rect><circle  cx="200" cy="88.88888888888889" r="88.88888888888889" id="v-13" stroke-width="2" pointer-events="visiblePainted" fill="#ffffff" stroke="#008000" style="fill: rgb(255, 255, 255); stroke: rgb(0, 128, 0);"></circle><line  x1="80" y1="266.6666666666667" x2="80" y2="400" id="v-20" stroke="#008000" stroke-width="1" style="stroke: rgb(0, 128, 0);"></line><line  x1="320" y1="266.6666666666667" x2="320" y2="400" id="v-21" stroke="#008000" stroke-width="1" style="stroke: rgb(0, 128, 0);"></line><text  id="v-15" font-size="34" xml:space="preserve" y="216.6" font-weight="bold" text-anchor="middle" pointer-events="visible" font-family="Open Sans" fill="#008000" dominant-baseline="hanging" transform="matrix(1,0,0,1,200,0)" style="fill: rgb(0, 128, 0);"><tspan dy="0" >Ideador</tspan></text><text  id="v-16" font-size="17" xml:space="preserve" y="258.6" text-anchor="middle" font-family="Open Sans" fill="#008000" dominant-baseline="hanging" transform="matrix(1,0,0,1,200,0)" style="display: block; fill: rgb(0, 128, 0);"><tspan dy="0" >[Person]</tspan></text><text  id="v-17" font-size="24" xml:space="preserve" y="290.6" text-anchor="middle" font-family="Open Sans" fill="#008000" dominant-baseline="hanging" transform="matrix(1,0,0,1,200,0)" style="display: block; fill: rgb(0, 128, 0);"><tspan dy="0" >Usuario que publica ideas</tspan><tspan dy="1.2em" x="0" >innovadoras</tspan></text><g  id="v-18" font-weight="normal" text-anchor="middle" color="#008000" transform="matrix(1,0,0,1,197.5,368)" display="none" style="fill: rgb(0, 128, 0);"><g ></g><g ></g><g ></g><g ></g></g><image  id="v-19"></image></g></g><!--z-index:13--><g   id="j_5"  transform="translate(200,844)" style=""><g  id="v-25" style="opacity: 1;"><rect  x="0" y="160" width="400" height="240" rx="70" id="v-27" stroke-width="2" pointer-events="visiblePainted" fill="#ffffff" stroke="#008000" style="fill: rgb(255, 255, 255); stroke: rgb(0, 128, 0);"></rect><circle  cx="200" cy="88.88888888888889" r="88.88888888888889" id="v-26" stroke-width="2" pointer-events="visiblePainted" fill="#ffffff" stroke="#008000" style="fill: rgb(255, 255, 255); stroke: rgb(0, 128, 0);"></circle><line  x1="80" y1="266.6666666666667" x2="80" y2="400" id="v-33" stroke="#008000" stroke-width="1" style="stroke: rgb(0, 128, 0);"></line><line  x1="320" y1="266.6666666666667" x2="320" y2="400" id="v-34" stroke="#008000" stroke-width="1" style="stroke: rgb(0, 128, 0);"></line><text  id="v-28" font-size="34" xml:space="preserve" y="216.6" font-weight="bold" text-anchor="middle" pointer-events="visible" font-family="Open Sans" fill="#008000" dominant-baseline="hanging" transform="matrix(1,0,0,1,200,0)" style="fill: rgb(0, 128, 0);"><tspan dy="0" >Desarrollador</tspan></text><text  id="v-29" font-size="17" xml:space="preserve" y="258.6" text-anchor="middle" font-family="Open Sans" fill="#008000" dominant-baseline="hanging" transform="matrix(1,0,0,1,200,0)" style="display: block; fill: rgb(0, 128, 0);"><tspan dy="0" >[Person]</tspan></text><text  id="v-30" font-size="24" xml:space="preserve" y="290.6" text-anchor="middle" font-family="Open Sans" fill="#008000" dominant-baseline="hanging" transform="matrix(1,0,0,1,200,0)" style="display: block; fill: rgb(0, 128, 0);"><tspan dy="0" >Desarrollador, diseñador o</tspan><tspan dy="1.2em" x="0" >especialista que colabora</tspan></text><g  id="v-31" font-weight="normal" text-anchor="middle" color="#008000" transform="matrix(1,0,0,1,197.5,368)" display="none" style="fill: rgb(0, 128, 0);"><g ></g><g ></g><g ></g><g ></g></g><image  id="v-32"></image></g></g><!--z-index:14--><g   id="j_6"  transform="translate(900,544)" style=""><g  id="v-38" style="opacity: 1;"><rect  id="v-39" rx="1" ry="1" stroke-width="2" pointer-events="visiblePainted" fill="#ffffff" stroke="#0000ff" width="450" height="300" style="fill: rgb(255, 255, 255); stroke: rgb(0, 0, 255);"></rect><text  id="v-40" font-size="34" xml:space="preserve" y="101" font-weight="bold" text-anchor="middle" pointer-events="visible" font-family="Open Sans" fill="#0000ff" dominant-baseline="hanging" transform="matrix(1,0,0,1,225,0)" style="fill: rgb(0, 0, 255);"><tspan dy="0" >NEXUS</tspan></text><text  id="v-41" font-size="17" xml:space="preserve" y="143" text-anchor="middle" font-family="Open Sans" fill="#0000ff" dominant-baseline="hanging" transform="matrix(1,0,0,1,225,0)" style="display: block; fill: rgb(0, 0, 255);"><tspan dy="0" >[Software System]</tspan></text><text  id="v-42" font-size="24" xml:space="preserve" y="175" text-anchor="middle" font-family="Open Sans" fill="#0000ff" dominant-baseline="hanging" transform="matrix(1,0,0,1,225,0)" style="display: block; fill: rgb(0, 0, 255);"><tspan dy="0" >Plataforma colaborativa de ideas</tspan></text><g  id="v-43" color="#0000ff" transform="matrix(1,0,0,1,222.5,268)" display="none" style="fill: rgb(0, 0, 255);"><g ></g><g ></g><g ></g><g ></g></g><image  id="v-44"></image></g></g><!--z-index:15--><g   id="j_7"  transform="translate(1650,544)" style=""><g  id="v-51" style="opacity: 1;"><rect  id="v-52" rx="1" ry="1" stroke-width="2" pointer-events="visiblePainted" fill="#ffffff" stroke="#ffa500" width="450" height="300" style="fill: rgb(255, 255, 255); stroke: rgb(255, 165, 0);"></rect><text  id="v-53" font-size="34" xml:space="preserve" y="101" font-weight="bold" text-anchor="middle" pointer-events="visible" font-family="Open Sans" fill="#ffa500" dominant-baseline="hanging" transform="matrix(1,0,0,1,225,0)" style="fill: rgb(255, 165, 0);"><tspan dy="0" >Pasarela de Pagos</tspan></text><text  id="v-54" font-size="17" xml:space="preserve" y="143" text-anchor="middle" font-family="Open Sans" fill="#ffa500" dominant-baseline="hanging" transform="matrix(1,0,0,1,225,0)" style="display: block; fill: rgb(255, 165, 0);"><tspan dy="0" >[Software System]</tspan></text><text  id="v-55" font-size="24" xml:space="preserve" y="175" text-anchor="middle" font-family="Open Sans" fill="#ffa500" dominant-baseline="hanging" transform="matrix(1,0,0,1,225,0)" style="display: block; fill: rgb(255, 165, 0);"><tspan dy="0" >Procesa pagos y transferencias</tspan></text><g  id="v-56" color="#ffa500" transform="matrix(1,0,0,1,222.5,268)" display="none" style="fill: rgb(255, 165, 0);"><g ></g><g ></g><g ></g><g ></g></g><image  id="v-57"></image></g></g><!--z-index:16--><g   id="j_8" ><path  stroke="#444444" d="M 600 441 L 900 585" id="v-70" stroke-width="2" stroke-dasharray="30 30" fill="none" style="opacity: 1;"></path><path  fill="black" stroke="black" d="M 0 0 0 0" transform="matrix(0.9005516398598421,0.43474905859098645,-0.43474905859098645,0.9005516398598421,600,440.5517272949219)"></path><path  fill="#444444" stroke="#444444" d="M 20 0 L 0 10 L 20 20 z" id="v-72" transform="matrix(-0.9005515964420835,-0.43474914852776253,0.43474914852776253,-0.9005515964420835,895.6525313150808,594.3848067661047)" style="opacity: 1;"></path><path  d="M 600 441 L 900 585" id="v-71" fill="none" style="cursor: auto; pointer-events: visiblepainted;"></path><g ><g id="v-64"  label-idx="0" cursor="move" transform="matrix(1,0,0,1,750,513)" style="cursor: default; opacity: 1;"><rect joint-selector="rect" id="v-67" fill="#ffffff" rx="3" ry="3" pointer-events="none" width="152.20484924316406" height="91.28684616088867" transform="matrix(1,0,0,1,-76.1,-45.6)"></rect><text joint-selector="text" id="v-66" font-size="24px" xml:space="preserve" y="0.8em" fill="#444444" text-anchor="middle" pointer-events="none" font-family="Open Sans" font-weight="normal" transform="matrix(1,0,0,1,0,-38.6)"><tspan dy="0" >Publica ideas,</tspan><tspan dy="1.2em" x="0" >gestiona</tspan><tspan dy="1.2em" x="0" >proyectos</tspan></text></g><g id="v-65"  label-idx="1" cursor="move" transform="matrix(1,0,0,1,740,553.7999877929688)" style="cursor: default; opacity: 1;"><rect joint-selector="rect" id="v-69" fill="#ffffff" rx="3" ry="3"  width="0" height="0" transform="matrix(1,0,0,1,0,0)" display="none"></rect><text joint-selector="text" id="v-68" fill="#000000" font-size="14" text-anchor="middle" pointer-events="none"></text></g></g><g  display="none" style="display: none;"></g><g  id="v-74" display="none"><g  id="v-62"><path  end="source" d="M 26 0 L 0 13 L 26 26 z"></path></g><g  id="v-63"><path  end="target" d="M 26 0 L 0 13 L 26 26 z"></path></g></g><g  id="v-73" display="none"><g  id="v-61" transform="translate(636.0609222987309, 458.30924270339085) "><g  event="remove"><circle r="11"></circle><path transform="scale(.8) translate(-16, -16)" d="M24.778,21.419 19.276,15.917 24.777,10.415 21.949,7.585 16.447,13.087 10.945,7.585 8.117,10.415 13.618,15.917 8.116,21.419 10.946,24.248 16.447,18.746 21.948,24.248z"></path><title>Remove link.</title></g><g  event="link:options"><circle r="11" transform="translate(25)"></circle><path fill="white" transform="scale(.55) translate(29, -16)" d="M31.229,17.736c0.064-0.571,0.104-1.148,0.104-1.736s-0.04-1.166-0.104-1.737l-4.377-1.557c-0.218-0.716-0.504-1.401-0.851-2.05l1.993-4.192c-0.725-0.91-1.549-1.734-2.458-2.459l-4.193,1.994c-0.647-0.347-1.334-0.632-2.049-0.849l-1.558-4.378C17.165,0.708,16.588,0.667,16,0.667s-1.166,0.041-1.737,0.105L12.707,5.15c-0.716,0.217-1.401,0.502-2.05,0.849L6.464,4.005C5.554,4.73,4.73,5.554,4.005,6.464l1.994,4.192c-0.347,0.648-0.632,1.334-0.849,2.05l-4.378,1.557C0.708,14.834,0.667,15.412,0.667,16s0.041,1.165,0.105,1.736l4.378,1.558c0.217,0.715,0.502,1.401,0.849,2.049l-1.994,4.193c0.725,0.909,1.549,1.733,2.459,2.458l4.192-1.993c0.648,0.347,1.334,0.633,2.05,0.851l1.557,4.377c0.571,0.064,1.148,0.104,1.737,0.104c0.588,0,1.165-0.04,1.736-0.104l1.558-4.377c0.715-0.218,1.399-0.504,2.049-0.851l4.193,1.993c0.909-0.725,1.733-1.549,2.458-2.458l-1.993-4.193c0.347-0.647,0.633-1.334,0.851-2.049L31.229,17.736zM16,20.871c-2.69,0-4.872-2.182-4.872-4.871c0-2.69,2.182-4.872,4.872-4.872c2.689,0,4.871,2.182,4.871,4.872C20.871,18.689,18.689,20.871,16,20.871z"></path><title>Link options.</title></g></g></g></g><!--z-index:17--><g   id="j_9" ><path  stroke="#444444" d="M 600 947 L 900 803" id="v-87" stroke-width="2" stroke-dasharray="30 30" fill="none" style="opacity: 1;"></path><path  fill="black" stroke="black" d="M 0 0 0 0" transform="matrix(0.9005517122227531,-0.43474890869635013,0.43474890869635013,0.9005517122227531,600,947.4483032226562)"></path><path  fill="#444444" stroke="#444444" d="M 20 0 L 0 10 L 20 20 z" id="v-89" transform="matrix(-0.9005515964420834,0.43474914852776275,-0.43474914852776275,-0.9005515964420834,904.347514285636,811.626225162737)" style="opacity: 1;"></path><path  d="M 600 947 L 900 803" id="v-88" fill="none" style="cursor: auto; pointer-events: visiblepainted;"></path><g ><g id="v-81"  label-idx="0" cursor="move" transform="matrix(1,0,0,1,750,875)" style="cursor: default; opacity: 1;"><rect joint-selector="rect" id="v-84" fill="#ffffff" rx="3" ry="3" pointer-events="none" width="118.25483703613281" height="91.28684616088867" transform="matrix(1,0,0,1,-59.1,-45.6)"></rect><text joint-selector="text" id="v-83" font-size="24px" xml:space="preserve" y="0.8em" fill="#444444" text-anchor="middle" pointer-events="none" font-family="Open Sans" font-weight="normal" transform="matrix(1,0,0,1,0,-38.6)"><tspan dy="0" >Colabora,</tspan><tspan dy="1.2em" x="0" >propone</tspan><tspan dy="1.2em" x="0" >soluciones</tspan></text></g><g id="v-82"  label-idx="1" cursor="move" transform="matrix(1,0,0,1,740,915.7999877929688)" style="cursor: default; opacity: 1;"><rect joint-selector="rect" id="v-86" fill="#ffffff" rx="3" ry="3"  width="0" height="0" transform="matrix(1,0,0,1,0,0)" display="none"></rect><text joint-selector="text" id="v-85" fill="#000000" font-size="14" text-anchor="middle" pointer-events="none"></text></g></g><g  display="none" style="display: none;"></g><g  id="v-91" display="none"><g  id="v-79"><path  end="source" d="M 26 0 L 0 13 L 26 26 z"></path></g><g  id="v-80"><path  end="target" d="M 26 0 L 0 13 L 26 26 z"></path></g></g><g  id="v-90" display="none"><g  id="v-78" transform="translate(636.0609222987309, 929.690757296609) "><g  event="remove"><circle r="11"></circle><path transform="scale(.8) translate(-16, -16)" d="M24.778,21.419 19.276,15.917 24.777,10.415 21.949,7.585 16.447,13.087 10.945,7.585 8.117,10.415 13.618,15.917 8.116,21.419 10.946,24.248 16.447,18.746 21.948,24.248z"></path><title>Remove link.</title></g><g  event="link:options"><circle r="11" transform="translate(25)"></circle><path fill="white" transform="scale(.55) translate(29, -16)" d="M31.229,17.736c0.064-0.571,0.104-1.148,0.104-1.736s-0.04-1.166-0.104-1.737l-4.377-1.557c-0.218-0.716-0.504-1.401-0.851-2.05l1.993-4.192c-0.725-0.91-1.549-1.734-2.458-2.459l-4.193,1.994c-0.647-0.347-1.334-0.632-2.049-0.849l-1.558-4.378C17.165,0.708,16.588,0.667,16,0.667s-1.166,0.041-1.737,0.105L12.707,5.15c-0.716,0.217-1.401,0.502-2.05,0.849L6.464,4.005C5.554,4.73,4.73,5.554,4.005,6.464l1.994,4.192c-0.347,0.648-0.632,1.334-0.849,2.05l-4.378,1.557C0.708,14.834,0.667,15.412,0.667,16s0.041,1.165,0.105,1.736l4.378,1.558c0.217,0.715,0.502,1.401,0.849,2.049l-1.994,4.193c0.725,0.909,1.549,1.733,2.459,2.458l4.192-1.993c0.648,0.347,1.334,0.633,2.05,0.851l1.557,4.377c0.571,0.064,1.148,0.104,1.737,0.104c0.588,0,1.165-0.04,1.736-0.104l1.558-4.377c0.715-0.218,1.399-0.504,2.049-0.851l4.193,1.993c0.909-0.725,1.733-1.549,2.458-2.458l-1.993-4.193c0.347-0.647,0.633-1.334,0.851-2.049L31.229,17.736zM16,20.871c-2.69,0-4.872-2.182-4.872-4.871c0-2.69,2.182-4.872,4.872-4.872c2.689,0,4.871,2.182,4.871,4.872C20.871,18.689,18.689,20.871,16,20.871z"></path><title>Link options.</title></g></g></g></g><!--z-index:18--><g   id="j_10" ><path  stroke="#444444" d="M 1350 694 L 1650 694" id="v-104" stroke-width="2" stroke-dasharray="30 30" fill="none" style="opacity: 1;"></path><path  fill="black" stroke="black" d="M 0 0 0 0" transform="matrix(0.9999999999999999,0,0,0.9999999999999999,1350,694)"></path><path  fill="#444444" stroke="#444444" d="M 20 0 L 0 10 L 20 20 z" id="v-106" transform="matrix(-0.9999999999999999,1.224646799147353e-16,-1.224646799147353e-16,-0.9999999999999999,1650,704)" style="opacity: 1;"></path><path  d="M 1350 694 L 1650 694" id="v-105" fill="none" style="cursor: auto; pointer-events: visiblepainted;"></path><g ><g id="v-98"  label-idx="0" cursor="move" transform="matrix(1,0,0,1,1500,694)" style="cursor: default; opacity: 1;"><rect joint-selector="rect" id="v-101" fill="#ffffff" rx="3" ry="3" pointer-events="none" width="156.15252685546875" height="62.48684120178223" transform="matrix(1,0,0,1,-79,-31.2)"></rect><text joint-selector="text" id="v-100" font-size="24px" xml:space="preserve" y="0.8em" fill="#444444" text-anchor="middle" pointer-events="none" font-family="Open Sans" font-weight="normal" transform="matrix(1,0,0,1,0,-24.2)"><tspan dy="0" >Procesa</tspan><tspan dy="1.2em" x="0" >transacciones</tspan></text></g><g id="v-99"  label-idx="1" cursor="move" transform="matrix(1,0,0,1,1490,720.4000244140625)" style="cursor: default; opacity: 1;"><rect joint-selector="rect" id="v-103" fill="#ffffff" rx="3" ry="3"  width="0" height="0" transform="matrix(1,0,0,1,0,0)" display="none"></rect><text joint-selector="text" id="v-102" fill="#000000" font-size="14" text-anchor="middle" pointer-events="none"></text></g></g><g  display="none" style="display: none;"></g><g  id="v-108" display="none"><g  id="v-96"><path  end="source" d="M 26 0 L 0 13 L 26 26 z"></path></g><g  id="v-97"><path  end="target" d="M 26 0 L 0 13 L 26 26 z"></path></g></g><g  id="v-107" display="none"><g  id="v-95" transform="translate(1390, 694) "><g  event="remove"><circle r="11"></circle><path transform="scale(.8) translate(-16, -16)" d="M24.778,21.419 19.276,15.917 24.777,10.415 21.949,7.585 16.447,13.087 10.945,7.585 8.117,10.415 13.618,15.917 8.116,21.419 10.946,24.248 16.447,18.746 21.948,24.248z"></path><title>Remove link.</title></g><g  event="link:options"><circle r="11" transform="translate(25)"></circle><path fill="white" transform="scale(.55) translate(29, -16)" d="M31.229,17.736c0.064-0.571,0.104-1.148,0.104-1.736s-0.04-1.166-0.104-1.737l-4.377-1.557c-0.218-0.716-0.504-1.401-0.851-2.05l1.993-4.192c-0.725-0.91-1.549-1.734-2.458-2.459l-4.193,1.994c-0.647-0.347-1.334-0.632-2.049-0.849l-1.558-4.378C17.165,0.708,16.588,0.667,16,0.667s-1.166,0.041-1.737,0.105L12.707,5.15c-0.716,0.217-1.401,0.502-2.05,0.849L6.464,4.005C5.554,4.73,4.73,5.554,4.005,6.464l1.994,4.192c-0.347,0.648-0.632,1.334-0.849,2.05l-4.378,1.557C0.708,14.834,0.667,15.412,0.667,16s0.041,1.165,0.105,1.736l4.378,1.558c0.217,0.715,0.502,1.401,0.849,2.049l-1.994,4.193c0.725,0.909,1.549,1.733,2.459,2.458l4.192-1.993c0.648,0.347,1.334,0.633,2.05,0.851l1.557,4.377c0.571,0.064,1.148,0.104,1.737,0.104c0.588,0,1.165-0.04,1.736-0.104l1.558-4.377c0.715-0.218,1.399-0.504,2.049-0.851l4.193,1.993c0.909-0.725,1.733-1.549,2.458-2.458l-1.993-4.193c0.347-0.647,0.633-1.334,0.851-2.049L31.229,17.736zM16,20.871c-2.69,0-4.872-2.182-4.872-4.871c0-2.69,2.182-4.872,4.872-4.872c2.689,0,4.871,2.182,4.871,4.872C20.871,18.689,18.689,20.871,16,20.871z"></path><title>Link options.</title></g></g></g></g><!--z-index:19--></g><g ></g><g ></g><g ></g></g></svg>