<svg xmlns="http://www.w3.org/2000/svg" xmlns:xlink="http://www.w3.org/1999/xlink" version="1.1" viewBox="0 0 1640 1411" style="background: #ffffff"><defs><style>@import url(https://fonts.googleapis.com/css?family=Open+Sans:400,700);</style></defs><defs joint-selector="defs"></defs><g joint-selector="layers"  transform="matrix(1,0,0,1,0,0)"><g ></g><g ><!--z-index:0--><!--z-index:1--><!--z-index:2--><!--z-index:3--><!--z-index:4--><!--z-index:5--><!--z-index:6--><!--z-index:7--><!--z-index:8--><!--z-index:9--><!--z-index:10--><g   id="j_181"  transform="translate(20,1369)"><g id="v-2478"><text  id="v-2479" font-size="22px" xml:space="preserve" y="0.8em" font-weight="normal" text-anchor="start" fill="#444444" pointer-events="none" display="block" font-family="Open Sans"><tspan dy="0" >domingo, 19 de octubre de 2025, 19:52 hora estándar de Perú</tspan></text></g></g><!--z-index:11--><g   id="j_180"  transform="translate(20,1337)"><g id="v-2476"><text  id="v-2477" font-size="22px" xml:space="preserve" y="0.8em" font-weight="normal" text-anchor="start" fill="#444444" pointer-events="none" display="block" font-family="Open Sans"><tspan dy="0" >Esquema de Base de Datos de Ideas</tspan></text></g></g><!--z-index:12--><g   id="j_179"  transform="translate(20,1291)"><g id="v-2474"><text  id="v-2475" font-size="36px" xml:space="preserve" y="0.8em" font-weight="normal" text-anchor="start" fill="#444444" pointer-events="none" display="block" font-family="Open Sans"><tspan dy="0" >[Component] NEXUS - BD Ideas</tspan></text></g></g><!--z-index:13--><g   id="j_183"  transform="translate(199,145)" style=""><g id="v-2498"><rect  id="v-2499" width="1240" height="1011" rx="0" ry="0" stroke-width="2" stroke-dasharray="20,20" pointer-events="none" stroke="#3c7fc0" fill="#ffffff"></rect><text  id="v-2500" font-size="24px" xml:space="preserve" y="972" font-weight="normal" text-anchor="start" pointer-events="visible" font-family="Open Sans" fill="#3c7fc0" transform="matrix(1,0,0,1,15,0)"><tspan dy="0" >BD Ideas</tspan></text><text  id="v-2501" font-size="17px" xml:space="preserve" y="996" font-weight="normal" text-anchor="start" pointer-events="visible" font-family="Open Sans" fill="#3c7fc0" transform="matrix(1,0,0,1,15,0)"><tspan dy="0" >[Container]</tspan></text><image  id="v-2502" pointer-events="visible"></image></g></g><!--z-index:14--><g   id="j_182"  transform="translate(219,465)" style=""><g  id="v-2489" style="opacity: 1;"><rect  id="v-2490" rx="10" ry="10" stroke-width="2" pointer-events="visiblePainted" fill="#85bbf0" stroke="#78a8d8" x="37.5" width="412.5" height="300" style="fill: rgb(133, 187, 240); stroke: rgb(120, 168, 216);"></rect><rect  id="v-2491" rx="5" ry="5" stroke-width="2" pointer-events="visiblePainted" fill="#85bbf0" stroke="#78a8d8" x="0" y="22.5" width="75" height="37.5" style="fill: rgb(133, 187, 240); stroke: rgb(120, 168, 216);"></rect><rect  id="v-2492" rx="5" ry="5" stroke-width="2" pointer-events="visiblePainted" fill="#85bbf0" stroke="#78a8d8" x="0" y="75" width="75" height="37.5" style="fill: rgb(133, 187, 240); stroke: rgb(120, 168, 216);"></rect><text  id="v-2493" font-size="34" xml:space="preserve" y="72.2" font-weight="bold" text-anchor="middle" pointer-events="visible" font-family="Open Sans" fill="#000000" dominant-baseline="hanging" transform="matrix(1,0,0,1,243.8,0)" style="fill: rgb(0, 0, 0);"><tspan dy="0" >Colección: ideas</tspan></text><text  id="v-2494" font-size="17" xml:space="preserve" y="114.2" text-anchor="middle" font-family="Open Sans" fill="#000000" dominant-baseline="hanging" transform="matrix(1,0,0,1,243.8,0)" style="display: block; fill: rgb(0, 0, 0);"><tspan dy="0" >[Component: MongoDB Collection]</tspan></text><text  id="v-2495" font-size="24" xml:space="preserve" y="146.2" text-anchor="middle" font-family="Open Sans" fill="#000000" dominant-baseline="hanging" transform="matrix(1,0,0,1,243.8,0)" style="display: block; fill: rgb(0, 0, 0);"><tspan dy="0" >Documentos con título,</tspan><tspan dy="1.2em" x="0" >descripción, categoría, tags,</tspan><tspan dy="1.2em" x="0" >media_urls, user_id, status</tspan></text><g  id="v-2496" font-weight="normal" text-anchor="middle" color="#000000" transform="matrix(1,0,0,1,241.5,268)" display="none" style="fill: rgb(0, 0, 0);"><g ></g><g ></g><g ></g><g ></g></g><image  id="v-2497"></image></g></g><!--z-index:15--><g   id="j_184"  transform="translate(969,765)" style=""><g  id="v-2512" style="opacity: 1;"><rect  id="v-2513" rx="10" ry="10" stroke-width="2" pointer-events="visiblePainted" fill="#85bbf0" stroke="#78a8d8" x="37.5" width="412.5" height="300" style="fill: rgb(133, 187, 240); stroke: rgb(120, 168, 216);"></rect><rect  id="v-2514" rx="5" ry="5" stroke-width="2" pointer-events="visiblePainted" fill="#85bbf0" stroke="#78a8d8" x="0" y="22.5" width="75" height="37.5" style="fill: rgb(133, 187, 240); stroke: rgb(120, 168, 216);"></rect><rect  id="v-2515" rx="5" ry="5" stroke-width="2" pointer-events="visiblePainted" fill="#85bbf0" stroke="#78a8d8" x="0" y="75" width="75" height="37.5" style="fill: rgb(133, 187, 240); stroke: rgb(120, 168, 216);"></rect><text  id="v-2516" font-size="34" xml:space="preserve" y="72.2" font-weight="bold" text-anchor="middle" pointer-events="visible" font-family="Open Sans" fill="#000000" dominant-baseline="hanging" transform="matrix(1,0,0,1,243.8,0)" style="fill: rgb(0, 0, 0);"><tspan dy="0" >Colección: projects</tspan></text><text  id="v-2517" font-size="17" xml:space="preserve" y="114.2" text-anchor="middle" font-family="Open Sans" fill="#000000" dominant-baseline="hanging" transform="matrix(1,0,0,1,243.8,0)" style="display: block; fill: rgb(0, 0, 0);"><tspan dy="0" >[Component: MongoDB Collection]</tspan></text><text  id="v-2518" font-size="24" xml:space="preserve" y="146.2" text-anchor="middle" font-family="Open Sans" fill="#000000" dominant-baseline="hanging" transform="matrix(1,0,0,1,243.8,0)" style="display: block; fill: rgb(0, 0, 0);"><tspan dy="0" >Documentos con idea_id,</tspan><tspan dy="1.2em" x="0" >team[], milestones[],</tspan><tspan dy="1.2em" x="0" >progress, status</tspan></text><g  id="v-2519" font-weight="normal" text-anchor="middle" color="#000000" transform="matrix(1,0,0,1,241.5,268)" display="none" style="fill: rgb(0, 0, 0);"><g ></g><g ></g><g ></g><g ></g></g><image  id="v-2520"></image></g></g><!--z-index:16--><g   id="j_185"  transform="translate(969,165)" style=""><g  id="v-2530" style="opacity: 1;"><rect  id="v-2531" rx="10" ry="10" stroke-width="2" pointer-events="visiblePainted" fill="#85bbf0" stroke="#78a8d8" x="37.5" width="412.5" height="300" style="fill: rgb(133, 187, 240); stroke: rgb(120, 168, 216);"></rect><rect  id="v-2532" rx="5" ry="5" stroke-width="2" pointer-events="visiblePainted" fill="#85bbf0" stroke="#78a8d8" x="0" y="22.5" width="75" height="37.5" style="fill: rgb(133, 187, 240); stroke: rgb(120, 168, 216);"></rect><rect  id="v-2533" rx="5" ry="5" stroke-width="2" pointer-events="visiblePainted" fill="#85bbf0" stroke="#78a8d8" x="0" y="75" width="75" height="37.5" style="fill: rgb(133, 187, 240); stroke: rgb(120, 168, 216);"></rect><text  id="v-2534" font-size="34" xml:space="preserve" y="51.80000000000001" font-weight="bold" text-anchor="middle" pointer-events="visible" font-family="Open Sans" fill="#000000" dominant-baseline="hanging" transform="matrix(1,0,0,1,243.8,0)" style="fill: rgb(0, 0, 0);"><tspan dy="0" >Colección:</tspan><tspan dy="1.2em" x="0" >comments</tspan></text><text  id="v-2535" font-size="17" xml:space="preserve" y="134.60000000000002" text-anchor="middle" font-family="Open Sans" fill="#000000" dominant-baseline="hanging" transform="matrix(1,0,0,1,243.8,0)" style="display: block; fill: rgb(0, 0, 0);"><tspan dy="0" >[Component: MongoDB Collection]</tspan></text><text  id="v-2536" font-size="24" xml:space="preserve" y="166.60000000000002" text-anchor="middle" font-family="Open Sans" fill="#000000" dominant-baseline="hanging" transform="matrix(1,0,0,1,243.8,0)" style="display: block; fill: rgb(0, 0, 0);"><tspan dy="0" >Documentos anidados con</tspan><tspan dy="1.2em" x="0" >author, text, replies[],</tspan><tspan dy="1.2em" x="0" >idea_id</tspan></text><g  id="v-2537" font-weight="normal" text-anchor="middle" color="#000000" transform="matrix(1,0,0,1,241.5,268)" display="none" style="fill: rgb(0, 0, 0);"><g ></g><g ></g><g ></g><g ></g></g><image  id="v-2538"></image></g></g><!--z-index:17--><g   id="j_186" ><path  stroke="#444444" d="M 669 705 L 969 825" id="v-2551" stroke-width="2" stroke-dasharray="30 30" fill="none" style="opacity: 1;"></path><path  fill="black" stroke="black" d="M 0 0 0 0" transform="matrix(0.9284766955435519,0.371390664708372,-0.371390664708372,0.9284766955435519,669,705)"></path><path  fill="#444444" stroke="#444444" d="M 20 0 L 0 10 L 20 20 z" id="v-2553" transform="matrix(-0.928476707906966,-0.3713906337998342,0.3713906337998342,-0.928476707906966,965.2860707020088,834.2847451944118)" style="opacity: 1;"></path><path  d="M 669 705 L 969 825" id="v-2552" fill="none" style="cursor: auto; pointer-events: visiblepainted;"></path><g ><g id="v-2545"  label-idx="0" cursor="move" transform="matrix(1,0,0,1,819,765)" style="cursor: default; opacity: 1;"><rect joint-selector="rect" id="v-2548" fill="#ffffff" rx="3" ry="3" pointer-events="none" width="118.74921417236328" height="59.9133358001709" transform="matrix(1,0,0,1,-59.4,-30)"></rect><text joint-selector="text" id="v-2547" font-size="24px" xml:space="preserve" y="0.8em" fill="#444444" text-anchor="middle" pointer-events="none" font-family="Open Sans" font-weight="normal" transform="matrix(1,0,0,1,0,-24.3)"><tspan dy="0" >Referencia</tspan><tspan dy="1.2em" x="0" >(idea_id)</tspan></text></g><g id="v-2546"  label-idx="1" cursor="move" transform="matrix(1,0,0,1,809,791.4000244140625)" style="cursor: default; opacity: 1;"><rect joint-selector="rect" id="v-2550" fill="#ffffff" rx="3" ry="3"  width="0" height="0" transform="matrix(1,0,0,1,0,0)" display="none"></rect><text joint-selector="text" id="v-2549" fill="#000000" font-size="14" text-anchor="middle" pointer-events="none"></text></g></g><g  display="none" style="display: none;"></g><g  id="v-2555" display="none"><g  id="v-2543"><path  end="source" d="M 26 0 L 0 13 L 26 26 z"></path></g><g  id="v-2544"><path  end="target" d="M 26 0 L 0 13 L 26 26 z"></path></g></g><g  id="v-2554" display="none"><g  id="v-2542" transform="translate(706.1390676354105, 719.8556270541641) "><g  event="remove"><circle r="11"></circle><path transform="scale(.8) translate(-16, -16)" d="M24.778,21.419 19.276,15.917 24.777,10.415 21.949,7.585 16.447,13.087 10.945,7.585 8.117,10.415 13.618,15.917 8.116,21.419 10.946,24.248 16.447,18.746 21.948,24.248z"></path><title>Remove link.</title></g><g  event="link:options"><circle r="11" transform="translate(25)"></circle><path fill="white" transform="scale(.55) translate(29, -16)" d="M31.229,17.736c0.064-0.571,0.104-1.148,0.104-1.736s-0.04-1.166-0.104-1.737l-4.377-1.557c-0.218-0.716-0.504-1.401-0.851-2.05l1.993-4.192c-0.725-0.91-1.549-1.734-2.458-2.459l-4.193,1.994c-0.647-0.347-1.334-0.632-2.049-0.849l-1.558-4.378C17.165,0.708,16.588,0.667,16,0.667s-1.166,0.041-1.737,0.105L12.707,5.15c-0.716,0.217-1.401,0.502-2.05,0.849L6.464,4.005C5.554,4.73,4.73,5.554,4.005,6.464l1.994,4.192c-0.347,0.648-0.632,1.334-0.849,2.05l-4.378,1.557C0.708,14.834,0.667,15.412,0.667,16s0.041,1.165,0.105,1.736l4.378,1.558c0.217,0.715,0.502,1.401,0.849,2.049l-1.994,4.193c0.725,0.909,1.549,1.733,2.459,2.458l4.192-1.993c0.648,0.347,1.334,0.633,2.05,0.851l1.557,4.377c0.571,0.064,1.148,0.104,1.737,0.104c0.588,0,1.165-0.04,1.736-0.104l1.558-4.377c0.715-0.218,1.399-0.504,2.049-0.851l4.193,1.993c0.909-0.725,1.733-1.549,2.458-2.458l-1.993-4.193c0.347-0.647,0.633-1.334,0.851-2.049L31.229,17.736zM16,20.871c-2.69,0-4.872-2.182-4.872-4.871c0-2.69,2.182-4.872,4.872-4.872c2.689,0,4.871,2.182,4.871,4.872C20.871,18.689,18.689,20.871,16,20.871z"></path><title>Link options.</title></g></g></g></g><!--z-index:18--><g   id="j_187" ><path  stroke="#444444" d="M 669 525 L 969 405" id="v-2568" stroke-width="2" stroke-dasharray="30 30" fill="none" style="opacity: 1;"></path><path  fill="black" stroke="black" d="M 0 0 0 0" transform="matrix(0.9284766089996245,-0.3713908810681253,0.3713908810681253,0.9284766089996245,669,525)"></path><path  fill="#444444" stroke="#444444" d="M 20 0 L 0 10 L 20 20 z" id="v-2570" transform="matrix(-0.928476707906966,0.37139063379983406,-0.37139063379983406,-0.928476707906966,972.7138833780056,414.28475844614945)" style="opacity: 1;"></path><path  d="M 669 525 L 969 405" id="v-2569" fill="none" style="cursor: auto; pointer-events: visiblepainted;"></path><g ><g id="v-2562"  label-idx="0" cursor="move" transform="matrix(1,0,0,1,819,465)" style="cursor: default; opacity: 1;"><rect joint-selector="rect" id="v-2565" fill="#ffffff" rx="3" ry="3" pointer-events="none" width="118.74921417236328" height="59.9133358001709" transform="matrix(1,0,0,1,-59.4,-30)"></rect><text joint-selector="text" id="v-2564" font-size="24px" xml:space="preserve" y="0.8em" fill="#444444" text-anchor="middle" pointer-events="none" font-family="Open Sans" font-weight="normal" transform="matrix(1,0,0,1,0,-24.3)"><tspan dy="0" >Referencia</tspan><tspan dy="1.2em" x="0" >(idea_id)</tspan></text></g><g id="v-2563"  label-idx="1" cursor="move" transform="matrix(1,0,0,1,809,491.3999938964844)" style="cursor: default; opacity: 1;"><rect joint-selector="rect" id="v-2567" fill="#ffffff" rx="3" ry="3"  width="0" height="0" transform="matrix(1,0,0,1,0,0)" display="none"></rect><text joint-selector="text" id="v-2566" fill="#000000" font-size="14" text-anchor="middle" pointer-events="none"></text></g></g><g  display="none" style="display: none;"></g><g  id="v-2572" display="none"><g  id="v-2560"><path  end="source" d="M 26 0 L 0 13 L 26 26 z"></path></g><g  id="v-2561"><path  end="target" d="M 26 0 L 0 13 L 26 26 z"></path></g></g><g  id="v-2571" display="none"><g  id="v-2559" transform="translate(706.1390676354105, 510.14437294583587) "><g  event="remove"><circle r="11"></circle><path transform="scale(.8) translate(-16, -16)" d="M24.778,21.419 19.276,15.917 24.777,10.415 21.949,7.585 16.447,13.087 10.945,7.585 8.117,10.415 13.618,15.917 8.116,21.419 10.946,24.248 16.447,18.746 21.948,24.248z"></path><title>Remove link.</title></g><g  event="link:options"><circle r="11" transform="translate(25)"></circle><path fill="white" transform="scale(.55) translate(29, -16)" d="M31.229,17.736c0.064-0.571,0.104-1.148,0.104-1.736s-0.04-1.166-0.104-1.737l-4.377-1.557c-0.218-0.716-0.504-1.401-0.851-2.05l1.993-4.192c-0.725-0.91-1.549-1.734-2.458-2.459l-4.193,1.994c-0.647-0.347-1.334-0.632-2.049-0.849l-1.558-4.378C17.165,0.708,16.588,0.667,16,0.667s-1.166,0.041-1.737,0.105L12.707,5.15c-0.716,0.217-1.401,0.502-2.05,0.849L6.464,4.005C5.554,4.73,4.73,5.554,4.005,6.464l1.994,4.192c-0.347,0.648-0.632,1.334-0.849,2.05l-4.378,1.557C0.708,14.834,0.667,15.412,0.667,16s0.041,1.165,0.105,1.736l4.378,1.558c0.217,0.715,0.502,1.401,0.849,2.049l-1.994,4.193c0.725,0.909,1.549,1.733,2.459,2.458l4.192-1.993c0.648,0.347,1.334,0.633,2.05,0.851l1.557,4.377c0.571,0.064,1.148,0.104,1.737,0.104c0.588,0,1.165-0.04,1.736-0.104l1.558-4.377c0.715-0.218,1.399-0.504,2.049-0.851l4.193,1.993c0.909-0.725,1.733-1.549,2.458-2.458l-1.993-4.193c0.347-0.647,0.633-1.334,0.851-2.049L31.229,17.736zM16,20.871c-2.69,0-4.872-2.182-4.872-4.871c0-2.69,2.182-4.872,4.872-4.872c2.689,0,4.871,2.182,4.871,4.872C20.871,18.689,18.689,20.871,16,20.871z"></path><title>Link options.</title></g></g></g></g><!--z-index:19--><!--z-index:20--><!--z-index:21--><!--z-index:22--><!--z-index:23--><!--z-index:24--><!--z-index:25--><!--z-index:26--><!--z-index:27--><!--z-index:28--><!--z-index:29--><!--z-index:30--><!--z-index:31--><!--z-index:32--><!--z-index:33--><!--z-index:34--><!--z-index:35--><!--z-index:36--><!--z-index:37--><!--z-index:38--><!--z-index:39--><!--z-index:40--><!--z-index:41--><!--z-index:42--><!--z-index:43--><!--z-index:44--><!--z-index:45--><!--z-index:46--><!--z-index:47--><!--z-index:48--><!--z-index:49--><!--z-index:50--><!--z-index:51--><!--z-index:52--><!--z-index:53--><!--z-index:54--><!--z-index:55--><!--z-index:56--><!--z-index:57--><!--z-index:58--><!--z-index:59--><!--z-index:60--><!--z-index:61--><!--z-index:62--><!--z-index:63--><!--z-index:64--><!--z-index:65--><!--z-index:66--><!--z-index:67--><!--z-index:68--><!--z-index:69--><!--z-index:70--><!--z-index:71--><!--z-index:72--><!--z-index:73--><!--z-index:74--><!--z-index:75--><!--z-index:76--><!--z-index:77--><!--z-index:78--><!--z-index:79--><!--z-index:80--><!--z-index:81--><!--z-index:82--><!--z-index:83--><!--z-index:84--><!--z-index:85--><!--z-index:86--><!--z-index:87--><!--z-index:88--><!--z-index:89--><!--z-index:90--><!--z-index:91--></g><g ></g><g ></g><g ></g></g></svg>