<svg xmlns="http://www.w3.org/2000/svg" xmlns:xlink="http://www.w3.org/1999/xlink" version="1.1" viewBox="0 0 2390 1411" style="background: #ffffff"><defs><style>@import url(https://fonts.googleapis.com/css?family=Open+Sans:400,700);</style></defs><defs joint-selector="defs"></defs><g joint-selector="layers"  transform="matrix(1,0,0,1,0,0)"><g ></g><g ><!--z-index:0--><!--z-index:1--><!--z-index:2--><!--z-index:3--><!--z-index:4--><!--z-index:5--><!--z-index:6--><!--z-index:7--><!--z-index:8--><!--z-index:9--><!--z-index:10--><!--z-index:11--><!--z-index:12--><!--z-index:13--><!--z-index:14--><g   id="j_86"  transform="translate(20,1369)"><g id="v-1183"><text  id="v-1184" font-size="22px" xml:space="preserve" y="0.8em" font-weight="normal" text-anchor="start" fill="#444444" pointer-events="none" display="block" font-family="Open Sans"><tspan dy="0" >sábado, 11 de octubre de 2025, 21:27 hora estándar de Perú</tspan></text></g></g><!--z-index:15--><g   id="j_85"  transform="translate(20,1337)"><g id="v-1181"><text  id="v-1182" font-size="22px" xml:space="preserve" y="0.8em" font-weight="normal" text-anchor="start" fill="#444444" pointer-events="none" display="block" font-family="Open Sans"><tspan dy="0" >Componentes de MongoDB - Datos Semi-estructurados</tspan></text></g></g><!--z-index:16--><g   id="j_84"  transform="translate(20,1291)"><g id="v-1179"><text  id="v-1180" font-size="36px" xml:space="preserve" y="0.8em" font-weight="normal" text-anchor="start" fill="#444444" pointer-events="none" display="block" font-family="Open Sans"><tspan dy="0" >[Component] NEXUS - Base de Datos MongoDB</tspan></text></g></g><!--z-index:17--><g   id="j_88"  transform="translate(199,145)" style=""><g id="v-1201"><rect  id="v-1202" width="1990" height="1011" rx="0" ry="0" stroke-width="2" stroke-dasharray="20,20" pointer-events="none" stroke="#000080" fill="#ffffff"></rect><text  id="v-1203" font-size="24px" xml:space="preserve" y="972" font-weight="normal" text-anchor="start" pointer-events="visible" font-family="Open Sans" fill="#000080" transform="matrix(1,0,0,1,15,0)"><tspan dy="0" >Base de Datos MongoDB</tspan></text><text  id="v-1204" font-size="17px" xml:space="preserve" y="996" font-weight="normal" text-anchor="start" pointer-events="visible" font-family="Open Sans" fill="#000080" transform="matrix(1,0,0,1,15,0)"><tspan dy="0" >[Container]</tspan></text><image  id="v-1205" pointer-events="visible"></image></g></g><!--z-index:18--><g   id="j_87"  transform="translate(219,465)" style=""><g  id="v-1194" style="opacity: 1;"><rect  id="v-1195" rx="1" ry="1" stroke-width="2" pointer-events="visiblePainted" fill="#ffffff" stroke="#008000" width="450" height="300" style="fill: rgb(255, 255, 255); stroke: rgb(0, 128, 0);"></rect><text  id="v-1196" font-size="34" xml:space="preserve" y="57.80000000000001" font-weight="bold" text-anchor="middle" pointer-events="visible" font-family="Open Sans" fill="#008000" dominant-baseline="hanging" transform="matrix(1,0,0,1,225,0)" style="fill: rgb(0, 128, 0);"><tspan dy="0" >Colección: Ideas</tspan></text><text  id="v-1197" font-size="17" xml:space="preserve" y="99.80000000000001" text-anchor="middle" font-family="Open Sans" fill="#008000" dominant-baseline="hanging" transform="matrix(1,0,0,1,225,0)" style="display: block; fill: rgb(0, 128, 0);"><tspan dy="0" >[Component: MongoDB Collection]</tspan></text><text  id="v-1198" font-size="24" xml:space="preserve" y="131.8" text-anchor="middle" font-family="Open Sans" fill="#008000" dominant-baseline="hanging" transform="matrix(1,0,0,1,225,0)" style="display: block; fill: rgb(0, 128, 0);"><tspan dy="0" >Ideas publicadas con contenido</tspan><tspan dy="1.2em" x="0" >flexible: título, descripción,</tspan><tspan dy="1.2em" x="0" >categoría, media, tags,</tspan><tspan dy="1.2em" x="0" >comentarios</tspan></text><g  id="v-1199" color="#008000" transform="matrix(1,0,0,1,222.5,268)" display="none" style="fill: rgb(0, 128, 0);"><g ></g><g ></g><g ></g><g ></g></g><image  id="v-1200"></image></g></g><!--z-index:19--><g   id="j_89"  transform="translate(969,765)" style=""><g  id="v-1215" style="opacity: 1;"><rect  id="v-1216" rx="1" ry="1" stroke-width="2" pointer-events="visiblePainted" fill="#ffffff" stroke="#008000" width="450" height="300" style="fill: rgb(255, 255, 255); stroke: rgb(0, 128, 0);"></rect><text  id="v-1217" font-size="34" xml:space="preserve" y="72.2" font-weight="bold" text-anchor="middle" pointer-events="visible" font-family="Open Sans" fill="#008000" dominant-baseline="hanging" transform="matrix(1,0,0,1,225,0)" style="fill: rgb(0, 128, 0);"><tspan dy="0" >Colección: Proyectos</tspan></text><text  id="v-1218" font-size="17" xml:space="preserve" y="114.2" text-anchor="middle" font-family="Open Sans" fill="#008000" dominant-baseline="hanging" transform="matrix(1,0,0,1,225,0)" style="display: block; fill: rgb(0, 128, 0);"><tspan dy="0" >[Component: MongoDB Collection]</tspan></text><text  id="v-1219" font-size="24" xml:space="preserve" y="146.2" text-anchor="middle" font-family="Open Sans" fill="#008000" dominant-baseline="hanging" transform="matrix(1,0,0,1,225,0)" style="display: block; fill: rgb(0, 128, 0);"><tspan dy="0" >Proyectos derivados de ideas:</tspan><tspan dy="1.2em" x="0" >equipo, hitos, actualizaciones,</tspan><tspan dy="1.2em" x="0" >progreso</tspan></text><g  id="v-1220" color="#008000" transform="matrix(1,0,0,1,222.5,268)" display="none" style="fill: rgb(0, 128, 0);"><g ></g><g ></g><g ></g><g ></g></g><image  id="v-1221"></image></g></g><!--z-index:20--><g   id="j_90"  transform="translate(1719,765)" style=""><g  id="v-1231" style="opacity: 1;"><rect  id="v-1232" rx="1" ry="1" stroke-width="2" pointer-events="visiblePainted" fill="#ffffff" stroke="#008000" width="450" height="300" style="fill: rgb(255, 255, 255); stroke: rgb(0, 128, 0);"></rect><text  id="v-1233" font-size="34" xml:space="preserve" y="66.2" font-weight="bold" text-anchor="middle" pointer-events="visible" font-family="Open Sans" fill="#008000" dominant-baseline="hanging" transform="matrix(1,0,0,1,225,0)" style="fill: rgb(0, 128, 0);"><tspan dy="0" >Colección:</tspan><tspan dy="1.2em" x="0" >Colaboradores</tspan></text><text  id="v-1234" font-size="17" xml:space="preserve" y="149" text-anchor="middle" font-family="Open Sans" fill="#008000" dominant-baseline="hanging" transform="matrix(1,0,0,1,225,0)" style="display: block; fill: rgb(0, 128, 0);"><tspan dy="0" >[Component: MongoDB Collection]</tspan></text><text  id="v-1235" font-size="24" xml:space="preserve" y="181" text-anchor="middle" font-family="Open Sans" fill="#008000" dominant-baseline="hanging" transform="matrix(1,0,0,1,225,0)" style="display: block; fill: rgb(0, 128, 0);"><tspan dy="0" >Colaboradores en proyectos:</tspan><tspan dy="1.2em" x="0" >usuario_id, rol, estado, tareas</tspan></text><g  id="v-1236" color="#008000" transform="matrix(1,0,0,1,222.5,268)" display="none" style="fill: rgb(0, 128, 0);"><g ></g><g ></g><g ></g><g ></g></g><image  id="v-1237"></image></g></g><!--z-index:21--><g   id="j_91"  transform="translate(969,165)" style=""><g  id="v-1247" style="opacity: 1;"><rect  id="v-1248" rx="1" ry="1" stroke-width="2" pointer-events="visiblePainted" fill="#ffffff" stroke="#008000" width="450" height="300" style="fill: rgb(255, 255, 255); stroke: rgb(0, 128, 0);"></rect><text  id="v-1249" font-size="34" xml:space="preserve" y="86.6" font-weight="bold" text-anchor="middle" pointer-events="visible" font-family="Open Sans" fill="#008000" dominant-baseline="hanging" transform="matrix(1,0,0,1,225,0)" style="fill: rgb(0, 128, 0);"><tspan dy="0" >Colección: Comentarios</tspan></text><text  id="v-1250" font-size="17" xml:space="preserve" y="128.6" text-anchor="middle" font-family="Open Sans" fill="#008000" dominant-baseline="hanging" transform="matrix(1,0,0,1,225,0)" style="display: block; fill: rgb(0, 128, 0);"><tspan dy="0" >[Component: MongoDB Collection]</tspan></text><text  id="v-1251" font-size="24" xml:space="preserve" y="160.6" text-anchor="middle" font-family="Open Sans" fill="#008000" dominant-baseline="hanging" transform="matrix(1,0,0,1,225,0)" style="display: block; fill: rgb(0, 128, 0);"><tspan dy="0" >Comentarios anidados en ideas y</tspan><tspan dy="1.2em" x="0" >proyectos: autor, texto, respuestas</tspan></text><g  id="v-1252" color="#008000" transform="matrix(1,0,0,1,222.5,268)" display="none" style="fill: rgb(0, 128, 0);"><g ></g><g ></g><g ></g><g ></g></g><image  id="v-1253"></image></g></g><!--z-index:22--><g   id="j_92"  transform="translate(1719,165)" style=""><g  id="v-1263" style="opacity: 1;"><rect  id="v-1264" rx="1" ry="1" stroke-width="2" pointer-events="visiblePainted" fill="#ffffff" stroke="#008000" width="450" height="300" style="fill: rgb(255, 255, 255); stroke: rgb(0, 128, 0);"></rect><text  id="v-1265" font-size="34" xml:space="preserve" y="86.6" font-weight="bold" text-anchor="middle" pointer-events="visible" font-family="Open Sans" fill="#008000" dominant-baseline="hanging" transform="matrix(1,0,0,1,225,0)" style="fill: rgb(0, 128, 0);"><tspan dy="0" >Colección: Actividades</tspan></text><text  id="v-1266" font-size="17" xml:space="preserve" y="128.6" text-anchor="middle" font-family="Open Sans" fill="#008000" dominant-baseline="hanging" transform="matrix(1,0,0,1,225,0)" style="display: block; fill: rgb(0, 128, 0);"><tspan dy="0" >[Component: MongoDB Collection]</tspan></text><text  id="v-1267" font-size="24" xml:space="preserve" y="160.6" text-anchor="middle" font-family="Open Sans" fill="#008000" dominant-baseline="hanging" transform="matrix(1,0,0,1,225,0)" style="display: block; fill: rgb(0, 128, 0);"><tspan dy="0" >Historial de actividades: usuario,</tspan><tspan dy="1.2em" x="0" >acción, fecha, metadata</tspan></text><g  id="v-1268" color="#008000" transform="matrix(1,0,0,1,222.5,268)" display="none" style="fill: rgb(0, 128, 0);"><g ></g><g ></g><g ></g><g ></g></g><image  id="v-1269"></image></g></g><!--z-index:23--><g   id="j_93" ><path  stroke="#444444" d="M 669 705 L 969 825" id="v-1282" stroke-width="2" stroke-dasharray="30 30" fill="none" style="opacity: 1;"></path><path  fill="black" stroke="black" d="M 0 0 0 0" transform="matrix(0.9284766955435519,0.371390664708372,-0.371390664708372,0.9284766955435519,669,705)"></path><path  fill="#444444" stroke="#444444" d="M 20 0 L 0 10 L 20 20 z" id="v-1284" transform="matrix(-0.928476707906966,-0.3713906337998342,0.3713906337998342,-0.928476707906966,965.2860707020088,834.2847451944118)" style="opacity: 1;"></path><path  d="M 669 705 L 969 825" id="v-1283" fill="none" style="cursor: auto; pointer-events: visiblepainted;"></path><g ><g id="v-1276"  label-idx="0" cursor="move" transform="matrix(1,0,0,1,819,765)" style="cursor: default; opacity: 1;"><rect joint-selector="rect" id="v-1279" fill="#ffffff" rx="3" ry="3" pointer-events="none" width="138.68727111816406" height="62.6132755279541" transform="matrix(1,0,0,1,-69.3,-31.3)"></rect><text joint-selector="text" id="v-1278" font-size="24px" xml:space="preserve" y="0.8em" fill="#444444" text-anchor="middle" pointer-events="none" font-family="Open Sans" font-weight="normal" transform="matrix(1,0,0,1,0,-24.2)"><tspan dy="0" >Relación 1:N</tspan><tspan dy="1.2em" x="0" >(idea_id)</tspan></text></g><g id="v-1277"  label-idx="1" cursor="move" transform="matrix(1,0,0,1,809,791.4000244140625)" style="cursor: default; opacity: 1;"><rect joint-selector="rect" id="v-1281" fill="#ffffff" rx="3" ry="3"  width="0" height="0" transform="matrix(1,0,0,1,0,0)" display="none"></rect><text joint-selector="text" id="v-1280" fill="#000000" font-size="14" text-anchor="middle" pointer-events="none"></text></g></g><g  display="none" style="display: none;"></g><g  id="v-1286" display="none"><g  id="v-1274"><path  end="source" d="M 26 0 L 0 13 L 26 26 z"></path></g><g  id="v-1275"><path  end="target" d="M 26 0 L 0 13 L 26 26 z"></path></g></g><g  id="v-1285" display="none"><g  id="v-1273" transform="translate(706.1390676354105, 719.8556270541641) "><g  event="remove"><circle r="11"></circle><path transform="scale(.8) translate(-16, -16)" d="M24.778,21.419 19.276,15.917 24.777,10.415 21.949,7.585 16.447,13.087 10.945,7.585 8.117,10.415 13.618,15.917 8.116,21.419 10.946,24.248 16.447,18.746 21.948,24.248z"></path><title>Remove link.</title></g><g  event="link:options"><circle r="11" transform="translate(25)"></circle><path fill="white" transform="scale(.55) translate(29, -16)" d="M31.229,17.736c0.064-0.571,0.104-1.148,0.104-1.736s-0.04-1.166-0.104-1.737l-4.377-1.557c-0.218-0.716-0.504-1.401-0.851-2.05l1.993-4.192c-0.725-0.91-1.549-1.734-2.458-2.459l-4.193,1.994c-0.647-0.347-1.334-0.632-2.049-0.849l-1.558-4.378C17.165,0.708,16.588,0.667,16,0.667s-1.166,0.041-1.737,0.105L12.707,5.15c-0.716,0.217-1.401,0.502-2.05,0.849L6.464,4.005C5.554,4.73,4.73,5.554,4.005,6.464l1.994,4.192c-0.347,0.648-0.632,1.334-0.849,2.05l-4.378,1.557C0.708,14.834,0.667,15.412,0.667,16s0.041,1.165,0.105,1.736l4.378,1.558c0.217,0.715,0.502,1.401,0.849,2.049l-1.994,4.193c0.725,0.909,1.549,1.733,2.459,2.458l4.192-1.993c0.648,0.347,1.334,0.633,2.05,0.851l1.557,4.377c0.571,0.064,1.148,0.104,1.737,0.104c0.588,0,1.165-0.04,1.736-0.104l1.558-4.377c0.715-0.218,1.399-0.504,2.049-0.851l4.193,1.993c0.909-0.725,1.733-1.549,2.458-2.458l-1.993-4.193c0.347-0.647,0.633-1.334,0.851-2.049L31.229,17.736zM16,20.871c-2.69,0-4.872-2.182-4.872-4.871c0-2.69,2.182-4.872,4.872-4.872c2.689,0,4.871,2.182,4.871,4.872C20.871,18.689,18.689,20.871,16,20.871z"></path><title>Link options.</title></g></g></g></g><!--z-index:24--><g   id="j_94" ><path  stroke="#444444" d="M 1419 915 L 1719 915" id="v-1299" stroke-width="2" stroke-dasharray="30 30" fill="none" style="opacity: 1;"></path><path  fill="black" stroke="black" d="M 0 0 0 0" transform="matrix(1,0,0,1,1419,915)"></path><path  fill="#444444" stroke="#444444" d="M 20 0 L 0 10 L 20 20 z" id="v-1301" transform="matrix(-1,1.2246467991473532e-16,-1.2246467991473532e-16,-1,1719,925)" style="opacity: 1;"></path><path  d="M 1419 915 L 1719 915" id="v-1300" fill="none" style="cursor: auto; pointer-events: visiblepainted;"></path><g ><g id="v-1293"  label-idx="0" cursor="move" transform="matrix(1,0,0,1,1569,915)" style="cursor: default; opacity: 1;"><rect joint-selector="rect" id="v-1296" fill="#ffffff" rx="3" ry="3" pointer-events="none" width="138.68727111816406" height="62.6132755279541" transform="matrix(1,0,0,1,-69.3,-31.3)"></rect><text joint-selector="text" id="v-1295" font-size="24px" xml:space="preserve" y="0.8em" fill="#444444" text-anchor="middle" pointer-events="none" font-family="Open Sans" font-weight="normal" transform="matrix(1,0,0,1,0,-24.2)"><tspan dy="0" >Relación 1:N</tspan><tspan dy="1.2em" x="0" >(project_id)</tspan></text></g><g id="v-1294"  label-idx="1" cursor="move" transform="matrix(1,0,0,1,1559,941.4000244140625)" style="cursor: default; opacity: 1;"><rect joint-selector="rect" id="v-1298" fill="#ffffff" rx="3" ry="3"  width="0" height="0" transform="matrix(1,0,0,1,0,0)" display="none"></rect><text joint-selector="text" id="v-1297" fill="#000000" font-size="14" text-anchor="middle" pointer-events="none"></text></g></g><g  display="none" style="display: none;"></g><g  id="v-1303" display="none"><g  id="v-1291"><path  end="source" d="M 26 0 L 0 13 L 26 26 z"></path></g><g  id="v-1292"><path  end="target" d="M 26 0 L 0 13 L 26 26 z"></path></g></g><g  id="v-1302" display="none"><g  id="v-1290" transform="translate(1459, 915) "><g  event="remove"><circle r="11"></circle><path transform="scale(.8) translate(-16, -16)" d="M24.778,21.419 19.276,15.917 24.777,10.415 21.949,7.585 16.447,13.087 10.945,7.585 8.117,10.415 13.618,15.917 8.116,21.419 10.946,24.248 16.447,18.746 21.948,24.248z"></path><title>Remove link.</title></g><g  event="link:options"><circle r="11" transform="translate(25)"></circle><path fill="white" transform="scale(.55) translate(29, -16)" d="M31.229,17.736c0.064-0.571,0.104-1.148,0.104-1.736s-0.04-1.166-0.104-1.737l-4.377-1.557c-0.218-0.716-0.504-1.401-0.851-2.05l1.993-4.192c-0.725-0.91-1.549-1.734-2.458-2.459l-4.193,1.994c-0.647-0.347-1.334-0.632-2.049-0.849l-1.558-4.378C17.165,0.708,16.588,0.667,16,0.667s-1.166,0.041-1.737,0.105L12.707,5.15c-0.716,0.217-1.401,0.502-2.05,0.849L6.464,4.005C5.554,4.73,4.73,5.554,4.005,6.464l1.994,4.192c-0.347,0.648-0.632,1.334-0.849,2.05l-4.378,1.557C0.708,14.834,0.667,15.412,0.667,16s0.041,1.165,0.105,1.736l4.378,1.558c0.217,0.715,0.502,1.401,0.849,2.049l-1.994,4.193c0.725,0.909,1.549,1.733,2.459,2.458l4.192-1.993c0.648,0.347,1.334,0.633,2.05,0.851l1.557,4.377c0.571,0.064,1.148,0.104,1.737,0.104c0.588,0,1.165-0.04,1.736-0.104l1.558-4.377c0.715-0.218,1.399-0.504,2.049-0.851l4.193,1.993c0.909-0.725,1.733-1.549,2.458-2.458l-1.993-4.193c0.347-0.647,0.633-1.334,0.851-2.049L31.229,17.736zM16,20.871c-2.69,0-4.872-2.182-4.872-4.871c0-2.69,2.182-4.872,4.872-4.872c2.689,0,4.871,2.182,4.871,4.872C20.871,18.689,18.689,20.871,16,20.871z"></path><title>Link options.</title></g></g></g></g><!--z-index:25--><g   id="j_95" ><path  stroke="#444444" d="M 669 525 L 969 405" id="v-1316" stroke-width="2" stroke-dasharray="30 30" fill="none" style="opacity: 1;"></path><path  fill="black" stroke="black" d="M 0 0 0 0" transform="matrix(0.9284766089996245,-0.3713908810681253,0.3713908810681253,0.9284766089996245,669,525)"></path><path  fill="#444444" stroke="#444444" d="M 20 0 L 0 10 L 20 20 z" id="v-1318" transform="matrix(-0.928476707906966,0.37139063379983406,-0.37139063379983406,-0.928476707906966,972.7138833780056,414.28475844614945)" style="opacity: 1;"></path><path  d="M 669 525 L 969 405" id="v-1317" fill="none" style="cursor: auto; pointer-events: visiblepainted;"></path><g ><g id="v-1310"  label-idx="0" cursor="move" transform="matrix(1,0,0,1,819,465)" style="cursor: default; opacity: 1;"><rect joint-selector="rect" id="v-1313" fill="#ffffff" rx="3" ry="3" pointer-events="none" width="138.68727111816406" height="62.6132755279541" transform="matrix(1,0,0,1,-69.3,-31.3)"></rect><text joint-selector="text" id="v-1312" font-size="24px" xml:space="preserve" y="0.8em" fill="#444444" text-anchor="middle" pointer-events="none" font-family="Open Sans" font-weight="normal" transform="matrix(1,0,0,1,0,-24.2)"><tspan dy="0" >Relación 1:N</tspan><tspan dy="1.2em" x="0" >(anidados)</tspan></text></g><g id="v-1311"  label-idx="1" cursor="move" transform="matrix(1,0,0,1,809,491.3999938964844)" style="cursor: default; opacity: 1;"><rect joint-selector="rect" id="v-1315" fill="#ffffff" rx="3" ry="3"  width="0" height="0" transform="matrix(1,0,0,1,0,0)" display="none"></rect><text joint-selector="text" id="v-1314" fill="#000000" font-size="14" text-anchor="middle" pointer-events="none"></text></g></g><g  display="none" style="display: none;"></g><g  id="v-1320" display="none"><g  id="v-1308"><path  end="source" d="M 26 0 L 0 13 L 26 26 z"></path></g><g  id="v-1309"><path  end="target" d="M 26 0 L 0 13 L 26 26 z"></path></g></g><g  id="v-1319" display="none"><g  id="v-1307" transform="translate(706.1390676354105, 510.14437294583587) "><g  event="remove"><circle r="11"></circle><path transform="scale(.8) translate(-16, -16)" d="M24.778,21.419 19.276,15.917 24.777,10.415 21.949,7.585 16.447,13.087 10.945,7.585 8.117,10.415 13.618,15.917 8.116,21.419 10.946,24.248 16.447,18.746 21.948,24.248z"></path><title>Remove link.</title></g><g  event="link:options"><circle r="11" transform="translate(25)"></circle><path fill="white" transform="scale(.55) translate(29, -16)" d="M31.229,17.736c0.064-0.571,0.104-1.148,0.104-1.736s-0.04-1.166-0.104-1.737l-4.377-1.557c-0.218-0.716-0.504-1.401-0.851-2.05l1.993-4.192c-0.725-0.91-1.549-1.734-2.458-2.459l-4.193,1.994c-0.647-0.347-1.334-0.632-2.049-0.849l-1.558-4.378C17.165,0.708,16.588,0.667,16,0.667s-1.166,0.041-1.737,0.105L12.707,5.15c-0.716,0.217-1.401,0.502-2.05,0.849L6.464,4.005C5.554,4.73,4.73,5.554,4.005,6.464l1.994,4.192c-0.347,0.648-0.632,1.334-0.849,2.05l-4.378,1.557C0.708,14.834,0.667,15.412,0.667,16s0.041,1.165,0.105,1.736l4.378,1.558c0.217,0.715,0.502,1.401,0.849,2.049l-1.994,4.193c0.725,0.909,1.549,1.733,2.459,2.458l4.192-1.993c0.648,0.347,1.334,0.633,2.05,0.851l1.557,4.377c0.571,0.064,1.148,0.104,1.737,0.104c0.588,0,1.165-0.04,1.736-0.104l1.558-4.377c0.715-0.218,1.399-0.504,2.049-0.851l4.193,1.993c0.909-0.725,1.733-1.549,2.458-2.458l-1.993-4.193c0.347-0.647,0.633-1.334,0.851-2.049L31.229,17.736zM16,20.871c-2.69,0-4.872-2.182-4.872-4.871c0-2.69,2.182-4.872,4.872-4.872c2.689,0,4.871,2.182,4.871,4.872C20.871,18.689,18.689,20.871,16,20.871z"></path><title>Link options.</title></g></g></g></g><!--z-index:26--><g   id="j_96" ><path  stroke="#444444" d="M 1382 765 L 1757 465" id="v-1333" stroke-width="2" stroke-dasharray="30 30" fill="none" style="opacity: 1;"></path><path  fill="black" stroke="black" d="M 0 0 0 0" transform="matrix(0.7808686753084834,-0.624695215222571,0.624695215222571,0.7808686753084834,1381.5,765)"></path><path  fill="#444444" stroke="#444444" d="M 20 0 L 0 10 L 20 20 z" id="v-1335" transform="matrix(-0.7808688416748546,0.6246950072646418,-0.6246950072646418,-0.7808688416748546,1762.7469226690826,472.80868658628964)" style="opacity: 1;"></path><path  d="M 1382 765 L 1757 465" id="v-1334" fill="none" style="cursor: auto; pointer-events: visiblepainted;"></path><g ><g id="v-1327"  label-idx="0" cursor="move" transform="matrix(1,0,0,1,1569.5,615)" style="cursor: default; opacity: 1;"><rect joint-selector="rect" id="v-1330" fill="#ffffff" rx="3" ry="3" pointer-events="none" width="138.68727111816406" height="33.81327819824219" transform="matrix(1,0,0,1,-69.3,-16.9)"></rect><text joint-selector="text" id="v-1329" font-size="24px" xml:space="preserve" y="0.8em" fill="#444444" text-anchor="middle" pointer-events="none" font-family="Open Sans" font-weight="normal" transform="matrix(1,0,0,1,0,-9.8)"><tspan dy="0" >Relación 1:N</tspan></text></g><g id="v-1328"  label-idx="1" cursor="move" transform="matrix(1,0,0,1,1559.5,627)" style="cursor: default; opacity: 1;"><rect joint-selector="rect" id="v-1332" fill="#ffffff" rx="3" ry="3"  width="0" height="0" transform="matrix(1,0,0,1,0,0)" display="none"></rect><text joint-selector="text" id="v-1331" fill="#000000" font-size="14" text-anchor="middle" pointer-events="none"></text></g></g><g  display="none" style="display: none;"></g><g  id="v-1337" display="none"><g  id="v-1325"><path  end="source" d="M 26 0 L 0 13 L 26 26 z"></path></g><g  id="v-1326"><path  end="target" d="M 26 0 L 0 13 L 26 26 z"></path></g></g><g  id="v-1336" display="none"><g  id="v-1324" transform="translate(1413.2347523777212, 740.0121980978231) "><g  event="remove"><circle r="11"></circle><path transform="scale(.8) translate(-16, -16)" d="M24.778,21.419 19.276,15.917 24.777,10.415 21.949,7.585 16.447,13.087 10.945,7.585 8.117,10.415 13.618,15.917 8.116,21.419 10.946,24.248 16.447,18.746 21.948,24.248z"></path><title>Remove link.</title></g><g  event="link:options"><circle r="11" transform="translate(25)"></circle><path fill="white" transform="scale(.55) translate(29, -16)" d="M31.229,17.736c0.064-0.571,0.104-1.148,0.104-1.736s-0.04-1.166-0.104-1.737l-4.377-1.557c-0.218-0.716-0.504-1.401-0.851-2.05l1.993-4.192c-0.725-0.91-1.549-1.734-2.458-2.459l-4.193,1.994c-0.647-0.347-1.334-0.632-2.049-0.849l-1.558-4.378C17.165,0.708,16.588,0.667,16,0.667s-1.166,0.041-1.737,0.105L12.707,5.15c-0.716,0.217-1.401,0.502-2.05,0.849L6.464,4.005C5.554,4.73,4.73,5.554,4.005,6.464l1.994,4.192c-0.347,0.648-0.632,1.334-0.849,2.05l-4.378,1.557C0.708,14.834,0.667,15.412,0.667,16s0.041,1.165,0.105,1.736l4.378,1.558c0.217,0.715,0.502,1.401,0.849,2.049l-1.994,4.193c0.725,0.909,1.549,1.733,2.459,2.458l4.192-1.993c0.648,0.347,1.334,0.633,2.05,0.851l1.557,4.377c0.571,0.064,1.148,0.104,1.737,0.104c0.588,0,1.165-0.04,1.736-0.104l1.558-4.377c0.715-0.218,1.399-0.504,2.049-0.851l4.193,1.993c0.909-0.725,1.733-1.549,2.458-2.458l-1.993-4.193c0.347-0.647,0.633-1.334,0.851-2.049L31.229,17.736zM16,20.871c-2.69,0-4.872-2.182-4.872-4.871c0-2.69,2.182-4.872,4.872-4.872c2.689,0,4.871,2.182,4.871,4.872C20.871,18.689,18.689,20.871,16,20.871z"></path><title>Link options.</title></g></g></g></g><!--z-index:27--><!--z-index:28--><!--z-index:29--><!--z-index:30--><!--z-index:31--><!--z-index:32--><!--z-index:33--><!--z-index:34--><!--z-index:35--><!--z-index:36--><!--z-index:37--><!--z-index:38--><!--z-index:39--><!--z-index:40--><!--z-index:41--><!--z-index:42--><!--z-index:43--><!--z-index:44--><!--z-index:45--><!--z-index:46--><!--z-index:47--><!--z-index:48--><!--z-index:49--><!--z-index:50--><!--z-index:51--><!--z-index:52--><!--z-index:53--><!--z-index:54--><!--z-index:55--><!--z-index:56--><!--z-index:57--><!--z-index:58--><!--z-index:59--><!--z-index:60--><!--z-index:61--><!--z-index:62--><!--z-index:63--><!--z-index:64--><!--z-index:65--><!--z-index:66--><!--z-index:67--><!--z-index:68--><!--z-index:69--><!--z-index:70--><!--z-index:71--><!--z-index:72--><!--z-index:73--><!--z-index:74--><!--z-index:75--><!--z-index:76--><!--z-index:77--><!--z-index:78--><!--z-index:79--><!--z-index:80--><!--z-index:81--><!--z-index:82--><!--z-index:83--><!--z-index:84--><!--z-index:85--><!--z-index:86--><!--z-index:87--><!--z-index:88--><!--z-index:89--><!--z-index:90--><!--z-index:91--><!--z-index:92--><!--z-index:93--><!--z-index:94--><!--z-index:95--><!--z-index:96--><!--z-index:97--><!--z-index:98--><!--z-index:99--><!--z-index:100--><!--z-index:101--><!--z-index:102--><!--z-index:103--><!--z-index:104--><!--z-index:105--><!--z-index:106--><!--z-index:107--><!--z-index:108--><!--z-index:109--><!--z-index:110--><!--z-index:111--><!--z-index:112--><!--z-index:113--><!--z-index:114--><!--z-index:115--><!--z-index:116--><!--z-index:117--><!--z-index:118--><!--z-index:119--><!--z-index:120--><!--z-index:121--><!--z-index:122--><!--z-index:123--></g><g ></g><g ></g><g ></g></g></svg>