<svg xmlns="http://www.w3.org/2000/svg" xmlns:xlink="http://www.w3.org/1999/xlink" version="1.1" viewBox="0 0 2390 2011" style="background: #ffffff"><defs><style>@import url(https://fonts.googleapis.com/css?family=Open+Sans:400,700);</style></defs><defs joint-selector="defs"></defs><g joint-selector="layers"  transform="matrix(1,0,0,1,0,0)"><g ></g><g ><!--z-index:0--><!--z-index:1--><!--z-index:2--><!--z-index:3--><!--z-index:4--><!--z-index:5--><!--z-index:6--><!--z-index:7--><!--z-index:8--><!--z-index:9--><!--z-index:10--><!--z-index:11--><!--z-index:12--><!--z-index:13--><!--z-index:14--><!--z-index:15--><!--z-index:16--><g   id="j_99"  transform="translate(20,1969)"><g id="v-1342"><text  id="v-1343" font-size="22px" xml:space="preserve" y="0.8em" font-weight="normal" text-anchor="start" fill="#444444" pointer-events="none" display="block" font-family="Open Sans"><tspan dy="0" >sábado, 11 de octubre de 2025, 21:27 hora estándar de Perú</tspan></text></g></g><!--z-index:17--><g   id="j_98"  transform="translate(20,1937)"><g id="v-1340"><text  id="v-1341" font-size="22px" xml:space="preserve" y="0.8em" font-weight="normal" text-anchor="start" fill="#444444" pointer-events="none" display="block" font-family="Open Sans"><tspan dy="0" >Componentes de PostgreSQL - Datos Estructurados</tspan></text></g></g><!--z-index:18--><g   id="j_97"  transform="translate(20,1891)"><g id="v-1338"><text  id="v-1339" font-size="36px" xml:space="preserve" y="0.8em" font-weight="normal" text-anchor="start" fill="#444444" pointer-events="none" display="block" font-family="Open Sans"><tspan dy="0" >[Component] NEXUS - Base de Datos PostgreSQL</tspan></text></g></g><!--z-index:19--><g   id="j_101"  transform="translate(200,144)" style=""><g id="v-1354"><rect  id="v-1355" width="1990" height="1611" rx="0" ry="0" stroke-width="2" stroke-dasharray="20,20" pointer-events="none" stroke="#000080" fill="#ffffff"></rect><text  id="v-1356" font-size="24px" xml:space="preserve" y="1572" font-weight="normal" text-anchor="start" pointer-events="visible" font-family="Open Sans" fill="#000080" transform="matrix(1,0,0,1,15,0)"><tspan dy="0" >Base de Datos PostgreSQL</tspan></text><text  id="v-1357" font-size="17px" xml:space="preserve" y="1596" font-weight="normal" text-anchor="start" pointer-events="visible" font-family="Open Sans" fill="#000080" transform="matrix(1,0,0,1,15,0)"><tspan dy="0" >[Container]</tspan></text><image  id="v-1358" pointer-events="visible"></image></g></g><!--z-index:20--><g   id="j_100"  transform="translate(970,764)" style=""><g  id="v-1347" style="opacity: 1;"><rect  id="v-1348" rx="1" ry="1" stroke-width="2" pointer-events="visiblePainted" fill="#ffffff" stroke="#008000" width="450" height="300" style="fill: rgb(255, 255, 255); stroke: rgb(0, 128, 0);"></rect><text  id="v-1349" font-size="34" xml:space="preserve" y="86.6" font-weight="bold" text-anchor="middle" pointer-events="visible" font-family="Open Sans" fill="#008000" dominant-baseline="hanging" transform="matrix(1,0,0,1,225,0)" style="fill: rgb(0, 128, 0);"><tspan dy="0" >Tabla: Usuarios</tspan></text><text  id="v-1350" font-size="17" xml:space="preserve" y="128.6" text-anchor="middle" font-family="Open Sans" fill="#008000" dominant-baseline="hanging" transform="matrix(1,0,0,1,225,0)" style="display: block; fill: rgb(0, 128, 0);"><tspan dy="0" >[Component: PostgreSQL Table]</tspan></text><text  id="v-1351" font-size="24" xml:space="preserve" y="160.6" text-anchor="middle" font-family="Open Sans" fill="#008000" dominant-baseline="hanging" transform="matrix(1,0,0,1,225,0)" style="display: block; fill: rgb(0, 128, 0);"><tspan dy="0" >Información de usuarios: email,</tspan><tspan dy="1.2em" x="0" >contraseña, metadata</tspan></text><g  id="v-1352" color="#008000" transform="matrix(1,0,0,1,222.5,268)" display="none" style="fill: rgb(0, 128, 0);"><g ></g><g ></g><g ></g><g ></g></g><image  id="v-1353"></image></g></g><!--z-index:21--><g   id="j_102"  transform="translate(1720,1064)" style=""><g  id="v-1365" style="opacity: 1;"><rect  id="v-1366" rx="1" ry="1" stroke-width="2" pointer-events="visiblePainted" fill="#ffffff" stroke="#008000" width="450" height="300" style="fill: rgb(255, 255, 255); stroke: rgb(0, 128, 0);"></rect><text  id="v-1367" font-size="34" xml:space="preserve" y="86.6" font-weight="bold" text-anchor="middle" pointer-events="visible" font-family="Open Sans" fill="#008000" dominant-baseline="hanging" transform="matrix(1,0,0,1,225,0)" style="fill: rgb(0, 128, 0);"><tspan dy="0" >Tabla: Habilidades</tspan></text><text  id="v-1368" font-size="17" xml:space="preserve" y="128.6" text-anchor="middle" font-family="Open Sans" fill="#008000" dominant-baseline="hanging" transform="matrix(1,0,0,1,225,0)" style="display: block; fill: rgb(0, 128, 0);"><tspan dy="0" >[Component: PostgreSQL Table]</tspan></text><text  id="v-1369" font-size="24" xml:space="preserve" y="160.6" text-anchor="middle" font-family="Open Sans" fill="#008000" dominant-baseline="hanging" transform="matrix(1,0,0,1,225,0)" style="display: block; fill: rgb(0, 128, 0);"><tspan dy="0" >Habilidades de usuarios: skill,</tspan><tspan dy="1.2em" x="0" >nivel, años experiencia</tspan></text><g  id="v-1370" color="#008000" transform="matrix(1,0,0,1,222.5,268)" display="none" style="fill: rgb(0, 128, 0);"><g ></g><g ></g><g ></g><g ></g></g><image  id="v-1371"></image></g></g><!--z-index:22--><g   id="j_103"  transform="translate(1720,464)" style=""><g  id="v-1375" style="opacity: 1;"><rect  id="v-1376" rx="1" ry="1" stroke-width="2" pointer-events="visiblePainted" fill="#ffffff" stroke="#008000" width="450" height="300" style="fill: rgb(255, 255, 255); stroke: rgb(0, 128, 0);"></rect><text  id="v-1377" font-size="34" xml:space="preserve" y="86.6" font-weight="bold" text-anchor="middle" pointer-events="visible" font-family="Open Sans" fill="#008000" dominant-baseline="hanging" transform="matrix(1,0,0,1,225,0)" style="fill: rgb(0, 128, 0);"><tspan dy="0" >Tabla: Roles</tspan></text><text  id="v-1378" font-size="17" xml:space="preserve" y="128.6" text-anchor="middle" font-family="Open Sans" fill="#008000" dominant-baseline="hanging" transform="matrix(1,0,0,1,225,0)" style="display: block; fill: rgb(0, 128, 0);"><tspan dy="0" >[Component: PostgreSQL Table]</tspan></text><text  id="v-1379" font-size="24" xml:space="preserve" y="160.6" text-anchor="middle" font-family="Open Sans" fill="#008000" dominant-baseline="hanging" transform="matrix(1,0,0,1,225,0)" style="display: block; fill: rgb(0, 128, 0);"><tspan dy="0" >Roles de usuarios: admin,</tspan><tspan dy="1.2em" x="0" >developer, designer</tspan></text><g  id="v-1380" color="#008000" transform="matrix(1,0,0,1,222.5,268)" display="none" style="fill: rgb(0, 128, 0);"><g ></g><g ></g><g ></g><g ></g></g><image  id="v-1381"></image></g></g><!--z-index:23--><g   id="j_104"  transform="translate(220,1364)" style=""><g  id="v-1388" style="opacity: 1;"><rect  id="v-1389" rx="1" ry="1" stroke-width="2" pointer-events="visiblePainted" fill="#ffffff" stroke="#008000" width="450" height="300" style="fill: rgb(255, 255, 255); stroke: rgb(0, 128, 0);"></rect><text  id="v-1390" font-size="34" xml:space="preserve" y="86.6" font-weight="bold" text-anchor="middle" pointer-events="visible" font-family="Open Sans" fill="#008000" dominant-baseline="hanging" transform="matrix(1,0,0,1,225,0)" style="fill: rgb(0, 128, 0);"><tspan dy="0" >Tabla: Transacciones</tspan></text><text  id="v-1391" font-size="17" xml:space="preserve" y="128.6" text-anchor="middle" font-family="Open Sans" fill="#008000" dominant-baseline="hanging" transform="matrix(1,0,0,1,225,0)" style="display: block; fill: rgb(0, 128, 0);"><tspan dy="0" >[Component: PostgreSQL Table]</tspan></text><text  id="v-1392" font-size="24" xml:space="preserve" y="160.6" text-anchor="middle" font-family="Open Sans" fill="#008000" dominant-baseline="hanging" transform="matrix(1,0,0,1,225,0)" style="display: block; fill: rgb(0, 128, 0);"><tspan dy="0" >Historial de pagos: payer, receiver,</tspan><tspan dy="1.2em" x="0" >amount, timestamp</tspan></text><g  id="v-1393" color="#008000" transform="matrix(1,0,0,1,222.5,268)" display="none" style="fill: rgb(0, 128, 0);"><g ></g><g ></g><g ></g><g ></g></g><image  id="v-1394"></image></g></g><!--z-index:24--><g   id="j_105"  transform="translate(220,164)" style=""><g  id="v-1398" style="opacity: 1;"><rect  id="v-1399" rx="1" ry="1" stroke-width="2" pointer-events="visiblePainted" fill="#ffffff" stroke="#008000" width="450" height="300" style="fill: rgb(255, 255, 255); stroke: rgb(0, 128, 0);"></rect><text  id="v-1400" font-size="34" xml:space="preserve" y="86.6" font-weight="bold" text-anchor="middle" pointer-events="visible" font-family="Open Sans" fill="#008000" dominant-baseline="hanging" transform="matrix(1,0,0,1,225,0)" style="fill: rgb(0, 128, 0);"><tspan dy="0" >Tabla: Mensajes</tspan></text><text  id="v-1401" font-size="17" xml:space="preserve" y="128.6" text-anchor="middle" font-family="Open Sans" fill="#008000" dominant-baseline="hanging" transform="matrix(1,0,0,1,225,0)" style="display: block; fill: rgb(0, 128, 0);"><tspan dy="0" >[Component: PostgreSQL Table]</tspan></text><text  id="v-1402" font-size="24" xml:space="preserve" y="160.6" text-anchor="middle" font-family="Open Sans" fill="#008000" dominant-baseline="hanging" transform="matrix(1,0,0,1,225,0)" style="display: block; fill: rgb(0, 128, 0);"><tspan dy="0" >Mensajes de chat: sender_id,</tspan><tspan dy="1.2em" x="0" >receiver_id, contenido, timestamp</tspan></text><g  id="v-1403" color="#008000" transform="matrix(1,0,0,1,222.5,268)" display="none" style="fill: rgb(0, 128, 0);"><g ></g><g ></g><g ></g><g ></g></g><image  id="v-1404"></image></g></g><!--z-index:25--><g   id="j_106"  transform="translate(220,764)" style=""><g  id="v-1411" style="opacity: 1;"><rect  id="v-1412" rx="1" ry="1" stroke-width="2" pointer-events="visiblePainted" fill="#ffffff" stroke="#008000" width="450" height="300" style="fill: rgb(255, 255, 255); stroke: rgb(0, 128, 0);"></rect><text  id="v-1413" font-size="34" xml:space="preserve" y="86.6" font-weight="bold" text-anchor="middle" pointer-events="visible" font-family="Open Sans" fill="#008000" dominant-baseline="hanging" transform="matrix(1,0,0,1,225,0)" style="fill: rgb(0, 128, 0);"><tspan dy="0" >Tabla: Notificaciones</tspan></text><text  id="v-1414" font-size="17" xml:space="preserve" y="128.6" text-anchor="middle" font-family="Open Sans" fill="#008000" dominant-baseline="hanging" transform="matrix(1,0,0,1,225,0)" style="display: block; fill: rgb(0, 128, 0);"><tspan dy="0" >[Component: PostgreSQL Table]</tspan></text><text  id="v-1415" font-size="24" xml:space="preserve" y="160.6" text-anchor="middle" font-family="Open Sans" fill="#008000" dominant-baseline="hanging" transform="matrix(1,0,0,1,225,0)" style="display: block; fill: rgb(0, 128, 0);"><tspan dy="0" >Notificaciones: user_id, tipo, leído,</tspan><tspan dy="1.2em" x="0" >fecha</tspan></text><g  id="v-1416" color="#008000" transform="matrix(1,0,0,1,222.5,268)" display="none" style="fill: rgb(0, 128, 0);"><g ></g><g ></g><g ></g><g ></g></g><image  id="v-1417"></image></g></g><!--z-index:26--><g   id="j_107" ><path  stroke="#444444" d="M 1420 1004 L 1720 1124" id="v-1430" stroke-width="2" stroke-dasharray="30 30" fill="none" style="opacity: 1;"></path><path  fill="black" stroke="black" d="M 0 0 0 0" transform="matrix(0.9284766955435519,0.371390664708372,-0.371390664708372,0.9284766955435519,1420,1004)"></path><path  fill="#444444" stroke="#444444" d="M 20 0 L 0 10 L 20 20 z" id="v-1432" transform="matrix(-0.928476707906966,-0.3713906337998342,0.3713906337998342,-0.928476707906966,1716.2860707020088,1133.284806229568)" style="opacity: 1;"></path><path  d="M 1420 1004 L 1720 1124" id="v-1431" fill="none" style="cursor: auto; pointer-events: visiblepainted;"></path><g ><g id="v-1424"  label-idx="0" cursor="move" transform="matrix(1,0,0,1,1570,1064)" style="cursor: default; opacity: 1;"><rect joint-selector="rect" id="v-1427" fill="#ffffff" rx="3" ry="3" pointer-events="none" width="139.34088134765625" height="34.80512237548828" transform="matrix(1,0,0,1,-69.3,-17.4)"></rect><text joint-selector="text" id="v-1426" font-size="24px" xml:space="preserve" y="0.8em" fill="#444444" text-anchor="middle" pointer-events="none" font-family="Open Sans" font-weight="normal" transform="matrix(1,0,0,1,0,-9.8)"><tspan dy="0" >Relación 1:N</tspan></text></g><g id="v-1425"  label-idx="1" cursor="move" transform="matrix(1,0,0,1,1560,1076)" style="cursor: default; opacity: 1;"><rect joint-selector="rect" id="v-1429" fill="#ffffff" rx="3" ry="3"  width="0" height="0" transform="matrix(1,0,0,1,0,0)" display="none"></rect><text joint-selector="text" id="v-1428" fill="#000000" font-size="14" text-anchor="middle" pointer-events="none"></text></g></g><g  display="none" style="display: none;"></g><g  id="v-1434" display="none"><g  id="v-1422"><path  end="source" d="M 26 0 L 0 13 L 26 26 z"></path></g><g  id="v-1423"><path  end="target" d="M 26 0 L 0 13 L 26 26 z"></path></g></g><g  id="v-1433" display="none"><g  id="v-1421" transform="translate(1457.1390676354104, 1018.8556270541642) "><g  event="remove"><circle r="11"></circle><path transform="scale(.8) translate(-16, -16)" d="M24.778,21.419 19.276,15.917 24.777,10.415 21.949,7.585 16.447,13.087 10.945,7.585 8.117,10.415 13.618,15.917 8.116,21.419 10.946,24.248 16.447,18.746 21.948,24.248z"></path><title>Remove link.</title></g><g  event="link:options"><circle r="11" transform="translate(25)"></circle><path fill="white" transform="scale(.55) translate(29, -16)" d="M31.229,17.736c0.064-0.571,0.104-1.148,0.104-1.736s-0.04-1.166-0.104-1.737l-4.377-1.557c-0.218-0.716-0.504-1.401-0.851-2.05l1.993-4.192c-0.725-0.91-1.549-1.734-2.458-2.459l-4.193,1.994c-0.647-0.347-1.334-0.632-2.049-0.849l-1.558-4.378C17.165,0.708,16.588,0.667,16,0.667s-1.166,0.041-1.737,0.105L12.707,5.15c-0.716,0.217-1.401,0.502-2.05,0.849L6.464,4.005C5.554,4.73,4.73,5.554,4.005,6.464l1.994,4.192c-0.347,0.648-0.632,1.334-0.849,2.05l-4.378,1.557C0.708,14.834,0.667,15.412,0.667,16s0.041,1.165,0.105,1.736l4.378,1.558c0.217,0.715,0.502,1.401,0.849,2.049l-1.994,4.193c0.725,0.909,1.549,1.733,2.459,2.458l4.192-1.993c0.648,0.347,1.334,0.633,2.05,0.851l1.557,4.377c0.571,0.064,1.148,0.104,1.737,0.104c0.588,0,1.165-0.04,1.736-0.104l1.558-4.377c0.715-0.218,1.399-0.504,2.049-0.851l4.193,1.993c0.909-0.725,1.733-1.549,2.458-2.458l-1.993-4.193c0.347-0.647,0.633-1.334,0.851-2.049L31.229,17.736zM16,20.871c-2.69,0-4.872-2.182-4.872-4.871c0-2.69,2.182-4.872,4.872-4.872c2.689,0,4.871,2.182,4.871,4.872C20.871,18.689,18.689,20.871,16,20.871z"></path><title>Link options.</title></g></g></g></g><!--z-index:27--><g   id="j_108" ><path  stroke="#444444" d="M 1420 824 L 1720 704" id="v-1447" stroke-width="2" stroke-dasharray="30 30" fill="none" style="opacity: 1;"></path><path  fill="black" stroke="black" d="M 0 0 0 0" transform="matrix(0.9284766089996245,-0.3713908810681253,0.3713908810681253,0.9284766089996245,1420,824)"></path><path  fill="#444444" stroke="#444444" d="M 20 0 L 0 10 L 20 20 z" id="v-1449" transform="matrix(-0.928476707906966,0.37139063379983406,-0.37139063379983406,-0.928476707906966,1723.7138833780054,713.2847889637275)" style="opacity: 1;"></path><path  d="M 1420 824 L 1720 704" id="v-1448" fill="none" style="cursor: auto; pointer-events: visiblepainted;"></path><g ><g id="v-1441"  label-idx="0" cursor="move" transform="matrix(1,0,0,1,1570,764)" style="cursor: default; opacity: 1;"><rect joint-selector="rect" id="v-1444" fill="#ffffff" rx="3" ry="3" pointer-events="none" width="147.2004852294922" height="34.80512237548828" transform="matrix(1,0,0,1,-73.3,-17.4)"></rect><text joint-selector="text" id="v-1443" font-size="24px" xml:space="preserve" y="0.8em" fill="#444444" text-anchor="middle" pointer-events="none" font-family="Open Sans" font-weight="normal" transform="matrix(1,0,0,1,0,-9.8)"><tspan dy="0" >Relación M:N</tspan></text></g><g id="v-1442"  label-idx="1" cursor="move" transform="matrix(1,0,0,1,1560,776)" style="cursor: default; opacity: 1;"><rect joint-selector="rect" id="v-1446" fill="#ffffff" rx="3" ry="3"  width="0" height="0" transform="matrix(1,0,0,1,0,0)" display="none"></rect><text joint-selector="text" id="v-1445" fill="#000000" font-size="14" text-anchor="middle" pointer-events="none"></text></g></g><g  display="none" style="display: none;"></g><g  id="v-1451" display="none"><g  id="v-1439"><path  end="source" d="M 26 0 L 0 13 L 26 26 z"></path></g><g  id="v-1440"><path  end="target" d="M 26 0 L 0 13 L 26 26 z"></path></g></g><g  id="v-1450" display="none"><g  id="v-1438" transform="translate(1457.1390676354104, 809.1443729458358) "><g  event="remove"><circle r="11"></circle><path transform="scale(.8) translate(-16, -16)" d="M24.778,21.419 19.276,15.917 24.777,10.415 21.949,7.585 16.447,13.087 10.945,7.585 8.117,10.415 13.618,15.917 8.116,21.419 10.946,24.248 16.447,18.746 21.948,24.248z"></path><title>Remove link.</title></g><g  event="link:options"><circle r="11" transform="translate(25)"></circle><path fill="white" transform="scale(.55) translate(29, -16)" d="M31.229,17.736c0.064-0.571,0.104-1.148,0.104-1.736s-0.04-1.166-0.104-1.737l-4.377-1.557c-0.218-0.716-0.504-1.401-0.851-2.05l1.993-4.192c-0.725-0.91-1.549-1.734-2.458-2.459l-4.193,1.994c-0.647-0.347-1.334-0.632-2.049-0.849l-1.558-4.378C17.165,0.708,16.588,0.667,16,0.667s-1.166,0.041-1.737,0.105L12.707,5.15c-0.716,0.217-1.401,0.502-2.05,0.849L6.464,4.005C5.554,4.73,4.73,5.554,4.005,6.464l1.994,4.192c-0.347,0.648-0.632,1.334-0.849,2.05l-4.378,1.557C0.708,14.834,0.667,15.412,0.667,16s0.041,1.165,0.105,1.736l4.378,1.558c0.217,0.715,0.502,1.401,0.849,2.049l-1.994,4.193c0.725,0.909,1.549,1.733,2.459,2.458l4.192-1.993c0.648,0.347,1.334,0.633,2.05,0.851l1.557,4.377c0.571,0.064,1.148,0.104,1.737,0.104c0.588,0,1.165-0.04,1.736-0.104l1.558-4.377c0.715-0.218,1.399-0.504,2.049-0.851l4.193,1.993c0.909-0.725,1.733-1.549,2.458-2.458l-1.993-4.193c0.347-0.647,0.633-1.334,0.851-2.049L31.229,17.736zM16,20.871c-2.69,0-4.872-2.182-4.872-4.871c0-2.69,2.182-4.872,4.872-4.872c2.689,0,4.871,2.182,4.871,4.872C20.871,18.689,18.689,20.871,16,20.871z"></path><title>Link options.</title></g></g></g></g><!--z-index:28--><g   id="j_109" ><path  stroke="#444444" d="M 633 1364 L 1008 1064" id="v-1464" stroke-width="2" stroke-dasharray="30 30" fill="none" style="opacity: 1;"></path><path  fill="black" stroke="black" d="M 0 0 0 0" transform="matrix(0.7808686753084834,-0.624695215222571,0.624695215222571,0.7808686753084834,632.5,1364)"></path><path  fill="#444444" stroke="#444444" d="M 20 0 L 0 10 L 20 20 z" id="v-1466" transform="matrix(-0.7808688416748546,0.6246950072646418,-0.6246950072646418,-0.7808688416748546,1013.7469226690824,1071.8086865862897)" style="opacity: 1;"></path><path  d="M 633 1364 L 1008 1064" id="v-1465" fill="none" style="cursor: auto; pointer-events: visiblepainted;"></path><g ><g id="v-1458"  label-idx="0" cursor="move" transform="matrix(1,0,0,1,820.5,1214)" style="cursor: default; opacity: 1;"><rect joint-selector="rect" id="v-1461" fill="#ffffff" rx="3" ry="3" pointer-events="none" width="198.6717987060547" height="63.60512351989746" transform="matrix(1,0,0,1,-98.9,-31.8)"></rect><text joint-selector="text" id="v-1460" font-size="24px" xml:space="preserve" y="0.8em" fill="#444444" text-anchor="middle" pointer-events="none" font-family="Open Sans" font-weight="normal" transform="matrix(1,0,0,1,0,-24.2)"><tspan dy="0" >FK:</tspan><tspan dy="1.2em" x="0" >pagador/receptor</tspan></text></g><g id="v-1459"  label-idx="1" cursor="move" transform="matrix(1,0,0,1,810.5,1240.4000244140625)" style="cursor: default; opacity: 1;"><rect joint-selector="rect" id="v-1463" fill="#ffffff" rx="3" ry="3"  width="0" height="0" transform="matrix(1,0,0,1,0,0)" display="none"></rect><text joint-selector="text" id="v-1462" fill="#000000" font-size="14" text-anchor="middle" pointer-events="none"></text></g></g><g  display="none" style="display: none;"></g><g  id="v-1468" display="none"><g  id="v-1456"><path  end="source" d="M 26 0 L 0 13 L 26 26 z"></path></g><g  id="v-1457"><path  end="target" d="M 26 0 L 0 13 L 26 26 z"></path></g></g><g  id="v-1467" display="none"><g  id="v-1455" transform="translate(664.2347523777213, 1339.012198097823) "><g  event="remove"><circle r="11"></circle><path transform="scale(.8) translate(-16, -16)" d="M24.778,21.419 19.276,15.917 24.777,10.415 21.949,7.585 16.447,13.087 10.945,7.585 8.117,10.415 13.618,15.917 8.116,21.419 10.946,24.248 16.447,18.746 21.948,24.248z"></path><title>Remove link.</title></g><g  event="link:options"><circle r="11" transform="translate(25)"></circle><path fill="white" transform="scale(.55) translate(29, -16)" d="M31.229,17.736c0.064-0.571,0.104-1.148,0.104-1.736s-0.04-1.166-0.104-1.737l-4.377-1.557c-0.218-0.716-0.504-1.401-0.851-2.05l1.993-4.192c-0.725-0.91-1.549-1.734-2.458-2.459l-4.193,1.994c-0.647-0.347-1.334-0.632-2.049-0.849l-1.558-4.378C17.165,0.708,16.588,0.667,16,0.667s-1.166,0.041-1.737,0.105L12.707,5.15c-0.716,0.217-1.401,0.502-2.05,0.849L6.464,4.005C5.554,4.73,4.73,5.554,4.005,6.464l1.994,4.192c-0.347,0.648-0.632,1.334-0.849,2.05l-4.378,1.557C0.708,14.834,0.667,15.412,0.667,16s0.041,1.165,0.105,1.736l4.378,1.558c0.217,0.715,0.502,1.401,0.849,2.049l-1.994,4.193c0.725,0.909,1.549,1.733,2.459,2.458l4.192-1.993c0.648,0.347,1.334,0.633,2.05,0.851l1.557,4.377c0.571,0.064,1.148,0.104,1.737,0.104c0.588,0,1.165-0.04,1.736-0.104l1.558-4.377c0.715-0.218,1.399-0.504,2.049-0.851l4.193,1.993c0.909-0.725,1.733-1.549,2.458-2.458l-1.993-4.193c0.347-0.647,0.633-1.334,0.851-2.049L31.229,17.736zM16,20.871c-2.69,0-4.872-2.182-4.872-4.871c0-2.69,2.182-4.872,4.872-4.872c2.689,0,4.871,2.182,4.871,4.872C20.871,18.689,18.689,20.871,16,20.871z"></path><title>Link options.</title></g></g></g></g><!--z-index:29--><g   id="j_110" ><path  stroke="#444444" d="M 633 464 L 1008 764" id="v-1481" stroke-width="2" stroke-dasharray="30 30" fill="none" style="opacity: 1;"></path><path  fill="black" stroke="black" d="M 0 0 0 0" transform="matrix(0.7808688000832672,0.624695059254128,-0.624695059254128,0.7808688000832672,632.5,464)"></path><path  fill="#444444" stroke="#444444" d="M 20 0 L 0 10 L 20 20 z" id="v-1483" transform="matrix(-0.7808688416748548,-0.6246950072646416,0.6246950072646416,-0.7808688416748548,1001.2530225237897,771.8086902472074)" style="opacity: 1;"></path><path  d="M 633 464 L 1008 764" id="v-1482" fill="none" style="cursor: auto; pointer-events: visiblepainted;"></path><g ><g id="v-1475"  label-idx="0" cursor="move" transform="matrix(1,0,0,1,820.5,614)" style="cursor: default; opacity: 1;"><rect joint-selector="rect" id="v-1478" fill="#ffffff" rx="3" ry="3" pointer-events="none" width="160.60372924804688" height="63.60512351989746" transform="matrix(1,0,0,1,-79.4,-31.8)"></rect><text joint-selector="text" id="v-1477" font-size="24px" xml:space="preserve" y="0.8em" fill="#444444" text-anchor="middle" pointer-events="none" font-family="Open Sans" font-weight="normal" transform="matrix(1,0,0,1,0,-24.2)"><tspan dy="0" >FK: remitente/</tspan><tspan dy="1.2em" x="0" >destinatario</tspan></text></g><g id="v-1476"  label-idx="1" cursor="move" transform="matrix(1,0,0,1,810.5,640.4000244140625)" style="cursor: default; opacity: 1;"><rect joint-selector="rect" id="v-1480" fill="#ffffff" rx="3" ry="3"  width="0" height="0" transform="matrix(1,0,0,1,0,0)" display="none"></rect><text joint-selector="text" id="v-1479" fill="#000000" font-size="14" text-anchor="middle" pointer-events="none"></text></g></g><g  display="none" style="display: none;"></g><g  id="v-1485" display="none"><g  id="v-1473"><path  end="source" d="M 26 0 L 0 13 L 26 26 z"></path></g><g  id="v-1474"><path  end="target" d="M 26 0 L 0 13 L 26 26 z"></path></g></g><g  id="v-1484" display="none"><g  id="v-1472" transform="translate(664.2347523777213, 488.98780190217695) "><g  event="remove"><circle r="11"></circle><path transform="scale(.8) translate(-16, -16)" d="M24.778,21.419 19.276,15.917 24.777,10.415 21.949,7.585 16.447,13.087 10.945,7.585 8.117,10.415 13.618,15.917 8.116,21.419 10.946,24.248 16.447,18.746 21.948,24.248z"></path><title>Remove link.</title></g><g  event="link:options"><circle r="11" transform="translate(25)"></circle><path fill="white" transform="scale(.55) translate(29, -16)" d="M31.229,17.736c0.064-0.571,0.104-1.148,0.104-1.736s-0.04-1.166-0.104-1.737l-4.377-1.557c-0.218-0.716-0.504-1.401-0.851-2.05l1.993-4.192c-0.725-0.91-1.549-1.734-2.458-2.459l-4.193,1.994c-0.647-0.347-1.334-0.632-2.049-0.849l-1.558-4.378C17.165,0.708,16.588,0.667,16,0.667s-1.166,0.041-1.737,0.105L12.707,5.15c-0.716,0.217-1.401,0.502-2.05,0.849L6.464,4.005C5.554,4.73,4.73,5.554,4.005,6.464l1.994,4.192c-0.347,0.648-0.632,1.334-0.849,2.05l-4.378,1.557C0.708,14.834,0.667,15.412,0.667,16s0.041,1.165,0.105,1.736l4.378,1.558c0.217,0.715,0.502,1.401,0.849,2.049l-1.994,4.193c0.725,0.909,1.549,1.733,2.459,2.458l4.192-1.993c0.648,0.347,1.334,0.633,2.05,0.851l1.557,4.377c0.571,0.064,1.148,0.104,1.737,0.104c0.588,0,1.165-0.04,1.736-0.104l1.558-4.377c0.715-0.218,1.399-0.504,2.049-0.851l4.193,1.993c0.909-0.725,1.733-1.549,2.458-2.458l-1.993-4.193c0.347-0.647,0.633-1.334,0.851-2.049L31.229,17.736zM16,20.871c-2.69,0-4.872-2.182-4.872-4.871c0-2.69,2.182-4.872,4.872-4.872c2.689,0,4.871,2.182,4.871,4.872C20.871,18.689,18.689,20.871,16,20.871z"></path><title>Link options.</title></g></g></g></g><!--z-index:30--><g   id="j_111" ><path  stroke="#444444" d="M 670 914 L 970 914" id="v-1495" stroke-width="2" stroke-dasharray="30 30" fill="none" style="opacity: 1;"></path><path  fill="black" stroke="black" d="M 0 0 0 0" transform="matrix(1,0,0,1,670,914)"></path><path  fill="#444444" stroke="#444444" d="M 20 0 L 0 10 L 20 20 z" id="v-1497" transform="matrix(-1,1.2246467991473532e-16,-1.2246467991473532e-16,-1,970,923.9999999999999)" style="opacity: 1;"></path><path  d="M 670 914 L 970 914" id="v-1496" fill="none" style="cursor: auto; pointer-events: visiblepainted;"></path><g ><g id="v-1489"  label-idx="0" cursor="move" transform="matrix(1,0,0,1,820,914)" style="cursor: default; opacity: 1;"><rect joint-selector="rect" id="v-1492" fill="#ffffff" rx="3" ry="3" pointer-events="none" width="125.71159362792969" height="34.80512237548828" transform="matrix(1,0,0,1,-62.1,-17.4)"></rect><text joint-selector="text" id="v-1491" font-size="24px" xml:space="preserve" y="0.8em" fill="#444444" text-anchor="middle" pointer-events="none" font-family="Open Sans" font-weight="normal" transform="matrix(1,0,0,1,0,-9.8)"><tspan dy="0" >FK: usuario</tspan></text></g><g id="v-1490"  label-idx="1" cursor="move" transform="matrix(1,0,0,1,810,926)" style="cursor: default; opacity: 1;"><rect joint-selector="rect" id="v-1494" fill="#ffffff" rx="3" ry="3"  width="0" height="0" transform="matrix(1,0,0,1,0,0)" display="none"></rect><text joint-selector="text" id="v-1493" fill="#000000" font-size="14" text-anchor="middle" pointer-events="none"></text></g></g><g  display="none" style="display: none;"></g><g  id="v-1499" display="none"><g  id="v-1487"><path  end="source" d="M 26 0 L 0 13 L 26 26 z"></path></g><g  id="v-1488"><path  end="target" d="M 26 0 L 0 13 L 26 26 z"></path></g></g><g  id="v-1498" display="none"><g  id="v-1486" transform="translate(710.0000000000001, 914) "><g  event="remove"><circle r="11"></circle><path transform="scale(.8) translate(-16, -16)" d="M24.778,21.419 19.276,15.917 24.777,10.415 21.949,7.585 16.447,13.087 10.945,7.585 8.117,10.415 13.618,15.917 8.116,21.419 10.946,24.248 16.447,18.746 21.948,24.248z"></path><title>Remove link.</title></g><g  event="link:options"><circle r="11" transform="translate(25)"></circle><path fill="white" transform="scale(.55) translate(29, -16)" d="M31.229,17.736c0.064-0.571,0.104-1.148,0.104-1.736s-0.04-1.166-0.104-1.737l-4.377-1.557c-0.218-0.716-0.504-1.401-0.851-2.05l1.993-4.192c-0.725-0.91-1.549-1.734-2.458-2.459l-4.193,1.994c-0.647-0.347-1.334-0.632-2.049-0.849l-1.558-4.378C17.165,0.708,16.588,0.667,16,0.667s-1.166,0.041-1.737,0.105L12.707,5.15c-0.716,0.217-1.401,0.502-2.05,0.849L6.464,4.005C5.554,4.73,4.73,5.554,4.005,6.464l1.994,4.192c-0.347,0.648-0.632,1.334-0.849,2.05l-4.378,1.557C0.708,14.834,0.667,15.412,0.667,16s0.041,1.165,0.105,1.736l4.378,1.558c0.217,0.715,0.502,1.401,0.849,2.049l-1.994,4.193c0.725,0.909,1.549,1.733,2.459,2.458l4.192-1.993c0.648,0.347,1.334,0.633,2.05,0.851l1.557,4.377c0.571,0.064,1.148,0.104,1.737,0.104c0.588,0,1.165-0.04,1.736-0.104l1.558-4.377c0.715-0.218,1.399-0.504,2.049-0.851l4.193,1.993c0.909-0.725,1.733-1.549,2.458-2.458l-1.993-4.193c0.347-0.647,0.633-1.334,0.851-2.049L31.229,17.736zM16,20.871c-2.69,0-4.872-2.182-4.872-4.871c0-2.69,2.182-4.872,4.872-4.872c2.689,0,4.871,2.182,4.871,4.872C20.871,18.689,18.689,20.871,16,20.871z"></path><title>Link options.</title></g></g></g></g><!--z-index:31--><!--z-index:32--><!--z-index:33--><!--z-index:34--><!--z-index:35--><!--z-index:36--><!--z-index:37--><!--z-index:38--><!--z-index:39--><!--z-index:40--><!--z-index:41--><!--z-index:42--><!--z-index:43--><!--z-index:44--><!--z-index:45--><!--z-index:46--><!--z-index:47--><!--z-index:48--><!--z-index:49--><!--z-index:50--><!--z-index:51--><!--z-index:52--><!--z-index:53--><!--z-index:54--><!--z-index:55--><!--z-index:56--><!--z-index:57--><!--z-index:58--><!--z-index:59--><!--z-index:60--><!--z-index:61--><!--z-index:62--><!--z-index:63--><!--z-index:64--><!--z-index:65--><!--z-index:66--><!--z-index:67--><!--z-index:68--><!--z-index:69--><!--z-index:70--><!--z-index:71--><!--z-index:72--><!--z-index:73--><!--z-index:74--><!--z-index:75--><!--z-index:76--><!--z-index:77--><!--z-index:78--><!--z-index:79--><!--z-index:80--><!--z-index:81--><!--z-index:82--><!--z-index:83--><!--z-index:84--><!--z-index:85--><!--z-index:86--><!--z-index:87--><!--z-index:88--><!--z-index:89--><!--z-index:90--><!--z-index:91--><!--z-index:92--><!--z-index:93--><!--z-index:94--><!--z-index:95--><!--z-index:96--><!--z-index:97--><!--z-index:98--><!--z-index:99--><!--z-index:100--><!--z-index:101--><!--z-index:102--><!--z-index:103--><!--z-index:104--><!--z-index:105--><!--z-index:106--><!--z-index:107--><!--z-index:108--><!--z-index:109--><!--z-index:110--><!--z-index:111--><!--z-index:112--><!--z-index:113--><!--z-index:114--><!--z-index:115--><!--z-index:116--><!--z-index:117--><!--z-index:118--><!--z-index:119--><!--z-index:120--><!--z-index:121--><!--z-index:122--><!--z-index:123--></g><g ></g><g ></g><g ></g></g></svg>