<svg xmlns="http://www.w3.org/2000/svg" xmlns:xlink="http://www.w3.org/1999/xlink" version="1.1" viewBox="0 0 1640 2011" style="background: #ffffff"><defs><style>@import url(https://fonts.googleapis.com/css?family=Open+Sans:400,700);</style></defs><defs joint-selector="defs"></defs><g joint-selector="layers"  transform="matrix(1,0,0,1,0,0)"><g ></g><g ><!--z-index:0--><!--z-index:1--><!--z-index:2--><!--z-index:3--><!--z-index:4--><!--z-index:5--><!--z-index:6--><!--z-index:7--><!--z-index:8--><!--z-index:9--><!--z-index:10--><!--z-index:11--><!--z-index:12--><!--z-index:13--><!--z-index:14--><g   id="j_93"  transform="translate(20,1969)"><g id="v-1309"><text  id="v-1310" font-size="22px" xml:space="preserve" y="0.8em" font-weight="normal" text-anchor="start" fill="#444444" pointer-events="none" display="block" font-family="Open Sans"><tspan dy="0" >domingo, 19 de octubre de 2025, 19:52 hora estándar de Perú</tspan></text></g></g><!--z-index:15--><g   id="j_92"  transform="translate(20,1937)"><g id="v-1307"><text  id="v-1308" font-size="22px" xml:space="preserve" y="0.8em" font-weight="normal" text-anchor="start" fill="#444444" pointer-events="none" display="block" font-family="Open Sans"><tspan dy="0" >Componentes del Microservicio de Búsqueda (Módulo 1)</tspan></text></g></g><!--z-index:16--><g   id="j_91"  transform="translate(20,1891)"><g id="v-1305"><text  id="v-1306" font-size="36px" xml:space="preserve" y="0.8em" font-weight="normal" text-anchor="start" fill="#444444" pointer-events="none" display="block" font-family="Open Sans"><tspan dy="0" >[Component] NEXUS - Microservicio de Búsqueda</tspan></text></g></g><!--z-index:17--><g   id="j_95"  transform="translate(200,144)" style=""><g id="v-1329"><rect  id="v-1330" width="1240" height="1611" rx="0" ry="0" stroke-width="2" stroke-dasharray="20,20" pointer-events="none" stroke="#3c7fc0" fill="#ffffff"></rect><text  id="v-1331" font-size="24px" xml:space="preserve" y="1572" font-weight="normal" text-anchor="start" pointer-events="visible" font-family="Open Sans" fill="#3c7fc0" transform="matrix(1,0,0,1,15,0)"><tspan dy="0" >Microservicio de Búsqueda</tspan></text><text  id="v-1332" font-size="17px" xml:space="preserve" y="1596" font-weight="normal" text-anchor="start" pointer-events="visible" font-family="Open Sans" fill="#3c7fc0" transform="matrix(1,0,0,1,15,0)"><tspan dy="0" >[Container]</tspan></text><image  id="v-1333" pointer-events="visible"></image></g></g><!--z-index:18--><g   id="j_94"  transform="translate(970,164)" style=""><g  id="v-1320" style="opacity: 1;"><rect  id="v-1321" rx="10" ry="10" stroke-width="2" pointer-events="visiblePainted" fill="#85bbf0" stroke="#78a8d8" x="37.5" width="412.5" height="300" style="fill: rgb(133, 187, 240); stroke: rgb(120, 168, 216);"></rect><rect  id="v-1322" rx="5" ry="5" stroke-width="2" pointer-events="visiblePainted" fill="#85bbf0" stroke="#78a8d8" x="0" y="22.5" width="75" height="37.5" style="fill: rgb(133, 187, 240); stroke: rgb(120, 168, 216);"></rect><rect  id="v-1323" rx="5" ry="5" stroke-width="2" pointer-events="visiblePainted" fill="#85bbf0" stroke="#78a8d8" x="0" y="75" width="75" height="37.5" style="fill: rgb(133, 187, 240); stroke: rgb(120, 168, 216);"></rect><text  id="v-1324" font-size="34" xml:space="preserve" y="72.2" font-weight="bold" text-anchor="middle" pointer-events="visible" font-family="Open Sans" fill="#000000" dominant-baseline="hanging" transform="matrix(1,0,0,1,243.8,0)" style="fill: rgb(0, 0, 0);"><tspan dy="0" >Search Controller</tspan></text><text  id="v-1325" font-size="17" xml:space="preserve" y="114.2" text-anchor="middle" font-family="Open Sans" fill="#000000" dominant-baseline="hanging" transform="matrix(1,0,0,1,243.8,0)" style="display: block; fill: rgb(0, 0, 0);"><tspan dy="0" >[Component: Express Controller]</tspan></text><text  id="v-1326" font-size="24" xml:space="preserve" y="146.2" text-anchor="middle" font-family="Open Sans" fill="#000000" dominant-baseline="hanging" transform="matrix(1,0,0,1,243.8,0)" style="display: block; fill: rgb(0, 0, 0);"><tspan dy="0" >GET /search?q=, GET</tspan><tspan dy="1.2em" x="0" >/search/filters, GET</tspan><tspan dy="1.2em" x="0" >/search/suggestions</tspan></text><g  id="v-1327" font-weight="normal" text-anchor="middle" color="#000000" transform="matrix(1,0,0,1,241.5,268)" display="none" style="fill: rgb(0, 0, 0);"><g ></g><g ></g><g ></g><g ></g></g><image  id="v-1328"></image></g></g><!--z-index:19--><g   id="j_96"  transform="translate(970,764)" style=""><g  id="v-1343" style="opacity: 1;"><rect  id="v-1344" rx="10" ry="10" stroke-width="2" pointer-events="visiblePainted" fill="#85bbf0" stroke="#78a8d8" x="37.5" width="412.5" height="300" style="fill: rgb(133, 187, 240); stroke: rgb(120, 168, 216);"></rect><rect  id="v-1345" rx="5" ry="5" stroke-width="2" pointer-events="visiblePainted" fill="#85bbf0" stroke="#78a8d8" x="0" y="22.5" width="75" height="37.5" style="fill: rgb(133, 187, 240); stroke: rgb(120, 168, 216);"></rect><rect  id="v-1346" rx="5" ry="5" stroke-width="2" pointer-events="visiblePainted" fill="#85bbf0" stroke="#78a8d8" x="0" y="75" width="75" height="37.5" style="fill: rgb(133, 187, 240); stroke: rgb(120, 168, 216);"></rect><text  id="v-1347" font-size="34" xml:space="preserve" y="72.2" font-weight="bold" text-anchor="middle" pointer-events="visible" font-family="Open Sans" fill="#000000" dominant-baseline="hanging" transform="matrix(1,0,0,1,243.8,0)" style="fill: rgb(0, 0, 0);"><tspan dy="0" >Search Service</tspan></text><text  id="v-1348" font-size="17" xml:space="preserve" y="114.2" text-anchor="middle" font-family="Open Sans" fill="#000000" dominant-baseline="hanging" transform="matrix(1,0,0,1,243.8,0)" style="display: block; fill: rgb(0, 0, 0);"><tspan dy="0" >[Component: Business Logic]</tspan></text><text  id="v-1349" font-size="24" xml:space="preserve" y="146.2" text-anchor="middle" font-family="Open Sans" fill="#000000" dominant-baseline="hanging" transform="matrix(1,0,0,1,243.8,0)" style="display: block; fill: rgb(0, 0, 0);"><tspan dy="0" >Construye queries DSL,</tspan><tspan dy="1.2em" x="0" >aplica filtros, rankea</tspan><tspan dy="1.2em" x="0" >resultados</tspan></text><g  id="v-1350" font-weight="normal" text-anchor="middle" color="#000000" transform="matrix(1,0,0,1,241.5,268)" display="none" style="fill: rgb(0, 0, 0);"><g ></g><g ></g><g ></g><g ></g></g><image  id="v-1351"></image></g></g><!--z-index:20--><g   id="j_97"  transform="translate(970,1364)" style=""><g  id="v-1361" style="opacity: 1;"><rect  id="v-1362" rx="10" ry="10" stroke-width="2" pointer-events="visiblePainted" fill="#85bbf0" stroke="#78a8d8" x="37.5" width="412.5" height="300" style="fill: rgb(133, 187, 240); stroke: rgb(120, 168, 216);"></rect><rect  id="v-1363" rx="5" ry="5" stroke-width="2" pointer-events="visiblePainted" fill="#85bbf0" stroke="#78a8d8" x="0" y="22.5" width="75" height="37.5" style="fill: rgb(133, 187, 240); stroke: rgb(120, 168, 216);"></rect><rect  id="v-1364" rx="5" ry="5" stroke-width="2" pointer-events="visiblePainted" fill="#85bbf0" stroke="#78a8d8" x="0" y="75" width="75" height="37.5" style="fill: rgb(133, 187, 240); stroke: rgb(120, 168, 216);"></rect><text  id="v-1365" font-size="34" xml:space="preserve" y="72.2" font-weight="bold" text-anchor="middle" pointer-events="visible" font-family="Open Sans" fill="#000000" dominant-baseline="hanging" transform="matrix(1,0,0,1,243.8,0)" style="fill: rgb(0, 0, 0);"><tspan dy="0" >Query Builder</tspan></text><text  id="v-1366" font-size="17" xml:space="preserve" y="114.2" text-anchor="middle" font-family="Open Sans" fill="#000000" dominant-baseline="hanging" transform="matrix(1,0,0,1,243.8,0)" style="display: block; fill: rgb(0, 0, 0);"><tspan dy="0" >[Component: Query Builder]</tspan></text><text  id="v-1367" font-size="24" xml:space="preserve" y="146.2" text-anchor="middle" font-family="Open Sans" fill="#000000" dominant-baseline="hanging" transform="matrix(1,0,0,1,243.8,0)" style="display: block; fill: rgb(0, 0, 0);"><tspan dy="0" >Construye queries de</tspan><tspan dy="1.2em" x="0" >Elasticsearch con filtros</tspan><tspan dy="1.2em" x="0" >complejos</tspan></text><g  id="v-1368" font-weight="normal" text-anchor="middle" color="#000000" transform="matrix(1,0,0,1,241.5,268)" display="none" style="fill: rgb(0, 0, 0);"><g ></g><g ></g><g ></g><g ></g></g><image  id="v-1369"></image></g></g><!--z-index:21--><g   id="j_98"  transform="translate(220,1364)" style=""><g  id="v-1379" style="opacity: 1;"><rect  id="v-1380" rx="10" ry="10" stroke-width="2" pointer-events="visiblePainted" fill="#85bbf0" stroke="#78a8d8" x="37.5" width="412.5" height="300" style="fill: rgb(133, 187, 240); stroke: rgb(120, 168, 216);"></rect><rect  id="v-1381" rx="5" ry="5" stroke-width="2" pointer-events="visiblePainted" fill="#85bbf0" stroke="#78a8d8" x="0" y="22.5" width="75" height="37.5" style="fill: rgb(133, 187, 240); stroke: rgb(120, 168, 216);"></rect><rect  id="v-1382" rx="5" ry="5" stroke-width="2" pointer-events="visiblePainted" fill="#85bbf0" stroke="#78a8d8" x="0" y="75" width="75" height="37.5" style="fill: rgb(133, 187, 240); stroke: rgb(120, 168, 216);"></rect><text  id="v-1383" font-size="34" xml:space="preserve" y="66.2" font-weight="bold" text-anchor="middle" pointer-events="visible" font-family="Open Sans" fill="#000000" dominant-baseline="hanging" transform="matrix(1,0,0,1,243.8,0)" style="fill: rgb(0, 0, 0);"><tspan dy="0" >Elasticsearch</tspan><tspan dy="1.2em" x="0" >Adapter</tspan></text><text  id="v-1384" font-size="17" xml:space="preserve" y="149" text-anchor="middle" font-family="Open Sans" fill="#000000" dominant-baseline="hanging" transform="matrix(1,0,0,1,243.8,0)" style="display: block; fill: rgb(0, 0, 0);"><tspan dy="0" >[Component: Search Adapter]</tspan></text><text  id="v-1385" font-size="24" xml:space="preserve" y="181" text-anchor="middle" font-family="Open Sans" fill="#000000" dominant-baseline="hanging" transform="matrix(1,0,0,1,243.8,0)" style="display: block; fill: rgb(0, 0, 0);"><tspan dy="0" >Ejecuta queries,</tspan><tspan dy="1.2em" x="0" >agregaciones y sugerencias</tspan></text><g  id="v-1386" font-weight="normal" text-anchor="middle" color="#000000" transform="matrix(1,0,0,1,241.5,268)" display="none" style="fill: rgb(0, 0, 0);"><g ></g><g ></g><g ></g><g ></g></g><image  id="v-1387"></image></g></g><!--z-index:22--><g   id="j_99"  transform="translate(220,764)" style=""><g  id="v-1397" style="opacity: 1;"><rect  id="v-1398" rx="10" ry="10" stroke-width="2" pointer-events="visiblePainted" fill="#85bbf0" stroke="#78a8d8" x="37.5" width="412.5" height="300" style="fill: rgb(133, 187, 240); stroke: rgb(120, 168, 216);"></rect><rect  id="v-1399" rx="5" ry="5" stroke-width="2" pointer-events="visiblePainted" fill="#85bbf0" stroke="#78a8d8" x="0" y="22.5" width="75" height="37.5" style="fill: rgb(133, 187, 240); stroke: rgb(120, 168, 216);"></rect><rect  id="v-1400" rx="5" ry="5" stroke-width="2" pointer-events="visiblePainted" fill="#85bbf0" stroke="#78a8d8" x="0" y="75" width="75" height="37.5" style="fill: rgb(133, 187, 240); stroke: rgb(120, 168, 216);"></rect><text  id="v-1401" font-size="34" xml:space="preserve" y="86.6" font-weight="bold" text-anchor="middle" pointer-events="visible" font-family="Open Sans" fill="#000000" dominant-baseline="hanging" transform="matrix(1,0,0,1,243.8,0)" style="fill: rgb(0, 0, 0);"><tspan dy="0" >Event Subscriber</tspan></text><text  id="v-1402" font-size="17" xml:space="preserve" y="128.6" text-anchor="middle" font-family="Open Sans" fill="#000000" dominant-baseline="hanging" transform="matrix(1,0,0,1,243.8,0)" style="display: block; fill: rgb(0, 0, 0);"><tspan dy="0" >[Component: Event Subscriber]</tspan></text><text  id="v-1403" font-size="24" xml:space="preserve" y="160.6" text-anchor="middle" font-family="Open Sans" fill="#000000" dominant-baseline="hanging" transform="matrix(1,0,0,1,243.8,0)" style="display: block; fill: rgb(0, 0, 0);"><tspan dy="0" >Escucha IdeaCreated para</tspan><tspan dy="1.2em" x="0" >indexar automáticamente</tspan></text><g  id="v-1404" font-weight="normal" text-anchor="middle" color="#000000" transform="matrix(1,0,0,1,241.5,268)" display="none" style="fill: rgb(0, 0, 0);"><g ></g><g ></g><g ></g><g ></g></g><image  id="v-1405"></image></g></g><!--z-index:23--><g   id="j_100" ><path  stroke="#444444" d="M 1195 464 L 1195 764" id="v-1415" stroke-width="2" stroke-dasharray="30 30" fill="none" style="opacity: 1;"></path><path  fill="black" stroke="black" d="M 0 0 0 0" transform="matrix(6.123233995736766e-17,1,-1,6.123233995736766e-17,1195,464)"></path><path  fill="#444444" stroke="#444444" d="M 20 0 L 0 10 L 20 20 z" id="v-1417" transform="matrix(-1.8369701987210297e-16,-1,1,-1.8369701987210297e-16,1185,764)" style="opacity: 1;"></path><path  d="M 1195 464 L 1195 764" id="v-1416" fill="none" style="cursor: auto; pointer-events: visiblepainted;"></path><g ><g id="v-1409"  label-idx="0" cursor="move" transform="matrix(1,0,0,1,1195,614)" style="cursor: default; opacity: 1;"><rect joint-selector="rect" id="v-1412" fill="#ffffff" rx="3" ry="3" pointer-events="none" width="69.81790161132812" height="31.60326099395752" transform="matrix(1,0,0,1,-34.4,-15.8)"></rect><text joint-selector="text" id="v-1411" font-size="24px" xml:space="preserve" y="0.8em" fill="#444444" text-anchor="middle" pointer-events="none" font-family="Open Sans" font-weight="normal" transform="matrix(1,0,0,1,0,-9.1)"><tspan dy="0" >Utiliza</tspan></text></g><g id="v-1410"  label-idx="1" cursor="move" transform="matrix(1,0,0,1,1185,626)" style="cursor: default; opacity: 1;"><rect joint-selector="rect" id="v-1414" fill="#ffffff" rx="3" ry="3"  width="0" height="0" transform="matrix(1,0,0,1,0,0)" display="none"></rect><text joint-selector="text" id="v-1413" fill="#000000" font-size="14" text-anchor="middle" pointer-events="none"></text></g></g><g  display="none" style="display: none;"></g><g  id="v-1419" display="none"><g  id="v-1407"><path  end="source" d="M 26 0 L 0 13 L 26 26 z"></path></g><g  id="v-1408"><path  end="target" d="M 26 0 L 0 13 L 26 26 z"></path></g></g><g  id="v-1418" display="none"><g  id="v-1406" transform="translate(1195, 504) "><g  event="remove"><circle r="11"></circle><path transform="scale(.8) translate(-16, -16)" d="M24.778,21.419 19.276,15.917 24.777,10.415 21.949,7.585 16.447,13.087 10.945,7.585 8.117,10.415 13.618,15.917 8.116,21.419 10.946,24.248 16.447,18.746 21.948,24.248z"></path><title>Remove link.</title></g><g  event="link:options"><circle r="11" transform="translate(25)"></circle><path fill="white" transform="scale(.55) translate(29, -16)" d="M31.229,17.736c0.064-0.571,0.104-1.148,0.104-1.736s-0.04-1.166-0.104-1.737l-4.377-1.557c-0.218-0.716-0.504-1.401-0.851-2.05l1.993-4.192c-0.725-0.91-1.549-1.734-2.458-2.459l-4.193,1.994c-0.647-0.347-1.334-0.632-2.049-0.849l-1.558-4.378C17.165,0.708,16.588,0.667,16,0.667s-1.166,0.041-1.737,0.105L12.707,5.15c-0.716,0.217-1.401,0.502-2.05,0.849L6.464,4.005C5.554,4.73,4.73,5.554,4.005,6.464l1.994,4.192c-0.347,0.648-0.632,1.334-0.849,2.05l-4.378,1.557C0.708,14.834,0.667,15.412,0.667,16s0.041,1.165,0.105,1.736l4.378,1.558c0.217,0.715,0.502,1.401,0.849,2.049l-1.994,4.193c0.725,0.909,1.549,1.733,2.459,2.458l4.192-1.993c0.648,0.347,1.334,0.633,2.05,0.851l1.557,4.377c0.571,0.064,1.148,0.104,1.737,0.104c0.588,0,1.165-0.04,1.736-0.104l1.558-4.377c0.715-0.218,1.399-0.504,2.049-0.851l4.193,1.993c0.909-0.725,1.733-1.549,2.458-2.458l-1.993-4.193c0.347-0.647,0.633-1.334,0.851-2.049L31.229,17.736zM16,20.871c-2.69,0-4.872-2.182-4.872-4.871c0-2.69,2.182-4.872,4.872-4.872c2.689,0,4.871,2.182,4.871,4.872C20.871,18.689,18.689,20.871,16,20.871z"></path><title>Link options.</title></g></g></g></g><!--z-index:24--><g   id="j_101" ><path  stroke="#444444" d="M 1195 1064 L 1195 1364" id="v-1432" stroke-width="2" stroke-dasharray="30 30" fill="none" style="opacity: 1;"></path><path  fill="black" stroke="black" d="M 0 0 0 0" transform="matrix(6.123233995736766e-17,1,-1,6.123233995736766e-17,1195,1064)"></path><path  fill="#444444" stroke="#444444" d="M 20 0 L 0 10 L 20 20 z" id="v-1434" transform="matrix(-1.8369701987210297e-16,-1,1,-1.8369701987210297e-16,1185,1364)" style="opacity: 1;"></path><path  d="M 1195 1064 L 1195 1364" id="v-1433" fill="none" style="cursor: auto; pointer-events: visiblepainted;"></path><g ><g id="v-1426"  label-idx="0" cursor="move" transform="matrix(1,0,0,1,1195,1214)" style="cursor: default; opacity: 1;"><rect joint-selector="rect" id="v-1429" fill="#ffffff" rx="3" ry="3" pointer-events="none" width="187.50582885742188" height="31.60326099395752" transform="matrix(1,0,0,1,-92.6,-15.8)"></rect><text joint-selector="text" id="v-1428" font-size="24px" xml:space="preserve" y="0.8em" fill="#444444" text-anchor="middle" pointer-events="none" font-family="Open Sans" font-weight="normal" transform="matrix(1,0,0,1,0,-9.1)"><tspan dy="0" >Construye query</tspan></text></g><g id="v-1427"  label-idx="1" cursor="move" transform="matrix(1,0,0,1,1185,1226)" style="cursor: default; opacity: 1;"><rect joint-selector="rect" id="v-1431" fill="#ffffff" rx="3" ry="3"  width="0" height="0" transform="matrix(1,0,0,1,0,0)" display="none"></rect><text joint-selector="text" id="v-1430" fill="#000000" font-size="14" text-anchor="middle" pointer-events="none"></text></g></g><g  display="none" style="display: none;"></g><g  id="v-1436" display="none"><g  id="v-1424"><path  end="source" d="M 26 0 L 0 13 L 26 26 z"></path></g><g  id="v-1425"><path  end="target" d="M 26 0 L 0 13 L 26 26 z"></path></g></g><g  id="v-1435" display="none"><g  id="v-1423" transform="translate(1195, 1104) "><g  event="remove"><circle r="11"></circle><path transform="scale(.8) translate(-16, -16)" d="M24.778,21.419 19.276,15.917 24.777,10.415 21.949,7.585 16.447,13.087 10.945,7.585 8.117,10.415 13.618,15.917 8.116,21.419 10.946,24.248 16.447,18.746 21.948,24.248z"></path><title>Remove link.</title></g><g  event="link:options"><circle r="11" transform="translate(25)"></circle><path fill="white" transform="scale(.55) translate(29, -16)" d="M31.229,17.736c0.064-0.571,0.104-1.148,0.104-1.736s-0.04-1.166-0.104-1.737l-4.377-1.557c-0.218-0.716-0.504-1.401-0.851-2.05l1.993-4.192c-0.725-0.91-1.549-1.734-2.458-2.459l-4.193,1.994c-0.647-0.347-1.334-0.632-2.049-0.849l-1.558-4.378C17.165,0.708,16.588,0.667,16,0.667s-1.166,0.041-1.737,0.105L12.707,5.15c-0.716,0.217-1.401,0.502-2.05,0.849L6.464,4.005C5.554,4.73,4.73,5.554,4.005,6.464l1.994,4.192c-0.347,0.648-0.632,1.334-0.849,2.05l-4.378,1.557C0.708,14.834,0.667,15.412,0.667,16s0.041,1.165,0.105,1.736l4.378,1.558c0.217,0.715,0.502,1.401,0.849,2.049l-1.994,4.193c0.725,0.909,1.549,1.733,2.459,2.458l4.192-1.993c0.648,0.347,1.334,0.633,2.05,0.851l1.557,4.377c0.571,0.064,1.148,0.104,1.737,0.104c0.588,0,1.165-0.04,1.736-0.104l1.558-4.377c0.715-0.218,1.399-0.504,2.049-0.851l4.193,1.993c0.909-0.725,1.733-1.549,2.458-2.458l-1.993-4.193c0.347-0.647,0.633-1.334,0.851-2.049L31.229,17.736zM16,20.871c-2.69,0-4.872-2.182-4.872-4.871c0-2.69,2.182-4.872,4.872-4.872c2.689,0,4.871,2.182,4.871,4.872C20.871,18.689,18.689,20.871,16,20.871z"></path><title>Link options.</title></g></g></g></g><!--z-index:25--><g   id="j_102" ><path  stroke="#444444" d="M 1008 1064 L 633 1364" id="v-1449" stroke-width="2" stroke-dasharray="30 30" fill="none" style="opacity: 1;"></path><path  fill="black" stroke="black" d="M 0 0 0 0" transform="matrix(-0.7808688416748546,0.6246950072646418,-0.6246950072646418,-0.7808688416748546,1007.5,1064)"></path><path  fill="#444444" stroke="#444444" d="M 20 0 L 0 10 L 20 20 z" id="v-1451" transform="matrix(0.7808686753084834,-0.624695215222571,0.624695215222571,0.7808686753084834,626.253076915002,1356.1913171569533)" style="opacity: 1;"></path><path  d="M 1008 1064 L 633 1364" id="v-1450" fill="none" style="cursor: auto; pointer-events: visiblepainted;"></path><g ><g id="v-1443"  label-idx="0" cursor="move" transform="matrix(1,0,0,1,820.5,1214)" style="cursor: default; opacity: 1;"><rect joint-selector="rect" id="v-1446" fill="#ffffff" rx="3" ry="3" pointer-events="none" width="199.89891052246094" height="31.60326099395752" transform="matrix(1,0,0,1,-99.4,-15.8)"></rect><text joint-selector="text" id="v-1445" font-size="24px" xml:space="preserve" y="0.8em" fill="#444444" text-anchor="middle" pointer-events="none" font-family="Open Sans" font-weight="normal" transform="matrix(1,0,0,1,0,-9.1)"><tspan dy="0" >Ejecuta búsqueda</tspan></text></g><g id="v-1444"  label-idx="1" cursor="move" transform="matrix(1,0,0,1,810.5,1226)" style="cursor: default; opacity: 1;"><rect joint-selector="rect" id="v-1448" fill="#ffffff" rx="3" ry="3"  width="0" height="0" transform="matrix(1,0,0,1,0,0)" display="none"></rect><text joint-selector="text" id="v-1447" fill="#000000" font-size="14" text-anchor="middle" pointer-events="none"></text></g></g><g  display="none" style="display: none;"></g><g  id="v-1453" display="none"><g  id="v-1441"><path  end="source" d="M 26 0 L 0 13 L 26 26 z"></path></g><g  id="v-1442"><path  end="target" d="M 26 0 L 0 13 L 26 26 z"></path></g></g><g  id="v-1452" display="none"><g  id="v-1440" transform="translate(976.7652476222788, 1088.9878019021771) "><g  event="remove"><circle r="11"></circle><path transform="scale(.8) translate(-16, -16)" d="M24.778,21.419 19.276,15.917 24.777,10.415 21.949,7.585 16.447,13.087 10.945,7.585 8.117,10.415 13.618,15.917 8.116,21.419 10.946,24.248 16.447,18.746 21.948,24.248z"></path><title>Remove link.</title></g><g  event="link:options"><circle r="11" transform="translate(25)"></circle><path fill="white" transform="scale(.55) translate(29, -16)" d="M31.229,17.736c0.064-0.571,0.104-1.148,0.104-1.736s-0.04-1.166-0.104-1.737l-4.377-1.557c-0.218-0.716-0.504-1.401-0.851-2.05l1.993-4.192c-0.725-0.91-1.549-1.734-2.458-2.459l-4.193,1.994c-0.647-0.347-1.334-0.632-2.049-0.849l-1.558-4.378C17.165,0.708,16.588,0.667,16,0.667s-1.166,0.041-1.737,0.105L12.707,5.15c-0.716,0.217-1.401,0.502-2.05,0.849L6.464,4.005C5.554,4.73,4.73,5.554,4.005,6.464l1.994,4.192c-0.347,0.648-0.632,1.334-0.849,2.05l-4.378,1.557C0.708,14.834,0.667,15.412,0.667,16s0.041,1.165,0.105,1.736l4.378,1.558c0.217,0.715,0.502,1.401,0.849,2.049l-1.994,4.193c0.725,0.909,1.549,1.733,2.459,2.458l4.192-1.993c0.648,0.347,1.334,0.633,2.05,0.851l1.557,4.377c0.571,0.064,1.148,0.104,1.737,0.104c0.588,0,1.165-0.04,1.736-0.104l1.558-4.377c0.715-0.218,1.399-0.504,2.049-0.851l4.193,1.993c0.909-0.725,1.733-1.549,2.458-2.458l-1.993-4.193c0.347-0.647,0.633-1.334,0.851-2.049L31.229,17.736zM16,20.871c-2.69,0-4.872-2.182-4.872-4.871c0-2.69,2.182-4.872,4.872-4.872c2.689,0,4.871,2.182,4.871,4.872C20.871,18.689,18.689,20.871,16,20.871z"></path><title>Link options.</title></g></g></g></g><!--z-index:26--><g   id="j_103" ><path  stroke="#444444" d="M 445 1064 L 445 1364" id="v-1463" stroke-width="2" stroke-dasharray="30 30" fill="none" style="opacity: 1;"></path><path  fill="black" stroke="black" d="M 0 0 0 0" transform="matrix(6.123233995736766e-17,1,-1,6.123233995736766e-17,445,1064)"></path><path  fill="#444444" stroke="#444444" d="M 20 0 L 0 10 L 20 20 z" id="v-1465" transform="matrix(-1.8369701987210297e-16,-1,1,-1.8369701987210297e-16,435.00000000000006,1364)" style="opacity: 1;"></path><path  d="M 445 1064 L 445 1364" id="v-1464" fill="none" style="cursor: auto; pointer-events: visiblepainted;"></path><g ><g id="v-1457"  label-idx="0" cursor="move" transform="matrix(1,0,0,1,445,1214)" style="cursor: default; opacity: 1;"><rect joint-selector="rect" id="v-1460" fill="#ffffff" rx="3" ry="3" pointer-events="none" width="130.24903869628906" height="31.60326099395752" transform="matrix(1,0,0,1,-64.6,-15.8)"></rect><text joint-selector="text" id="v-1459" font-size="24px" xml:space="preserve" y="0.8em" fill="#444444" text-anchor="middle" pointer-events="none" font-family="Open Sans" font-weight="normal" transform="matrix(1,0,0,1,0,-9.1)"><tspan dy="0" >Indexa idea</tspan></text></g><g id="v-1458"  label-idx="1" cursor="move" transform="matrix(1,0,0,1,435,1226)" style="cursor: default; opacity: 1;"><rect joint-selector="rect" id="v-1462" fill="#ffffff" rx="3" ry="3"  width="0" height="0" transform="matrix(1,0,0,1,0,0)" display="none"></rect><text joint-selector="text" id="v-1461" fill="#000000" font-size="14" text-anchor="middle" pointer-events="none"></text></g></g><g  display="none" style="display: none;"></g><g  id="v-1467" display="none"><g  id="v-1455"><path  end="source" d="M 26 0 L 0 13 L 26 26 z"></path></g><g  id="v-1456"><path  end="target" d="M 26 0 L 0 13 L 26 26 z"></path></g></g><g  id="v-1466" display="none"><g  id="v-1454" transform="translate(445, 1104) "><g  event="remove"><circle r="11"></circle><path transform="scale(.8) translate(-16, -16)" d="M24.778,21.419 19.276,15.917 24.777,10.415 21.949,7.585 16.447,13.087 10.945,7.585 8.117,10.415 13.618,15.917 8.116,21.419 10.946,24.248 16.447,18.746 21.948,24.248z"></path><title>Remove link.</title></g><g  event="link:options"><circle r="11" transform="translate(25)"></circle><path fill="white" transform="scale(.55) translate(29, -16)" d="M31.229,17.736c0.064-0.571,0.104-1.148,0.104-1.736s-0.04-1.166-0.104-1.737l-4.377-1.557c-0.218-0.716-0.504-1.401-0.851-2.05l1.993-4.192c-0.725-0.91-1.549-1.734-2.458-2.459l-4.193,1.994c-0.647-0.347-1.334-0.632-2.049-0.849l-1.558-4.378C17.165,0.708,16.588,0.667,16,0.667s-1.166,0.041-1.737,0.105L12.707,5.15c-0.716,0.217-1.401,0.502-2.05,0.849L6.464,4.005C5.554,4.73,4.73,5.554,4.005,6.464l1.994,4.192c-0.347,0.648-0.632,1.334-0.849,2.05l-4.378,1.557C0.708,14.834,0.667,15.412,0.667,16s0.041,1.165,0.105,1.736l4.378,1.558c0.217,0.715,0.502,1.401,0.849,2.049l-1.994,4.193c0.725,0.909,1.549,1.733,2.459,2.458l4.192-1.993c0.648,0.347,1.334,0.633,2.05,0.851l1.557,4.377c0.571,0.064,1.148,0.104,1.737,0.104c0.588,0,1.165-0.04,1.736-0.104l1.558-4.377c0.715-0.218,1.399-0.504,2.049-0.851l4.193,1.993c0.909-0.725,1.733-1.549,2.458-2.458l-1.993-4.193c0.347-0.647,0.633-1.334,0.851-2.049L31.229,17.736zM16,20.871c-2.69,0-4.872-2.182-4.872-4.871c0-2.69,2.182-4.872,4.872-4.872c2.689,0,4.871,2.182,4.871,4.872C20.871,18.689,18.689,20.871,16,20.871z"></path><title>Link options.</title></g></g></g></g><!--z-index:27--><!--z-index:28--><!--z-index:29--><!--z-index:30--><!--z-index:31--><!--z-index:32--><!--z-index:33--><!--z-index:34--><!--z-index:35--><!--z-index:36--><!--z-index:37--><!--z-index:38--><!--z-index:39--><!--z-index:40--><!--z-index:41--><!--z-index:42--><!--z-index:43--><!--z-index:44--><!--z-index:45--><!--z-index:46--><!--z-index:47--><!--z-index:48--><!--z-index:49--><!--z-index:50--><!--z-index:51--><!--z-index:52--><!--z-index:53--><!--z-index:54--><!--z-index:55--><!--z-index:56--><!--z-index:57--><!--z-index:58--><!--z-index:59--><!--z-index:60--><!--z-index:61--><!--z-index:62--><!--z-index:63--><!--z-index:64--><!--z-index:65--><!--z-index:66--><!--z-index:67--><!--z-index:68--><!--z-index:69--><!--z-index:70--><!--z-index:71--><!--z-index:72--><!--z-index:73--><!--z-index:74--><!--z-index:75--><!--z-index:76--><!--z-index:77--><!--z-index:78--><!--z-index:79--><!--z-index:80--><!--z-index:81--><!--z-index:82--><!--z-index:83--><!--z-index:84--><!--z-index:85--><!--z-index:86--><!--z-index:87--><!--z-index:88--><!--z-index:89--><!--z-index:90--><!--z-index:91--></g><g ></g><g ></g><g ></g></g></svg>