<svg xmlns="http://www.w3.org/2000/svg" xmlns:xlink="http://www.w3.org/1999/xlink" version="1.1" viewBox="0 0 3140 2011" style="background: #ffffff"><defs><style>@import url(https://fonts.googleapis.com/css?family=Open+Sans:400,700);</style></defs><defs joint-selector="defs"></defs><g joint-selector="layers"  transform="matrix(1,0,0,1,0,0)"><g ></g><g ><!--z-index:0--><!--z-index:1--><!--z-index:2--><!--z-index:3--><!--z-index:4--><!--z-index:5--><!--z-index:6--><!--z-index:7--><!--z-index:8--><!--z-index:9--><!--z-index:10--><!--z-index:11--><!--z-index:12--><!--z-index:13--><!--z-index:14--><!--z-index:15--><!--z-index:16--><!--z-index:17--><!--z-index:18--><!--z-index:19--><g   id="j_106"  transform="translate(20,1969)"><g id="v-1472"><text  id="v-1473" font-size="22px" xml:space="preserve" y="0.8em" font-weight="normal" text-anchor="start" fill="#444444" pointer-events="none" display="block" font-family="Open Sans"><tspan dy="0" >domingo, 19 de octubre de 2025, 19:52 hora estándar de Perú</tspan></text></g></g><!--z-index:20--><g   id="j_105"  transform="translate(20,1937)"><g id="v-1470"><text  id="v-1471" font-size="22px" xml:space="preserve" y="0.8em" font-weight="normal" text-anchor="start" fill="#444444" pointer-events="none" display="block" font-family="Open Sans"><tspan dy="0" >Componentes del Microservicio de Colaboración (Módulo 2)</tspan></text></g></g><!--z-index:21--><g   id="j_104"  transform="translate(20,1891)"><g id="v-1468"><text  id="v-1469" font-size="36px" xml:space="preserve" y="0.8em" font-weight="normal" text-anchor="start" fill="#444444" pointer-events="none" display="block" font-family="Open Sans"><tspan dy="0" >[Component] NEXUS - Microservicio de Colaboración</tspan></text></g></g><!--z-index:22--><g   id="j_108"  transform="translate(200,144)" style=""><g id="v-1492"><rect  id="v-1493" width="2740" height="1611" rx="0" ry="0" stroke-width="2" stroke-dasharray="20,20" pointer-events="none" stroke="#3c7fc0" fill="#ffffff"></rect><text  id="v-1494" font-size="24px" xml:space="preserve" y="1572" font-weight="normal" text-anchor="start" pointer-events="visible" font-family="Open Sans" fill="#3c7fc0" transform="matrix(1,0,0,1,15,0)"><tspan dy="0" >Microservicio de Colaboración</tspan></text><text  id="v-1495" font-size="17px" xml:space="preserve" y="1596" font-weight="normal" text-anchor="start" pointer-events="visible" font-family="Open Sans" fill="#3c7fc0" transform="matrix(1,0,0,1,15,0)"><tspan dy="0" >[Container]</tspan></text><image  id="v-1496" pointer-events="visible"></image></g></g><!--z-index:23--><g   id="j_107"  transform="translate(2095,164)" style=""><g  id="v-1483" style="opacity: 1;"><rect  id="v-1484" rx="10" ry="10" stroke-width="2" pointer-events="visiblePainted" fill="#85bbf0" stroke="#78a8d8" x="37.5" width="412.5" height="300" style="fill: rgb(133, 187, 240); stroke: rgb(120, 168, 216);"></rect><rect  id="v-1485" rx="5" ry="5" stroke-width="2" pointer-events="visiblePainted" fill="#85bbf0" stroke="#78a8d8" x="0" y="22.5" width="75" height="37.5" style="fill: rgb(133, 187, 240); stroke: rgb(120, 168, 216);"></rect><rect  id="v-1486" rx="5" ry="5" stroke-width="2" pointer-events="visiblePainted" fill="#85bbf0" stroke="#78a8d8" x="0" y="75" width="75" height="37.5" style="fill: rgb(133, 187, 240); stroke: rgb(120, 168, 216);"></rect><text  id="v-1487" font-size="34" xml:space="preserve" y="72.2" font-weight="bold" text-anchor="middle" pointer-events="visible" font-family="Open Sans" fill="#000000" dominant-baseline="hanging" transform="matrix(1,0,0,1,243.8,0)" style="fill: rgb(0, 0, 0);"><tspan dy="0" >Chat Controller</tspan></text><text  id="v-1488" font-size="17" xml:space="preserve" y="114.2" text-anchor="middle" font-family="Open Sans" fill="#000000" dominant-baseline="hanging" transform="matrix(1,0,0,1,243.8,0)" style="display: block; fill: rgb(0, 0, 0);"><tspan dy="0" >[Component: Express Controller]</tspan></text><text  id="v-1489" font-size="24" xml:space="preserve" y="146.2" text-anchor="middle" font-family="Open Sans" fill="#000000" dominant-baseline="hanging" transform="matrix(1,0,0,1,243.8,0)" style="display: block; fill: rgb(0, 0, 0);"><tspan dy="0" >GET /conversations, POST</tspan><tspan dy="1.2em" x="0" >/messages, GET</tspan><tspan dy="1.2em" x="0" >/messages/:conversationId</tspan></text><g  id="v-1490" font-weight="normal" text-anchor="middle" color="#000000" transform="matrix(1,0,0,1,241.5,268)" display="none" style="fill: rgb(0, 0, 0);"><g ></g><g ></g><g ></g><g ></g></g><image  id="v-1491"></image></g></g><!--z-index:24--><g   id="j_109"  transform="translate(595,164)" style=""><g  id="v-1506" style="opacity: 1;"><rect  id="v-1507" rx="10" ry="10" stroke-width="2" pointer-events="visiblePainted" fill="#85bbf0" stroke="#78a8d8" x="37.5" width="412.5" height="300" style="fill: rgb(133, 187, 240); stroke: rgb(120, 168, 216);"></rect><rect  id="v-1508" rx="5" ry="5" stroke-width="2" pointer-events="visiblePainted" fill="#85bbf0" stroke="#78a8d8" x="0" y="22.5" width="75" height="37.5" style="fill: rgb(133, 187, 240); stroke: rgb(120, 168, 216);"></rect><rect  id="v-1509" rx="5" ry="5" stroke-width="2" pointer-events="visiblePainted" fill="#85bbf0" stroke="#78a8d8" x="0" y="75" width="75" height="37.5" style="fill: rgb(133, 187, 240); stroke: rgb(120, 168, 216);"></rect><text  id="v-1510" font-size="34" xml:space="preserve" y="51.80000000000001" font-weight="bold" text-anchor="middle" pointer-events="visible" font-family="Open Sans" fill="#000000" dominant-baseline="hanging" transform="matrix(1,0,0,1,243.8,0)" style="fill: rgb(0, 0, 0);"><tspan dy="0" >Collaboration</tspan><tspan dy="1.2em" x="0" >Controller</tspan></text><text  id="v-1511" font-size="17" xml:space="preserve" y="134.60000000000002" text-anchor="middle" font-family="Open Sans" fill="#000000" dominant-baseline="hanging" transform="matrix(1,0,0,1,243.8,0)" style="display: block; fill: rgb(0, 0, 0);"><tspan dy="0" >[Component: Express Controller]</tspan></text><text  id="v-1512" font-size="24" xml:space="preserve" y="166.60000000000002" text-anchor="middle" font-family="Open Sans" fill="#000000" dominant-baseline="hanging" transform="matrix(1,0,0,1,243.8,0)" style="display: block; fill: rgb(0, 0, 0);"><tspan dy="0" >POST /projects/:id/apply,</tspan><tspan dy="1.2em" x="0" >GET /collaborations, PUT</tspan><tspan dy="1.2em" x="0" >/collaborations/:id/status</tspan></text><g  id="v-1513" font-weight="normal" text-anchor="middle" color="#000000" transform="matrix(1,0,0,1,241.5,268)" display="none" style="fill: rgb(0, 0, 0);"><g ></g><g ></g><g ></g><g ></g></g><image  id="v-1514"></image></g></g><!--z-index:25--><g   id="j_110"  transform="translate(2095,764)" style=""><g  id="v-1521" style="opacity: 1;"><rect  id="v-1522" rx="10" ry="10" stroke-width="2" pointer-events="visiblePainted" fill="#85bbf0" stroke="#78a8d8" x="37.5" width="412.5" height="300" style="fill: rgb(133, 187, 240); stroke: rgb(120, 168, 216);"></rect><rect  id="v-1523" rx="5" ry="5" stroke-width="2" pointer-events="visiblePainted" fill="#85bbf0" stroke="#78a8d8" x="0" y="22.5" width="75" height="37.5" style="fill: rgb(133, 187, 240); stroke: rgb(120, 168, 216);"></rect><rect  id="v-1524" rx="5" ry="5" stroke-width="2" pointer-events="visiblePainted" fill="#85bbf0" stroke="#78a8d8" x="0" y="75" width="75" height="37.5" style="fill: rgb(133, 187, 240); stroke: rgb(120, 168, 216);"></rect><text  id="v-1525" font-size="34" xml:space="preserve" y="86.6" font-weight="bold" text-anchor="middle" pointer-events="visible" font-family="Open Sans" fill="#000000" dominant-baseline="hanging" transform="matrix(1,0,0,1,243.8,0)" style="fill: rgb(0, 0, 0);"><tspan dy="0" >Chat Service</tspan></text><text  id="v-1526" font-size="17" xml:space="preserve" y="128.6" text-anchor="middle" font-family="Open Sans" fill="#000000" dominant-baseline="hanging" transform="matrix(1,0,0,1,243.8,0)" style="display: block; fill: rgb(0, 0, 0);"><tspan dy="0" >[Component: Business Logic]</tspan></text><text  id="v-1527" font-size="24" xml:space="preserve" y="160.6" text-anchor="middle" font-family="Open Sans" fill="#000000" dominant-baseline="hanging" transform="matrix(1,0,0,1,243.8,0)" style="display: block; fill: rgb(0, 0, 0);"><tspan dy="0" >Gestiona conversaciones,</tspan><tspan dy="1.2em" x="0" >historial, persistencia</tspan></text><g  id="v-1528" font-weight="normal" text-anchor="middle" color="#000000" transform="matrix(1,0,0,1,241.5,268)" display="none" style="fill: rgb(0, 0, 0);"><g ></g><g ></g><g ></g><g ></g></g><image  id="v-1529"></image></g></g><!--z-index:26--><g   id="j_111"  transform="translate(595,764)" style=""><g  id="v-1539" style="opacity: 1;"><rect  id="v-1540" rx="10" ry="10" stroke-width="2" pointer-events="visiblePainted" fill="#85bbf0" stroke="#78a8d8" x="37.5" width="412.5" height="300" style="fill: rgb(133, 187, 240); stroke: rgb(120, 168, 216);"></rect><rect  id="v-1541" rx="5" ry="5" stroke-width="2" pointer-events="visiblePainted" fill="#85bbf0" stroke="#78a8d8" x="0" y="22.5" width="75" height="37.5" style="fill: rgb(133, 187, 240); stroke: rgb(120, 168, 216);"></rect><rect  id="v-1542" rx="5" ry="5" stroke-width="2" pointer-events="visiblePainted" fill="#85bbf0" stroke="#78a8d8" x="0" y="75" width="75" height="37.5" style="fill: rgb(133, 187, 240); stroke: rgb(120, 168, 216);"></rect><text  id="v-1543" font-size="34" xml:space="preserve" y="51.80000000000001" font-weight="bold" text-anchor="middle" pointer-events="visible" font-family="Open Sans" fill="#000000" dominant-baseline="hanging" transform="matrix(1,0,0,1,243.8,0)" style="fill: rgb(0, 0, 0);"><tspan dy="0" >Collaboration</tspan><tspan dy="1.2em" x="0" >Service</tspan></text><text  id="v-1544" font-size="17" xml:space="preserve" y="134.60000000000002" text-anchor="middle" font-family="Open Sans" fill="#000000" dominant-baseline="hanging" transform="matrix(1,0,0,1,243.8,0)" style="display: block; fill: rgb(0, 0, 0);"><tspan dy="0" >[Component: Business Logic]</tspan></text><text  id="v-1545" font-size="24" xml:space="preserve" y="166.60000000000002" text-anchor="middle" font-family="Open Sans" fill="#000000" dominant-baseline="hanging" transform="matrix(1,0,0,1,243.8,0)" style="display: block; fill: rgb(0, 0, 0);"><tspan dy="0" >Gestiona postulaciones,</tspan><tspan dy="1.2em" x="0" >aceptación/rechazo de</tspan><tspan dy="1.2em" x="0" >colaboradores</tspan></text><g  id="v-1546" font-weight="normal" text-anchor="middle" color="#000000" transform="matrix(1,0,0,1,241.5,268)" display="none" style="fill: rgb(0, 0, 0);"><g ></g><g ></g><g ></g><g ></g></g><image  id="v-1547"></image></g></g><!--z-index:27--><g   id="j_112"  transform="translate(1720,1364)" style=""><g  id="v-1554" style="opacity: 1;"><rect  id="v-1555" rx="10" ry="10" stroke-width="2" pointer-events="visiblePainted" fill="#85bbf0" stroke="#78a8d8" x="37.5" width="412.5" height="300" style="fill: rgb(133, 187, 240); stroke: rgb(120, 168, 216);"></rect><rect  id="v-1556" rx="5" ry="5" stroke-width="2" pointer-events="visiblePainted" fill="#85bbf0" stroke="#78a8d8" x="0" y="22.5" width="75" height="37.5" style="fill: rgb(133, 187, 240); stroke: rgb(120, 168, 216);"></rect><rect  id="v-1557" rx="5" ry="5" stroke-width="2" pointer-events="visiblePainted" fill="#85bbf0" stroke="#78a8d8" x="0" y="75" width="75" height="37.5" style="fill: rgb(133, 187, 240); stroke: rgb(120, 168, 216);"></rect><text  id="v-1558" font-size="34" xml:space="preserve" y="86.6" font-weight="bold" text-anchor="middle" pointer-events="visible" font-family="Open Sans" fill="#000000" dominant-baseline="hanging" transform="matrix(1,0,0,1,243.8,0)" style="fill: rgb(0, 0, 0);"><tspan dy="0" >Chat Repository</tspan></text><text  id="v-1559" font-size="17" xml:space="preserve" y="128.6" text-anchor="middle" font-family="Open Sans" fill="#000000" dominant-baseline="hanging" transform="matrix(1,0,0,1,243.8,0)" style="display: block; fill: rgb(0, 0, 0);"><tspan dy="0" >[Component: Data Access]</tspan></text><text  id="v-1560" font-size="24" xml:space="preserve" y="160.6" text-anchor="middle" font-family="Open Sans" fill="#000000" dominant-baseline="hanging" transform="matrix(1,0,0,1,243.8,0)" style="display: block; fill: rgb(0, 0, 0);"><tspan dy="0" >Acceso a PostgreSQL:</tspan><tspan dy="1.2em" x="0" >messages, conversations</tspan></text><g  id="v-1561" font-weight="normal" text-anchor="middle" color="#000000" transform="matrix(1,0,0,1,241.5,268)" display="none" style="fill: rgb(0, 0, 0);"><g ></g><g ></g><g ></g><g ></g></g><image  id="v-1562"></image></g></g><!--z-index:28--><g   id="j_113"  transform="translate(220,1364)" style=""><g  id="v-1569" style="opacity: 1;"><rect  id="v-1570" rx="10" ry="10" stroke-width="2" pointer-events="visiblePainted" fill="#85bbf0" stroke="#78a8d8" x="37.5" width="412.5" height="300" style="fill: rgb(133, 187, 240); stroke: rgb(120, 168, 216);"></rect><rect  id="v-1571" rx="5" ry="5" stroke-width="2" pointer-events="visiblePainted" fill="#85bbf0" stroke="#78a8d8" x="0" y="22.5" width="75" height="37.5" style="fill: rgb(133, 187, 240); stroke: rgb(120, 168, 216);"></rect><rect  id="v-1572" rx="5" ry="5" stroke-width="2" pointer-events="visiblePainted" fill="#85bbf0" stroke="#78a8d8" x="0" y="75" width="75" height="37.5" style="fill: rgb(133, 187, 240); stroke: rgb(120, 168, 216);"></rect><text  id="v-1573" font-size="34" xml:space="preserve" y="66.2" font-weight="bold" text-anchor="middle" pointer-events="visible" font-family="Open Sans" fill="#000000" dominant-baseline="hanging" transform="matrix(1,0,0,1,243.8,0)" style="fill: rgb(0, 0, 0);"><tspan dy="0" >Collaboration</tspan><tspan dy="1.2em" x="0" >Repository</tspan></text><text  id="v-1574" font-size="17" xml:space="preserve" y="149" text-anchor="middle" font-family="Open Sans" fill="#000000" dominant-baseline="hanging" transform="matrix(1,0,0,1,243.8,0)" style="display: block; fill: rgb(0, 0, 0);"><tspan dy="0" >[Component: Data Access]</tspan></text><text  id="v-1575" font-size="24" xml:space="preserve" y="181" text-anchor="middle" font-family="Open Sans" fill="#000000" dominant-baseline="hanging" transform="matrix(1,0,0,1,243.8,0)" style="display: block; fill: rgb(0, 0, 0);"><tspan dy="0" >Acceso a MongoDB:</tspan><tspan dy="1.2em" x="0" >collaborators, applications</tspan></text><g  id="v-1576" font-weight="normal" text-anchor="middle" color="#000000" transform="matrix(1,0,0,1,241.5,268)" display="none" style="fill: rgb(0, 0, 0);"><g ></g><g ></g><g ></g><g ></g></g><image  id="v-1577"></image></g></g><!--z-index:29--><g   id="j_114"  transform="translate(2470,1364)" style=""><g  id="v-1587" style="opacity: 1;"><rect  id="v-1588" rx="10" ry="10" stroke-width="2" pointer-events="visiblePainted" fill="#85bbf0" stroke="#78a8d8" x="37.5" width="412.5" height="300" style="fill: rgb(133, 187, 240); stroke: rgb(120, 168, 216);"></rect><rect  id="v-1589" rx="5" ry="5" stroke-width="2" pointer-events="visiblePainted" fill="#85bbf0" stroke="#78a8d8" x="0" y="22.5" width="75" height="37.5" style="fill: rgb(133, 187, 240); stroke: rgb(120, 168, 216);"></rect><rect  id="v-1590" rx="5" ry="5" stroke-width="2" pointer-events="visiblePainted" fill="#85bbf0" stroke="#78a8d8" x="0" y="75" width="75" height="37.5" style="fill: rgb(133, 187, 240); stroke: rgb(120, 168, 216);"></rect><text  id="v-1591" font-size="34" xml:space="preserve" y="72.2" font-weight="bold" text-anchor="middle" pointer-events="visible" font-family="Open Sans" fill="#000000" dominant-baseline="hanging" transform="matrix(1,0,0,1,243.8,0)" style="fill: rgb(0, 0, 0);"><tspan dy="0" >Socket Manager</tspan></text><text  id="v-1592" font-size="17" xml:space="preserve" y="114.2" text-anchor="middle" font-family="Open Sans" fill="#000000" dominant-baseline="hanging" transform="matrix(1,0,0,1,243.8,0)" style="display: block; fill: rgb(0, 0, 0);"><tspan dy="0" >[Component: Socket.io Server]</tspan></text><text  id="v-1593" font-size="24" xml:space="preserve" y="146.2" text-anchor="middle" font-family="Open Sans" fill="#000000" dominant-baseline="hanging" transform="matrix(1,0,0,1,243.8,0)" style="display: block; fill: rgb(0, 0, 0);"><tspan dy="0" >Mantiene conexiones</tspan><tspan dy="1.2em" x="0" >WebSocket activas, rooms,</tspan><tspan dy="1.2em" x="0" >eventos</tspan></text><g  id="v-1594" font-weight="normal" text-anchor="middle" color="#000000" transform="matrix(1,0,0,1,241.5,268)" display="none" style="fill: rgb(0, 0, 0);"><g ></g><g ></g><g ></g><g ></g></g><image  id="v-1595"></image></g></g><!--z-index:30--><g   id="j_115"  transform="translate(970,1364)" style=""><g  id="v-1605" style="opacity: 1;"><rect  id="v-1606" rx="10" ry="10" stroke-width="2" pointer-events="visiblePainted" fill="#85bbf0" stroke="#78a8d8" x="37.5" width="412.5" height="300" style="fill: rgb(133, 187, 240); stroke: rgb(120, 168, 216);"></rect><rect  id="v-1607" rx="5" ry="5" stroke-width="2" pointer-events="visiblePainted" fill="#85bbf0" stroke="#78a8d8" x="0" y="22.5" width="75" height="37.5" style="fill: rgb(133, 187, 240); stroke: rgb(120, 168, 216);"></rect><rect  id="v-1608" rx="5" ry="5" stroke-width="2" pointer-events="visiblePainted" fill="#85bbf0" stroke="#78a8d8" x="0" y="75" width="75" height="37.5" style="fill: rgb(133, 187, 240); stroke: rgb(120, 168, 216);"></rect><text  id="v-1609" font-size="34" xml:space="preserve" y="86.6" font-weight="bold" text-anchor="middle" pointer-events="visible" font-family="Open Sans" fill="#000000" dominant-baseline="hanging" transform="matrix(1,0,0,1,243.8,0)" style="fill: rgb(0, 0, 0);"><tspan dy="0" >Notification Service</tspan></text><text  id="v-1610" font-size="17" xml:space="preserve" y="128.6" text-anchor="middle" font-family="Open Sans" fill="#000000" dominant-baseline="hanging" transform="matrix(1,0,0,1,243.8,0)" style="display: block; fill: rgb(0, 0, 0);"><tspan dy="0" >[Component: Notification Service]</tspan></text><text  id="v-1611" font-size="24" xml:space="preserve" y="160.6" text-anchor="middle" font-family="Open Sans" fill="#000000" dominant-baseline="hanging" transform="matrix(1,0,0,1,243.8,0)" style="display: block; fill: rgb(0, 0, 0);"><tspan dy="0" >Envía notificaciones push y</tspan><tspan dy="1.2em" x="0" >en tiempo real</tspan></text><g  id="v-1612" font-weight="normal" text-anchor="middle" color="#000000" transform="matrix(1,0,0,1,241.5,268)" display="none" style="fill: rgb(0, 0, 0);"><g ></g><g ></g><g ></g><g ></g></g><image  id="v-1613"></image></g></g><!--z-index:31--><g   id="j_116" ><path  stroke="#444444" d="M 2226 1064 L 2039 1364" id="v-1626" stroke-width="2" stroke-dasharray="30 30" fill="none" style="opacity: 1;"></path><path  fill="black" stroke="black" d="M 0 0 0 0" transform="matrix(-0.5299989865422612,0.8479982749181605,-0.8479982749181605,-0.5299989865422612,2226.25,1064)"></path><path  fill="#444444" stroke="#444444" d="M 20 0 L 0 10 L 20 20 z" id="v-1628" transform="matrix(0.5299987607066415,-0.8479984160653982,0.8479984160653982,0.5299987607066415,2030.2700770604047,1358.7000160848374)" style="opacity: 1;"></path><path  d="M 2226 1064 L 2039 1364" id="v-1627" fill="none" style="cursor: auto; pointer-events: visiblepainted;"></path><g ><g id="v-1620"  label-idx="0" cursor="move" transform="matrix(1,0,0,1,2132.5,1214)" style="cursor: default; opacity: 1;"><rect joint-selector="rect" id="v-1623" fill="#ffffff" rx="3" ry="3" pointer-events="none" width="177.21798706054688" height="31.60326099395752" transform="matrix(1,0,0,1,-88.6,-15.8)"></rect><text joint-selector="text" id="v-1622" font-size="24px" xml:space="preserve" y="0.8em" fill="#444444" text-anchor="middle" pointer-events="none" font-family="Open Sans" font-weight="normal" transform="matrix(1,0,0,1,0,-9.1)"><tspan dy="0" >CRUD mensajes</tspan></text></g><g id="v-1621"  label-idx="1" cursor="move" transform="matrix(1,0,0,1,2122.5,1226)" style="cursor: default; opacity: 1;"><rect joint-selector="rect" id="v-1625" fill="#ffffff" rx="3" ry="3"  width="0" height="0" transform="matrix(1,0,0,1,0,0)" display="none"></rect><text joint-selector="text" id="v-1624" fill="#000000" font-size="14" text-anchor="middle" pointer-events="none"></text></g></g><g  display="none" style="display: none;"></g><g  id="v-1630" display="none"><g  id="v-1618"><path  end="source" d="M 26 0 L 0 13 L 26 26 z"></path></g><g  id="v-1619"><path  end="target" d="M 26 0 L 0 13 L 26 26 z"></path></g></g><g  id="v-1629" display="none"><g  id="v-1617" transform="translate(2204.8407411961143, 1097.9453349794958) "><g  event="remove"><circle r="11"></circle><path transform="scale(.8) translate(-16, -16)" d="M24.778,21.419 19.276,15.917 24.777,10.415 21.949,7.585 16.447,13.087 10.945,7.585 8.117,10.415 13.618,15.917 8.116,21.419 10.946,24.248 16.447,18.746 21.948,24.248z"></path><title>Remove link.</title></g><g  event="link:options"><circle r="11" transform="translate(25)"></circle><path fill="white" transform="scale(.55) translate(29, -16)" d="M31.229,17.736c0.064-0.571,0.104-1.148,0.104-1.736s-0.04-1.166-0.104-1.737l-4.377-1.557c-0.218-0.716-0.504-1.401-0.851-2.05l1.993-4.192c-0.725-0.91-1.549-1.734-2.458-2.459l-4.193,1.994c-0.647-0.347-1.334-0.632-2.049-0.849l-1.558-4.378C17.165,0.708,16.588,0.667,16,0.667s-1.166,0.041-1.737,0.105L12.707,5.15c-0.716,0.217-1.401,0.502-2.05,0.849L6.464,4.005C5.554,4.73,4.73,5.554,4.005,6.464l1.994,4.192c-0.347,0.648-0.632,1.334-0.849,2.05l-4.378,1.557C0.708,14.834,0.667,15.412,0.667,16s0.041,1.165,0.105,1.736l4.378,1.558c0.217,0.715,0.502,1.401,0.849,2.049l-1.994,4.193c0.725,0.909,1.549,1.733,2.459,2.458l4.192-1.993c0.648,0.347,1.334,0.633,2.05,0.851l1.557,4.377c0.571,0.064,1.148,0.104,1.737,0.104c0.588,0,1.165-0.04,1.736-0.104l1.558-4.377c0.715-0.218,1.399-0.504,2.049-0.851l4.193,1.993c0.909-0.725,1.733-1.549,2.458-2.458l-1.993-4.193c0.347-0.647,0.633-1.334,0.851-2.049L31.229,17.736zM16,20.871c-2.69,0-4.872-2.182-4.872-4.871c0-2.69,2.182-4.872,4.872-4.872c2.689,0,4.871,2.182,4.871,4.872C20.871,18.689,18.689,20.871,16,20.871z"></path><title>Link options.</title></g></g></g></g><!--z-index:32--><g   id="j_117" ><path  stroke="#444444" d="M 2414 1064 L 2601 1364" id="v-1643" stroke-width="2" stroke-dasharray="30 30" fill="none" style="opacity: 1;"></path><path  fill="black" stroke="black" d="M 0 0 0 0" transform="matrix(0.52999893008336,0.8479983102049754,-0.8479983102049754,0.52999893008336,2413.75,1064)"></path><path  fill="#444444" stroke="#444444" d="M 20 0 L 0 10 L 20 20 z" id="v-1645" transform="matrix(-0.5299989865422614,-0.8479982749181603,0.8479982749181603,-0.5299989865422614,2592.769958288116,1369.299992145854)" style="opacity: 1;"></path><path  d="M 2414 1064 L 2601 1364" id="v-1644" fill="none" style="cursor: auto; pointer-events: visiblepainted;"></path><g ><g id="v-1637"  label-idx="0" cursor="move" transform="matrix(1,0,0,1,2507.5,1214)" style="cursor: default; opacity: 1;"><rect joint-selector="rect" id="v-1640" fill="#ffffff" rx="3" ry="3" pointer-events="none" width="183.69395446777344" height="60.40326499938965" transform="matrix(1,0,0,1,-91.8,-30.2)"></rect><text joint-selector="text" id="v-1639" font-size="24px" xml:space="preserve" y="0.8em" fill="#444444" text-anchor="middle" pointer-events="none" font-family="Open Sans" font-weight="normal" transform="matrix(1,0,0,1,0,-23.5)"><tspan dy="0" >Emite en tiempo</tspan><tspan dy="1.2em" x="0" >real</tspan></text></g><g id="v-1638"  label-idx="1" cursor="move" transform="matrix(1,0,0,1,2497.5,1240.4000244140625)" style="cursor: default; opacity: 1;"><rect joint-selector="rect" id="v-1642" fill="#ffffff" rx="3" ry="3"  width="0" height="0" transform="matrix(1,0,0,1,0,0)" display="none"></rect><text joint-selector="text" id="v-1641" fill="#000000" font-size="14" text-anchor="middle" pointer-events="none"></text></g></g><g  display="none" style="display: none;"></g><g  id="v-1647" display="none"><g  id="v-1635"><path  end="source" d="M 26 0 L 0 13 L 26 26 z"></path></g><g  id="v-1636"><path  end="target" d="M 26 0 L 0 13 L 26 26 z"></path></g></g><g  id="v-1646" display="none"><g  id="v-1634" transform="translate(2435.1592588038857, 1097.9453349794958) "><g  event="remove"><circle r="11"></circle><path transform="scale(.8) translate(-16, -16)" d="M24.778,21.419 19.276,15.917 24.777,10.415 21.949,7.585 16.447,13.087 10.945,7.585 8.117,10.415 13.618,15.917 8.116,21.419 10.946,24.248 16.447,18.746 21.948,24.248z"></path><title>Remove link.</title></g><g  event="link:options"><circle r="11" transform="translate(25)"></circle><path fill="white" transform="scale(.55) translate(29, -16)" d="M31.229,17.736c0.064-0.571,0.104-1.148,0.104-1.736s-0.04-1.166-0.104-1.737l-4.377-1.557c-0.218-0.716-0.504-1.401-0.851-2.05l1.993-4.192c-0.725-0.91-1.549-1.734-2.458-2.459l-4.193,1.994c-0.647-0.347-1.334-0.632-2.049-0.849l-1.558-4.378C17.165,0.708,16.588,0.667,16,0.667s-1.166,0.041-1.737,0.105L12.707,5.15c-0.716,0.217-1.401,0.502-2.05,0.849L6.464,4.005C5.554,4.73,4.73,5.554,4.005,6.464l1.994,4.192c-0.347,0.648-0.632,1.334-0.849,2.05l-4.378,1.557C0.708,14.834,0.667,15.412,0.667,16s0.041,1.165,0.105,1.736l4.378,1.558c0.217,0.715,0.502,1.401,0.849,2.049l-1.994,4.193c0.725,0.909,1.549,1.733,2.459,2.458l4.192-1.993c0.648,0.347,1.334,0.633,2.05,0.851l1.557,4.377c0.571,0.064,1.148,0.104,1.737,0.104c0.588,0,1.165-0.04,1.736-0.104l1.558-4.377c0.715-0.218,1.399-0.504,2.049-0.851l4.193,1.993c0.909-0.725,1.733-1.549,2.458-2.458l-1.993-4.193c0.347-0.647,0.633-1.334,0.851-2.049L31.229,17.736zM16,20.871c-2.69,0-4.872-2.182-4.872-4.871c0-2.69,2.182-4.872,4.872-4.872c2.689,0,4.871,2.182,4.871,4.872C20.871,18.689,18.689,20.871,16,20.871z"></path><title>Link options.</title></g></g></g></g><!--z-index:33--><g   id="j_118" ><path  stroke="#444444" d="M 726 1064 L 539 1364" id="v-1660" stroke-width="2" stroke-dasharray="30 30" fill="none" style="opacity: 1;"></path><path  fill="black" stroke="black" d="M 0 0 0 0" transform="matrix(-0.5299989865422612,0.8479982749181605,-0.8479982749181605,-0.5299989865422612,726.25,1064)"></path><path  fill="#444444" stroke="#444444" d="M 20 0 L 0 10 L 20 20 z" id="v-1662" transform="matrix(0.5299987607066415,-0.8479984160653982,0.8479984160653982,0.5299987607066415,530.2700160252485,1358.7000160848374)" style="opacity: 1;"></path><path  d="M 726 1064 L 539 1364" id="v-1661" fill="none" style="cursor: auto; pointer-events: visiblepainted;"></path><g ><g id="v-1654"  label-idx="0" cursor="move" transform="matrix(1,0,0,1,632.5,1214)" style="cursor: default; opacity: 1;"><rect joint-selector="rect" id="v-1657" fill="#ffffff" rx="3" ry="3" pointer-events="none" width="161.42779541015625" height="60.40326499938965" transform="matrix(1,0,0,1,-80.7,-30.2)"></rect><text joint-selector="text" id="v-1656" font-size="24px" xml:space="preserve" y="0.8em" fill="#444444" text-anchor="middle" pointer-events="none" font-family="Open Sans" font-weight="normal" transform="matrix(1,0,0,1,0,-23.5)"><tspan dy="0" >CRUD</tspan><tspan dy="1.2em" x="0" >colaboradores</tspan></text></g><g id="v-1655"  label-idx="1" cursor="move" transform="matrix(1,0,0,1,622.5,1240.4000244140625)" style="cursor: default; opacity: 1;"><rect joint-selector="rect" id="v-1659" fill="#ffffff" rx="3" ry="3"  width="0" height="0" transform="matrix(1,0,0,1,0,0)" display="none"></rect><text joint-selector="text" id="v-1658" fill="#000000" font-size="14" text-anchor="middle" pointer-events="none"></text></g></g><g  display="none" style="display: none;"></g><g  id="v-1664" display="none"><g  id="v-1652"><path  end="source" d="M 26 0 L 0 13 L 26 26 z"></path></g><g  id="v-1653"><path  end="target" d="M 26 0 L 0 13 L 26 26 z"></path></g></g><g  id="v-1663" display="none"><g  id="v-1651" transform="translate(704.8407411961142, 1097.9453349794958) "><g  event="remove"><circle r="11"></circle><path transform="scale(.8) translate(-16, -16)" d="M24.778,21.419 19.276,15.917 24.777,10.415 21.949,7.585 16.447,13.087 10.945,7.585 8.117,10.415 13.618,15.917 8.116,21.419 10.946,24.248 16.447,18.746 21.948,24.248z"></path><title>Remove link.</title></g><g  event="link:options"><circle r="11" transform="translate(25)"></circle><path fill="white" transform="scale(.55) translate(29, -16)" d="M31.229,17.736c0.064-0.571,0.104-1.148,0.104-1.736s-0.04-1.166-0.104-1.737l-4.377-1.557c-0.218-0.716-0.504-1.401-0.851-2.05l1.993-4.192c-0.725-0.91-1.549-1.734-2.458-2.459l-4.193,1.994c-0.647-0.347-1.334-0.632-2.049-0.849l-1.558-4.378C17.165,0.708,16.588,0.667,16,0.667s-1.166,0.041-1.737,0.105L12.707,5.15c-0.716,0.217-1.401,0.502-2.05,0.849L6.464,4.005C5.554,4.73,4.73,5.554,4.005,6.464l1.994,4.192c-0.347,0.648-0.632,1.334-0.849,2.05l-4.378,1.557C0.708,14.834,0.667,15.412,0.667,16s0.041,1.165,0.105,1.736l4.378,1.558c0.217,0.715,0.502,1.401,0.849,2.049l-1.994,4.193c0.725,0.909,1.549,1.733,2.459,2.458l4.192-1.993c0.648,0.347,1.334,0.633,2.05,0.851l1.557,4.377c0.571,0.064,1.148,0.104,1.737,0.104c0.588,0,1.165-0.04,1.736-0.104l1.558-4.377c0.715-0.218,1.399-0.504,2.049-0.851l4.193,1.993c0.909-0.725,1.733-1.549,2.458-2.458l-1.993-4.193c0.347-0.647,0.633-1.334,0.851-2.049L31.229,17.736zM16,20.871c-2.69,0-4.872-2.182-4.872-4.871c0-2.69,2.182-4.872,4.872-4.872c2.689,0,4.871,2.182,4.871,4.872C20.871,18.689,18.689,20.871,16,20.871z"></path><title>Link options.</title></g></g></g></g><!--z-index:34--><g   id="j_119" ><path  stroke="#444444" d="M 914 1064 L 1101 1364" id="v-1674" stroke-width="2" stroke-dasharray="30 30" fill="none" style="opacity: 1;"></path><path  fill="black" stroke="black" d="M 0 0 0 0" transform="matrix(0.52999893008336,0.8479983102049754,-0.8479983102049754,0.52999893008336,913.75,1064)"></path><path  fill="#444444" stroke="#444444" d="M 20 0 L 0 10 L 20 20 z" id="v-1676" transform="matrix(-0.5299989865422614,-0.8479982749181603,0.8479982749181603,-0.5299989865422614,1092.769958288116,1369.299992145854)" style="opacity: 1;"></path><path  d="M 914 1064 L 1101 1364" id="v-1675" fill="none" style="cursor: auto; pointer-events: visiblepainted;"></path><g ><g id="v-1668"  label-idx="0" cursor="move" transform="matrix(1,0,0,1,1007.5,1214)" style="cursor: default; opacity: 1;"><rect joint-selector="rect" id="v-1671" fill="#ffffff" rx="3" ry="3" pointer-events="none" width="87.08397674560547" height="31.60326099395752" transform="matrix(1,0,0,1,-43,-15.8)"></rect><text joint-selector="text" id="v-1670" font-size="24px" xml:space="preserve" y="0.8em" fill="#444444" text-anchor="middle" pointer-events="none" font-family="Open Sans" font-weight="normal" transform="matrix(1,0,0,1,0,-9.1)"><tspan dy="0" >Notifica</tspan></text></g><g id="v-1669"  label-idx="1" cursor="move" transform="matrix(1,0,0,1,997.5,1226)" style="cursor: default; opacity: 1;"><rect joint-selector="rect" id="v-1673" fill="#ffffff" rx="3" ry="3"  width="0" height="0" transform="matrix(1,0,0,1,0,0)" display="none"></rect><text joint-selector="text" id="v-1672" fill="#000000" font-size="14" text-anchor="middle" pointer-events="none"></text></g></g><g  display="none" style="display: none;"></g><g  id="v-1678" display="none"><g  id="v-1666"><path  end="source" d="M 26 0 L 0 13 L 26 26 z"></path></g><g  id="v-1667"><path  end="target" d="M 26 0 L 0 13 L 26 26 z"></path></g></g><g  id="v-1677" display="none"><g  id="v-1665" transform="translate(935.1592588038857, 1097.9453349794958) "><g  event="remove"><circle r="11"></circle><path transform="scale(.8) translate(-16, -16)" d="M24.778,21.419 19.276,15.917 24.777,10.415 21.949,7.585 16.447,13.087 10.945,7.585 8.117,10.415 13.618,15.917 8.116,21.419 10.946,24.248 16.447,18.746 21.948,24.248z"></path><title>Remove link.</title></g><g  event="link:options"><circle r="11" transform="translate(25)"></circle><path fill="white" transform="scale(.55) translate(29, -16)" d="M31.229,17.736c0.064-0.571,0.104-1.148,0.104-1.736s-0.04-1.166-0.104-1.737l-4.377-1.557c-0.218-0.716-0.504-1.401-0.851-2.05l1.993-4.192c-0.725-0.91-1.549-1.734-2.458-2.459l-4.193,1.994c-0.647-0.347-1.334-0.632-2.049-0.849l-1.558-4.378C17.165,0.708,16.588,0.667,16,0.667s-1.166,0.041-1.737,0.105L12.707,5.15c-0.716,0.217-1.401,0.502-2.05,0.849L6.464,4.005C5.554,4.73,4.73,5.554,4.005,6.464l1.994,4.192c-0.347,0.648-0.632,1.334-0.849,2.05l-4.378,1.557C0.708,14.834,0.667,15.412,0.667,16s0.041,1.165,0.105,1.736l4.378,1.558c0.217,0.715,0.502,1.401,0.849,2.049l-1.994,4.193c0.725,0.909,1.549,1.733,2.459,2.458l4.192-1.993c0.648,0.347,1.334,0.633,2.05,0.851l1.557,4.377c0.571,0.064,1.148,0.104,1.737,0.104c0.588,0,1.165-0.04,1.736-0.104l1.558-4.377c0.715-0.218,1.399-0.504,2.049-0.851l4.193,1.993c0.909-0.725,1.733-1.549,2.458-2.458l-1.993-4.193c0.347-0.647,0.633-1.334,0.851-2.049L31.229,17.736zM16,20.871c-2.69,0-4.872-2.182-4.872-4.871c0-2.69,2.182-4.872,4.872-4.872c2.689,0,4.871,2.182,4.871,4.872C20.871,18.689,18.689,20.871,16,20.871z"></path><title>Link options.</title></g></g></g></g><!--z-index:35--><g   id="j_120" ><path  stroke="#444444" d="M 2320 464 L 2320 764" id="v-1688" stroke-width="2" stroke-dasharray="30 30" fill="none" style="opacity: 1;"></path><path  fill="black" stroke="black" d="M 0 0 0 0" transform="matrix(6.123233995736766e-17,1,-1,6.123233995736766e-17,2320,464)"></path><path  fill="#444444" stroke="#444444" d="M 20 0 L 0 10 L 20 20 z" id="v-1690" transform="matrix(-1.8369701987210297e-16,-1,1,-1.8369701987210297e-16,2310,763.9999999999998)" style="opacity: 1;"></path><path  d="M 2320 464 L 2320 764" id="v-1689" fill="none" style="cursor: auto; pointer-events: visiblepainted;"></path><g ><g id="v-1682"  label-idx="0" cursor="move" transform="matrix(1,0,0,1,2320,614)" style="cursor: default; opacity: 1;"><rect joint-selector="rect" id="v-1685" fill="#ffffff" rx="3" ry="3" pointer-events="none" width="69.81790161132812" height="31.60326099395752" transform="matrix(1,0,0,1,-34.4,-15.8)"></rect><text joint-selector="text" id="v-1684" font-size="24px" xml:space="preserve" y="0.8em" fill="#444444" text-anchor="middle" pointer-events="none" font-family="Open Sans" font-weight="normal" transform="matrix(1,0,0,1,0,-9.1)"><tspan dy="0" >Utiliza</tspan></text></g><g id="v-1683"  label-idx="1" cursor="move" transform="matrix(1,0,0,1,2310,626)" style="cursor: default; opacity: 1;"><rect joint-selector="rect" id="v-1687" fill="#ffffff" rx="3" ry="3"  width="0" height="0" transform="matrix(1,0,0,1,0,0)" display="none"></rect><text joint-selector="text" id="v-1686" fill="#000000" font-size="14" text-anchor="middle" pointer-events="none"></text></g></g><g  display="none" style="display: none;"></g><g  id="v-1692" display="none"><g  id="v-1680"><path  end="source" d="M 26 0 L 0 13 L 26 26 z"></path></g><g  id="v-1681"><path  end="target" d="M 26 0 L 0 13 L 26 26 z"></path></g></g><g  id="v-1691" display="none"><g  id="v-1679" transform="translate(2320, 504) "><g  event="remove"><circle r="11"></circle><path transform="scale(.8) translate(-16, -16)" d="M24.778,21.419 19.276,15.917 24.777,10.415 21.949,7.585 16.447,13.087 10.945,7.585 8.117,10.415 13.618,15.917 8.116,21.419 10.946,24.248 16.447,18.746 21.948,24.248z"></path><title>Remove link.</title></g><g  event="link:options"><circle r="11" transform="translate(25)"></circle><path fill="white" transform="scale(.55) translate(29, -16)" d="M31.229,17.736c0.064-0.571,0.104-1.148,0.104-1.736s-0.04-1.166-0.104-1.737l-4.377-1.557c-0.218-0.716-0.504-1.401-0.851-2.05l1.993-4.192c-0.725-0.91-1.549-1.734-2.458-2.459l-4.193,1.994c-0.647-0.347-1.334-0.632-2.049-0.849l-1.558-4.378C17.165,0.708,16.588,0.667,16,0.667s-1.166,0.041-1.737,0.105L12.707,5.15c-0.716,0.217-1.401,0.502-2.05,0.849L6.464,4.005C5.554,4.73,4.73,5.554,4.005,6.464l1.994,4.192c-0.347,0.648-0.632,1.334-0.849,2.05l-4.378,1.557C0.708,14.834,0.667,15.412,0.667,16s0.041,1.165,0.105,1.736l4.378,1.558c0.217,0.715,0.502,1.401,0.849,2.049l-1.994,4.193c0.725,0.909,1.549,1.733,2.459,2.458l4.192-1.993c0.648,0.347,1.334,0.633,2.05,0.851l1.557,4.377c0.571,0.064,1.148,0.104,1.737,0.104c0.588,0,1.165-0.04,1.736-0.104l1.558-4.377c0.715-0.218,1.399-0.504,2.049-0.851l4.193,1.993c0.909-0.725,1.733-1.549,2.458-2.458l-1.993-4.193c0.347-0.647,0.633-1.334,0.851-2.049L31.229,17.736zM16,20.871c-2.69,0-4.872-2.182-4.872-4.871c0-2.69,2.182-4.872,4.872-4.872c2.689,0,4.871,2.182,4.871,4.872C20.871,18.689,18.689,20.871,16,20.871z"></path><title>Link options.</title></g></g></g></g><!--z-index:36--><g   id="j_121" ><path  stroke="#444444" d="M 820 464 L 820 764" id="v-1702" stroke-width="2" stroke-dasharray="30 30" fill="none" style="opacity: 1;"></path><path  fill="black" stroke="black" d="M 0 0 0 0" transform="matrix(6.123233995736766e-17,1,-1,6.123233995736766e-17,820,464)"></path><path  fill="#444444" stroke="#444444" d="M 20 0 L 0 10 L 20 20 z" id="v-1704" transform="matrix(-1.8369701987210297e-16,-1,1,-1.8369701987210297e-16,810.0000000000001,763.9999999999998)" style="opacity: 1;"></path><path  d="M 820 464 L 820 764" id="v-1703" fill="none" style="cursor: auto; pointer-events: visiblepainted;"></path><g ><g id="v-1696"  label-idx="0" cursor="move" transform="matrix(1,0,0,1,820,614)" style="cursor: default; opacity: 1;"><rect joint-selector="rect" id="v-1699" fill="#ffffff" rx="3" ry="3" pointer-events="none" width="69.81790161132812" height="31.60326099395752" transform="matrix(1,0,0,1,-34.4,-15.8)"></rect><text joint-selector="text" id="v-1698" font-size="24px" xml:space="preserve" y="0.8em" fill="#444444" text-anchor="middle" pointer-events="none" font-family="Open Sans" font-weight="normal" transform="matrix(1,0,0,1,0,-9.1)"><tspan dy="0" >Utiliza</tspan></text></g><g id="v-1697"  label-idx="1" cursor="move" transform="matrix(1,0,0,1,810,626)" style="cursor: default; opacity: 1;"><rect joint-selector="rect" id="v-1701" fill="#ffffff" rx="3" ry="3"  width="0" height="0" transform="matrix(1,0,0,1,0,0)" display="none"></rect><text joint-selector="text" id="v-1700" fill="#000000" font-size="14" text-anchor="middle" pointer-events="none"></text></g></g><g  display="none" style="display: none;"></g><g  id="v-1706" display="none"><g  id="v-1694"><path  end="source" d="M 26 0 L 0 13 L 26 26 z"></path></g><g  id="v-1695"><path  end="target" d="M 26 0 L 0 13 L 26 26 z"></path></g></g><g  id="v-1705" display="none"><g  id="v-1693" transform="translate(820.0000000000001, 504) "><g  event="remove"><circle r="11"></circle><path transform="scale(.8) translate(-16, -16)" d="M24.778,21.419 19.276,15.917 24.777,10.415 21.949,7.585 16.447,13.087 10.945,7.585 8.117,10.415 13.618,15.917 8.116,21.419 10.946,24.248 16.447,18.746 21.948,24.248z"></path><title>Remove link.</title></g><g  event="link:options"><circle r="11" transform="translate(25)"></circle><path fill="white" transform="scale(.55) translate(29, -16)" d="M31.229,17.736c0.064-0.571,0.104-1.148,0.104-1.736s-0.04-1.166-0.104-1.737l-4.377-1.557c-0.218-0.716-0.504-1.401-0.851-2.05l1.993-4.192c-0.725-0.91-1.549-1.734-2.458-2.459l-4.193,1.994c-0.647-0.347-1.334-0.632-2.049-0.849l-1.558-4.378C17.165,0.708,16.588,0.667,16,0.667s-1.166,0.041-1.737,0.105L12.707,5.15c-0.716,0.217-1.401,0.502-2.05,0.849L6.464,4.005C5.554,4.73,4.73,5.554,4.005,6.464l1.994,4.192c-0.347,0.648-0.632,1.334-0.849,2.05l-4.378,1.557C0.708,14.834,0.667,15.412,0.667,16s0.041,1.165,0.105,1.736l4.378,1.558c0.217,0.715,0.502,1.401,0.849,2.049l-1.994,4.193c0.725,0.909,1.549,1.733,2.459,2.458l4.192-1.993c0.648,0.347,1.334,0.633,2.05,0.851l1.557,4.377c0.571,0.064,1.148,0.104,1.737,0.104c0.588,0,1.165-0.04,1.736-0.104l1.558-4.377c0.715-0.218,1.399-0.504,2.049-0.851l4.193,1.993c0.909-0.725,1.733-1.549,2.458-2.458l-1.993-4.193c0.347-0.647,0.633-1.334,0.851-2.049L31.229,17.736zM16,20.871c-2.69,0-4.872-2.182-4.872-4.871c0-2.69,2.182-4.872,4.872-4.872c2.689,0,4.871,2.182,4.871,4.872C20.871,18.689,18.689,20.871,16,20.871z"></path><title>Link options.</title></g></g></g></g><!--z-index:37--><!--z-index:38--><!--z-index:39--><!--z-index:40--><!--z-index:41--><!--z-index:42--><!--z-index:43--><!--z-index:44--><!--z-index:45--><!--z-index:46--><!--z-index:47--><!--z-index:48--><!--z-index:49--><!--z-index:50--><!--z-index:51--><!--z-index:52--><!--z-index:53--><!--z-index:54--><!--z-index:55--><!--z-index:56--><!--z-index:57--><!--z-index:58--><!--z-index:59--><!--z-index:60--><!--z-index:61--><!--z-index:62--><!--z-index:63--><!--z-index:64--><!--z-index:65--><!--z-index:66--><!--z-index:67--><!--z-index:68--><!--z-index:69--><!--z-index:70--><!--z-index:71--><!--z-index:72--><!--z-index:73--><!--z-index:74--><!--z-index:75--><!--z-index:76--><!--z-index:77--><!--z-index:78--><!--z-index:79--><!--z-index:80--><!--z-index:81--><!--z-index:82--><!--z-index:83--><!--z-index:84--><!--z-index:85--><!--z-index:86--><!--z-index:87--><!--z-index:88--><!--z-index:89--><!--z-index:90--><!--z-index:91--></g><g ></g><g ></g><g ></g></g></svg>