<svg xmlns="http://www.w3.org/2000/svg" xmlns:xlink="http://www.w3.org/1999/xlink" version="1.1" viewBox="0 0 3140 2011" style="background: #ffffff"><defs><style>@import url(https://fonts.googleapis.com/css?family=Open+Sans:400,700);</style></defs><defs joint-selector="defs"></defs><g joint-selector="layers"  transform="matrix(1,0,0,1,0,0)"><g ></g><g ><!--z-index:0--><!--z-index:1--><!--z-index:2--><!--z-index:3--><!--z-index:4--><!--z-index:5--><!--z-index:6--><!--z-index:7--><!--z-index:8--><!--z-index:9--><!--z-index:10--><!--z-index:11--><!--z-index:12--><!--z-index:13--><!--z-index:14--><!--z-index:15--><!--z-index:16--><!--z-index:17--><!--z-index:18--><g   id="j_190"  transform="translate(20,1969)"><g id="v-2577"><text  id="v-2578" font-size="22px" xml:space="preserve" y="0.8em" font-weight="normal" text-anchor="start" fill="#444444" pointer-events="none" display="block" font-family="Open Sans"><tspan dy="0" >domingo, 19 de octubre de 2025, 19:52 hora estándar de Perú</tspan></text></g></g><!--z-index:19--><g   id="j_189"  transform="translate(20,1937)"><g id="v-2575"><text  id="v-2576" font-size="22px" xml:space="preserve" y="0.8em" font-weight="normal" text-anchor="start" fill="#444444" pointer-events="none" display="block" font-family="Open Sans"><tspan dy="0" >Componentes del Microservicio de Pagos (Módulo 3)</tspan></text></g></g><!--z-index:20--><g   id="j_188"  transform="translate(20,1891)"><g id="v-2573"><text  id="v-2574" font-size="36px" xml:space="preserve" y="0.8em" font-weight="normal" text-anchor="start" fill="#444444" pointer-events="none" display="block" font-family="Open Sans"><tspan dy="0" >[Component] NEXUS - Microservicio de Pagos</tspan></text></g></g><!--z-index:21--><g   id="j_192"  transform="translate(200,144)" style=""><g id="v-2597"><rect  id="v-2598" width="2740" height="1611" rx="0" ry="0" stroke-width="2" stroke-dasharray="20,20" pointer-events="none" stroke="#3c7fc0" fill="#ffffff"></rect><text  id="v-2599" font-size="24px" xml:space="preserve" y="1572" font-weight="normal" text-anchor="start" pointer-events="visible" font-family="Open Sans" fill="#3c7fc0" transform="matrix(1,0,0,1,15,0)"><tspan dy="0" >Microservicio de Pagos</tspan></text><text  id="v-2600" font-size="17px" xml:space="preserve" y="1596" font-weight="normal" text-anchor="start" pointer-events="visible" font-family="Open Sans" fill="#3c7fc0" transform="matrix(1,0,0,1,15,0)"><tspan dy="0" >[Container]</tspan></text><image  id="v-2601" pointer-events="visible"></image></g></g><!--z-index:22--><g   id="j_191"  transform="translate(1345,164)" style=""><g  id="v-2588" style="opacity: 1;"><rect  id="v-2589" rx="10" ry="10" stroke-width="2" pointer-events="visiblePainted" fill="#85bbf0" stroke="#78a8d8" x="37.5" width="412.5" height="300" style="fill: rgb(133, 187, 240); stroke: rgb(120, 168, 216);"></rect><rect  id="v-2590" rx="5" ry="5" stroke-width="2" pointer-events="visiblePainted" fill="#85bbf0" stroke="#78a8d8" x="0" y="22.5" width="75" height="37.5" style="fill: rgb(133, 187, 240); stroke: rgb(120, 168, 216);"></rect><rect  id="v-2591" rx="5" ry="5" stroke-width="2" pointer-events="visiblePainted" fill="#85bbf0" stroke="#78a8d8" x="0" y="75" width="75" height="37.5" style="fill: rgb(133, 187, 240); stroke: rgb(120, 168, 216);"></rect><text  id="v-2592" font-size="34" xml:space="preserve" y="66.2" font-weight="bold" text-anchor="middle" pointer-events="visible" font-family="Open Sans" fill="#000000" dominant-baseline="hanging" transform="matrix(1,0,0,1,243.8,0)" style="fill: rgb(0, 0, 0);"><tspan dy="0" >Payments</tspan><tspan dy="1.2em" x="0" >Controller</tspan></text><text  id="v-2593" font-size="17" xml:space="preserve" y="149" text-anchor="middle" font-family="Open Sans" fill="#000000" dominant-baseline="hanging" transform="matrix(1,0,0,1,243.8,0)" style="display: block; fill: rgb(0, 0, 0);"><tspan dy="0" >[Component: Express Controller]</tspan></text><text  id="v-2594" font-size="24" xml:space="preserve" y="181" text-anchor="middle" font-family="Open Sans" fill="#000000" dominant-baseline="hanging" transform="matrix(1,0,0,1,243.8,0)" style="display: block; fill: rgb(0, 0, 0);"><tspan dy="0" >POST /payments, GET</tspan><tspan dy="1.2em" x="0" >/transactions, GET /balance</tspan></text><g  id="v-2595" font-weight="normal" text-anchor="middle" color="#000000" transform="matrix(1,0,0,1,241.5,268)" display="none" style="fill: rgb(0, 0, 0);"><g ></g><g ></g><g ></g><g ></g></g><image  id="v-2596"></image></g></g><!--z-index:23--><g   id="j_193"  transform="translate(595,164)" style=""><g  id="v-2611" style="opacity: 1;"><rect  id="v-2612" rx="10" ry="10" stroke-width="2" pointer-events="visiblePainted" fill="#85bbf0" stroke="#78a8d8" x="37.5" width="412.5" height="300" style="fill: rgb(133, 187, 240); stroke: rgb(120, 168, 216);"></rect><rect  id="v-2613" rx="5" ry="5" stroke-width="2" pointer-events="visiblePainted" fill="#85bbf0" stroke="#78a8d8" x="0" y="22.5" width="75" height="37.5" style="fill: rgb(133, 187, 240); stroke: rgb(120, 168, 216);"></rect><rect  id="v-2614" rx="5" ry="5" stroke-width="2" pointer-events="visiblePainted" fill="#85bbf0" stroke="#78a8d8" x="0" y="75" width="75" height="37.5" style="fill: rgb(133, 187, 240); stroke: rgb(120, 168, 216);"></rect><text  id="v-2615" font-size="34" xml:space="preserve" y="66.2" font-weight="bold" text-anchor="middle" pointer-events="visible" font-family="Open Sans" fill="#000000" dominant-baseline="hanging" transform="matrix(1,0,0,1,243.8,0)" style="fill: rgb(0, 0, 0);"><tspan dy="0" >Webhook</tspan><tspan dy="1.2em" x="0" >Controller</tspan></text><text  id="v-2616" font-size="17" xml:space="preserve" y="149" text-anchor="middle" font-family="Open Sans" fill="#000000" dominant-baseline="hanging" transform="matrix(1,0,0,1,243.8,0)" style="display: block; fill: rgb(0, 0, 0);"><tspan dy="0" >[Component: Express Controller]</tspan></text><text  id="v-2617" font-size="24" xml:space="preserve" y="181" text-anchor="middle" font-family="Open Sans" fill="#000000" dominant-baseline="hanging" transform="matrix(1,0,0,1,243.8,0)" style="display: block; fill: rgb(0, 0, 0);"><tspan dy="0" >POST /webhooks/stripe</tspan><tspan dy="1.2em" x="0" >(recibe eventos de Stripe)</tspan></text><g  id="v-2618" font-weight="normal" text-anchor="middle" color="#000000" transform="matrix(1,0,0,1,241.5,268)" display="none" style="fill: rgb(0, 0, 0);"><g ></g><g ></g><g ></g><g ></g></g><image  id="v-2619"></image></g></g><!--z-index:24--><g   id="j_194"  transform="translate(1157,764)" style=""><g  id="v-2629" style="opacity: 1;"><rect  id="v-2630" rx="10" ry="10" stroke-width="2" pointer-events="visiblePainted" fill="#85bbf0" stroke="#78a8d8" x="37.5" width="412.5" height="300" style="fill: rgb(133, 187, 240); stroke: rgb(120, 168, 216);"></rect><rect  id="v-2631" rx="5" ry="5" stroke-width="2" pointer-events="visiblePainted" fill="#85bbf0" stroke="#78a8d8" x="0" y="22.5" width="75" height="37.5" style="fill: rgb(133, 187, 240); stroke: rgb(120, 168, 216);"></rect><rect  id="v-2632" rx="5" ry="5" stroke-width="2" pointer-events="visiblePainted" fill="#85bbf0" stroke="#78a8d8" x="0" y="75" width="75" height="37.5" style="fill: rgb(133, 187, 240); stroke: rgb(120, 168, 216);"></rect><text  id="v-2633" font-size="34" xml:space="preserve" y="72.2" font-weight="bold" text-anchor="middle" pointer-events="visible" font-family="Open Sans" fill="#000000" dominant-baseline="hanging" transform="matrix(1,0,0,1,243.8,0)" style="fill: rgb(0, 0, 0);"><tspan dy="0" >Payments Service</tspan></text><text  id="v-2634" font-size="17" xml:space="preserve" y="114.2" text-anchor="middle" font-family="Open Sans" fill="#000000" dominant-baseline="hanging" transform="matrix(1,0,0,1,243.8,0)" style="display: block; fill: rgb(0, 0, 0);"><tspan dy="0" >[Component: Business Logic]</tspan></text><text  id="v-2635" font-size="24" xml:space="preserve" y="146.2" text-anchor="middle" font-family="Open Sans" fill="#000000" dominant-baseline="hanging" transform="matrix(1,0,0,1,243.8,0)" style="display: block; fill: rgb(0, 0, 0);"><tspan dy="0" >Procesa pagos, calcula</tspan><tspan dy="1.2em" x="0" >comisiones (10%), gestiona</tspan><tspan dy="1.2em" x="0" >escrow</tspan></text><g  id="v-2636" font-weight="normal" text-anchor="middle" color="#000000" transform="matrix(1,0,0,1,241.5,268)" display="none" style="fill: rgb(0, 0, 0);"><g ></g><g ></g><g ></g><g ></g></g><image  id="v-2637"></image></g></g><!--z-index:25--><g   id="j_195"  transform="translate(220,1364)" style=""><g  id="v-2647" style="opacity: 1;"><rect  id="v-2648" rx="10" ry="10" stroke-width="2" pointer-events="visiblePainted" fill="#85bbf0" stroke="#78a8d8" x="37.5" width="412.5" height="300" style="fill: rgb(133, 187, 240); stroke: rgb(120, 168, 216);"></rect><rect  id="v-2649" rx="5" ry="5" stroke-width="2" pointer-events="visiblePainted" fill="#85bbf0" stroke="#78a8d8" x="0" y="22.5" width="75" height="37.5" style="fill: rgb(133, 187, 240); stroke: rgb(120, 168, 216);"></rect><rect  id="v-2650" rx="5" ry="5" stroke-width="2" pointer-events="visiblePainted" fill="#85bbf0" stroke="#78a8d8" x="0" y="75" width="75" height="37.5" style="fill: rgb(133, 187, 240); stroke: rgb(120, 168, 216);"></rect><text  id="v-2651" font-size="34" xml:space="preserve" y="66.2" font-weight="bold" text-anchor="middle" pointer-events="visible" font-family="Open Sans" fill="#000000" dominant-baseline="hanging" transform="matrix(1,0,0,1,243.8,0)" style="fill: rgb(0, 0, 0);"><tspan dy="0" >Commission</tspan><tspan dy="1.2em" x="0" >Calculator</tspan></text><text  id="v-2652" font-size="17" xml:space="preserve" y="149" text-anchor="middle" font-family="Open Sans" fill="#000000" dominant-baseline="hanging" transform="matrix(1,0,0,1,243.8,0)" style="display: block; fill: rgb(0, 0, 0);"><tspan dy="0" >[Component: Business Logic]</tspan></text><text  id="v-2653" font-size="24" xml:space="preserve" y="181" text-anchor="middle" font-family="Open Sans" fill="#000000" dominant-baseline="hanging" transform="matrix(1,0,0,1,243.8,0)" style="display: block; fill: rgb(0, 0, 0);"><tspan dy="0" >Calcula comisiones de</tspan><tspan dy="1.2em" x="0" >plataforma e impuestos</tspan></text><g  id="v-2654" font-weight="normal" text-anchor="middle" color="#000000" transform="matrix(1,0,0,1,241.5,268)" display="none" style="fill: rgb(0, 0, 0);"><g ></g><g ></g><g ></g><g ></g></g><image  id="v-2655"></image></g></g><!--z-index:26--><g   id="j_196"  transform="translate(970,1364)" style=""><g  id="v-2662" style="opacity: 1;"><rect  id="v-2663" rx="10" ry="10" stroke-width="2" pointer-events="visiblePainted" fill="#85bbf0" stroke="#78a8d8" x="37.5" width="412.5" height="300" style="fill: rgb(133, 187, 240); stroke: rgb(120, 168, 216);"></rect><rect  id="v-2664" rx="5" ry="5" stroke-width="2" pointer-events="visiblePainted" fill="#85bbf0" stroke="#78a8d8" x="0" y="22.5" width="75" height="37.5" style="fill: rgb(133, 187, 240); stroke: rgb(120, 168, 216);"></rect><rect  id="v-2665" rx="5" ry="5" stroke-width="2" pointer-events="visiblePainted" fill="#85bbf0" stroke="#78a8d8" x="0" y="75" width="75" height="37.5" style="fill: rgb(133, 187, 240); stroke: rgb(120, 168, 216);"></rect><text  id="v-2666" font-size="34" xml:space="preserve" y="51.80000000000001" font-weight="bold" text-anchor="middle" pointer-events="visible" font-family="Open Sans" fill="#000000" dominant-baseline="hanging" transform="matrix(1,0,0,1,243.8,0)" style="fill: rgb(0, 0, 0);"><tspan dy="0" >Payments</tspan><tspan dy="1.2em" x="0" >Repository</tspan></text><text  id="v-2667" font-size="17" xml:space="preserve" y="134.60000000000002" text-anchor="middle" font-family="Open Sans" fill="#000000" dominant-baseline="hanging" transform="matrix(1,0,0,1,243.8,0)" style="display: block; fill: rgb(0, 0, 0);"><tspan dy="0" >[Component: Data Access]</tspan></text><text  id="v-2668" font-size="24" xml:space="preserve" y="166.60000000000002" text-anchor="middle" font-family="Open Sans" fill="#000000" dominant-baseline="hanging" transform="matrix(1,0,0,1,243.8,0)" style="display: block; fill: rgb(0, 0, 0);"><tspan dy="0" >Transacciones ACID en</tspan><tspan dy="1.2em" x="0" >PostgreSQL: transactions,</tspan><tspan dy="1.2em" x="0" >balance, escrow</tspan></text><g  id="v-2669" font-weight="normal" text-anchor="middle" color="#000000" transform="matrix(1,0,0,1,241.5,268)" display="none" style="fill: rgb(0, 0, 0);"><g ></g><g ></g><g ></g><g ></g></g><image  id="v-2670"></image></g></g><!--z-index:27--><g   id="j_197"  transform="translate(1720,1364)" style=""><g  id="v-2680" style="opacity: 1;"><rect  id="v-2681" rx="10" ry="10" stroke-width="2" pointer-events="visiblePainted" fill="#85bbf0" stroke="#78a8d8" x="37.5" width="412.5" height="300" style="fill: rgb(133, 187, 240); stroke: rgb(120, 168, 216);"></rect><rect  id="v-2682" rx="5" ry="5" stroke-width="2" pointer-events="visiblePainted" fill="#85bbf0" stroke="#78a8d8" x="0" y="22.5" width="75" height="37.5" style="fill: rgb(133, 187, 240); stroke: rgb(120, 168, 216);"></rect><rect  id="v-2683" rx="5" ry="5" stroke-width="2" pointer-events="visiblePainted" fill="#85bbf0" stroke="#78a8d8" x="0" y="75" width="75" height="37.5" style="fill: rgb(133, 187, 240); stroke: rgb(120, 168, 216);"></rect><text  id="v-2684" font-size="34" xml:space="preserve" y="86.6" font-weight="bold" text-anchor="middle" pointer-events="visible" font-family="Open Sans" fill="#000000" dominant-baseline="hanging" transform="matrix(1,0,0,1,243.8,0)" style="fill: rgb(0, 0, 0);"><tspan dy="0" >Stripe Integrator</tspan></text><text  id="v-2685" font-size="17" xml:space="preserve" y="128.6" text-anchor="middle" font-family="Open Sans" fill="#000000" dominant-baseline="hanging" transform="matrix(1,0,0,1,243.8,0)" style="display: block; fill: rgb(0, 0, 0);"><tspan dy="0" >[Component: Payment Gateway Client]</tspan></text><text  id="v-2686" font-size="24" xml:space="preserve" y="160.6" text-anchor="middle" font-family="Open Sans" fill="#000000" dominant-baseline="hanging" transform="matrix(1,0,0,1,243.8,0)" style="display: block; fill: rgb(0, 0, 0);"><tspan dy="0" >PaymentIntent, Charges,</tspan><tspan dy="1.2em" x="0" >Transfers, Webhooks</tspan></text><g  id="v-2687" font-weight="normal" text-anchor="middle" color="#000000" transform="matrix(1,0,0,1,241.5,268)" display="none" style="fill: rgb(0, 0, 0);"><g ></g><g ></g><g ></g><g ></g></g><image  id="v-2688"></image></g></g><!--z-index:28--><g   id="j_198"  transform="translate(2470,1364)" style=""><g  id="v-2698" style="opacity: 1;"><rect  id="v-2699" rx="10" ry="10" stroke-width="2" pointer-events="visiblePainted" fill="#85bbf0" stroke="#78a8d8" x="37.5" width="412.5" height="300" style="fill: rgb(133, 187, 240); stroke: rgb(120, 168, 216);"></rect><rect  id="v-2700" rx="5" ry="5" stroke-width="2" pointer-events="visiblePainted" fill="#85bbf0" stroke="#78a8d8" x="0" y="22.5" width="75" height="37.5" style="fill: rgb(133, 187, 240); stroke: rgb(120, 168, 216);"></rect><rect  id="v-2701" rx="5" ry="5" stroke-width="2" pointer-events="visiblePainted" fill="#85bbf0" stroke="#78a8d8" x="0" y="75" width="75" height="37.5" style="fill: rgb(133, 187, 240); stroke: rgb(120, 168, 216);"></rect><text  id="v-2702" font-size="34" xml:space="preserve" y="72.2" font-weight="bold" text-anchor="middle" pointer-events="visible" font-family="Open Sans" fill="#000000" dominant-baseline="hanging" transform="matrix(1,0,0,1,243.8,0)" style="fill: rgb(0, 0, 0);"><tspan dy="0" >Event Publisher</tspan></text><text  id="v-2703" font-size="17" xml:space="preserve" y="114.2" text-anchor="middle" font-family="Open Sans" fill="#000000" dominant-baseline="hanging" transform="matrix(1,0,0,1,243.8,0)" style="display: block; fill: rgb(0, 0, 0);"><tspan dy="0" >[Component: Event Publisher]</tspan></text><text  id="v-2704" font-size="24" xml:space="preserve" y="146.2" text-anchor="middle" font-family="Open Sans" fill="#000000" dominant-baseline="hanging" transform="matrix(1,0,0,1,243.8,0)" style="display: block; fill: rgb(0, 0, 0);"><tspan dy="0" >Publica:</tspan><tspan dy="1.2em" x="0" >PaymentCompleted,</tspan><tspan dy="1.2em" x="0" >PaymentFailed</tspan></text><g  id="v-2705" font-weight="normal" text-anchor="middle" color="#000000" transform="matrix(1,0,0,1,241.5,268)" display="none" style="fill: rgb(0, 0, 0);"><g ></g><g ></g><g ></g><g ></g></g><image  id="v-2706"></image></g></g><!--z-index:29--><g   id="j_199" ><path  stroke="#444444" d="M 1523 464 L 1429 764" id="v-2716" stroke-width="2" stroke-dasharray="30 30" fill="none" style="opacity: 1;"></path><path  fill="black" stroke="black" d="M 0 0 0 0" transform="matrix(-0.29899939426751826,0.9542533008733358,-0.9542533008733358,-0.29899939426751826,1523,464)"></path><path  fill="#444444" stroke="#444444" d="M 20 0 L 0 10 L 20 20 z" id="v-2718" transform="matrix(0.2989995213340284,-0.9542532610591498,0.9542532610591498,0.2989995213340284,1419.4574624104434,761.0099958933448)" style="opacity: 1;"></path><path  d="M 1523 464 L 1429 764" id="v-2717" fill="none" style="cursor: auto; pointer-events: visiblepainted;"></path><g ><g id="v-2710"  label-idx="0" cursor="move" transform="matrix(1,0,0,1,1476,614)" style="cursor: default; opacity: 1;"><rect joint-selector="rect" id="v-2713" fill="#ffffff" rx="3" ry="3" pointer-events="none" width="69.81790161132812" height="31.60326099395752" transform="matrix(1,0,0,1,-34.4,-15.8)"></rect><text joint-selector="text" id="v-2712" font-size="24px" xml:space="preserve" y="0.8em" fill="#444444" text-anchor="middle" pointer-events="none" font-family="Open Sans" font-weight="normal" transform="matrix(1,0,0,1,0,-9.1)"><tspan dy="0" >Utiliza</tspan></text></g><g id="v-2711"  label-idx="1" cursor="move" transform="matrix(1,0,0,1,1466,626)" style="cursor: default; opacity: 1;"><rect joint-selector="rect" id="v-2715" fill="#ffffff" rx="3" ry="3"  width="0" height="0" transform="matrix(1,0,0,1,0,0)" display="none"></rect><text joint-selector="text" id="v-2714" fill="#000000" font-size="14" text-anchor="middle" pointer-events="none"></text></g></g><g  display="none" style="display: none;"></g><g  id="v-2720" display="none"><g  id="v-2708"><path  end="source" d="M 26 0 L 0 13 L 26 26 z"></path></g><g  id="v-2709"><path  end="target" d="M 26 0 L 0 13 L 26 26 z"></path></g></g><g  id="v-2719" display="none"><g  id="v-2707" transform="translate(1511.0400252003824, 502.17013233920613) "><g  event="remove"><circle r="11"></circle><path transform="scale(.8) translate(-16, -16)" d="M24.778,21.419 19.276,15.917 24.777,10.415 21.949,7.585 16.447,13.087 10.945,7.585 8.117,10.415 13.618,15.917 8.116,21.419 10.946,24.248 16.447,18.746 21.948,24.248z"></path><title>Remove link.</title></g><g  event="link:options"><circle r="11" transform="translate(25)"></circle><path fill="white" transform="scale(.55) translate(29, -16)" d="M31.229,17.736c0.064-0.571,0.104-1.148,0.104-1.736s-0.04-1.166-0.104-1.737l-4.377-1.557c-0.218-0.716-0.504-1.401-0.851-2.05l1.993-4.192c-0.725-0.91-1.549-1.734-2.458-2.459l-4.193,1.994c-0.647-0.347-1.334-0.632-2.049-0.849l-1.558-4.378C17.165,0.708,16.588,0.667,16,0.667s-1.166,0.041-1.737,0.105L12.707,5.15c-0.716,0.217-1.401,0.502-2.05,0.849L6.464,4.005C5.554,4.73,4.73,5.554,4.005,6.464l1.994,4.192c-0.347,0.648-0.632,1.334-0.849,2.05l-4.378,1.557C0.708,14.834,0.667,15.412,0.667,16s0.041,1.165,0.105,1.736l4.378,1.558c0.217,0.715,0.502,1.401,0.849,2.049l-1.994,4.193c0.725,0.909,1.549,1.733,2.459,2.458l4.192-1.993c0.648,0.347,1.334,0.633,2.05,0.851l1.557,4.377c0.571,0.064,1.148,0.104,1.737,0.104c0.588,0,1.165-0.04,1.736-0.104l1.558-4.377c0.715-0.218,1.399-0.504,2.049-0.851l4.193,1.993c0.909-0.725,1.733-1.549,2.458-2.458l-1.993-4.193c0.347-0.647,0.633-1.334,0.851-2.049L31.229,17.736zM16,20.871c-2.69,0-4.872-2.182-4.872-4.871c0-2.69,2.182-4.872,4.872-4.872c2.689,0,4.871,2.182,4.871,4.872C20.871,18.689,18.689,20.871,16,20.871z"></path><title>Link options.</title></g></g></g></g><!--z-index:30--><g   id="j_200" ><path  stroke="#444444" d="M 961 464 L 1242 764" id="v-2733" stroke-width="2" stroke-dasharray="30 30" fill="none" style="opacity: 1;"></path><path  fill="black" stroke="black" d="M 0 0 0 0" transform="matrix(0.6836173759376942,0.729840587605308,-0.729840587605308,0.6836173759376942,960.5,464)"></path><path  fill="#444444" stroke="#444444" d="M 20 0 L 0 10 L 20 20 z" id="v-2735" transform="matrix(-0.683617375937694,-0.7298405876053081,0.7298405876053081,-0.683617375937694,1234.2015862426988,770.8361787565236)" style="opacity: 1;"></path><path  d="M 961 464 L 1242 764" id="v-2734" fill="none" style="cursor: auto; pointer-events: visiblepainted;"></path><g ><g id="v-2727"  label-idx="0" cursor="move" transform="matrix(1,0,0,1,1101.5,614)" style="cursor: default; opacity: 1;"><rect joint-selector="rect" id="v-2730" fill="#ffffff" rx="3" ry="3" pointer-events="none" width="168.92481994628906" height="31.60326099395752" transform="matrix(1,0,0,1,-84.5,-15.8)"></rect><text joint-selector="text" id="v-2729" font-size="24px" xml:space="preserve" y="0.8em" fill="#444444" text-anchor="middle" pointer-events="none" font-family="Open Sans" font-weight="normal" transform="matrix(1,0,0,1,0,-9.1)"><tspan dy="0" >Notifica evento</tspan></text></g><g id="v-2728"  label-idx="1" cursor="move" transform="matrix(1,0,0,1,1091.5,626)" style="cursor: default; opacity: 1;"><rect joint-selector="rect" id="v-2732" fill="#ffffff" rx="3" ry="3"  width="0" height="0" transform="matrix(1,0,0,1,0,0)" display="none"></rect><text joint-selector="text" id="v-2731" fill="#000000" font-size="14" text-anchor="middle" pointer-events="none"></text></g></g><g  display="none" style="display: none;"></g><g  id="v-2737" display="none"><g  id="v-2725"><path  end="source" d="M 26 0 L 0 13 L 26 26 z"></path></g><g  id="v-2726"><path  end="target" d="M 26 0 L 0 13 L 26 26 z"></path></g></g><g  id="v-2736" display="none"><g  id="v-2724" transform="translate(988.3446944931774, 493.19362401406846) "><g  event="remove"><circle r="11"></circle><path transform="scale(.8) translate(-16, -16)" d="M24.778,21.419 19.276,15.917 24.777,10.415 21.949,7.585 16.447,13.087 10.945,7.585 8.117,10.415 13.618,15.917 8.116,21.419 10.946,24.248 16.447,18.746 21.948,24.248z"></path><title>Remove link.</title></g><g  event="link:options"><circle r="11" transform="translate(25)"></circle><path fill="white" transform="scale(.55) translate(29, -16)" d="M31.229,17.736c0.064-0.571,0.104-1.148,0.104-1.736s-0.04-1.166-0.104-1.737l-4.377-1.557c-0.218-0.716-0.504-1.401-0.851-2.05l1.993-4.192c-0.725-0.91-1.549-1.734-2.458-2.459l-4.193,1.994c-0.647-0.347-1.334-0.632-2.049-0.849l-1.558-4.378C17.165,0.708,16.588,0.667,16,0.667s-1.166,0.041-1.737,0.105L12.707,5.15c-0.716,0.217-1.401,0.502-2.05,0.849L6.464,4.005C5.554,4.73,4.73,5.554,4.005,6.464l1.994,4.192c-0.347,0.648-0.632,1.334-0.849,2.05l-4.378,1.557C0.708,14.834,0.667,15.412,0.667,16s0.041,1.165,0.105,1.736l4.378,1.558c0.217,0.715,0.502,1.401,0.849,2.049l-1.994,4.193c0.725,0.909,1.549,1.733,2.459,2.458l4.192-1.993c0.648,0.347,1.334,0.633,2.05,0.851l1.557,4.377c0.571,0.064,1.148,0.104,1.737,0.104c0.588,0,1.165-0.04,1.736-0.104l1.558-4.377c0.715-0.218,1.399-0.504,2.049-0.851l4.193,1.993c0.909-0.725,1.733-1.549,2.458-2.458l-1.993-4.193c0.347-0.647,0.633-1.334,0.851-2.049L31.229,17.736zM16,20.871c-2.69,0-4.872-2.182-4.872-4.871c0-2.69,2.182-4.872,4.872-4.872c2.689,0,4.871,2.182,4.871,4.872C20.871,18.689,18.689,20.871,16,20.871z"></path><title>Link options.</title></g></g></g></g><!--z-index:31--><g   id="j_201" ><path  stroke="#444444" d="M 1157 1058 L 670 1370" id="v-2750" stroke-width="2" stroke-dasharray="30 30" fill="none" style="opacity: 1;"></path><path  fill="black" stroke="black" d="M 0 0 0 0" transform="matrix(-0.8421408400542756,0.5392576429803096,-0.5392576429803096,-0.8421408400542756,1157,1058.0767822265625)"></path><path  fill="#444444" stroke="#444444" d="M 20 0 L 0 10 L 20 20 z" id="v-2752" transform="matrix(0.8421408400542755,-0.5392576429803098,0.5392576429803098,0.8421408400542755,664.6074018884044,1361.5018076776978)" style="opacity: 1;"></path><path  d="M 1157 1058 L 670 1370" id="v-2751" fill="none" style="cursor: auto; pointer-events: visiblepainted;"></path><g ><g id="v-2744"  label-idx="0" cursor="move" transform="matrix(1,0,0,1,913.5,1214)" style="cursor: default; opacity: 1;"><rect joint-selector="rect" id="v-2747" fill="#ffffff" rx="3" ry="3" pointer-events="none" width="187.1505584716797" height="31.60326099395752" transform="matrix(1,0,0,1,-93.6,-15.8)"></rect><text joint-selector="text" id="v-2746" font-size="24px" xml:space="preserve" y="0.8em" fill="#444444" text-anchor="middle" pointer-events="none" font-family="Open Sans" font-weight="normal" transform="matrix(1,0,0,1,0,-9.1)"><tspan dy="0" >Calcula comisión</tspan></text></g><g id="v-2745"  label-idx="1" cursor="move" transform="matrix(1,0,0,1,903.5,1226)" style="cursor: default; opacity: 1;"><rect joint-selector="rect" id="v-2749" fill="#ffffff" rx="3" ry="3"  width="0" height="0" transform="matrix(1,0,0,1,0,0)" display="none"></rect><text joint-selector="text" id="v-2748" fill="#000000" font-size="14" text-anchor="middle" pointer-events="none"></text></g></g><g  display="none" style="display: none;"></g><g  id="v-2754" display="none"><g  id="v-2742"><path  end="source" d="M 26 0 L 0 13 L 26 26 z"></path></g><g  id="v-2743"><path  end="target" d="M 26 0 L 0 13 L 26 26 z"></path></g></g><g  id="v-2753" display="none"><g  id="v-2741" transform="translate(1123.31919581517, 1079.577845802191) "><g  event="remove"><circle r="11"></circle><path transform="scale(.8) translate(-16, -16)" d="M24.778,21.419 19.276,15.917 24.777,10.415 21.949,7.585 16.447,13.087 10.945,7.585 8.117,10.415 13.618,15.917 8.116,21.419 10.946,24.248 16.447,18.746 21.948,24.248z"></path><title>Remove link.</title></g><g  event="link:options"><circle r="11" transform="translate(25)"></circle><path fill="white" transform="scale(.55) translate(29, -16)" d="M31.229,17.736c0.064-0.571,0.104-1.148,0.104-1.736s-0.04-1.166-0.104-1.737l-4.377-1.557c-0.218-0.716-0.504-1.401-0.851-2.05l1.993-4.192c-0.725-0.91-1.549-1.734-2.458-2.459l-4.193,1.994c-0.647-0.347-1.334-0.632-2.049-0.849l-1.558-4.378C17.165,0.708,16.588,0.667,16,0.667s-1.166,0.041-1.737,0.105L12.707,5.15c-0.716,0.217-1.401,0.502-2.05,0.849L6.464,4.005C5.554,4.73,4.73,5.554,4.005,6.464l1.994,4.192c-0.347,0.648-0.632,1.334-0.849,2.05l-4.378,1.557C0.708,14.834,0.667,15.412,0.667,16s0.041,1.165,0.105,1.736l4.378,1.558c0.217,0.715,0.502,1.401,0.849,2.049l-1.994,4.193c0.725,0.909,1.549,1.733,2.459,2.458l4.192-1.993c0.648,0.347,1.334,0.633,2.05,0.851l1.557,4.377c0.571,0.064,1.148,0.104,1.737,0.104c0.588,0,1.165-0.04,1.736-0.104l1.558-4.377c0.715-0.218,1.399-0.504,2.049-0.851l4.193,1.993c0.909-0.725,1.733-1.549,2.458-2.458l-1.993-4.193c0.347-0.647,0.633-1.334,0.851-2.049L31.229,17.736zM16,20.871c-2.69,0-4.872-2.182-4.872-4.871c0-2.69,2.182-4.872,4.872-4.872c2.689,0,4.871,2.182,4.871,4.872C20.871,18.689,18.689,20.871,16,20.871z"></path><title>Link options.</title></g></g></g></g><!--z-index:32--><g   id="j_202" ><path  stroke="#444444" d="M 1523 1064 L 1804 1364" id="v-2767" stroke-width="2" stroke-dasharray="30 30" fill="none" style="opacity: 1;"></path><path  fill="black" stroke="black" d="M 0 0 0 0" transform="matrix(0.6842644991422012,0.7292339098078698,-0.7292339098078698,0.6842644991422012,1522.75,1064)"></path><path  fill="#444444" stroke="#444444" d="M 20 0 L 0 10 L 20 20 z" id="v-2769" transform="matrix(-0.6842645476938839,-0.7292338642502036,0.7292338642502036,-0.6842645476938839,1796.9576554672492,1370.842625721003)" style="opacity: 1;"></path><path  d="M 1523 1064 L 1804 1364" id="v-2768" fill="none" style="cursor: auto; pointer-events: visiblepainted;"></path><g ><g id="v-2761"  label-idx="0" cursor="move" transform="matrix(1,0,0,1,1663.5,1214)" style="cursor: default; opacity: 1;"><rect joint-selector="rect" id="v-2764" fill="#ffffff" rx="3" ry="3" pointer-events="none" width="135.3014678955078" height="60.40326499938965" transform="matrix(1,0,0,1,-67.7,-30.2)"></rect><text joint-selector="text" id="v-2763" font-size="24px" xml:space="preserve" y="0.8em" fill="#444444" text-anchor="middle" pointer-events="none" font-family="Open Sans" font-weight="normal" transform="matrix(1,0,0,1,0,-23.5)"><tspan dy="0" >Procesa con</tspan><tspan dy="1.2em" x="0" >Stripe</tspan></text></g><g id="v-2762"  label-idx="1" cursor="move" transform="matrix(1,0,0,1,1653.5,1240.4000244140625)" style="cursor: default; opacity: 1;"><rect joint-selector="rect" id="v-2766" fill="#ffffff" rx="3" ry="3"  width="0" height="0" transform="matrix(1,0,0,1,0,0)" display="none"></rect><text joint-selector="text" id="v-2765" fill="#000000" font-size="14" text-anchor="middle" pointer-events="none"></text></g></g><g  display="none" style="display: none;"></g><g  id="v-2771" display="none"><g  id="v-2759"><path  end="source" d="M 26 0 L 0 13 L 26 26 z"></path></g><g  id="v-2760"><path  end="target" d="M 26 0 L 0 13 L 26 26 z"></path></g></g><g  id="v-2770" display="none"><g  id="v-2758" transform="translate(1550.3446944931775, 1093.1936240140685) "><g  event="remove"><circle r="11"></circle><path transform="scale(.8) translate(-16, -16)" d="M24.778,21.419 19.276,15.917 24.777,10.415 21.949,7.585 16.447,13.087 10.945,7.585 8.117,10.415 13.618,15.917 8.116,21.419 10.946,24.248 16.447,18.746 21.948,24.248z"></path><title>Remove link.</title></g><g  event="link:options"><circle r="11" transform="translate(25)"></circle><path fill="white" transform="scale(.55) translate(29, -16)" d="M31.229,17.736c0.064-0.571,0.104-1.148,0.104-1.736s-0.04-1.166-0.104-1.737l-4.377-1.557c-0.218-0.716-0.504-1.401-0.851-2.05l1.993-4.192c-0.725-0.91-1.549-1.734-2.458-2.459l-4.193,1.994c-0.647-0.347-1.334-0.632-2.049-0.849l-1.558-4.378C17.165,0.708,16.588,0.667,16,0.667s-1.166,0.041-1.737,0.105L12.707,5.15c-0.716,0.217-1.401,0.502-2.05,0.849L6.464,4.005C5.554,4.73,4.73,5.554,4.005,6.464l1.994,4.192c-0.347,0.648-0.632,1.334-0.849,2.05l-4.378,1.557C0.708,14.834,0.667,15.412,0.667,16s0.041,1.165,0.105,1.736l4.378,1.558c0.217,0.715,0.502,1.401,0.849,2.049l-1.994,4.193c0.725,0.909,1.549,1.733,2.459,2.458l4.192-1.993c0.648,0.347,1.334,0.633,2.05,0.851l1.557,4.377c0.571,0.064,1.148,0.104,1.737,0.104c0.588,0,1.165-0.04,1.736-0.104l1.558-4.377c0.715-0.218,1.399-0.504,2.049-0.851l4.193,1.993c0.909-0.725,1.733-1.549,2.458-2.458l-1.993-4.193c0.347-0.647,0.633-1.334,0.851-2.049L31.229,17.736zM16,20.871c-2.69,0-4.872-2.182-4.872-4.871c0-2.69,2.182-4.872,4.872-4.872c2.689,0,4.871,2.182,4.871,4.872C20.871,18.689,18.689,20.871,16,20.871z"></path><title>Link options.</title></g></g></g></g><!--z-index:33--><g   id="j_203" ><path  stroke="#444444" d="M 1335 1064 L 1242 1364" id="v-2784" stroke-width="2" stroke-dasharray="30 30" fill="none" style="opacity: 1;"></path><path  fill="black" stroke="black" d="M 0 0 0 0" transform="matrix(-0.2975501106981555,0.9547062017309385,-0.9547062017309385,-0.2975501106981555,1335.25,1064)"></path><path  fill="#444444" stroke="#444444" d="M 20 0 L 0 10 L 20 20 z" id="v-2786" transform="matrix(0.2975501106981554,-0.9547062017309386,0.9547062017309386,0.2975501106981554,1232.2029007428966,1361.0244417697027)" style="opacity: 1;"></path><path  d="M 1335 1064 L 1242 1364" id="v-2785" fill="none" style="cursor: auto; pointer-events: visiblepainted;"></path><g ><g id="v-2778"  label-idx="0" cursor="move" transform="matrix(1,0,0,1,1288.5,1214)" style="cursor: default; opacity: 1;"><rect joint-selector="rect" id="v-2781" fill="#ffffff" rx="3" ry="3" pointer-events="none" width="132.24887084960938" height="60.40326499938965" transform="matrix(1,0,0,1,-67.6,-30.2)"></rect><text joint-selector="text" id="v-2780" font-size="24px" xml:space="preserve" y="0.8em" fill="#444444" text-anchor="middle" pointer-events="none" font-family="Open Sans" font-weight="normal" transform="matrix(1,0,0,1,0,-23.5)"><tspan dy="0" >Guarda</tspan><tspan dy="1.2em" x="0" >transacción</tspan></text></g><g id="v-2779"  label-idx="1" cursor="move" transform="matrix(1,0,0,1,1278.5,1240.4000244140625)" style="cursor: default; opacity: 1;"><rect joint-selector="rect" id="v-2783" fill="#ffffff" rx="3" ry="3"  width="0" height="0" transform="matrix(1,0,0,1,0,0)" display="none"></rect><text joint-selector="text" id="v-2782" fill="#000000" font-size="14" text-anchor="middle" pointer-events="none"></text></g></g><g  display="none" style="display: none;"></g><g  id="v-2788" display="none"><g  id="v-2776"><path  end="source" d="M 26 0 L 0 13 L 26 26 z"></path></g><g  id="v-2777"><path  end="target" d="M 26 0 L 0 13 L 26 26 z"></path></g></g><g  id="v-2787" display="none"><g  id="v-2775" transform="translate(1323.1560491554367, 1102.206293046978) "><g  event="remove"><circle r="11"></circle><path transform="scale(.8) translate(-16, -16)" d="M24.778,21.419 19.276,15.917 24.777,10.415 21.949,7.585 16.447,13.087 10.945,7.585 8.117,10.415 13.618,15.917 8.116,21.419 10.946,24.248 16.447,18.746 21.948,24.248z"></path><title>Remove link.</title></g><g  event="link:options"><circle r="11" transform="translate(25)"></circle><path fill="white" transform="scale(.55) translate(29, -16)" d="M31.229,17.736c0.064-0.571,0.104-1.148,0.104-1.736s-0.04-1.166-0.104-1.737l-4.377-1.557c-0.218-0.716-0.504-1.401-0.851-2.05l1.993-4.192c-0.725-0.91-1.549-1.734-2.458-2.459l-4.193,1.994c-0.647-0.347-1.334-0.632-2.049-0.849l-1.558-4.378C17.165,0.708,16.588,0.667,16,0.667s-1.166,0.041-1.737,0.105L12.707,5.15c-0.716,0.217-1.401,0.502-2.05,0.849L6.464,4.005C5.554,4.73,4.73,5.554,4.005,6.464l1.994,4.192c-0.347,0.648-0.632,1.334-0.849,2.05l-4.378,1.557C0.708,14.834,0.667,15.412,0.667,16s0.041,1.165,0.105,1.736l4.378,1.558c0.217,0.715,0.502,1.401,0.849,2.049l-1.994,4.193c0.725,0.909,1.549,1.733,2.459,2.458l4.192-1.993c0.648,0.347,1.334,0.633,2.05,0.851l1.557,4.377c0.571,0.064,1.148,0.104,1.737,0.104c0.588,0,1.165-0.04,1.736-0.104l1.558-4.377c0.715-0.218,1.399-0.504,2.049-0.851l4.193,1.993c0.909-0.725,1.733-1.549,2.458-2.458l-1.993-4.193c0.347-0.647,0.633-1.334,0.851-2.049L31.229,17.736zM16,20.871c-2.69,0-4.872-2.182-4.872-4.871c0-2.69,2.182-4.872,4.872-4.872c2.689,0,4.871,2.182,4.871,4.872C20.871,18.689,18.689,20.871,16,20.871z"></path><title>Link options.</title></g></g></g></g><!--z-index:34--><g   id="j_204" ><path  stroke="#444444" d="M 1607 1017 L 2470 1411" id="v-2801" stroke-width="2" stroke-dasharray="30 30" fill="none" style="opacity: 1;"></path><path  fill="black" stroke="black" d="M 0 0 0 0" transform="matrix(0.9095343415225823,0.4156287785886374,-0.4156287785886374,0.9095343415225823,1607,1016.8179931640625)"></path><path  fill="#444444" stroke="#444444" d="M 20 0 L 0 10 L 20 20 z" id="v-2803" transform="matrix(-0.9095343830308175,-0.4156286877547677,0.4156286877547677,-0.9095343830308175,2465.8435979683854,1420.277387543793)" style="opacity: 1;"></path><path  d="M 1607 1017 L 2470 1411" id="v-2802" fill="none" style="cursor: auto; pointer-events: visiblepainted;"></path><g ><g id="v-2795"  label-idx="0" cursor="move" transform="matrix(1,0,0,1,2038.5,1214)" style="cursor: default; opacity: 1;"><rect joint-selector="rect" id="v-2798" fill="#ffffff" rx="3" ry="3" pointer-events="none" width="163.627685546875" height="31.60326099395752" transform="matrix(1,0,0,1,-81.8,-15.8)"></rect><text joint-selector="text" id="v-2797" font-size="24px" xml:space="preserve" y="0.8em" fill="#444444" text-anchor="middle" pointer-events="none" font-family="Open Sans" font-weight="normal" transform="matrix(1,0,0,1,0,-9.1)"><tspan dy="0" >Publica evento</tspan></text></g><g id="v-2796"  label-idx="1" cursor="move" transform="matrix(1,0,0,1,2028.5,1226)" style="cursor: default; opacity: 1;"><rect joint-selector="rect" id="v-2800" fill="#ffffff" rx="3" ry="3"  width="0" height="0" transform="matrix(1,0,0,1,0,0)" display="none"></rect><text joint-selector="text" id="v-2799" fill="#000000" font-size="14" text-anchor="middle" pointer-events="none"></text></g></g><g  display="none" style="display: none;"></g><g  id="v-2805" display="none"><g  id="v-2793"><path  end="source" d="M 26 0 L 0 13 L 26 26 z"></path></g><g  id="v-2794"><path  end="target" d="M 26 0 L 0 13 L 26 26 z"></path></g></g><g  id="v-2804" display="none"><g  id="v-2792" transform="translate(1643.3871738676617, 1033.6124524957806) "><g  event="remove"><circle r="11"></circle><path transform="scale(.8) translate(-16, -16)" d="M24.778,21.419 19.276,15.917 24.777,10.415 21.949,7.585 16.447,13.087 10.945,7.585 8.117,10.415 13.618,15.917 8.116,21.419 10.946,24.248 16.447,18.746 21.948,24.248z"></path><title>Remove link.</title></g><g  event="link:options"><circle r="11" transform="translate(25)"></circle><path fill="white" transform="scale(.55) translate(29, -16)" d="M31.229,17.736c0.064-0.571,0.104-1.148,0.104-1.736s-0.04-1.166-0.104-1.737l-4.377-1.557c-0.218-0.716-0.504-1.401-0.851-2.05l1.993-4.192c-0.725-0.91-1.549-1.734-2.458-2.459l-4.193,1.994c-0.647-0.347-1.334-0.632-2.049-0.849l-1.558-4.378C17.165,0.708,16.588,0.667,16,0.667s-1.166,0.041-1.737,0.105L12.707,5.15c-0.716,0.217-1.401,0.502-2.05,0.849L6.464,4.005C5.554,4.73,4.73,5.554,4.005,6.464l1.994,4.192c-0.347,0.648-0.632,1.334-0.849,2.05l-4.378,1.557C0.708,14.834,0.667,15.412,0.667,16s0.041,1.165,0.105,1.736l4.378,1.558c0.217,0.715,0.502,1.401,0.849,2.049l-1.994,4.193c0.725,0.909,1.549,1.733,2.459,2.458l4.192-1.993c0.648,0.347,1.334,0.633,2.05,0.851l1.557,4.377c0.571,0.064,1.148,0.104,1.737,0.104c0.588,0,1.165-0.04,1.736-0.104l1.558-4.377c0.715-0.218,1.399-0.504,2.049-0.851l4.193,1.993c0.909-0.725,1.733-1.549,2.458-2.458l-1.993-4.193c0.347-0.647,0.633-1.334,0.851-2.049L31.229,17.736zM16,20.871c-2.69,0-4.872-2.182-4.872-4.871c0-2.69,2.182-4.872,4.872-4.872c2.689,0,4.871,2.182,4.871,4.872C20.871,18.689,18.689,20.871,16,20.871z"></path><title>Link options.</title></g></g></g></g><!--z-index:35--><!--z-index:36--><!--z-index:37--><!--z-index:38--><!--z-index:39--><!--z-index:40--><!--z-index:41--><!--z-index:42--><!--z-index:43--><!--z-index:44--><!--z-index:45--><!--z-index:46--><!--z-index:47--><!--z-index:48--><!--z-index:49--><!--z-index:50--><!--z-index:51--><!--z-index:52--><!--z-index:53--><!--z-index:54--><!--z-index:55--><!--z-index:56--><!--z-index:57--><!--z-index:58--><!--z-index:59--><!--z-index:60--><!--z-index:61--><!--z-index:62--><!--z-index:63--><!--z-index:64--><!--z-index:65--><!--z-index:66--><!--z-index:67--><!--z-index:68--><!--z-index:69--><!--z-index:70--><!--z-index:71--><!--z-index:72--><!--z-index:73--><!--z-index:74--><!--z-index:75--><!--z-index:76--><!--z-index:77--><!--z-index:78--><!--z-index:79--><!--z-index:80--><!--z-index:81--><!--z-index:82--><!--z-index:83--><!--z-index:84--><!--z-index:85--><!--z-index:86--><!--z-index:87--><!--z-index:88--><!--z-index:89--><!--z-index:90--><!--z-index:91--></g><g ></g><g ></g><g ></g></g></svg>